<svg width="110" height="110" viewBox="0 0 110 110" fill="none" xmlns="http://www.w3.org/2000/svg">
<rect width="110" height="110" fill="#E9F2FF"/>
<path d="M66.2759 59.6979C75.0977 59.6979 82.2493 52.5464 82.2493 43.7246C82.2493 34.9027 75.0977 27.7512 66.2759 27.7512C57.4541 27.7512 50.3026 34.9027 50.3026 43.7246C50.3026 44.8901 50.4273 46.0265 50.6645 47.1211L27.752 70.0336V82.2485H39.9669L42.7857 79.4297V72.8524H49.363L54.061 68.1544V61.5771H60.6383L62.8794 59.336C63.9739 59.5731 65.1104 59.6979 66.2759 59.6979Z" stroke="#0E6EFF" stroke-width="4" stroke-linecap="round" stroke-linejoin="round"/>
<path d="M71.9127 39.9661C71.9127 41.004 71.0712 41.8453 70.0335 41.8453C68.9958 41.8453 68.1543 41.004 68.1543 39.9661C68.1543 38.9283 68.9958 38.0869 70.0335 38.0869C71.0712 38.0869 71.9127 38.9283 71.9127 39.9661Z" stroke="#0E6EFF" stroke-width="3.75844"/>
</svg>
