<?xml version="1.0" encoding="utf-8"?>
<!-- Generator: Adobe Illustrator 24.1.0, SVG Export Plug-In . SVG Version: 6.00 Build 0)  -->
<svg version="1.1" id="Layer_1" xmlns="http://www.w3.org/2000/svg" xmlns:xlink="http://www.w3.org/1999/xlink" x="0px" y="0px"
	 viewBox="0 0 583.22 501.68" style="enable-background:new 0 0 583.22 501.68;" xml:space="preserve">
<style type="text/css">
	.st0{fill:url(#SVGID_1_);}
	.st1{fill:#4E4BF9;}
	.st2{clip-path:url(#SVGID_3_);}
	.st3{fill:#FFF4FF;}
	.st4{fill:#4340D6;}
	.st5{clip-path:url(#SVGID_5_);}
	.st6{clip-path:url(#SVGID_7_);}
	.st7{clip-path:url(#SVGID_9_);fill:#4340D6;}
	.st8{clip-path:url(#SVGID_11_);fill:#4340D6;}
	.st9{clip-path:url(#SVGID_13_);fill:#4340D6;}
	.st10{clip-path:url(#SVGID_15_);fill:#4340D6;}
	.st11{clip-path:url(#SVGID_17_);fill:#4340D6;}
	.st12{clip-path:url(#SVGID_19_);fill:#4340D6;}
	.st13{clip-path:url(#SVGID_21_);fill:#4340D6;}
	.st14{clip-path:url(#SVGID_23_);fill:#4340D6;}
	.st15{clip-path:url(#SVGID_25_);fill:#4340D6;}
	.st16{clip-path:url(#SVGID_27_);fill:#4340D6;}
	.st17{clip-path:url(#SVGID_29_);fill:#4340D6;}
	.st18{clip-path:url(#SVGID_31_);fill:#4340D6;}
	.st19{clip-path:url(#SVGID_33_);fill:#4340D6;}
	.st20{clip-path:url(#SVGID_35_);}
	.st21{clip-path:url(#SVGID_37_);fill:#4340D6;}
	.st22{clip-path:url(#SVGID_39_);fill:#4340D6;}
	.st23{clip-path:url(#SVGID_41_);}
	.st24{fill:url(#SVGID_42_);}
	.st25{opacity:0.2;fill:#00B1FF;enable-background:new    ;}
	.st26{opacity:0.4;fill:#00B1FF;enable-background:new    ;}
	.st27{opacity:0.6;fill:#00B1FF;enable-background:new    ;}
	.st28{fill:#F74DED;}
	.st29{fill:#F8D275;}
	.st30{opacity:0.4;fill:#606568;enable-background:new    ;}
	.st31{fill:url(#SVGID_43_);}
	.st32{fill:#F7FFE0;}
	.st33{fill:#256BF4;}
	.st34{opacity:0.5;fill:#E0FFFC;enable-background:new    ;}
	.st35{fill:#E0FFFC;}
	.st36{fill:url(#SVGID_44_);}
	.st37{fill:url(#SVGID_45_);}
	.st38{enable-background:new    ;}
	.st39{clip-path:url(#SVGID_47_);enable-background:new    ;}
	.st40{fill:#96AE2B;}
	.st41{clip-path:url(#SVGID_49_);enable-background:new    ;}
	.st42{fill:#98B22C;}
	.st43{fill:#99B22C;}
	.st44{fill:#B2CF33;}
	.st45{clip-path:url(#SVGID_51_);enable-background:new    ;}
	.st46{fill:#96AF2B;}
	.st47{fill:#96B02B;}
	.st48{fill:#97B02B;}
	.st49{fill:#97B02C;}
	.st50{fill:#97B12C;}
	.st51{fill:#98B12C;}
	.st52{clip-path:url(#SVGID_53_);enable-background:new    ;}
	.st53{clip-path:url(#SVGID_55_);enable-background:new    ;}
	.st54{clip-path:url(#SVGID_57_);enable-background:new    ;}
	.st55{clip-path:url(#SVGID_59_);enable-background:new    ;}
	.st56{fill:#99B32C;}
	.st57{clip-path:url(#SVGID_61_);enable-background:new    ;}
	.st58{clip-path:url(#SVGID_63_);enable-background:new    ;}
	.st59{clip-path:url(#SVGID_65_);enable-background:new    ;}
	.st60{clip-path:url(#SVGID_67_);enable-background:new    ;}
	.st61{clip-path:url(#SVGID_69_);enable-background:new    ;}
	.st62{fill:url(#SVGID_70_);}
	.st63{opacity:0.6;fill:url(#SVGID_71_);enable-background:new    ;}
	.st64{fill:url(#SVGID_72_);}
	.st65{fill:url(#SVGID_73_);}
</style>
<g>
	
		<linearGradient id="SVGID_1_" gradientUnits="userSpaceOnUse" x1="67.55" y1="224.1275" x2="519.61" y2="224.1275" gradientTransform="matrix(1 0 0 -1 0 504)">
		<stop  offset="0.1311" style="stop-color:#6B5CFF"/>
		<stop  offset="0.5247" style="stop-color:#B1B1FE"/>
		<stop  offset="0.5633" style="stop-color:#92F7F3"/>
		<stop  offset="0.59" style="stop-color:#9CE0F7"/>
		<stop  offset="1" style="stop-color:#B3ABFF"/>
	</linearGradient>
	<path class="st0" d="M519.52,298.52l0.09-10.73l-13.32-1.16L275.19,152.9c-8.52-4.93-22.46-4.93-30.98-0.01l-166.8,96.3l-9.86-0.86
		l0.25,9.9l0.02,0.01c-1,3.85,1.02,7.91,6.11,10.86l238.03,137.74c8.52,4.93,22.46,4.94,30.98,0.02l170.27-98.31
		c3.72-2.15,5.81-4.89,6.29-7.71l0,0l0,0C519.63,300.07,519.63,299.29,519.52,298.52z"/>
	<path class="st1" d="M513.22,281.49c8.52,4.93,8.51,12.99-0.01,17.91l-170.27,98.3c-8.52,4.92-22.46,4.91-30.98-0.01L73.93,259.95
		c-8.52-4.93-8.51-12.99,0.01-17.91l170.27-98.31c8.52-4.92,22.46-4.91,30.98,0.02L513.22,281.49z"/>
	<path class="st1" d="M513.22,278.83c8.52,4.93,8.51,12.99-0.01,17.91l-170.27,98.31c-8.52,4.92-22.46,4.91-30.98-0.02L73.93,257.29
		c-8.52-4.93-8.51-12.99,0.01-17.91l170.27-98.31c8.52-4.92,22.46-4.91,30.98,0.02L513.22,278.83z"/>
	<g>
		<g>
			<defs>
				<path id="SVGID_2_" d="M513.22,278.83c8.52,4.93,8.51,12.99-0.01,17.91l-170.27,98.31c-8.52,4.92-22.46,4.91-30.98-0.02
					L73.93,257.29c-8.52-4.93-8.51-12.99,0.01-17.91l170.27-98.31c8.52-4.92,22.46-4.91,30.98,0.02L513.22,278.83z"/>
			</defs>
			<clipPath id="SVGID_3_">
				<use xlink:href="#SVGID_2_"  style="overflow:visible;"/>
			</clipPath>
			<g class="st2">
				<g>
					<polygon class="st3" points="95.01,318.62 295.83,272.12 288.38,261.4 87.56,307.9 					"/>
					<path class="st4" d="M296.81,272.36L94.59,319.19l-8.01-11.53l202.21-46.83L296.81,272.36z M95.43,318.06l199.41-46.18
						l-6.89-9.91l-199.4,46.17L95.43,318.06z"/>
				</g>
				<g>
					<polygon class="st3" points="86.16,305.88 286.97,259.38 279.52,248.65 78.71,295.15 					"/>
					<path class="st4" d="M287.95,259.62L85.74,306.44l-8.01-11.53l202.21-46.82L287.95,259.62z M86.58,305.31l199.41-46.18
						l-6.89-9.91L79.69,295.4L86.58,305.31z"/>
				</g>
				<g>
					<path class="st3" d="M362.41,230.46l-78.22,16.13l6.73,10.88l29.67-6.12l-28.6,8.08l8.8,10.38l73.81-20.86l3.45-0.8l9.56,13.76
						c0.61,0.88-0.16,1.92-1.68,2.27l-73.65,17.05l3.37,4.86l73.65-17.05c6.18-1.43,9.19-5.5,6.71-9.07l-9.56-13.76l80.88-18.73
						l-12.76-18.36L362.41,230.46z"/>
					<path class="st4" d="M389.59,269.44l-74.35,17.21l-3.94-5.66l74.35-17.22c1.14-0.26,1.72-1.04,1.26-1.7l-9.28-13.35l-2.75,0.64
						l-74.44,21.04l-9.46-11.16l17.19-4.85l-17.7,3.65l-7.24-11.7l78.93-16.28l92.85-21.5l13.32,19.17l-80.88,18.73l9.28,13.35
						C399.36,263.59,396.16,267.91,389.59,269.44z M316.08,285.52l72.94-16.89c5.8-1.34,8.62-5.16,6.3-8.5l-9.84-14.16l80.88-18.73
						l-12.19-17.55l-91.48,21.18l-77.53,15.99l6.22,10.06l28.96-5.97l0.58,0.8L293,259.63l8.13,9.59l73.13-20.66l4.2-0.97
						l9.84,14.16c0.76,1.1-0.2,2.4-2.1,2.83l-72.95,16.89L316.08,285.52z"/>
				</g>
			</g>
		</g>
		<g>
			<defs>
				<path id="SVGID_4_" d="M513.22,278.83c8.52,4.93,8.51,12.99-0.01,17.91l-170.27,98.31c-8.52,4.92-22.46,4.91-30.98-0.02
					L73.93,257.29c-8.52-4.93-8.51-12.99,0.01-17.91l170.27-98.31c8.52-4.92,22.46-4.91,30.98,0.02L513.22,278.83z"/>
			</defs>
			<clipPath id="SVGID_5_">
				<use xlink:href="#SVGID_4_"  style="overflow:visible;"/>
			</clipPath>
			<g class="st5">
				<g>
					<path class="st3" d="M290.31,146.03c-9.16,2.12-14.29,7.59-12.88,12.99l-11.21,0.08l-33.15-47.72l-4.21,0.97l19.4,27.92
						L57.17,184.52l1.69,2.43l89.7-20.77l33.64,48.42l4.2-0.97l-33.64-48.42l97.18-22.5l13.23,19.04l15.47-0.11
						c0.02,0.03,0.04,0.06,0.06,0.09c4.29,6.17,16.47,9.18,27.17,6.7c10.69-2.48,15.9-9.51,11.61-15.68
						C313.19,146.56,301,143.55,290.31,146.03z M304.18,165.99c-8.37,1.94-17.92-0.42-21.27-5.25c-3.36-4.83,0.72-10.34,9.09-12.28
						s17.92,0.41,21.27,5.25C316.63,158.54,312.55,164.05,304.18,165.99z"/>
					<path class="st4" d="M187.38,213.86l-5.6,1.3l-33.64-48.42l-89.7,20.77l-2.25-3.24l191.09-44.25l-19.4-27.92l5.61-1.3
						l33.24,47.85l9.85-0.07c-1.07-5.58,4.37-10.86,13.45-12.96c11.08-2.56,23.71,0.55,28.15,6.95s-0.95,13.69-12.03,16.25
						c-10.97,2.54-23.46-0.49-28.01-6.76l-15.47,0.11l-13.14-18.91l-95.78,22.18L187.38,213.86z M182.62,214.03l2.8-0.65
						l-33.64-48.42l98.58-22.83l13.31,19.17l15.48-0.11l0.22,0.34c4.15,5.98,15.9,8.88,26.2,6.49c10.31-2.39,15.33-9.17,11.19-15.12
						c-4.13-5.95-15.88-8.85-26.19-6.46c-8.7,2.01-13.81,7.16-12.41,12.52l0.13,0.49l-12.6,0.09l-33.07-47.6l-2.8,0.65l19.39,27.92
						L58.15,184.76l1.12,1.62l89.7-20.77L182.62,214.03z M304.46,166.4c-8.76,2.03-18.74-0.44-22.26-5.49
						c-3.51-5.06,0.76-10.82,9.51-12.85c8.76-2.03,18.74,0.44,22.26,5.49C317.49,158.61,313.22,164.37,304.46,166.4z M292.28,148.86
						c-7.99,1.85-11.88,7.11-8.67,11.72c3.2,4.61,12.31,6.86,20.29,5.01c7.99-1.85,11.88-7.11,8.67-11.72
						C309.37,149.26,300.27,147.01,292.28,148.86z"/>
				</g>
				<g>
					<polygon class="st3" points="72.89,280.14 115.37,270.3 139.11,280.9 141.88,278.83 120.25,269.18 239.22,241.63 237.53,239.2 
						71.2,277.71 					"/>
					<path class="st4" d="M139.24,281.51l-23.99-10.71l-42.78,9.91l-2.25-3.24l167.73-38.84l2.25,3.24L121.75,269.3l21.18,9.45
						L139.24,281.51z M73.31,279.57l42.18-9.77l23.48,10.48l1.85-1.38l-22.08-9.85l119.49-27.67l-1.12-1.62l-164.92,38.2
						L73.31,279.57z"/>
				</g>
			</g>
		</g>
		<g>
			<defs>
				<path id="SVGID_6_" d="M513.22,278.83c8.52,4.93,8.51,12.99-0.01,17.91l-170.27,98.31c-8.52,4.92-22.46,4.91-30.98-0.02
					L73.93,257.29c-8.52-4.93-8.51-12.99,0.01-17.91l170.27-98.31c8.52-4.92,22.46-4.91,30.98,0.02L513.22,278.83z"/>
			</defs>
			<clipPath id="SVGID_7_">
				<use xlink:href="#SVGID_6_"  style="overflow:visible;"/>
			</clipPath>
			<g class="st6">
				<path class="st3" d="M517.87,342.36l-34.01-48.96l75.8-17.55l-3.37-4.86L366.6,314.91l3.37,4.86l105.47-24.42l34.01,48.96
					l-125.09,28.97L204.61,114.52l-28.73,6.65L311.79,316.8l-22.66,5.25l-34.57,8.01l-96.6,22.37l3.37,4.86l85.75-19.86
					c0.13,0.57,0.37,1.14,0.76,1.7l60.48,87.06l8.41-1.95l-60.48-87.06c-0.61-0.88,0.16-1.92,1.68-2.27l34.57-8.01l22.66-5.25
					L397.38,440l28.73-6.65l-38.37-55.23l133.5-30.91l79.54-18.42l-3.37-4.86L517.87,342.36z"/>
				<path class="st4" d="M427.09,433.6l-30.14,6.98l-82.22-118.35l-56.53,13.09c-1.14,0.27-1.71,1.04-1.26,1.7l60.76,87.47
					l-9.81,2.27l-60.77-87.46c-0.28-0.4-0.49-0.82-0.64-1.26l-85.58,19.82l-3.94-5.66l153.83-35.62l-135.9-195.65l30.13-6.98
					L384.78,372.7l123.69-28.64l-33.45-48.15l-105.47,24.42l-3.93-5.67l191.09-44.25l3.93,5.67l-75.81,17.55l33.45,48.15
					l79.54-18.42l3.94,5.66l-213.05,49.33L427.09,433.6z M397.8,439.45l27.33-6.33l-38.37-55.23l213.05-49.33l-2.81-4.05
					l-79.54,18.42l-34.58-49.77l75.81-17.55l-2.81-4.05l-188.29,43.6l2.81,4.05l105.47-24.42l34.57,49.77l-126.5,29.29
					L204.19,115.09l-27.33,6.33l135.91,195.63l-153.83,35.62l2.81,4.05l85.96-19.9l0.13,0.56c0.13,0.57,0.36,1.1,0.71,1.6
					l60.2,86.66l7.01-1.62l-60.2-86.66c-0.76-1.1,0.2-2.4,2.1-2.84l57.93-13.41L397.8,439.45z"/>
			</g>
		</g>
		<g>
			<defs>
				<path id="SVGID_8_" d="M513.22,278.83c8.52,4.93,8.51,12.99-0.01,17.91l-170.27,98.31c-8.52,4.92-22.46,4.91-30.98-0.02
					L73.93,257.29c-8.52-4.93-8.51-12.99,0.01-17.91l170.27-98.31c8.52-4.92,22.46-4.91,30.98,0.02L513.22,278.83z"/>
			</defs>
			<clipPath id="SVGID_9_">
				<use xlink:href="#SVGID_8_"  style="overflow:visible;"/>
			</clipPath>
			<polygon class="st7" points="356.33,401.61 323.62,409.18 280.15,346.6 312.85,339.03 			"/>
		</g>
		<g>
			<defs>
				<path id="SVGID_10_" d="M513.22,278.83c8.52,4.93,8.51,12.99-0.01,17.91l-170.27,98.31c-8.52,4.92-22.46,4.91-30.98-0.02
					L73.93,257.29c-8.52-4.93-8.51-12.99,0.01-17.91l170.27-98.31c8.52-4.92,22.46-4.91,30.98,0.02L513.22,278.83z"/>
			</defs>
			<clipPath id="SVGID_11_">
				<use xlink:href="#SVGID_10_"  style="overflow:visible;"/>
			</clipPath>
			<polygon class="st8" points="92.23,189.7 67.7,195.38 97.31,238 121.84,232.32 			"/>
		</g>
		<g>
			<defs>
				<path id="SVGID_12_" d="M513.22,278.83c8.52,4.93,8.51,12.99-0.01,17.91l-170.27,98.31c-8.52,4.92-22.46,4.91-30.98-0.02
					L73.93,257.29c-8.52-4.93-8.51-12.99,0.01-17.91l170.27-98.31c8.52-4.92,22.46-4.91,30.98,0.02L513.22,278.83z"/>
			</defs>
			<clipPath id="SVGID_13_">
				<use xlink:href="#SVGID_12_"  style="overflow:visible;"/>
			</clipPath>
			<polygon class="st9" points="171.08,220.84 161.25,206.68 87.43,223.77 97.27,237.94 			"/>
		</g>
		<g>
			<defs>
				<path id="SVGID_14_" d="M513.22,278.83c8.52,4.93,8.51,12.99-0.01,17.91l-170.27,98.31c-8.52,4.92-22.46,4.91-30.98-0.02
					L73.93,257.29c-8.52-4.93-8.51-12.99,0.01-17.91l170.27-98.31c8.52-4.92,22.46-4.91,30.98,0.02L513.22,278.83z"/>
			</defs>
			<clipPath id="SVGID_15_">
				<use xlink:href="#SVGID_14_"  style="overflow:visible;"/>
			</clipPath>
			<polygon class="st10" points="434.53,350.62 399.49,358.73 379.53,330.01 414.57,321.89 			"/>
		</g>
		<g>
			<defs>
				<path id="SVGID_16_" d="M513.22,278.83c8.52,4.93,8.51,12.99-0.01,17.91l-170.27,98.31c-8.52,4.92-22.46,4.91-30.98-0.02
					L73.93,257.29c-8.52-4.93-8.51-12.99,0.01-17.91l170.27-98.31c8.52-4.92,22.46-4.91,30.98,0.02L513.22,278.83z"/>
			</defs>
			<clipPath id="SVGID_17_">
				<use xlink:href="#SVGID_16_"  style="overflow:visible;"/>
			</clipPath>
			<polygon class="st11" points="482.18,339.58 447.14,347.7 427.18,318.97 462.23,310.86 			"/>
		</g>
		<g>
			<defs>
				<path id="SVGID_18_" d="M513.22,278.83c8.52,4.93,8.51,12.99-0.01,17.91l-170.27,98.31c-8.52,4.92-22.46,4.91-30.98-0.02
					L73.93,257.29c-8.52-4.93-8.51-12.99,0.01-17.91l170.27-98.31c8.52-4.92,22.46-4.91,30.98,0.02L513.22,278.83z"/>
			</defs>
			<clipPath id="SVGID_19_">
				<use xlink:href="#SVGID_18_"  style="overflow:visible;"/>
			</clipPath>
			<polygon class="st12" points="587.96,315.09 524.23,329.85 504.28,301.12 568,286.36 			"/>
		</g>
		<g>
			<defs>
				<path id="SVGID_20_" d="M513.22,278.83c8.52,4.93,8.51,12.99-0.01,17.91l-170.27,98.31c-8.52,4.92-22.46,4.91-30.98-0.02
					L73.93,257.29c-8.52-4.93-8.51-12.99,0.01-17.91l170.27-98.31c8.52-4.92,22.46-4.91,30.98,0.02L513.22,278.83z"/>
			</defs>
			<clipPath id="SVGID_21_">
				<use xlink:href="#SVGID_20_"  style="overflow:visible;"/>
			</clipPath>
			<polygon class="st13" points="389.9,157.57 271.29,185.04 302.49,229.95 421.1,202.48 			"/>
		</g>
		<g>
			<defs>
				<path id="SVGID_22_" d="M513.22,278.83c8.52,4.93,8.51,12.99-0.01,17.91l-170.27,98.31c-8.52,4.92-22.46,4.91-30.98-0.02
					L73.93,257.29c-8.52-4.93-8.51-12.99,0.01-17.91l170.27-98.31c8.52-4.92,22.46-4.91,30.98,0.02L513.22,278.83z"/>
			</defs>
			<clipPath id="SVGID_23_">
				<use xlink:href="#SVGID_22_"  style="overflow:visible;"/>
			</clipPath>
			<polygon class="st14" points="248.06,320.06 163.96,339.53 149.91,319.3 234.01,299.82 			"/>
		</g>
		<g>
			<defs>
				<path id="SVGID_24_" d="M513.22,278.83c8.52,4.93,8.51,12.99-0.01,17.91l-170.27,98.31c-8.52,4.92-22.46,4.91-30.98-0.02
					L73.93,257.29c-8.52-4.93-8.51-12.99,0.01-17.91l170.27-98.31c8.52-4.92,22.46-4.91,30.98,0.02L513.22,278.83z"/>
			</defs>
			<clipPath id="SVGID_25_">
				<use xlink:href="#SVGID_24_"  style="overflow:visible;"/>
			</clipPath>
			<polygon class="st15" points="292.52,309.76 259.81,317.33 245.76,297.1 278.46,289.53 			"/>
		</g>
		<g>
			<defs>
				<path id="SVGID_26_" d="M513.22,278.83c8.52,4.93,8.51,12.99-0.01,17.91l-170.27,98.31c-8.52,4.92-22.46,4.91-30.98-0.02
					L73.93,257.29c-8.52-4.93-8.51-12.99,0.01-17.91l170.27-98.31c8.52-4.92,22.46-4.91,30.98,0.02L513.22,278.83z"/>
			</defs>
			<clipPath id="SVGID_27_">
				<use xlink:href="#SVGID_26_"  style="overflow:visible;"/>
			</clipPath>
			<polygon class="st16" points="369.73,361.52 363.37,358.53 362.02,363.3 364.7,362.68 367.16,366.22 369.5,365.68 367.04,362.14 
							"/>
		</g>
		<g>
			<defs>
				<path id="SVGID_28_" d="M513.22,278.83c8.52,4.93,8.51,12.99-0.01,17.91l-170.27,98.31c-8.52,4.92-22.46,4.91-30.98-0.02
					L73.93,257.29c-8.52-4.93-8.51-12.99,0.01-17.91l170.27-98.31c8.52-4.92,22.46-4.91,30.98,0.02L513.22,278.83z"/>
			</defs>
			<clipPath id="SVGID_29_">
				<use xlink:href="#SVGID_28_"  style="overflow:visible;"/>
			</clipPath>
			<polygon class="st17" points="250.48,189.87 244.13,186.87 242.77,191.65 245.45,191.03 247.91,194.57 250.25,194.03 
				247.79,190.49 			"/>
		</g>
		<g>
			<defs>
				<path id="SVGID_30_" d="M513.22,278.83c8.52,4.93,8.51,12.99-0.01,17.91l-170.27,98.31c-8.52,4.92-22.46,4.91-30.98-0.02
					L73.93,257.29c-8.52-4.93-8.51-12.99,0.01-17.91l170.27-98.31c8.52-4.92,22.46-4.91,30.98,0.02L513.22,278.83z"/>
			</defs>
			<clipPath id="SVGID_31_">
				<use xlink:href="#SVGID_30_"  style="overflow:visible;"/>
			</clipPath>
			<polygon class="st18" points="240.1,191.92 239.09,196.61 232.4,193.7 235.08,193.08 232.62,189.54 234.96,189 237.42,192.54 			
				"/>
		</g>
		<g>
			<defs>
				<path id="SVGID_32_" d="M513.22,278.83c8.52,4.93,8.51,12.99-0.01,17.91l-170.27,98.31c-8.52,4.92-22.46,4.91-30.98-0.02
					L73.93,257.29c-8.52-4.93-8.51-12.99,0.01-17.91l170.27-98.31c8.52-4.92,22.46-4.91,30.98,0.02L513.22,278.83z"/>
			</defs>
			<clipPath id="SVGID_33_">
				<use xlink:href="#SVGID_32_"  style="overflow:visible;"/>
			</clipPath>
			<polygon class="st19" points="359.35,363.57 358.34,368.26 351.64,365.35 354.33,364.73 351.87,361.19 354.21,360.65 
				356.67,364.19 			"/>
		</g>
		<g>
			<defs>
				<path id="SVGID_34_" d="M513.22,278.83c8.52,4.93,8.51,12.99-0.01,17.91l-170.27,98.31c-8.52,4.92-22.46,4.91-30.98-0.02
					L73.93,257.29c-8.52-4.93-8.51-12.99,0.01-17.91l170.27-98.31c8.52-4.92,22.46-4.91,30.98,0.02L513.22,278.83z"/>
			</defs>
			<clipPath id="SVGID_35_">
				<use xlink:href="#SVGID_34_"  style="overflow:visible;"/>
			</clipPath>
			<g class="st20">
				<path class="st4" d="M272.42,225.83c0.14,0.2,0.23,0.42,0.25,0.64c0.03,0.22-0.01,0.43-0.12,0.62l-0.62-0.07
					c0.09-0.2,0.14-0.38,0.13-0.55s-0.07-0.34-0.18-0.51c-0.13-0.18-0.29-0.32-0.49-0.39c-0.2-0.08-0.42-0.09-0.65-0.04
					c-0.11,0.02-0.19,0.06-0.24,0.11c-0.06,0.05-0.09,0.11-0.11,0.18c-0.02,0.07-0.01,0.16,0,0.26c0.02,0.1,0.04,0.22,0.08,0.35
					c0.04,0.17,0.06,0.31,0.08,0.44c0.02,0.12,0.01,0.23-0.03,0.32c-0.03,0.09-0.1,0.17-0.19,0.23c-0.1,0.06-0.23,0.11-0.4,0.15
					c-0.22,0.05-0.43,0.07-0.64,0.06c-0.21-0.01-0.4-0.05-0.57-0.11c-0.18-0.06-0.34-0.14-0.48-0.25c-0.14-0.1-0.26-0.23-0.35-0.36
					c-0.13-0.19-0.2-0.38-0.21-0.57c-0.01-0.19,0.04-0.36,0.13-0.52l0.58,0.09c-0.09,0.14-0.13,0.29-0.12,0.44
					c0.01,0.15,0.06,0.3,0.16,0.44c0.11,0.16,0.26,0.27,0.45,0.36c0.19,0.08,0.41,0.09,0.66,0.03c0.1-0.02,0.18-0.05,0.23-0.09
					c0.05-0.04,0.09-0.08,0.11-0.14s0.02-0.13,0-0.22c-0.01-0.09-0.03-0.19-0.06-0.3c-0.05-0.18-0.08-0.35-0.1-0.49
					c-0.02-0.14-0.01-0.26,0.03-0.37c0.04-0.1,0.11-0.19,0.21-0.26c0.1-0.07,0.24-0.13,0.43-0.17c0.41-0.1,0.8-0.08,1.16,0.05
					C271.92,225.31,272.21,225.52,272.42,225.83z"/>
				<path class="st4" d="M270.16,223.08c0.04,0.02,0.09,0.05,0.15,0.08s0.12,0.08,0.19,0.12c0.07,0.05,0.13,0.1,0.2,0.16
					c0.06,0.06,0.12,0.12,0.17,0.19c0.11,0.16,0.13,0.3,0.06,0.45s-0.26,0.26-0.57,0.33l-2.95,0.68l0.24,0.34l-0.58,0.14l-0.24-0.35
					l-1.46,0.34l-0.3-0.43l1.46-0.34l-0.39-0.57l0.58-0.13l0.39,0.57l2.73-0.63c0.16-0.05,0.26-0.1,0.29-0.18
					c0.04-0.07,0.03-0.14-0.03-0.22s-0.14-0.16-0.23-0.21c-0.1-0.06-0.17-0.1-0.21-0.12L270.16,223.08z"/>
				<path class="st4" d="M265.43,222.16c0.16,0.21,0.39,0.38,0.68,0.5c0.29,0.12,0.62,0.18,0.99,0.17l2.71-0.63l0.3,0.43l-4.39,1.02
					l-0.28-0.4l1.02-0.24c-0.36-0.02-0.69-0.08-0.98-0.17c-0.29-0.1-0.5-0.23-0.63-0.38c-0.02-0.03-0.04-0.06-0.06-0.08
					c-0.01-0.02-0.03-0.04-0.03-0.06L265.43,222.16z"/>
				<path class="st4" d="M268.22,219.78c0.13,0.19,0.19,0.38,0.18,0.57s-0.08,0.36-0.21,0.52s-0.31,0.3-0.54,0.43
					c-0.24,0.13-0.51,0.23-0.81,0.3c-0.31,0.07-0.62,0.11-0.94,0.11s-0.62-0.03-0.91-0.1s-0.55-0.16-0.78-0.3
					c-0.23-0.13-0.41-0.29-0.55-0.48c-0.13-0.19-0.19-0.38-0.18-0.57c0.02-0.19,0.09-0.36,0.21-0.52c0.13-0.16,0.31-0.3,0.54-0.42
					s0.49-0.22,0.78-0.28c0.06-0.01,0.12-0.03,0.17-0.04c0.05-0.01,0.09-0.02,0.12-0.02l1.46,2.1c0.21-0.06,0.39-0.13,0.54-0.22
					c0.14-0.09,0.26-0.19,0.33-0.3c0.07-0.11,0.11-0.22,0.12-0.34c0.01-0.11-0.03-0.23-0.11-0.34c-0.05-0.08-0.12-0.15-0.21-0.22
					c-0.09-0.06-0.19-0.12-0.29-0.17c-0.11-0.05-0.22-0.09-0.35-0.12c-0.12-0.03-0.25-0.04-0.38-0.04l-0.08-0.41
					c0.19,0.01,0.38,0.03,0.56,0.07c0.19,0.04,0.36,0.1,0.53,0.17c0.16,0.07,0.32,0.16,0.45,0.27
					C268.03,219.54,268.14,219.66,268.22,219.78z M265.05,219.51c-0.2,0.06-0.37,0.13-0.51,0.22s-0.25,0.19-0.32,0.29
					c-0.07,0.1-0.11,0.22-0.11,0.33c0,0.12,0.04,0.23,0.12,0.35c0.08,0.11,0.19,0.21,0.33,0.3c0.14,0.08,0.3,0.15,0.48,0.2
					c0.18,0.05,0.37,0.07,0.58,0.08s0.42-0.01,0.63-0.05L265.05,219.51z"/>
				<path class="st4" d="M266.23,216.91c0.13,0.19,0.2,0.38,0.19,0.57s-0.08,0.36-0.21,0.52s-0.31,0.31-0.54,0.43
					c-0.23,0.13-0.5,0.23-0.81,0.3s-0.62,0.11-0.94,0.11s-0.62-0.03-0.91-0.1s-0.55-0.17-0.78-0.3s-0.41-0.29-0.55-0.48
					c-0.13-0.19-0.19-0.38-0.18-0.56c0.01-0.19,0.08-0.36,0.21-0.52s0.3-0.3,0.54-0.42c0.23-0.12,0.49-0.22,0.78-0.29
					c0.06-0.01,0.12-0.03,0.17-0.04c0.05-0.01,0.09-0.02,0.12-0.02l1.46,2.1c0.21-0.06,0.39-0.14,0.54-0.23s0.26-0.19,0.33-0.3
					c0.08-0.11,0.11-0.22,0.12-0.34c0-0.12-0.03-0.23-0.11-0.34c-0.05-0.08-0.12-0.15-0.21-0.21c-0.09-0.07-0.19-0.12-0.29-0.18
					c-0.11-0.05-0.22-0.09-0.35-0.12c-0.12-0.03-0.25-0.05-0.38-0.05l-0.08-0.41c0.19,0,0.38,0.03,0.57,0.07
					c0.19,0.04,0.36,0.1,0.52,0.17c0.17,0.07,0.32,0.16,0.45,0.26C266.03,216.67,266.14,216.79,266.23,216.91z M263.05,216.64
					c-0.2,0.06-0.37,0.13-0.51,0.22s-0.25,0.19-0.32,0.29c-0.07,0.11-0.11,0.22-0.11,0.33c0,0.12,0.04,0.23,0.12,0.35
					c0.08,0.11,0.19,0.21,0.33,0.29c0.14,0.09,0.3,0.15,0.48,0.2c0.18,0.05,0.37,0.07,0.58,0.08c0.21,0,0.42-0.01,0.63-0.05
					L263.05,216.64z"/>
				<path class="st4" d="M263.82,213.95c0.04,0.02,0.09,0.05,0.15,0.08s0.12,0.07,0.19,0.12c0.07,0.05,0.13,0.1,0.2,0.16
					c0.06,0.06,0.12,0.12,0.17,0.19c0.11,0.15,0.13,0.31,0.06,0.45c-0.07,0.15-0.26,0.26-0.57,0.33l-2.95,0.68l0.24,0.34l-0.58,0.13
					l-0.24-0.34l-1.46,0.34l-0.3-0.43l1.46-0.34l-0.39-0.57l0.58-0.13l0.39,0.57l2.72-0.63c0.16-0.04,0.26-0.1,0.29-0.17
					c0.04-0.07,0.03-0.15-0.03-0.22c-0.06-0.09-0.14-0.16-0.23-0.21c-0.1-0.06-0.17-0.1-0.21-0.12L263.82,213.95z"/>
				<path class="st4" d="M261.38,210.07l0.3,0.43l-2.45,0.57c-0.47,0.11-0.78,0.23-0.94,0.36s-0.18,0.28-0.06,0.45
					c0.06,0.09,0.15,0.17,0.27,0.24s0.26,0.14,0.41,0.19s0.32,0.09,0.5,0.12c0.18,0.02,0.37,0.03,0.55,0.02l2.65-0.61l0.3,0.43
					l-4.39,1.02l-0.27-0.39l0.94-0.22c-0.38-0.03-0.73-0.12-1.04-0.26c-0.32-0.15-0.55-0.33-0.71-0.55c-0.1-0.15-0.14-0.28-0.11-0.4
					c0.02-0.12,0.1-0.23,0.22-0.32c0.12-0.1,0.29-0.18,0.5-0.26s0.44-0.14,0.71-0.21L261.38,210.07z"/>
				<path class="st4" d="M260.55,208.74c0.08,0.12,0.13,0.24,0.13,0.36s-0.03,0.23-0.1,0.34c-0.07,0.1-0.17,0.2-0.31,0.28
					c-0.14,0.08-0.3,0.15-0.5,0.19c-0.2,0.05-0.4,0.06-0.61,0.05c-0.2-0.01-0.39-0.06-0.58-0.12c-0.19-0.07-0.35-0.16-0.51-0.28
					c-0.16-0.11-0.29-0.25-0.4-0.41c-0.08-0.12-0.15-0.25-0.2-0.39c-0.05-0.13-0.07-0.26-0.07-0.37l-0.35,0.08
					c-0.36,0.08-0.6,0.21-0.72,0.37c-0.12,0.16-0.11,0.35,0.04,0.56c0.18,0.26,0.54,0.49,1.07,0.69l-0.38,0.25
					c-0.61-0.24-1.03-0.52-1.26-0.85s-0.26-0.63-0.08-0.89s0.55-0.45,1.11-0.58l1.79-0.41c0.17-0.04,0.23-0.11,0.17-0.2l0.64-0.15
					c0.04,0.04,0.08,0.08,0.1,0.11c0.03,0.03,0.05,0.06,0.07,0.09c0.06,0.09,0.06,0.16,0.01,0.23c-0.05,0.07-0.14,0.13-0.25,0.16
					l-0.3,0.08c0.34,0.05,0.64,0.15,0.9,0.29C260.22,208.37,260.41,208.54,260.55,208.74z M259.92,208.76
					c-0.11-0.15-0.25-0.28-0.44-0.39s-0.39-0.18-0.6-0.21c-0.15-0.04-0.28-0.04-0.39-0.02l-0.65,0.15c0,0.24,0.08,0.47,0.24,0.69
					c0.15,0.21,0.35,0.37,0.6,0.47s0.5,0.12,0.75,0.06c0.12-0.03,0.23-0.07,0.32-0.12c0.09-0.05,0.15-0.11,0.2-0.18
					c0.04-0.07,0.06-0.14,0.06-0.22C260,208.91,259.97,208.83,259.92,208.76z"/>
				<path class="st4" d="M256.4,202.9l0.3,0.43l-2.46,0.57c-0.46,0.11-0.77,0.23-0.93,0.36c-0.16,0.14-0.18,0.29-0.06,0.46
					c0.12,0.18,0.34,0.31,0.65,0.4s0.66,0.12,1.04,0.1l2.64-0.61l0.3,0.43l-2.45,0.57c-0.47,0.11-0.78,0.23-0.94,0.36
					c-0.15,0.13-0.17,0.28-0.06,0.45c0.12,0.17,0.33,0.3,0.64,0.39s0.66,0.12,1.04,0.1l2.65-0.61l0.3,0.43l-4.39,1.02l-0.27-0.39
					l0.94-0.22c-0.4-0.03-0.74-0.1-1.03-0.23c-0.29-0.12-0.51-0.29-0.65-0.5c-0.15-0.21-0.17-0.41-0.05-0.58
					c0.11-0.17,0.32-0.31,0.61-0.41c-0.87-0.06-1.45-0.3-1.74-0.72c-0.1-0.15-0.14-0.28-0.12-0.4c0.03-0.12,0.1-0.23,0.22-0.33
					c0.12-0.09,0.29-0.18,0.5-0.26s0.44-0.15,0.71-0.21L256.4,202.9z"/>
				<path class="st4" d="M255.24,201.09c0.13,0.19,0.19,0.38,0.18,0.57c-0.01,0.19-0.08,0.36-0.21,0.52s-0.31,0.3-0.54,0.43
					c-0.23,0.13-0.5,0.23-0.81,0.3s-0.62,0.11-0.94,0.11s-0.62-0.03-0.91-0.1c-0.29-0.07-0.55-0.17-0.78-0.3s-0.41-0.29-0.55-0.48
					c-0.13-0.19-0.19-0.38-0.18-0.56c0.01-0.18,0.09-0.36,0.21-0.51c0.13-0.16,0.31-0.3,0.54-0.42s0.49-0.22,0.78-0.29
					c0.06-0.01,0.12-0.03,0.17-0.04s0.09-0.02,0.12-0.02l1.46,2.1c0.21-0.06,0.39-0.13,0.54-0.23c0.15-0.09,0.26-0.19,0.33-0.3
					s0.11-0.22,0.12-0.34s-0.03-0.23-0.11-0.34c-0.05-0.08-0.13-0.15-0.21-0.21c-0.09-0.07-0.19-0.12-0.29-0.18
					c-0.11-0.05-0.22-0.09-0.35-0.12c-0.12-0.03-0.25-0.04-0.38-0.04l-0.08-0.41c0.19,0.01,0.38,0.03,0.57,0.07
					c0.19,0.04,0.36,0.1,0.52,0.17c0.17,0.07,0.32,0.16,0.45,0.27C255.04,200.85,255.15,200.97,255.24,201.09z M252.06,200.82
					c-0.2,0.06-0.37,0.13-0.51,0.22s-0.25,0.19-0.32,0.29c-0.07,0.1-0.11,0.22-0.11,0.33c0,0.12,0.04,0.23,0.12,0.35
					c0.08,0.11,0.19,0.21,0.33,0.3s0.3,0.15,0.48,0.2s0.37,0.07,0.58,0.08s0.42-0.01,0.63-0.05L252.06,200.82z"/>
			</g>
		</g>
		<g>
			<defs>
				<path id="SVGID_36_" d="M513.22,278.83c8.52,4.93,8.51,12.99-0.01,17.91l-170.27,98.31c-8.52,4.92-22.46,4.91-30.98-0.02
					L73.93,257.29c-8.52-4.93-8.51-12.99,0.01-17.91l170.27-98.31c8.52-4.92,22.46-4.91,30.98,0.02L513.22,278.83z"/>
			</defs>
			<clipPath id="SVGID_37_">
				<use xlink:href="#SVGID_36_"  style="overflow:visible;"/>
			</clipPath>
			<polygon class="st21" points="259.86,276.81 265.04,273.14 256.77,272.36 257.85,273.91 251.72,275.33 252.65,276.68 
				258.78,275.26 			"/>
		</g>
		<g>
			<defs>
				<path id="SVGID_38_" d="M513.22,278.83c8.52,4.93,8.51,12.99-0.01,17.91l-170.27,98.31c-8.52,4.92-22.46,4.91-30.98-0.02
					L73.93,257.29c-8.52-4.93-8.51-12.99,0.01-17.91l170.27-98.31c8.52-4.92,22.46-4.91,30.98,0.02L513.22,278.83z"/>
			</defs>
			<clipPath id="SVGID_39_">
				<use xlink:href="#SVGID_38_"  style="overflow:visible;"/>
			</clipPath>
			<polygon class="st22" points="249.73,264.36 241.59,263.78 246.64,259.91 247.71,261.46 253.84,260.04 254.78,261.39 
				248.65,262.81 			"/>
		</g>
		<g>
			<defs>
				<path id="SVGID_40_" d="M513.22,278.83c8.52,4.93,8.51,12.99-0.01,17.91l-170.27,98.31c-8.52,4.92-22.46,4.91-30.98-0.02
					L73.93,257.29c-8.52-4.93-8.51-12.99,0.01-17.91l170.27-98.31c8.52-4.92,22.46-4.91,30.98,0.02L513.22,278.83z"/>
			</defs>
			<clipPath id="SVGID_41_">
				<use xlink:href="#SVGID_40_"  style="overflow:visible;"/>
			</clipPath>
			<g class="st23">
				<path class="st4" d="M364.11,245.69c-0.35,0.08-0.72,0.13-1.11,0.15c-0.39,0.02-0.74-0.01-1.07-0.07l0.12-0.36
					c0.34,0.05,0.65,0.08,0.95,0.07c0.3,0,0.59-0.04,0.88-0.1c0.32-0.07,0.55-0.17,0.68-0.29c0.14-0.12,0.16-0.24,0.07-0.37
					c-0.04-0.06-0.1-0.11-0.18-0.14s-0.18-0.05-0.31-0.06c-0.12-0.01-0.27-0.01-0.45,0c-0.18,0.01-0.38,0.03-0.6,0.04
					c-0.29,0.02-0.54,0.04-0.76,0.05c-0.21,0.01-0.4,0-0.56-0.02s-0.29-0.06-0.39-0.11c-0.1-0.06-0.19-0.13-0.26-0.23
					c-0.09-0.13-0.12-0.25-0.1-0.37s0.08-0.23,0.19-0.33c0.1-0.1,0.25-0.19,0.43-0.28c0.18-0.08,0.39-0.15,0.62-0.2
					c0.33-0.08,0.66-0.12,0.99-0.12s0.63,0.02,0.89,0.08l-0.16,0.33c-0.25-0.05-0.51-0.07-0.77-0.06c-0.26,0.01-0.51,0.04-0.76,0.09
					c-0.27,0.06-0.47,0.15-0.62,0.26c-0.14,0.11-0.16,0.24-0.06,0.38c0.04,0.06,0.09,0.1,0.15,0.13s0.15,0.05,0.25,0.06
					s0.23,0.01,0.38,0s0.32-0.02,0.53-0.04c0.32-0.03,0.6-0.05,0.84-0.06s0.46,0,0.64,0.02c0.18,0.02,0.33,0.06,0.46,0.12
					c0.12,0.06,0.22,0.14,0.29,0.25c0.16,0.24,0.14,0.46-0.08,0.67C365.02,245.4,364.64,245.57,364.11,245.69z"/>
				<path class="st4" d="M368.88,244.38c-0.04,0.02-0.08,0.05-0.14,0.09c-0.06,0.04-0.13,0.07-0.21,0.11s-0.17,0.08-0.27,0.11
					c-0.1,0.04-0.21,0.07-0.33,0.1c-0.27,0.06-0.53,0.07-0.79,0.03c-0.26-0.04-0.45-0.15-0.57-0.33l-1.18-1.7l-0.6,0.14l-0.23-0.33
					l0.6-0.14l-0.59-0.84l0.74-0.17l0.59,0.84l0.98-0.23l0.23,0.34l-0.98,0.23l1.09,1.57c0.08,0.09,0.18,0.15,0.3,0.17
					c0.13,0.02,0.25,0.02,0.38-0.01c0.15-0.03,0.27-0.08,0.37-0.13c0.1-0.06,0.17-0.1,0.2-0.12L368.88,244.38z"/>
				<path class="st4" d="M370.47,241.65c-0.37,0.09-0.65,0.22-0.86,0.39s-0.31,0.36-0.3,0.57l1.09,1.56l-0.74,0.17l-1.76-2.53
					l0.69-0.16l0.41,0.59c0.03-0.21,0.13-0.4,0.3-0.56c0.17-0.16,0.39-0.29,0.67-0.37c0.06-0.01,0.1-0.02,0.14-0.03
					s0.07-0.02,0.1-0.02L370.47,241.65z"/>
				<path class="st4" d="M374.58,243.27c-0.33,0.08-0.66,0.11-0.98,0.11c-0.32-0.01-0.62-0.05-0.91-0.12
					c-0.28-0.07-0.53-0.18-0.75-0.31s-0.39-0.29-0.52-0.47c-0.12-0.18-0.19-0.36-0.19-0.54s0.06-0.36,0.17-0.52
					c0.12-0.16,0.29-0.31,0.51-0.45c0.22-0.13,0.5-0.24,0.84-0.32c0.33-0.08,0.66-0.11,0.98-0.1s0.62,0.05,0.89,0.12
					c0.27,0.07,0.52,0.18,0.73,0.31c0.21,0.13,0.38,0.28,0.49,0.45c0.02,0.04,0.05,0.07,0.06,0.1c0.02,0.03,0.03,0.05,0.03,0.07
					l-3.64,0.84c0.1,0.12,0.23,0.22,0.39,0.31c0.16,0.08,0.33,0.15,0.51,0.19c0.19,0.04,0.38,0.06,0.58,0.07
					c0.2,0,0.39-0.02,0.59-0.06c0.13-0.03,0.26-0.07,0.37-0.12c0.11-0.05,0.21-0.11,0.3-0.17s0.16-0.13,0.21-0.2
					c0.05-0.07,0.08-0.15,0.08-0.22l0.71-0.05c-0.01,0.11-0.05,0.22-0.12,0.33s-0.17,0.21-0.3,0.3c-0.13,0.1-0.28,0.18-0.46,0.26
					C375,243.15,374.8,243.21,374.58,243.27z M375.05,241.43c-0.1-0.12-0.23-0.22-0.39-0.3s-0.33-0.14-0.51-0.18
					c-0.18-0.04-0.37-0.06-0.58-0.06c-0.2,0-0.4,0.02-0.6,0.07s-0.37,0.11-0.51,0.19c-0.15,0.08-0.26,0.17-0.34,0.28
					c-0.08,0.1-0.13,0.21-0.14,0.33s0.02,0.24,0.08,0.37L375.05,241.43z"/>
				<path class="st4" d="M379.55,242.12c-0.33,0.08-0.66,0.11-0.98,0.11c-0.32-0.01-0.62-0.05-0.9-0.12
					c-0.28-0.07-0.53-0.18-0.75-0.31s-0.39-0.29-0.52-0.47c-0.12-0.18-0.19-0.36-0.19-0.54s0.06-0.36,0.17-0.53
					c0.12-0.17,0.29-0.31,0.51-0.45c0.23-0.13,0.5-0.24,0.84-0.32c0.33-0.08,0.66-0.11,0.98-0.1s0.62,0.05,0.89,0.12
					c0.27,0.07,0.52,0.18,0.73,0.31c0.21,0.13,0.38,0.28,0.5,0.45c0.02,0.04,0.05,0.07,0.06,0.1c0.02,0.03,0.03,0.05,0.03,0.07
					l-3.64,0.84c0.11,0.12,0.24,0.23,0.39,0.31c0.16,0.08,0.33,0.15,0.51,0.19c0.19,0.04,0.38,0.07,0.58,0.07
					c0.2,0,0.39-0.02,0.59-0.06c0.13-0.03,0.26-0.07,0.37-0.12c0.11-0.05,0.22-0.11,0.3-0.17c0.09-0.06,0.16-0.13,0.21-0.2
					c0.05-0.07,0.08-0.15,0.08-0.22l0.71-0.04c-0.01,0.11-0.05,0.22-0.12,0.32c-0.07,0.11-0.17,0.21-0.3,0.3
					c-0.13,0.09-0.28,0.18-0.46,0.26C379.97,242,379.77,242.06,379.55,242.12z M380.02,240.28c-0.1-0.11-0.23-0.21-0.39-0.3
					c-0.16-0.08-0.33-0.14-0.51-0.18c-0.18-0.04-0.37-0.06-0.57-0.06s-0.4,0.02-0.6,0.07s-0.37,0.11-0.51,0.19
					c-0.15,0.08-0.26,0.17-0.34,0.28c-0.08,0.1-0.13,0.21-0.14,0.33s0.01,0.24,0.08,0.36L380.02,240.28z"/>
				<path class="st4" d="M384.69,240.72c-0.04,0.02-0.08,0.05-0.14,0.09c-0.06,0.04-0.13,0.07-0.21,0.11s-0.17,0.08-0.27,0.11
					c-0.1,0.04-0.21,0.07-0.33,0.1c-0.27,0.06-0.53,0.07-0.79,0.03c-0.25-0.04-0.45-0.15-0.57-0.33l-1.18-1.7l-0.6,0.14l-0.23-0.33
					l0.6-0.14l-0.59-0.84l0.74-0.17l0.59,0.84l0.98-0.23l0.23,0.34l-0.98,0.23l1.09,1.57c0.08,0.09,0.18,0.15,0.3,0.17
					s0.25,0.01,0.38-0.01c0.15-0.03,0.27-0.08,0.37-0.13c0.1-0.06,0.17-0.1,0.2-0.12L384.69,240.72z"/>
				<path class="st4" d="M391.4,239.31l-0.74,0.17l-0.99-1.42c-0.19-0.27-0.4-0.45-0.63-0.54s-0.49-0.1-0.78-0.03
					c-0.15,0.03-0.29,0.09-0.42,0.16s-0.24,0.15-0.33,0.24c-0.09,0.09-0.16,0.19-0.21,0.29c-0.04,0.1-0.06,0.21-0.04,0.32l1.06,1.53
					l-0.74,0.17l-1.76-2.53l0.67-0.16l0.38,0.54c0.05-0.22,0.2-0.42,0.46-0.6c0.25-0.18,0.57-0.32,0.96-0.41
					c0.26-0.06,0.48-0.08,0.69-0.07c0.2,0.01,0.39,0.06,0.56,0.13c0.17,0.07,0.32,0.17,0.45,0.29s0.25,0.26,0.36,0.41L391.4,239.31z
					"/>
				<path class="st4" d="M393.71,238.84c-0.21,0.05-0.42,0.07-0.62,0.07c-0.21,0-0.4-0.02-0.58-0.06s-0.34-0.1-0.48-0.18
					c-0.14-0.08-0.25-0.17-0.33-0.29s-0.11-0.23-0.09-0.35c0.02-0.12,0.09-0.23,0.21-0.33c0.12-0.11,0.28-0.21,0.48-0.3
					s0.44-0.17,0.71-0.23c0.21-0.05,0.44-0.09,0.67-0.12s0.45-0.04,0.64-0.04l-0.14-0.2c-0.14-0.21-0.36-0.35-0.64-0.42
					c-0.28-0.07-0.61-0.06-0.98,0.02c-0.44,0.1-0.84,0.31-1.19,0.62l-0.44-0.22c0.41-0.35,0.91-0.59,1.48-0.73
					c0.58-0.13,1.09-0.15,1.54-0.04c0.45,0.1,0.78,0.32,1.01,0.64l0.72,1.03c0.07,0.1,0.18,0.13,0.34,0.1l0.26,0.37
					c-0.07,0.03-0.13,0.04-0.18,0.06c-0.05,0.01-0.1,0.03-0.16,0.04c-0.15,0.03-0.28,0.03-0.4,0s-0.22-0.08-0.28-0.15l-0.14-0.18
					c-0.09,0.2-0.26,0.37-0.5,0.52C394.35,238.64,394.05,238.76,393.71,238.84z M393.68,238.47c0.26-0.06,0.49-0.15,0.68-0.26
					s0.31-0.22,0.36-0.34c0.06-0.09,0.07-0.16,0.03-0.23l-0.26-0.37c-0.42,0-0.82,0.05-1.2,0.14c-0.37,0.09-0.64,0.2-0.81,0.35
					c-0.17,0.14-0.2,0.29-0.1,0.43c0.05,0.07,0.12,0.13,0.21,0.18c0.09,0.05,0.19,0.09,0.31,0.11c0.12,0.03,0.25,0.04,0.38,0.04
					C393.41,238.52,393.55,238.5,393.68,238.47z"/>
				<path class="st4" d="M403.83,236.44l-0.74,0.17l-0.98-1.42c-0.19-0.26-0.39-0.45-0.63-0.54s-0.5-0.1-0.79-0.04
					c-0.3,0.07-0.53,0.2-0.68,0.38c-0.15,0.18-0.21,0.38-0.17,0.6l1.06,1.52l-0.74,0.17l-0.99-1.42c-0.19-0.27-0.4-0.45-0.63-0.54
					s-0.49-0.1-0.79-0.03c-0.3,0.07-0.52,0.19-0.68,0.37s-0.22,0.38-0.18,0.6l1.06,1.53l-0.74,0.17l-1.76-2.53l0.67-0.16l0.38,0.54
					c0.05-0.23,0.18-0.43,0.4-0.6c0.21-0.17,0.5-0.29,0.86-0.38c0.37-0.09,0.7-0.09,1-0.03c0.3,0.07,0.53,0.18,0.71,0.35
					c0.11-0.5,0.52-0.84,1.24-1.01c0.25-0.06,0.48-0.08,0.69-0.07s0.4,0.06,0.56,0.13c0.17,0.07,0.32,0.17,0.45,0.29
					s0.26,0.25,0.36,0.41L403.83,236.44z"/>
				<path class="st4" d="M406.96,235.77c-0.33,0.08-0.66,0.11-0.98,0.1c-0.32,0-0.62-0.05-0.9-0.12c-0.28-0.08-0.53-0.18-0.75-0.31
					s-0.39-0.29-0.52-0.47c-0.12-0.18-0.19-0.36-0.19-0.54s0.06-0.36,0.17-0.52c0.12-0.17,0.29-0.32,0.51-0.45
					c0.23-0.13,0.5-0.24,0.84-0.32c0.33-0.08,0.66-0.11,0.98-0.1s0.62,0.05,0.89,0.12c0.27,0.07,0.52,0.18,0.73,0.31
					c0.21,0.13,0.38,0.28,0.5,0.45c0.02,0.03,0.04,0.07,0.06,0.1s0.03,0.05,0.04,0.07l-3.64,0.84c0.1,0.12,0.23,0.23,0.39,0.31
					s0.33,0.15,0.51,0.19c0.19,0.04,0.38,0.07,0.58,0.07c0.2,0,0.4-0.02,0.59-0.06c0.14-0.03,0.26-0.07,0.37-0.12
					c0.11-0.05,0.21-0.11,0.3-0.17s0.16-0.13,0.21-0.2c0.05-0.07,0.08-0.14,0.08-0.22l0.71-0.05c-0.01,0.11-0.05,0.22-0.12,0.33
					s-0.17,0.21-0.3,0.3c-0.13,0.1-0.28,0.18-0.46,0.26C407.38,235.65,407.18,235.72,406.96,235.77z M407.43,233.93
					c-0.1-0.11-0.23-0.21-0.39-0.3c-0.16-0.08-0.33-0.14-0.51-0.18c-0.18-0.04-0.37-0.06-0.57-0.06s-0.4,0.02-0.6,0.07
					c-0.2,0.04-0.37,0.11-0.51,0.19c-0.15,0.08-0.26,0.17-0.34,0.28c-0.08,0.1-0.13,0.21-0.14,0.33s0.02,0.24,0.08,0.36
					L407.43,233.93z"/>
			</g>
		</g>
	</g>
	
		<linearGradient id="SVGID_42_" gradientUnits="userSpaceOnUse" x1="66.6925" y1="235.94" x2="520.4675" y2="235.94" gradientTransform="matrix(1 0 0 -1 0 504)">
		<stop  offset="0.1801" style="stop-color:#B1B1FE"/>
		<stop  offset="0.5049" style="stop-color:#94F1F4"/>
		<stop  offset="0.9709" style="stop-color:#A1D4F8"/>
	</linearGradient>
	<path class="st24" d="M259.56,136.89v7.18l0,0c4.59,0,8.95,1,11.97,2.75l238.93,138.26c2.35,1.36,2.82,2.53,2.82,2.77
		s-0.48,1.41-2.83,2.77L339.53,389.3c-3.01,1.74-7.36,2.74-11.94,2.74c-4.59,0-8.95-1-11.97-2.75L76.7,251.03
		c-2.34-1.36-2.82-2.53-2.82-2.77s0.48-1.41,2.83-2.77l170.92-98.68c3.01-1.74,7.36-2.74,11.94-2.74L259.56,136.89 M259.56,136.89
		c-5.63,0-11.26,1.23-15.53,3.7L73.11,239.27c-8.55,4.94-8.56,13.03-0.01,17.98l238.93,138.26c4.28,2.48,9.92,3.72,15.57,3.72
		c5.63,0,11.26-1.23,15.53-3.7l170.92-98.68c8.55-4.94,8.56-13.03,0.01-17.97L275.12,140.61
		C270.84,138.13,265.2,136.89,259.56,136.89L259.56,136.89z"/>
	<g id="point">
		<path class="st25" d="M344.2,291.37c-27.81,16.06-72.95,16.06-100.79,0c-27.84-16.08-27.84-42.13-0.02-58.2
			c27.86-16.07,72.98-16.07,100.81,0C372.05,249.24,372.06,275.3,344.2,291.37z"/>
		<path class="st26" d="M327.14,281.51c-18.39,10.62-48.24,10.62-66.65,0c-18.41-10.63-18.41-27.86-0.01-38.49
			c18.42-10.62,48.26-10.62,66.66,0C345.55,253.65,345.56,270.89,327.14,281.51z"/>
		<path class="st27" d="M310.26,271.76c-9.08,5.24-23.81,5.24-32.89,0c-9.09-5.25-9.08-13.75-0.01-18.99
			c9.09-5.25,23.81-5.25,32.89,0C319.34,258.02,319.34,266.52,310.26,271.76z"/>
		<path class="st28" d="M303.7,267.36c-5.46,3.15-14.31,3.15-19.77,0c-5.46-3.16-5.46-8.27,0-11.42c5.46-3.15,14.31-3.15,19.77,0
			C309.16,259.1,309.16,264.21,303.7,267.36z"/>
		<path class="st29" d="M298.01,264.08c-2.32,1.34-6.08,1.34-8.4,0s-2.32-3.51,0-4.85s6.08-1.34,8.4,0
			C300.33,260.57,300.33,262.74,298.01,264.08z"/>
	</g>
	<g>
		<polygon class="st30" points="368.4,372.64 344.56,358.87 333.39,365.33 357.23,379.09 		"/>
		<g>
			<g>
				
					<linearGradient id="SVGID_43_" gradientUnits="userSpaceOnUse" x1="333.39" y1="144.205" x2="357.23" y2="144.205" gradientTransform="matrix(1 0 0 -1 0 504)">
					<stop  offset="0.0777" style="stop-color:#00A2FF"/>
					<stop  offset="0.9272" style="stop-color:#47BBFF"/>
				</linearGradient>
				<polygon class="st31" points="357.23,378.64 333.39,364.88 333.39,340.95 357.23,354.72 				"/>
			</g>
		</g>
		<g>
			<polygon class="st32" points="368.4,372.19 357.23,378.64 357.23,354.72 368.4,348.26 			"/>
		</g>
		<path class="st33" d="M354.72,371.69l-1.17-0.67v-13.77l1.17,0.67V371.69z M352.76,356.78l-1.17-0.67v13.78l1.17,0.67V356.78z
			 M350.8,355.65l-1.17-0.68v13.77l1.17,0.67V355.65z M348.83,354.51l-1.17-0.67v13.78l1.17,0.67V354.51z M346.87,353.38l-1.17-0.67
			v13.77l1.17,0.67V353.38z M344.91,352.24l-1.17-0.67v13.77l1.17,0.67V352.24z M342.95,351.11l-1.17-0.67v13.77l1.17,0.67V351.11z
			 M340.98,349.98l-1.17-0.67v13.77l1.17,0.67V349.98z M339.02,348.84l-1.17-0.67v13.77l1.17,0.68V348.84z M337.06,347.71
			l-1.17-0.68v13.78l1.17,0.67V347.71z"/>
		<path class="st33" d="M366.45,369.69l-0.94,0.54v2.03l0.94-0.54V369.69z M364.87,370.61l-0.94,0.54v2.03l0.94-0.54V370.61z
			 M363.28,371.52l-0.94,0.55v2.03l0.94-0.54V371.52z M361.7,372.43l-0.94,0.54V375l0.94-0.54V372.43z M360.12,373.34l-0.94,0.54
			v2.03l0.94-0.54V373.34z M366.45,367.08l-0.94,0.54v2.03l0.94-0.54V367.08z M364.87,367.99l-0.94,0.54v2.03l0.94-0.54V367.99z
			 M363.28,368.91l-0.94,0.54v2.03l0.94-0.54V368.91z M361.7,369.82l-0.94,0.54v2.03l0.94-0.54V369.82z M360.12,370.73l-0.94,0.54
			v2.03l0.94-0.54V370.73z M366.45,364.47l-0.94,0.54v2.03l0.94-0.54V364.47z M364.87,365.38l-0.94,0.54v2.03l0.94-0.54V365.38z
			 M363.28,366.3l-0.94,0.54v2.03l0.94-0.54V366.3z M361.7,367.21l-0.94,0.54v2.03l0.94-0.54V367.21z M360.12,368.12l-0.94,0.54
			v2.03l0.94-0.54V368.12z M366.45,361.86l-0.94,0.54v2.03l0.94-0.54V361.86z M364.86,362.78l-0.94,0.54v2.03l0.94-0.54V362.78z
			 M363.28,363.69l-0.94,0.54v2.03l0.94-0.54V363.69z M361.7,364.6l-0.94,0.54v2.03l0.94-0.54V364.6z M360.12,365.51l-0.94,0.54
			v2.03l0.94-0.54V365.51z M366.45,359.25l-0.94,0.54v2.03l0.94-0.54V359.25z M364.87,360.16l-0.94,0.54v2.03l0.94-0.54V360.16z
			 M363.28,361.08l-0.94,0.54v2.03l0.94-0.54V361.08z M361.7,361.99l-0.94,0.54v2.03l0.94-0.54V361.99z M360.12,362.9l-0.94,0.54
			v2.03l0.94-0.54V362.9z M366.45,356.64l-0.94,0.54v2.03l0.94-0.54V356.64z M364.87,357.55l-0.94,0.54v2.03l0.94-0.54V357.55z
			 M363.28,358.47l-0.94,0.54v2.03l0.94-0.54V358.47z M361.7,359.38l-0.94,0.54v2.03l0.94-0.54V359.38z M360.12,360.29l-0.94,0.54
			v2.03l0.94-0.54V360.29z M366.45,354.03l-0.94,0.54v2.03l0.94-0.54V354.03z M364.86,354.95l-0.94,0.54v2.03l0.94-0.54V354.95z
			 M363.28,355.86l-0.94,0.54v2.03l0.94-0.54V355.86z M361.7,356.77l-0.94,0.54v2.03l0.94-0.54V356.77z M360.12,357.68l-0.94,0.54
			v2.03l0.94-0.54V357.68z"/>
		<polygon class="st33" points="354.72,375.33 335.89,364.46 335.89,361.53 354.72,372.4 		"/>
		<polygon class="st34" points="368.4,348.69 344.56,334.93 333.39,341.38 357.23,355.15 		"/>
		<polygon class="st35" points="368.4,348.26 344.56,334.5 333.39,340.95 357.23,354.72 		"/>
		
			<linearGradient id="SVGID_44_" gradientUnits="userSpaceOnUse" x1="339.39" y1="158.71" x2="355.06" y2="158.71" gradientTransform="matrix(1 0 0 -1 0 504)">
			<stop  offset="0.0777" style="stop-color:#00A2FF"/>
			<stop  offset="0.9272" style="stop-color:#47BBFF"/>
		</linearGradient>
		<polygon class="st36" points="339.39,339.33 339.39,342.2 355.06,351.25 355.06,348.38 		"/>
		<polygon class="st35" points="362.4,344.14 346.73,335.09 339.39,339.33 355.06,348.38 		"/>
		<polygon class="st32" points="355.06,348.38 355.06,351.25 362.4,347.01 362.4,344.14 		"/>
		
			<linearGradient id="SVGID_45_" gradientUnits="userSpaceOnUse" x1="344.52" y1="161.66" x2="353.2" y2="161.66" gradientTransform="matrix(1 0 0 -1 0 504)">
			<stop  offset="0.0777" style="stop-color:#00A2FF"/>
			<stop  offset="0.9272" style="stop-color:#47BBFF"/>
		</linearGradient>
		<polygon class="st37" points="344.52,339.04 344.52,340.63 353.2,345.64 353.2,344.05 		"/>
		<polygon class="st35" points="357.27,341.7 348.59,336.68 344.52,339.04 353.2,344.05 		"/>
		<polygon class="st32" points="353.2,344.05 353.2,345.64 357.27,343.29 357.27,341.7 		"/>
	</g>
	<g>
		<g>
			<g class="st38">
				<g class="st38">
					<g>
						<defs>
							<path id="SVGID_46_" d="M268.34,198.3l11.05-2.5c0.36-0.08,0.74-0.13,1.12-0.14c0.6-0.01,1.21,0.08,1.8,0.26l-11.05,2.5
								c-0.59-0.18-1.2-0.27-1.8-0.26C269.07,198.17,268.7,198.22,268.34,198.3z"/>
						</defs>
						<clipPath id="SVGID_47_">
							<use xlink:href="#SVGID_46_"  style="overflow:visible;"/>
						</clipPath>
						<g class="st39">
							<path class="st40" d="M268.34,198.3l11.05-2.5c0.36-0.08,0.74-0.13,1.12-0.14c0.6-0.01,1.21,0.08,1.8,0.26l-11.05,2.5
								c-0.59-0.18-1.2-0.27-1.8-0.26C269.07,198.17,268.7,198.22,268.34,198.3"/>
						</g>
					</g>
				</g>
				<g class="st38">
					<g>
						<defs>
							<path id="SVGID_48_" d="M279.33,211.32l11.05-2.5c0.03,0.61,0.06,1.23,0.05,1.83c-0.2,11.68-0.67,39.22-0.67,39.53
								l-11.05,2.5c0.01-0.31,0.48-27.86,0.67-39.53C279.39,212.55,279.37,211.93,279.33,211.32z"/>
						</defs>
						<clipPath id="SVGID_49_">
							<use xlink:href="#SVGID_48_"  style="overflow:visible;"/>
						</clipPath>
						<g class="st41">
							<path class="st42" d="M279.33,211.32l11.05-2.5c0.02,0.3,0.03,0.59,0.04,0.89l-11.05,2.5
								C279.36,211.91,279.35,211.61,279.33,211.32"/>
							<path class="st43" d="M279.37,212.21l11.05-2.5c0.01,0.18,0.01,0.36,0.01,0.54l-11.05,2.5
								C279.38,212.57,279.38,212.39,279.37,212.21"/>
							<path class="st43" d="M279.38,212.75l11.05-2.5c0,0.13,0,0.27,0,0.4c-0.2,11.68-0.67,39.22-0.67,39.53l-11.05,2.5
								c0.01-0.31,0.48-27.86,0.67-39.53C279.38,213.02,279.38,212.88,279.38,212.75"/>
						</g>
					</g>
				</g>
				<g>
					<path class="st44" d="M271.26,198.42c4.07,1.24,7.68,6.76,8.07,12.9c0.03,0.61,0.06,1.23,0.05,1.83
						c-0.2,11.68-0.67,39.22-0.67,39.53l-16.68-4.98c0.01-0.37,0.47-27.89,0.67-39.52c0.1-5.95,2.79-9.92,6.76-10.03
						C270.06,198.15,270.67,198.24,271.26,198.42z"/>
				</g>
				<g class="st38">
					<g>
						<defs>
							<path id="SVGID_50_" d="M271.26,198.42l11.05-2.5c4.07,1.24,7.68,6.76,8.07,12.9l-11.05,2.5
								C278.94,205.18,275.33,199.66,271.26,198.42z"/>
						</defs>
						<clipPath id="SVGID_51_">
							<use xlink:href="#SVGID_50_"  style="overflow:visible;"/>
						</clipPath>
						<g class="st45">
							<path class="st40" d="M271.26,198.42l11.05-2.5c1.68,0.51,3.28,1.75,4.6,3.46l-11.05,2.5
								C274.54,200.17,272.94,198.93,271.26,198.42"/>
							<path class="st46" d="M275.86,201.88l11.05-2.5c0.17,0.22,0.33,0.44,0.49,0.67l-11.05,2.5
								C276.2,202.32,276.03,202.1,275.86,201.88"/>
							<path class="st46" d="M276.36,202.55l11.05-2.5c0.13,0.18,0.25,0.37,0.37,0.56l-11.05,2.5
								C276.6,202.92,276.48,202.73,276.36,202.55"/>
							<path class="st46" d="M276.72,203.11l11.05-2.5c0.1,0.16,0.2,0.32,0.29,0.48l-11.05,2.5
								C276.92,203.43,276.82,203.27,276.72,203.11"/>
							<path class="st46" d="M277.01,203.59l11.05-2.5c0.08,0.15,0.17,0.29,0.25,0.44l-11.05,2.5
								C277.18,203.88,277.1,203.73,277.01,203.59"/>
							<path class="st46" d="M277.26,204.03l11.05-2.5c0.08,0.14,0.15,0.29,0.22,0.43l-11.05,2.5
								C277.41,204.32,277.34,204.17,277.26,204.03"/>
							<path class="st46" d="M277.48,204.46l11.05-2.5c0.06,0.13,0.13,0.26,0.19,0.39l-11.05,2.5
								C277.61,204.72,277.55,204.59,277.48,204.46"/>
							<path class="st46" d="M277.67,204.85l11.05-2.5c0.06,0.13,0.12,0.26,0.18,0.39l-11.05,2.5
								C277.79,205.11,277.73,204.98,277.67,204.85"/>
							<path class="st47" d="M277.85,205.24l11.05-2.5c0.05,0.12,0.1,0.24,0.15,0.36L278,205.6
								C277.95,205.48,277.9,205.36,277.85,205.24"/>
							<path class="st48" d="M278,205.61l11.05-2.5c0.05,0.12,0.1,0.24,0.15,0.37l-11.05,2.5C278.1,205.85,278.05,205.73,278,205.61
								"/>
							<path class="st49" d="M278.15,205.97l11.05-2.5c0.04,0.12,0.09,0.23,0.13,0.35l-11.05,2.5
								C278.24,206.2,278.2,206.09,278.15,205.97"/>
							<path class="st49" d="M278.28,206.32l11.05-2.5c0.04,0.11,0.08,0.23,0.12,0.35l-11.05,2.5
								C278.37,206.55,278.32,206.44,278.28,206.32"/>
							<path class="st49" d="M278.41,206.67l11.05-2.5c0.04,0.11,0.08,0.23,0.11,0.34l-11.05,2.5
								C278.48,206.9,278.44,206.78,278.41,206.67"/>
							<path class="st49" d="M278.52,207.01l11.05-2.5c0.04,0.11,0.07,0.22,0.1,0.34l-11.05,2.5
								C278.59,207.24,278.55,207.12,278.52,207.01"/>
							<path class="st49" d="M278.62,207.35l11.05-2.5c0.03,0.11,0.07,0.23,0.1,0.34l-11.05,2.5
								C278.69,207.57,278.66,207.46,278.62,207.35"/>
							<path class="st49" d="M278.72,207.69l11.05-2.5c0.03,0.11,0.06,0.22,0.09,0.33l-11.05,2.5
								C278.78,207.91,278.75,207.8,278.72,207.69"/>
							<path class="st50" d="M278.81,208.02l11.05-2.5c0.03,0.11,0.06,0.22,0.08,0.33l-11.05,2.5
								C278.86,208.24,278.84,208.13,278.81,208.02"/>
							<path class="st50" d="M278.89,208.35l11.05-2.5c0.03,0.11,0.05,0.22,0.08,0.34l-11.05,2.5
								C278.94,208.57,278.92,208.46,278.89,208.35"/>
							<path class="st51" d="M278.97,208.69l11.05-2.5c0.02,0.11,0.05,0.22,0.07,0.33l-11.05,2.5
								C279.01,208.91,278.99,208.8,278.97,208.69"/>
							<path class="st51" d="M279.04,209.02l11.05-2.5c0.02,0.11,0.04,0.22,0.06,0.34l-11.05,2.5
								C279.08,209.25,279.06,209.13,279.04,209.02"/>
							<path class="st51" d="M279.1,209.36l11.05-2.5c0.02,0.11,0.04,0.23,0.06,0.34l-11.05,2.5
								C279.14,209.59,279.12,209.47,279.1,209.36"/>
							<path class="st51" d="M279.16,209.7l11.05-2.5c0.02,0.12,0.04,0.23,0.05,0.35l-11.05,2.5
								C279.19,209.93,279.17,209.82,279.16,209.7"/>
							<path class="st51" d="M279.21,210.05l11.05-2.5c0.02,0.12,0.03,0.23,0.04,0.35l-11.05,2.5
								C279.24,210.28,279.22,210.16,279.21,210.05"/>
							<path class="st42" d="M279.25,210.4l11.05-2.5c0.01,0.12,0.03,0.24,0.04,0.37l-11.05,2.5
								C279.28,210.64,279.27,210.52,279.25,210.4"/>
							<path class="st42" d="M279.29,210.76l11.05-2.5c0.01,0.12,0.02,0.25,0.03,0.37l-11.05,2.5
								C279.31,211.01,279.3,210.89,279.29,210.76"/>
							<path class="st42" d="M279.32,211.13l11.05-2.5c0,0.06,0.01,0.12,0.01,0.19l-11.05,2.5
								C279.33,211.26,279.33,211.19,279.32,211.13"/>
						</g>
					</g>
				</g>
			</g>
			<g class="st38">
				<g class="st38">
					<g>
						<defs>
							<path id="SVGID_52_" d="M301.88,208.48l11.05-2.5c0.57-0.13,1.17-0.17,1.8-0.12c0.4,0.03,0.8,0.11,1.19,0.23l-11.05,2.5
								c-0.39-0.12-0.79-0.2-1.19-0.23C303.05,208.3,302.45,208.35,301.88,208.48z"/>
						</defs>
						<clipPath id="SVGID_53_">
							<use xlink:href="#SVGID_52_"  style="overflow:visible;"/>
						</clipPath>
						<g class="st52">
							<path class="st40" d="M301.88,208.48l11.05-2.5c0.57-0.13,1.17-0.17,1.8-0.12c0.4,0.03,0.8,0.11,1.19,0.23l-11.05,2.5
								c-0.39-0.12-0.79-0.2-1.19-0.23C303.05,208.3,302.45,208.35,301.88,208.48"/>
						</g>
					</g>
				</g>
				<g class="st38">
					<g>
						<defs>
							<path id="SVGID_54_" d="M304.87,208.58l11.05-2.5c4.04,1.24,7.72,6.97,8.02,12.93c0.05,0.89,0.05,1.74,0.04,2.61
								c-0.19,11.45-0.65,38.43-0.66,38.69l-11.05,2.5c0-0.26,0.47-27.24,0.66-38.69c0.01-0.87,0.01-1.72-0.04-2.61
								C312.58,215.55,308.91,209.82,304.87,208.58z"/>
						</defs>
						<clipPath id="SVGID_55_">
							<use xlink:href="#SVGID_54_"  style="overflow:visible;"/>
						</clipPath>
						<g class="st53">
							<path class="st40" d="M304.87,208.58l11.05-2.5c1.64,0.5,3.22,1.75,4.54,3.45l-11.05,2.5
								C308.09,210.33,306.51,209.08,304.87,208.58"/>
							<path class="st46" d="M309.41,212.03l11.05-2.5c0.17,0.22,0.34,0.45,0.5,0.68l-11.05,2.5
								C309.75,212.47,309.58,212.25,309.41,212.03"/>
							<path class="st46" d="M309.91,212.71l11.05-2.5c0.13,0.19,0.25,0.38,0.37,0.57l-11.05,2.5
								C310.16,213.08,310.04,212.89,309.91,212.71"/>
							<path class="st46" d="M310.28,213.28l11.05-2.5c0.1,0.16,0.2,0.32,0.29,0.48l-11.05,2.5
								C310.48,213.6,310.38,213.44,310.28,213.28"/>
							<path class="st46" d="M310.57,213.76l11.05-2.5c0.09,0.15,0.17,0.3,0.25,0.46l-11.05,2.5
								C310.75,214.06,310.66,213.91,310.57,213.76"/>
							<path class="st46" d="M310.83,214.22l11.05-2.5c0.08,0.14,0.15,0.29,0.22,0.43l-11.05,2.5
								C310.98,214.5,310.91,214.36,310.83,214.22"/>
							<path class="st46" d="M311.05,214.65l11.05-2.5c0.07,0.13,0.13,0.26,0.19,0.4l-11.05,2.5
								C311.18,214.91,311.12,214.78,311.05,214.65"/>
							<path class="st46" d="M311.25,215.05l11.05-2.5c0.06,0.13,0.12,0.26,0.18,0.39l-11.05,2.5
								C311.37,215.31,311.31,215.18,311.25,215.05"/>
							<path class="st47" d="M311.43,215.44l11.05-2.5c0.05,0.12,0.11,0.24,0.16,0.37l-11.05,2.5
								C311.53,215.68,311.48,215.56,311.43,215.44"/>
							<path class="st48" d="M311.58,215.81l11.05-2.5c0.05,0.12,0.1,0.24,0.15,0.36l-11.05,2.5
								C311.68,216.05,311.63,215.93,311.58,215.81"/>
							<path class="st49" d="M311.73,216.17l11.05-2.5c0.05,0.12,0.09,0.23,0.13,0.35l-11.05,2.5
								C311.82,216.41,311.77,216.29,311.73,216.17"/>
							<path class="st49" d="M311.86,216.52l11.05-2.5c0.04,0.11,0.08,0.23,0.12,0.34l-11.05,2.5
								C311.94,216.75,311.9,216.64,311.86,216.52"/>
							<path class="st49" d="M311.98,216.87l11.05-2.5c0.04,0.11,0.08,0.23,0.11,0.34l-11.05,2.5
								C312.06,217.09,312.02,216.98,311.98,216.87"/>
							<path class="st49" d="M312.09,217.21l11.05-2.5c0.03,0.11,0.07,0.22,0.1,0.33l-11.05,2.5
								C312.16,217.43,312.13,217.32,312.09,217.21"/>
							<path class="st49" d="M312.2,217.54l11.05-2.5c0.03,0.11,0.06,0.22,0.09,0.33l-11.05,2.5
								C312.26,217.75,312.23,217.64,312.2,217.54"/>
							<path class="st49" d="M312.29,217.87l11.05-2.5c0.03,0.11,0.06,0.22,0.09,0.32l-11.05,2.5
								C312.35,218.08,312.32,217.97,312.29,217.87"/>
							<path class="st50" d="M312.38,218.19l11.05-2.5c0.03,0.11,0.05,0.21,0.08,0.32l-11.05,2.5
								C312.43,218.4,312.4,218.3,312.38,218.19"/>
							<path class="st50" d="M312.46,218.51l11.05-2.5c0.03,0.11,0.05,0.21,0.07,0.32l-11.05,2.5
								C312.51,218.73,312.48,218.62,312.46,218.51"/>
							<path class="st51" d="M312.53,218.83l11.05-2.5c0.02,0.11,0.05,0.21,0.07,0.32l-11.05,2.5
								C312.57,219.05,312.55,218.94,312.53,218.83"/>
							<path class="st51" d="M312.59,219.15l11.05-2.5c0.02,0.11,0.04,0.21,0.06,0.32l-11.05,2.5
								C312.64,219.37,312.62,219.26,312.59,219.15"/>
							<path class="st51" d="M312.65,219.47l11.05-2.5c0.02,0.11,0.04,0.21,0.05,0.32l-11.05,2.5
								C312.69,219.69,312.67,219.58,312.65,219.47"/>
							<path class="st51" d="M312.71,219.8l11.05-2.5c0.02,0.11,0.03,0.22,0.05,0.33l-11.05,2.5
								C312.74,220.01,312.73,219.9,312.71,219.8"/>
							<path class="st51" d="M312.76,220.12l11.05-2.5c0.01,0.11,0.03,0.22,0.04,0.33l-11.05,2.5
								C312.79,220.34,312.77,220.23,312.76,220.12"/>
							<path class="st42" d="M312.8,220.45l11.05-2.5c0.01,0.12,0.03,0.24,0.04,0.36l-11.05,2.5
								C312.82,220.69,312.81,220.57,312.8,220.45"/>
							<path class="st42" d="M312.84,220.81l11.05-2.5c0.01,0.13,0.02,0.26,0.03,0.39l-11.05,2.5
								C312.86,221.06,312.85,220.93,312.84,220.81"/>
							<path class="st42" d="M312.87,221.19l11.05-2.5c0.01,0.1,0.01,0.21,0.02,0.31c0,0.03,0,0.06,0.01,0.1l-11.05,2.5
								c0-0.03,0-0.06-0.01-0.1C312.88,221.4,312.88,221.3,312.87,221.19"/>
							<path class="st42" d="M312.89,221.6l11.05-2.5c0.01,0.19,0.02,0.39,0.02,0.58l-11.05,2.5
								C312.91,221.99,312.9,221.8,312.89,221.6"/>
							<path class="st43" d="M312.92,222.18l11.05-2.5c0.01,0.27,0.01,0.53,0.01,0.8l-11.05,2.5
								C312.93,222.71,312.92,222.45,312.92,222.18"/>
							<path class="st43" d="M312.93,222.98l11.05-2.5c0,0.38,0,0.76-0.01,1.14c-0.19,11.45-0.65,38.43-0.66,38.69l-11.05,2.5
								c0-0.26,0.47-27.24,0.66-38.69C312.93,223.74,312.93,223.36,312.93,222.98"/>
						</g>
					</g>
				</g>
				<g>
					<path class="st44" d="M304.87,208.58c4.04,1.24,7.72,6.97,8.02,12.93c0.05,0.89,0.05,1.74,0.04,2.61
						c-0.19,11.45-0.65,38.43-0.66,38.69l-16.7-5.03c0.02-1.39,0.48-27.8,0.67-39.44c0.1-6.31,3.09-10.32,7.44-10
						C304.08,208.38,304.48,208.46,304.87,208.58z"/>
				</g>
			</g>
			<g class="st38">
				<g class="st38">
					<g>
						<defs>
							<path id="SVGID_56_" d="M268.76,170.64l11.05-2.5c0.94-0.21,1.95-0.17,3.01,0.15l-11.05,2.5
								C270.71,170.47,269.69,170.43,268.76,170.64z"/>
						</defs>
						<clipPath id="SVGID_57_">
							<use xlink:href="#SVGID_56_"  style="overflow:visible;"/>
						</clipPath>
						<g class="st54">
							<path class="st40" d="M268.76,170.64l11.05-2.5c0.94-0.21,1.95-0.17,3.01,0.15l-11.05,2.5
								C270.71,170.47,269.69,170.43,268.76,170.64"/>
						</g>
					</g>
				</g>
				<g class="st38">
					<g>
						<defs>
							<path id="SVGID_58_" d="M285.28,192.17l-11.05,2.5c3.18-0.72,5.49-4.3,5.61-9.32c0.16-6.63-3.44-13.14-8.08-14.56l11.05-2.5
								c4.63,1.43,8.24,7.94,8.08,14.56C290.78,187.87,288.46,191.46,285.28,192.17z"/>
						</defs>
						<clipPath id="SVGID_59_">
							<use xlink:href="#SVGID_58_"  style="overflow:visible;"/>
						</clipPath>
						<g class="st55">
							<path class="st40" d="M271.77,170.79l11.05-2.5c1.71,0.53,3.27,1.74,4.56,3.4l-11.05,2.5
								C275.04,172.53,273.47,171.32,271.77,170.79"/>
							<path class="st46" d="M276.33,174.19l11.05-2.5c0.17,0.21,0.33,0.43,0.48,0.66l-11.05,2.5
								C276.66,174.62,276.5,174.4,276.33,174.19"/>
							<path class="st46" d="M276.81,174.85l11.05-2.5c0.12,0.18,0.24,0.36,0.36,0.55l-11.05,2.5
								C277.06,175.21,276.94,175.03,276.81,174.85"/>
							<path class="st46" d="M277.17,175.4l11.05-2.5c0.1,0.15,0.19,0.31,0.28,0.46l-11.05,2.5
								C277.36,175.7,277.27,175.55,277.17,175.4"/>
							<path class="st46" d="M277.45,175.86l11.05-2.5c0.08,0.15,0.17,0.29,0.25,0.44l-11.05,2.5
								C277.62,176.15,277.54,176.01,277.45,175.86"/>
							<path class="st46" d="M277.7,176.3l11.05-2.5c0.07,0.14,0.15,0.27,0.22,0.41l-11.05,2.5
								C277.85,176.58,277.77,176.44,277.7,176.3"/>
							<path class="st46" d="M277.92,176.72l11.05-2.5c0.07,0.13,0.13,0.26,0.19,0.4l-11.05,2.5
								C278.05,176.98,277.98,176.85,277.92,176.72"/>
							<path class="st46" d="M278.11,177.12l11.05-2.5c0.06,0.13,0.12,0.25,0.17,0.38l-11.05,2.5
								C278.23,177.37,278.17,177.24,278.11,177.12"/>
							<path class="st47" d="M278.28,177.5l11.05-2.5c0.06,0.12,0.11,0.25,0.16,0.38l-11.05,2.5
								C278.39,177.75,278.34,177.62,278.28,177.5"/>
							<path class="st48" d="M278.45,177.88l11.05-2.5c0.05,0.12,0.1,0.24,0.14,0.36l-11.05,2.5
								C278.54,178.12,278.49,178,278.45,177.88"/>
							<path class="st49" d="M278.59,178.24l11.05-2.5c0.05,0.12,0.09,0.24,0.14,0.36l-11.05,2.5
								C278.68,178.48,278.64,178.36,278.59,178.24"/>
							<path class="st49" d="M278.73,178.6l11.05-2.5c0.04,0.12,0.08,0.23,0.12,0.35l-11.05,2.5
								C278.81,178.83,278.77,178.72,278.73,178.6"/>
							<path class="st49" d="M278.85,178.95l11.05-2.5c0.04,0.12,0.08,0.23,0.12,0.35l-11.05,2.5
								C278.93,179.18,278.89,179.06,278.85,178.95"/>
							<path class="st49" d="M278.96,179.3l11.05-2.5c0.04,0.12,0.07,0.23,0.11,0.35l-11.05,2.5
								C279.04,179.53,279,179.41,278.96,179.3"/>
							<path class="st49" d="M279.07,179.65l11.05-2.5c0.03,0.11,0.07,0.23,0.1,0.34l-11.05,2.5
								C279.14,179.88,279.11,179.76,279.07,179.65"/>
							<path class="st49" d="M279.17,179.99l11.05-2.5c0.03,0.11,0.06,0.23,0.09,0.35l-11.05,2.5
								C279.23,180.22,279.2,180.11,279.17,179.99"/>
							<path class="st50" d="M279.26,180.34l11.05-2.5c0.03,0.11,0.06,0.23,0.09,0.35l-11.05,2.5
								C279.32,180.57,279.29,180.45,279.26,180.34"/>
							<path class="st50" d="M279.35,180.68l11.05-2.5c0.03,0.11,0.05,0.23,0.08,0.35l-11.05,2.5
								C279.4,180.91,279.38,180.8,279.35,180.68"/>
							<path class="st51" d="M279.43,181.03l11.05-2.5c0.03,0.12,0.05,0.23,0.07,0.35l-11.05,2.5
								C279.48,181.26,279.45,181.14,279.43,181.03"/>
							<path class="st51" d="M279.5,181.38l11.05-2.5c0.02,0.12,0.05,0.24,0.07,0.35l-11.05,2.5
								C279.54,181.61,279.52,181.49,279.5,181.38"/>
							<path class="st51" d="M279.56,181.73l11.05-2.5c0.02,0.12,0.04,0.24,0.06,0.36l-11.05,2.5
								C279.61,181.97,279.59,181.85,279.56,181.73"/>
							<path class="st51" d="M279.62,182.09l11.05-2.5c0.02,0.12,0.04,0.24,0.05,0.36l-11.05,2.5
								C279.66,182.33,279.64,182.21,279.62,182.09"/>
							<path class="st51" d="M279.68,182.45l11.05-2.5c0.02,0.12,0.03,0.25,0.05,0.37l-11.05,2.5
								C279.71,182.7,279.69,182.57,279.68,182.45"/>
							<path class="st42" d="M279.72,182.82l11.05-2.5c0.01,0.12,0.03,0.25,0.04,0.37l-11.05,2.5
								C279.75,183.07,279.74,182.95,279.72,182.82"/>
							<path class="st42" d="M279.76,183.2l11.05-2.5c0.01,0.13,0.02,0.26,0.03,0.39l-11.05,2.5
								C279.79,183.46,279.78,183.33,279.76,183.2"/>
							<path class="st42" d="M279.8,183.59l11.05-2.5c0.01,0.13,0.02,0.27,0.03,0.4l-11.05,2.5
								C279.82,183.85,279.81,183.72,279.8,183.59"/>
							<path class="st42" d="M279.82,183.99l11.05-2.5c0.01,0.14,0.01,0.27,0.02,0.41l-11.05,2.5
								C279.84,184.26,279.83,184.13,279.82,183.99"/>
							<path class="st43" d="M279.84,184.4l11.05-2.5c0,0.15,0.01,0.3,0.01,0.46l-11.05,2.5
								C279.85,184.7,279.85,184.55,279.84,184.4"/>
							<path class="st43" d="M279.85,184.85l11.05-2.5c0,0.15,0,0.3,0,0.46l-11.05,2.5C279.85,185.16,279.85,185.01,279.85,184.85"
								/>
							<path class="st43" d="M279.84,185.31l11.05-2.5c0,0.02,0,0.03,0,0.05c0,0.15-0.01,0.3-0.02,0.45l-11.05,2.5
								c0.01-0.15,0.01-0.3,0.02-0.45C279.84,185.34,279.84,185.33,279.84,185.31"/>
							<path class="st43" d="M279.83,185.81l11.05-2.5c-0.01,0.16-0.02,0.33-0.03,0.49l-11.05,2.5
								C279.81,186.13,279.82,185.97,279.83,185.81"/>
							<path class="st56" d="M279.8,186.29l11.05-2.5c-0.02,0.2-0.04,0.39-0.06,0.58l-11.05,2.5
								C279.76,186.69,279.78,186.49,279.8,186.29"/>
							<path class="st56" d="M279.74,186.88l11.05-2.5c-0.03,0.22-0.06,0.44-0.09,0.65l-11.05,2.5
								C279.68,187.31,279.71,187.1,279.74,186.88"/>
							<path class="st56" d="M279.64,187.53l11.05-2.5c-0.05,0.29-0.1,0.57-0.17,0.84l-11.05,2.5
								C279.54,188.09,279.6,187.81,279.64,187.53"/>
							<path class="st56" d="M279.48,188.37l11.05-2.5c-0.25,1.07-0.61,2.04-1.07,2.88l-11.05,2.5
								C278.87,190.41,279.23,189.44,279.48,188.37"/>
							<path class="st56" d="M278.41,191.24l11.05-2.5c-0.12,0.22-0.25,0.43-0.38,0.64l-11.05,2.5
								C278.16,191.68,278.29,191.47,278.41,191.24"/>
							<path class="st56" d="M278.02,191.88l11.05-2.5c-0.1,0.15-0.21,0.3-0.32,0.45l-11.05,2.5
								C277.81,192.18,277.92,192.03,278.02,191.88"/>
							<path class="st56" d="M277.71,192.33l11.05-2.5c-0.09,0.12-0.18,0.23-0.28,0.34l-11.05,2.5
								C277.52,192.56,277.62,192.44,277.71,192.33"/>
							<path class="st43" d="M277.43,192.67l11.05-2.5c-0.09,0.1-0.18,0.2-0.27,0.3l-11.05,2.5
								C277.25,192.87,277.34,192.77,277.43,192.67"/>
							<path class="st43" d="M277.16,192.97l11.05-2.5c-0.08,0.08-0.16,0.17-0.25,0.25l-11.05,2.5
								C276.99,193.13,277.08,193.05,277.16,192.97"/>
							<path class="st43" d="M276.91,193.21l11.05-2.5c-0.08,0.08-0.16,0.15-0.25,0.22l-11.05,2.5
								C276.75,193.36,276.83,193.29,276.91,193.21"/>
							<path class="st43" d="M276.66,193.43l11.05-2.5c-0.08,0.07-0.15,0.13-0.23,0.19l-11.05,2.5
								C276.51,193.56,276.58,193.5,276.66,193.43"/>
							<path class="st42" d="M276.43,193.62l11.05-2.5c-0.08,0.06-0.16,0.12-0.24,0.17l-11.05,2.5
								C276.27,193.74,276.35,193.68,276.43,193.62"/>
							<path class="st42" d="M276.19,193.8l11.05-2.5c-0.07,0.05-0.15,0.1-0.22,0.15l-11.05,2.5
								C276.04,193.9,276.12,193.85,276.19,193.8"/>
							<path class="st42" d="M275.97,193.95l11.05-2.5c-0.08,0.05-0.15,0.09-0.23,0.14l-11.05,2.5
								C275.81,194.04,275.89,194,275.97,193.95"/>
							<path class="st42" d="M275.74,194.09l11.05-2.5c-0.07,0.04-0.15,0.08-0.22,0.12l-11.05,2.5
								C275.59,194.17,275.66,194.13,275.74,194.09"/>
							<path class="st51" d="M275.51,194.21l11.05-2.5c-0.07,0.04-0.15,0.07-0.22,0.11l-11.05,2.5
								C275.37,194.28,275.44,194.24,275.51,194.21"/>
							<path class="st51" d="M275.29,194.31l11.05-2.5c-0.07,0.03-0.15,0.07-0.23,0.1l-11.05,2.5
								C275.14,194.38,275.22,194.35,275.29,194.31"/>
							<path class="st51" d="M275.07,194.41l11.05-2.5c-0.07,0.03-0.15,0.06-0.22,0.08l-11.05,2.5
								C274.92,194.47,274.99,194.44,275.07,194.41"/>
							<path class="st51" d="M274.84,194.5l11.05-2.5c-0.07,0.03-0.15,0.05-0.22,0.07l-11.05,2.5
								C274.7,194.55,274.77,194.52,274.84,194.5"/>
							<path class="st51" d="M274.62,194.57l11.05-2.5c-0.07,0.02-0.15,0.04-0.23,0.06l-11.05,2.5
								C274.47,194.61,274.55,194.59,274.62,194.57"/>
							<path class="st50" d="M274.39,194.63l11.05-2.5c-0.05,0.01-0.11,0.03-0.16,0.04l-11.05,2.5
								C274.29,194.66,274.34,194.65,274.39,194.63"/>
						</g>
					</g>
				</g>
				<g>
					<path class="st44" d="M271.77,170.79c4.63,1.43,8.24,7.94,8.08,14.56c-0.15,6.48-3.98,10.58-8.59,9.17
						c-4.61-1.45-8.21-7.91-8.07-14.43C263.33,173.46,267.1,169.37,271.77,170.79z"/>
				</g>
				<g class="st38">
					<g>
						<defs>
							<path id="SVGID_60_" d="M296.9,183.8l-11.05,2.5c0.99-0.22,1.86-0.72,2.65-1.49c1.92-1.86,2.86-4.67,2.93-8.29l11.05-2.5
								c-0.07,3.63-1.01,6.44-2.93,8.29C298.76,183.08,297.89,183.58,296.9,183.8z"/>
						</defs>
						<clipPath id="SVGID_61_">
							<use xlink:href="#SVGID_60_"  style="overflow:visible;"/>
						</clipPath>
						<g class="st57">
							<polyline class="st43" points="291.43,176.52 302.48,174.02 302.48,174.03 291.43,176.53 291.43,176.52 							"/>
							<path class="st43" d="M291.43,176.53l11.05-2.5c0,0.21-0.01,0.41-0.02,0.61l-11.05,2.5
								C291.42,176.93,291.43,176.73,291.43,176.53"/>
							<path class="st43" d="M291.41,177.14l11.05-2.5c-0.01,0.21-0.02,0.42-0.04,0.62l-11.05,2.5
								C291.39,177.55,291.4,177.35,291.41,177.14"/>
							<path class="st56" d="M291.37,177.76l11.05-2.5c-0.02,0.22-0.04,0.44-0.06,0.65l-11.05,2.5
								C291.33,178.2,291.35,177.98,291.37,177.76"/>
							<path class="st56" d="M291.31,178.41l11.05-2.5c-0.03,0.24-0.06,0.48-0.1,0.71l-11.05,2.5
								C291.24,178.89,291.28,178.66,291.31,178.41"/>
							<path class="st56" d="M291.21,179.13l11.05-2.5c-0.05,0.3-0.1,0.59-0.17,0.87l-11.05,2.5
								C291.1,179.71,291.16,179.42,291.21,179.13"/>
							<path class="st56" d="M291.04,180l11.05-2.5c-0.24,1.07-0.59,2.02-1.06,2.87l-11.05,2.5
								C290.45,182.02,290.8,181.06,291.04,180"/>
							<path class="st56" d="M289.98,182.87l11.05-2.5c-0.12,0.21-0.24,0.41-0.37,0.61l-11.05,2.5
								C289.74,183.28,289.86,183.08,289.98,182.87"/>
							<path class="st56" d="M289.61,183.48l11.05-2.5c-0.1,0.15-0.21,0.3-0.32,0.45l-11.05,2.5
								C289.4,183.78,289.5,183.63,289.61,183.48"/>
							<path class="st56" d="M289.28,183.93l11.05-2.5c-0.1,0.12-0.19,0.25-0.3,0.36l-11.05,2.5
								C289.09,184.18,289.19,184.05,289.28,183.93"/>
							<path class="st43" d="M288.99,184.29l11.05-2.5c-0.09,0.11-0.19,0.22-0.29,0.32l-11.05,2.5
								C288.8,184.51,288.9,184.4,288.99,184.29"/>
							<path class="st43" d="M288.7,184.61l11.05-2.5c-0.06,0.07-0.13,0.13-0.2,0.2c-0.03,0.03-0.06,0.06-0.09,0.08l-11.05,2.5
								c0.03-0.03,0.06-0.05,0.09-0.08C288.57,184.75,288.63,184.68,288.7,184.61"/>
							<path class="st43" d="M288.42,184.89l11.05-2.5c-0.08,0.08-0.17,0.15-0.25,0.22l-11.05,2.5
								C288.25,185.04,288.33,184.97,288.42,184.89"/>
							<path class="st43" d="M288.16,185.12l11.05-2.5c-0.08,0.07-0.16,0.13-0.24,0.19l-11.05,2.5
								C288.01,185.25,288.09,185.18,288.16,185.12"/>
							<path class="st42" d="M287.93,185.31l11.05-2.5c-0.07,0.06-0.15,0.11-0.22,0.16l-11.05,2.5
								C287.78,185.42,287.85,185.36,287.93,185.31"/>
							<path class="st42" d="M287.7,185.47l11.05-2.5c-0.07,0.05-0.14,0.1-0.22,0.14l-11.05,2.5
								C287.56,185.57,287.63,185.52,287.7,185.47"/>
							<path class="st42" d="M287.49,185.62l11.05-2.5c-0.07,0.04-0.14,0.09-0.21,0.13l-11.05,2.5
								C287.34,185.7,287.42,185.66,287.49,185.62"/>
							<path class="st42" d="M287.27,185.75l11.05-2.5c-0.07,0.04-0.14,0.08-0.21,0.11l-11.05,2.5
								C287.13,185.82,287.2,185.78,287.27,185.75"/>
							<path class="st51" d="M287.06,185.86l11.05-2.5c-0.07,0.04-0.14,0.07-0.21,0.1l-11.05,2.5
								C286.93,185.93,286.99,185.89,287.06,185.86"/>
							<path class="st51" d="M286.86,185.96l11.05-2.5c-0.07,0.03-0.14,0.06-0.21,0.09l-11.05,2.5
								C286.72,186.02,286.79,185.99,286.86,185.96"/>
							<path class="st51" d="M286.65,186.05l11.05-2.5c-0.07,0.03-0.14,0.05-0.21,0.08l-11.05,2.5
								C286.51,186.1,286.58,186.08,286.65,186.05"/>
							<path class="st51" d="M286.44,186.13l11.05-2.5c-0.07,0.02-0.14,0.05-0.21,0.07l-11.05,2.5
								C286.3,186.18,286.37,186.15,286.44,186.13"/>
							<path class="st51" d="M286.22,186.2l11.05-2.5c-0.07,0.02-0.14,0.04-0.22,0.06l-11.05,2.5
								C286.08,186.24,286.15,186.22,286.22,186.2"/>
							<path class="st50" d="M286.01,186.26l11.05-2.5c-0.05,0.01-0.1,0.03-0.15,0.04l-11.05,2.5
								C285.91,186.29,285.96,186.27,286.01,186.26"/>
						</g>
					</g>
				</g>
				<g class="st38">
					<g>
						<defs>
							<path id="SVGID_62_" d="M282.78,152l11.05-2.5c0.71-0.16,1.45-0.24,2.21-0.24c1.34,0.01,2.67,0.2,3.97,0.6l-11.05,2.5
								c-1.31-0.4-2.63-0.59-3.97-0.6C284.24,151.76,283.5,151.83,282.78,152z"/>
						</defs>
						<clipPath id="SVGID_63_">
							<use xlink:href="#SVGID_62_"  style="overflow:visible;"/>
						</clipPath>
						<g class="st58">
							<path class="st40" d="M282.78,152l11.05-2.5c0.71-0.16,1.45-0.24,2.21-0.24c1.34,0.01,2.67,0.2,3.97,0.6l-11.05,2.5
								c-1.31-0.4-2.63-0.59-3.97-0.6C284.24,151.76,283.5,151.83,282.78,152"/>
						</g>
					</g>
				</g>
				<g>
					<path class="st44" d="M288.97,152.36c2.37,0.72,4.67,2.12,6.91,4.28c1.39,1.37,2.62,2.98,3.6,5.01
						c2.03,4.17,1.93,8.75-0.27,11.58c-1.62,2.07-3.67,2.93-5.93,3.19c-0.59,0.07-1.19,0.07-1.84,0.1
						c-0.07,3.63-1.01,6.44-2.93,8.29c-1.19,1.15-2.57,1.7-4.25,1.61c0.9-0.92,1.6-1.91,2.06-3.2c0.76-2.07,0.89-4.38,0.56-6.91
						c-0.11-0.78-0.34-1.15-0.88-1.39c-2.06-0.96-3.98-2.46-5.76-4.53c-0.99-1.16-1.86-2.48-2.58-4.02
						c-2.14-4.58-1.7-9.48,1.14-12.21c1.79-1.72,3.91-2.39,6.2-2.4C286.34,151.76,287.67,151.96,288.97,152.36z"/>
				</g>
				<g class="st38">
					<g>
						<defs>
							<path id="SVGID_64_" d="M305.51,173.72l-11.05,2.5c1.79-0.4,3.41-1.29,4.74-2.99c2.21-2.83,2.31-7.41,0.27-11.58
								c-0.98-2.03-2.2-3.64-3.6-5.01c-2.23-2.16-4.54-3.56-6.91-4.28l11.05-2.5c2.37,0.72,4.67,2.12,6.91,4.28
								c1.39,1.37,2.62,2.98,3.6,5.01c2.03,4.17,1.93,8.75-0.27,11.58C308.92,172.43,307.3,173.32,305.51,173.72z"/>
						</defs>
						<clipPath id="SVGID_65_">
							<use xlink:href="#SVGID_64_"  style="overflow:visible;"/>
						</clipPath>
						<g class="st59">
							<path class="st40" d="M288.97,152.36l11.05-2.5c2.37,0.72,4.67,2.12,6.91,4.28c0.58,0.57,1.13,1.18,1.65,1.85l-11.05,2.5
								c-0.52-0.67-1.07-1.28-1.65-1.85C293.65,154.48,291.34,153.08,288.97,152.36"/>
							<path class="st46" d="M297.53,158.49l11.05-2.5c0.2,0.26,0.39,0.52,0.58,0.8l-11.05,2.5
								C297.92,159.01,297.73,158.74,297.53,158.49"/>
							<path class="st46" d="M298.11,159.28l11.05-2.5c0.14,0.2,0.28,0.41,0.41,0.63l-11.05,2.5
								C298.39,159.7,298.25,159.49,298.11,159.28"/>
							<path class="st46" d="M298.52,159.91l11.05-2.5c0.11,0.18,0.22,0.36,0.32,0.54l-11.05,2.5
								C298.74,160.27,298.63,160.09,298.52,159.91"/>
							<path class="st46" d="M298.84,160.45l11.05-2.5c0.09,0.16,0.18,0.32,0.27,0.49l-11.05,2.5
								C299.03,160.77,298.94,160.61,298.84,160.45"/>
							<path class="st46" d="M299.12,160.94l11.05-2.5c0.08,0.16,0.17,0.31,0.25,0.47l-11.05,2.5
								C299.28,161.25,299.2,161.09,299.12,160.94"/>
							<path class="st46" d="M299.36,161.41l11.05-2.5c0.04,0.08,0.08,0.16,0.12,0.24c0.03,0.07,0.06,0.13,0.09,0.2l-11.05,2.5
								c-0.03-0.07-0.06-0.13-0.09-0.2C299.44,161.57,299.4,161.49,299.36,161.41"/>
							<path class="st46" d="M299.57,161.85l11.05-2.5c0.05,0.11,0.1,0.23,0.15,0.34l-11.05,2.5
								C299.68,162.07,299.63,161.96,299.57,161.85"/>
							<path class="st47" d="M299.73,162.19l11.05-2.5c0.05,0.11,0.09,0.21,0.14,0.32l-11.05,2.5
								C299.82,162.4,299.78,162.29,299.73,162.19"/>
							<path class="st48" d="M299.86,162.5l11.05-2.5c0.04,0.1,0.08,0.21,0.12,0.31l-11.05,2.5
								C299.95,162.71,299.91,162.6,299.86,162.5"/>
							<path class="st49" d="M299.99,162.81l11.05-2.5c0.04,0.1,0.07,0.19,0.11,0.29l-11.05,2.5
								C300.06,163,300.02,162.91,299.99,162.81"/>
							<path class="st49" d="M300.1,163.1l11.05-2.5c0.03,0.09,0.07,0.19,0.1,0.28l-11.05,2.5
								C300.16,163.29,300.13,163.2,300.1,163.1"/>
							<path class="st49" d="M300.2,163.39l11.05-2.5c0.03,0.09,0.06,0.18,0.09,0.28l-11.05,2.5
								C300.26,163.57,300.23,163.48,300.2,163.39"/>
							<path class="st49" d="M300.29,163.66l11.05-2.5c0.03,0.09,0.06,0.18,0.08,0.27l-11.05,2.5
								C300.34,163.84,300.32,163.75,300.29,163.66"/>
							<path class="st49" d="M300.37,163.93l11.05-2.5c0.03,0.09,0.05,0.18,0.08,0.27l-11.05,2.5
								C300.42,164.11,300.4,164.02,300.37,163.93"/>
							<path class="st49" d="M300.45,164.2l11.05-2.5c0.02,0.09,0.05,0.17,0.07,0.26l-11.05,2.5
								C300.5,164.37,300.47,164.29,300.45,164.2"/>
							<path class="st50" d="M300.52,164.46l11.05-2.5c0.02,0.09,0.04,0.17,0.06,0.26l-11.05,2.5
								C300.56,164.63,300.54,164.54,300.52,164.46"/>
							<path class="st50" d="M300.58,164.71l11.05-2.5c0.02,0.09,0.04,0.17,0.06,0.26l-11.05,2.5
								C300.62,164.89,300.6,164.8,300.58,164.71"/>
							<path class="st51" d="M300.64,164.97l11.05-2.5c0.02,0.08,0.04,0.17,0.05,0.25l-11.05,2.5
								C300.67,165.14,300.66,165.05,300.64,164.97"/>
							<path class="st51" d="M300.69,165.22l11.05-2.5c0.02,0.08,0.03,0.17,0.05,0.25l-11.05,2.5
								C300.72,165.39,300.71,165.31,300.69,165.22"/>
							<path class="st51" d="M300.74,165.48l11.05-2.5c0.02,0.08,0.03,0.17,0.04,0.25l-11.05,2.5
								C300.77,165.65,300.75,165.56,300.74,165.48"/>
							<path class="st51" d="M300.78,165.73l11.05-2.5c0.01,0.08,0.03,0.17,0.04,0.25l-11.05,2.5
								C300.81,165.9,300.79,165.82,300.78,165.73"/>
							<path class="st51" d="M300.82,165.98l11.05-2.5c0.01,0.09,0.02,0.17,0.03,0.26l-11.05,2.5
								C300.84,166.16,300.83,166.07,300.82,165.98"/>
							<path class="st42" d="M300.85,166.24l11.05-2.5c0.01,0.09,0.02,0.17,0.03,0.26l-11.05,2.5
								C300.87,166.42,300.86,166.33,300.85,166.24"/>
							<path class="st42" d="M300.88,166.5l11.05-2.5c0.01,0.09,0.02,0.18,0.02,0.26l-11.05,2.5
								C300.89,166.68,300.89,166.59,300.88,166.5"/>
							<path class="st42" d="M300.9,166.77l11.05-2.5c0.01,0.09,0.01,0.18,0.02,0.28l-11.05,2.5
								C300.91,166.95,300.91,166.86,300.9,166.77"/>
							<path class="st42" d="M300.92,167.04l11.05-2.5c0,0.09,0.01,0.18,0.01,0.27l-11.05,2.5
								C300.93,167.22,300.92,167.13,300.92,167.04"/>
							<path class="st43" d="M300.93,167.32l11.05-2.5c0,0.1,0,0.2,0.01,0.3l-11.05,2.5C300.94,167.51,300.93,167.42,300.93,167.32"
								/>
							<path class="st43" d="M300.94,167.61l11.05-2.5c0,0.1,0,0.2,0,0.3l-11.05,2.5C300.94,167.81,300.94,167.71,300.94,167.61"/>
							<path class="st43" d="M300.93,167.91l11.05-2.5c0,0.11-0.01,0.22-0.01,0.33l-11.05,2.5
								C300.93,168.13,300.93,168.02,300.93,167.91"/>
							<path class="st43" d="M300.92,168.24l11.05-2.5c-0.01,0.11-0.01,0.23-0.02,0.34l-11.05,2.5
								C300.91,168.47,300.92,168.36,300.92,168.24"/>
							<path class="st56" d="M300.9,168.58l11.05-2.5c-0.01,0.13-0.02,0.27-0.04,0.4l-11.05,2.5
								C300.88,168.85,300.89,168.72,300.9,168.58"/>
							<path class="st56" d="M300.86,168.98l11.05-2.5c-0.02,0.16-0.04,0.31-0.07,0.46l-11.05,2.5
								C300.82,169.29,300.84,169.14,300.86,168.98"/>
							<path class="st56" d="M300.79,169.44l11.05-2.5c-0.03,0.2-0.07,0.4-0.12,0.6l-11.05,2.5
								C300.72,169.85,300.76,169.65,300.79,169.44"/>
							<path class="st56" d="M300.68,170.05l11.05-2.5c-0.18,0.79-0.46,1.53-0.83,2.21l-11.05,2.5
								C300.22,171.58,300.49,170.84,300.68,170.05"/>
							<path class="st56" d="M299.85,172.25l11.05-2.5c-0.1,0.19-0.21,0.37-0.33,0.54l-11.05,2.5
								C299.63,172.62,299.74,172.44,299.85,172.25"/>
							<path class="st56" d="M299.52,172.8l11.05-2.5c-0.09,0.13-0.18,0.26-0.27,0.38l-11.05,2.5
								C299.34,173.06,299.43,172.93,299.52,172.8"/>
							<path class="st56" d="M299.24,173.18l11.05-2.5c-0.01,0.02-0.03,0.03-0.04,0.05c-0.09,0.12-0.19,0.24-0.29,0.35l-11.05,2.5
								c0.1-0.11,0.19-0.23,0.29-0.35C299.22,173.21,299.23,173.2,299.24,173.18"/>
							<path class="st43" d="M298.92,173.58l11.05-2.5c-0.1,0.12-0.21,0.24-0.32,0.35l-11.05,2.5
								C298.71,173.82,298.82,173.7,298.92,173.58"/>
							<path class="st43" d="M298.6,173.93l11.05-2.5c-0.1,0.1-0.2,0.2-0.3,0.3l-11.05,2.5C298.4,174.13,298.5,174.03,298.6,173.93"
								/>
							<path class="st43" d="M298.3,174.23l11.05-2.5c-0.1,0.09-0.2,0.18-0.3,0.26l-11.05,2.5
								C298.1,174.41,298.2,174.32,298.3,174.23"/>
							<path class="st43" d="M298,174.49l11.05-2.5c-0.1,0.08-0.19,0.16-0.29,0.24l-11.05,2.5
								C297.81,174.65,297.91,174.57,298,174.49"/>
							<path class="st42" d="M297.71,174.73l11.05-2.5c-0.1,0.07-0.19,0.15-0.29,0.21l-11.05,2.5
								C297.52,174.87,297.61,174.8,297.71,174.73"/>
							<path class="st42" d="M297.42,174.94l11.05-2.5c-0.1,0.07-0.2,0.13-0.3,0.2l-11.05,2.5
								C297.22,175.08,297.32,175.01,297.42,174.94"/>
							<path class="st42" d="M297.12,175.14l11.05-2.5c-0.1,0.06-0.2,0.12-0.3,0.18l-11.05,2.5
								C296.92,175.26,297.02,175.2,297.12,175.14"/>
							<path class="st42" d="M296.82,175.32l11.05-2.5c-0.1,0.06-0.2,0.11-0.31,0.17l-11.05,2.5
								C296.62,175.43,296.72,175.38,296.82,175.32"/>
							<path class="st51" d="M296.51,175.49l11.05-2.5c-0.11,0.05-0.21,0.11-0.32,0.15l-11.05,2.5
								C296.3,175.59,296.41,175.54,296.51,175.49"/>
							<path class="st51" d="M296.2,175.64l11.05-2.5c-0.11,0.05-0.22,0.1-0.33,0.14l-11.05,2.5
								C295.98,175.74,296.09,175.69,296.2,175.64"/>
							<path class="st51" d="M295.86,175.78l11.05-2.5c-0.12,0.05-0.23,0.09-0.35,0.13l-11.05,2.5
								C295.63,175.87,295.75,175.83,295.86,175.78"/>
							<path class="st51" d="M295.52,175.92l11.05-2.5c-0.12,0.04-0.24,0.08-0.37,0.12l-11.05,2.5
								C295.27,176,295.39,175.96,295.52,175.92"/>
							<path class="st51" d="M295.15,176.04l11.05-2.5c-0.13,0.04-0.26,0.08-0.39,0.11l-11.05,2.5
								C294.89,176.11,295.02,176.08,295.15,176.04"/>
							<path class="st50" d="M294.75,176.15l11.05-2.5c-0.1,0.02-0.19,0.05-0.29,0.07l-11.05,2.5
								C294.56,176.2,294.66,176.17,294.75,176.15"/>
						</g>
					</g>
				</g>
				<g class="st38">
					<g>
						<defs>
							<path id="SVGID_66_" d="M302.35,180.77l11.05-2.5c0.89-0.2,1.85-0.17,2.84,0.12l-11.05,2.5
								C304.2,180.6,303.25,180.57,302.35,180.77z"/>
						</defs>
						<clipPath id="SVGID_67_">
							<use xlink:href="#SVGID_66_"  style="overflow:visible;"/>
						</clipPath>
						<g class="st60">
							<path class="st40" d="M302.35,180.77l11.05-2.5c0.89-0.2,1.85-0.17,2.84,0.12l-11.05,2.5
								C304.2,180.6,303.25,180.57,302.35,180.77"/>
						</g>
					</g>
				</g>
				<g>
					<path class="st44" d="M305.2,180.89c4.66,1.43,8.32,7.84,8.21,14.38c-0.1,6.62-3.9,10.81-8.53,9.43
						c-4.67-1.43-8.28-7.87-8.15-14.5C296.84,183.74,300.67,179.54,305.2,180.89z"/>
				</g>
				<g class="st38">
					<g>
						<defs>
							<path id="SVGID_68_" d="M318.85,202.33l-11.05,2.5c3.21-0.72,5.53-4.41,5.61-9.56c0.11-6.54-3.55-12.95-8.21-14.38l11.05-2.5
								c4.66,1.43,8.32,7.84,8.21,14.38C324.37,197.92,322.05,201.61,318.85,202.33z"/>
						</defs>
						<clipPath id="SVGID_69_">
							<use xlink:href="#SVGID_68_"  style="overflow:visible;"/>
						</clipPath>
						<g class="st61">
							<path class="st40" d="M305.2,180.89l11.05-2.5c1.76,0.54,3.38,1.79,4.71,3.49l-11.05,2.5
								C308.58,182.68,306.96,181.43,305.2,180.89"/>
							<path class="st46" d="M309.9,184.38l11.05-2.5c0.17,0.22,0.33,0.44,0.49,0.67l-11.05,2.5
								C310.23,184.82,310.07,184.6,309.9,184.38"/>
							<path class="st46" d="M310.39,185.05l11.05-2.5c0.12,0.18,0.24,0.36,0.36,0.55l-11.05,2.5
								C310.63,185.41,310.51,185.23,310.39,185.05"/>
							<path class="st46" d="M310.75,185.6l11.05-2.5c0.1,0.16,0.2,0.32,0.29,0.49l-11.05,2.5
								C310.95,185.92,310.85,185.76,310.75,185.6"/>
							<path class="st46" d="M311.05,186.09l11.05-2.5c0.08,0.14,0.16,0.29,0.24,0.43l-11.05,2.5
								C311.21,186.37,311.13,186.23,311.05,186.09"/>
							<path class="st46" d="M311.29,186.52l11.05-2.5c0.08,0.14,0.15,0.28,0.22,0.43l-11.05,2.5
								C311.44,186.8,311.36,186.66,311.29,186.52"/>
							<path class="st46" d="M311.51,186.95l11.05-2.5c0.06,0.13,0.13,0.26,0.19,0.38l-11.05,2.5
								C311.64,187.2,311.57,187.08,311.51,186.95"/>
							<path class="st46" d="M311.7,187.33l11.05-2.5c0.06,0.13,0.12,0.26,0.18,0.39l-11.05,2.5
								C311.82,187.59,311.76,187.46,311.7,187.33"/>
							<path class="st47" d="M311.87,187.72l11.05-2.5c0.05,0.12,0.11,0.24,0.16,0.36l-11.05,2.5
								C311.98,187.96,311.93,187.84,311.87,187.72"/>
							<path class="st48" d="M312.03,188.09l11.05-2.5c0.05,0.12,0.1,0.24,0.15,0.36l-11.05,2.5
								C312.13,188.33,312.08,188.21,312.03,188.09"/>
							<path class="st49" d="M312.18,188.45l11.05-2.5c0.05,0.12,0.09,0.24,0.13,0.36l-11.05,2.5
								C312.27,188.69,312.22,188.57,312.18,188.45"/>
							<path class="st49" d="M312.31,188.81l11.05-2.5c0.04,0.11,0.08,0.23,0.12,0.35l-11.05,2.5
								C312.39,189.04,312.35,188.92,312.31,188.81"/>
							<path class="st49" d="M312.43,189.15l11.05-2.5c0.04,0.12,0.08,0.23,0.12,0.35l-11.05,2.5
								C312.51,189.38,312.47,189.27,312.43,189.15"/>
							<path class="st49" d="M312.55,189.5l11.05-2.5c0.04,0.11,0.07,0.22,0.1,0.34l-11.05,2.5
								C312.62,189.73,312.58,189.61,312.55,189.5"/>
							<path class="st49" d="M312.65,189.84l11.05-2.5c0.03,0.11,0.07,0.23,0.1,0.34l-11.05,2.5
								C312.72,190.06,312.68,189.95,312.65,189.84"/>
							<path class="st49" d="M312.75,190.18l11.05-2.5c0.03,0.11,0.06,0.23,0.09,0.34l-11.05,2.5
								C312.81,190.41,312.78,190.29,312.75,190.18"/>
							<path class="st50" d="M312.84,190.52l11.05-2.5c0.03,0.11,0.06,0.22,0.08,0.34l-11.05,2.5
								C312.9,190.74,312.87,190.63,312.84,190.52"/>
							<path class="st50" d="M312.92,190.86l11.05-2.5c0.03,0.11,0.05,0.23,0.08,0.34L313,191.2
								C312.97,191.08,312.95,190.97,312.92,190.86"/>
							<path class="st51" d="M313,191.19l11.05-2.5c0.02,0.11,0.05,0.23,0.07,0.34l-11.05,2.5
								C313.05,191.42,313.02,191.31,313,191.19"/>
							<path class="st51" d="M313.07,191.54l11.05-2.5c0.02,0.11,0.04,0.23,0.06,0.34l-11.05,2.5
								C313.11,191.76,313.09,191.65,313.07,191.54"/>
							<path class="st51" d="M313.13,191.88l11.05-2.5c0.02,0.11,0.04,0.23,0.06,0.35l-11.05,2.5
								C313.17,192.11,313.15,191.99,313.13,191.88"/>
							<path class="st51" d="M313.19,192.22l11.05-2.5c0.02,0.12,0.04,0.24,0.05,0.35l-11.05,2.5
								C313.23,192.46,313.21,192.34,313.19,192.22"/>
							<path class="st51" d="M313.24,192.58l11.05-2.5c0.02,0.12,0.03,0.24,0.05,0.36l-11.05,2.5
								C313.28,192.82,313.26,192.7,313.24,192.58"/>
							<path class="st42" d="M313.29,192.94l11.05-2.5c0.01,0.12,0.03,0.24,0.04,0.36l-11.05,2.5
								C313.32,193.18,313.3,193.06,313.29,192.94"/>
							<path class="st42" d="M313.33,193.3l11.05-2.5c0.01,0.13,0.02,0.26,0.03,0.38l-11.05,2.5
								C313.35,193.56,313.34,193.43,313.33,193.3"/>
							<path class="st42" d="M313.36,193.68l11.05-2.5c0.01,0.13,0.02,0.26,0.02,0.39l-11.05,2.5
								C313.38,193.94,313.37,193.81,313.36,193.68"/>
							<path class="st42" d="M313.39,194.07l11.05-2.5c0.01,0.14,0.01,0.27,0.02,0.41l-11.05,2.5
								C313.4,194.34,313.39,194.21,313.39,194.07"/>
							<path class="st43" d="M313.4,194.48l11.05-2.5c0,0.14,0.01,0.29,0.01,0.43l-11.05,2.5
								C313.41,194.77,313.41,194.62,313.4,194.48"/>
							<path class="st43" d="M313.41,194.91l11.05-2.5c0,0.12,0,0.24,0,0.36c0,0.03,0,0.06,0,0.09l-11.05,2.5c0-0.03,0-0.06,0-0.09
								C313.41,195.15,313.41,195.03,313.41,194.91"/>
							<path class="st43" d="M313.41,195.36l11.05-2.5c0,0.17-0.01,0.34-0.02,0.5l-11.05,2.5
								C313.4,195.7,313.4,195.53,313.41,195.36"/>
							<path class="st43" d="M313.39,195.86l11.05-2.5c-0.01,0.17-0.02,0.35-0.03,0.52l-11.05,2.5
								C313.37,196.21,313.38,196.04,313.39,195.86"/>
							<path class="st56" d="M313.35,196.38l11.05-2.5c-0.02,0.2-0.04,0.39-0.06,0.58l-11.05,2.5
								C313.32,196.77,313.34,196.57,313.35,196.38"/>
							<path class="st56" d="M313.3,196.96l11.05-2.5c-0.03,0.23-0.06,0.46-0.1,0.68l-11.05,2.5
								C313.24,197.42,313.27,197.19,313.3,196.96"/>
							<path class="st56" d="M313.2,197.64l11.05-2.5c-0.05,0.29-0.11,0.58-0.17,0.86l-11.05,2.5
								C313.09,198.22,313.15,197.93,313.2,197.64"/>
							<path class="st56" d="M313.03,198.5l11.05-2.5c-0.25,1.08-0.61,2.06-1.08,2.9l-11.05,2.5
								C312.41,200.56,312.78,199.58,313.03,198.5"/>
							<path class="st56" d="M311.95,201.4l11.05-2.5c-0.12,0.22-0.25,0.44-0.39,0.65l-11.05,2.5
								C311.7,201.84,311.83,201.63,311.95,201.4"/>
							<path class="st56" d="M311.56,202.05l11.05-2.5c-0.1,0.16-0.21,0.31-0.32,0.46l-11.05,2.5
								C311.35,202.36,311.46,202.2,311.56,202.05"/>
							<path class="st56" d="M311.24,202.5l11.05-2.5c-0.09,0.12-0.18,0.23-0.28,0.34l-11.05,2.5
								C311.06,202.73,311.15,202.62,311.24,202.5"/>
							<path class="st43" d="M310.96,202.85l11.05-2.5c-0.09,0.1-0.17,0.2-0.26,0.29l-11.05,2.5
								C310.79,203.04,310.88,202.95,310.96,202.85"/>
							<path class="st43" d="M310.7,203.14l11.05-2.5c-0.08,0.09-0.17,0.17-0.25,0.25l-11.05,2.5
								C310.53,203.31,310.61,203.22,310.7,203.14"/>
							<path class="st43" d="M310.44,203.39l11.05-2.5c-0.08,0.07-0.16,0.15-0.24,0.21l-11.05,2.5
								C310.29,203.53,310.37,203.46,310.44,203.39"/>
							<path class="st43" d="M310.2,203.6l11.05-2.5c-0.08,0.07-0.16,0.13-0.24,0.19l-11.05,2.5
								C310.05,203.73,310.13,203.67,310.2,203.6"/>
							<path class="st42" d="M309.97,203.79l11.05-2.5c-0.08,0.06-0.15,0.12-0.23,0.17l-11.05,2.5
								C309.82,203.91,309.89,203.85,309.97,203.79"/>
							<path class="st42" d="M309.74,203.96l11.05-2.5c-0.07,0.05-0.15,0.1-0.22,0.15l-11.05,2.5
								C309.59,204.07,309.66,204.02,309.74,203.96"/>
							<path class="st42" d="M309.51,204.11l11.05-2.5c-0.08,0.05-0.15,0.09-0.23,0.14l-11.05,2.5
								C309.36,204.21,309.44,204.16,309.51,204.11"/>
							<path class="st42" d="M309.28,204.25l11.05-2.5c-0.07,0.04-0.14,0.08-0.22,0.12l-11.05,2.5
								C309.14,204.33,309.21,204.29,309.28,204.25"/>
							<path class="st51" d="M309.07,204.37l11.05-2.5c-0.07,0.04-0.15,0.07-0.22,0.11l-11.05,2.5
								C308.92,204.44,308.99,204.41,309.07,204.37"/>
							<path class="st51" d="M308.84,204.48l11.05-2.5c-0.07,0.03-0.15,0.07-0.22,0.1l-11.05,2.5
								C308.7,204.54,308.77,204.51,308.84,204.48"/>
							<path class="st51" d="M308.62,204.57l11.05-2.5c-0.07,0.03-0.15,0.06-0.22,0.08l-11.05,2.5
								C308.48,204.63,308.55,204.6,308.62,204.57"/>
							<path class="st51" d="M308.4,204.66l11.05-2.5c-0.07,0.03-0.15,0.05-0.22,0.07l-11.05,2.5
								C308.26,204.71,308.33,204.68,308.4,204.66"/>
							<path class="st51" d="M308.18,204.73l11.05-2.5c-0.07,0.02-0.15,0.04-0.22,0.06l-11.05,2.5
								C308.03,204.77,308.11,204.75,308.18,204.73"/>
							<path class="st50" d="M307.96,204.79l11.05-2.5c-0.05,0.01-0.1,0.03-0.16,0.04l-11.05,2.5
								C307.85,204.82,307.91,204.8,307.96,204.79"/>
						</g>
					</g>
				</g>
			</g>
		</g>
	</g>
	<g id="marker">
		
			<linearGradient id="SVGID_70_" gradientUnits="userSpaceOnUse" x1="267.2834" y1="472.6758" x2="334.1287" y2="356.8963" gradientTransform="matrix(1 0 0 -1 0 504)">
			<stop  offset="0.177" style="stop-color:#2F67DB"/>
			<stop  offset="0.3865" style="stop-color:#C64FFF"/>
			<stop  offset="0.5493" style="stop-color:#D970C2"/>
			<stop  offset="0.6971" style="stop-color:#F8D176"/>
			<stop  offset="0.7964" style="stop-color:#F8D176"/>
			<stop  offset="0.9078" style="stop-color:#F89CA9"/>
			<stop  offset="1" style="stop-color:#F89BA7"/>
		</linearGradient>
		<path class="st62" d="M308.85,53.3c-7.23-4.18-13.76-4.5-18.44-1.67l-0.01-0.01l-10.93,5.51l17.92,88.7l11.47-6.12
			c0,0,25.8-25.27,25.8-41.73C334.65,81.54,323.1,61.53,308.85,53.3z M306.42,95.28c-0.58-0.22-1.18-0.49-1.79-0.85
			c-5.84-3.37-10.57-11.57-10.57-18.31c0-0.21,0.03-0.4,0.03-0.6c0.58,0.22,1.17,0.49,1.78,0.84c5.84,3.37,10.57,11.57,10.57,18.31
			C306.44,94.88,306.43,95.07,306.42,95.28z"/>
		
			<linearGradient id="SVGID_71_" gradientUnits="userSpaceOnUse" x1="273.09" y1="403.8828" x2="324.69" y2="403.8828" gradientTransform="matrix(1 0 0 -1 0 504)">
			<stop  offset="0.1845" style="stop-color:#F74DED"/>
			<stop  offset="1" style="stop-color:#F8AB68"/>
		</linearGradient>
		<path class="st63" d="M298.89,58.67c-14.25-8.23-25.8-1.56-25.8,14.9c0,16.45,25.8,71.52,25.8,71.52s25.8-25.27,25.8-41.73
			C324.69,86.91,313.14,66.9,298.89,58.67z M298.89,98.51c-5.84-3.37-10.57-11.57-10.57-18.31s4.73-9.48,10.57-6.11
			s10.57,11.57,10.57,18.31C309.46,99.14,304.73,101.88,298.89,98.51z"/>
		
			<linearGradient id="SVGID_72_" gradientUnits="userSpaceOnUse" x1="271.58" y1="403.1279" x2="323.18" y2="403.1279" gradientTransform="matrix(1 0 0 -1 0 504)">
			<stop  offset="0.1845" style="stop-color:#F74DED"/>
			<stop  offset="1" style="stop-color:#F8AB68"/>
		</linearGradient>
		<path class="st64" d="M297.38,59.43c-14.25-8.23-25.8-1.56-25.8,14.89c0,16.46,25.8,71.52,25.8,71.52s25.8-25.27,25.8-41.72
			C323.18,87.66,311.63,67.66,297.38,59.43z M304.63,94.43c-5.84-3.37-10.57-11.57-10.57-18.31c0-0.21,0.03-0.4,0.03-0.6
			c0.58,0.22,1.17,0.49,1.78,0.84c5.84,3.37,10.57,11.57,10.57,18.31c0,0.21-0.02,0.41-0.03,0.61
			C305.84,95.06,305.24,94.78,304.63,94.43z"/>
		
			<linearGradient id="SVGID_73_" gradientUnits="userSpaceOnUse" x1="287.1628" y1="427.665" x2="302.104" y2="401.786" gradientTransform="matrix(1 0 0 -1 0 504)">
			<stop  offset="0.2136" style="stop-color:#F8B78D"/>
			<stop  offset="0.4612" style="stop-color:#D27A9F"/>
			<stop  offset="0.8155" style="stop-color:#5618DC"/>
		</linearGradient>
		<path class="st65" d="M304.63,94.43c-5.84-3.37-10.57-11.57-10.57-18.31c0-0.21,0.03-0.4,0.03-0.6c0.28,0.11,0.57,0.23,0.86,0.36
			c-5.41-2.58-9.65,0.2-9.65,6.58c0,6.74,4.73,14.94,10.57,18.31c5.65,3.26,10.26,0.79,10.55-5.49
			C305.84,95.06,305.24,94.78,304.63,94.43z"/>
	</g>
</g>
</svg>
