<?xml version="1.0" encoding="utf-8"?>
<!-- Generator: Adobe Illustrator 24.1.0, SVG Export Plug-In . SVG Version: 6.00 Build 0)  -->
<svg version="1.1" id="Layer_1" xmlns="http://www.w3.org/2000/svg" xmlns:xlink="http://www.w3.org/1999/xlink" x="0px" y="0px"
	 viewBox="0 0 674.31 650" style="enable-background:new 0 0 674.31 650;" xml:space="preserve">
<style type="text/css">
	.st0{opacity:0.4;fill:#A8C4E5;}
	.st1{fill:#3D4993;}
	.st2{fill:#21275E;}
	.st3{fill:#C9457B;}
	.st4{fill:#FFAA82;}
	.st5{fill:#52A5FF;}
	.st6{fill:#F0A581;}
	.st7{fill:#BBD6F2;}
	.st8{fill:#45446C;}
	.st9{fill:#3A0088;}
	.st10{fill:#33324F;}
	.st11{fill:#ED9E79;}
	.st12{fill:#424268;}
	.st13{fill:#492817;}
	.st14{fill:#685B80;}
	.st15{fill:#DBEDFF;}
	.st16{fill:#8787CC;}
	.st17{fill:#9687AE;}
	.st18{fill:#FFFFFF;}
	.st19{fill:#915151;}
	.st20{fill:#AB9AC7;}
	.st21{fill:#A85E5E;}
	.st22{fill:#99345E;}
	.st23{fill:#633820;}
	.st24{fill:#FF579C;}
	.st25{fill:#15253D;}
	.st26{fill:#894E4E;}
	.st27{fill:#98B5D6;}
	.st28{fill:#97CAFF;}
	.st29{fill:#27E0C0;}
	.st30{fill:#43B09C;}
	.st31{fill:#E1EAF4;}
	.st32{fill:#78FFE8;}
	.st33{fill:#915350;}
	.st34{fill:#5B5B84;}
	.st35{fill:#5969C4;}
	.st36{fill:#BC4073;}
	.st37{fill:#423A66;}
	.st38{fill:#EF9A78;}
	.st39{fill:#5C5C9E;}
	.st40{fill:#91B8DB;}
	.st41{fill:#D0E7F4;}
	.st42{fill:#EA8A6C;}
	.st43{fill:#A8C4E5;}
	.st44{fill:#46466B;}
	.st45{fill:none;stroke:#45446C;stroke-width:1.8335;stroke-linecap:round;stroke-linejoin:round;stroke-miterlimit:10;}
	.st46{fill:none;stroke:#FFFFFF;stroke-width:2.7334;stroke-linecap:round;stroke-linejoin:round;stroke-miterlimit:10;}
	.st47{fill:#CC963F;}
	.st48{fill:#EBCD49;}
	.st49{fill:#1FB399;}
	.st50{fill:#373059;}
	.st51{fill:#4E4D7A;}
	.st52{fill:none;stroke:#FFFFFF;stroke-width:1.8387;stroke-linecap:round;stroke-linejoin:round;stroke-miterlimit:10;}
	.st53{fill:none;stroke:#BBD6F2;stroke-width:8;stroke-linecap:round;stroke-linejoin:round;stroke-miterlimit:10;}
	.st54{fill:#FF7C81;}
</style>
<g>
	
		<ellipse transform="matrix(1 -5.422492e-03 5.422492e-03 1 -2.0676 0.3814)" class="st0" cx="69.31" cy="381.5" rx="20.99" ry="12.12"/>
	<path class="st1" d="M64.9,257.83c-0.71-1.07-0.35-2.52,0.78-3.15c1.39-0.76,3.22-1.11,4.42,1.2c1.37,2.63,4.37,7.58,6.4,10.86
		c0.7,1.13-0.67,2.41-1.74,1.63c-0.94-0.69-1.81-1.64-2.29-2.96c0,0,1.18,2.13,2.33,3.89c0.6,0.91-0.2,2.09-1.26,1.86
		c-1.84-0.4-3.97-1.46-4.46-4.18C68.48,263.64,66.28,259.92,64.9,257.83z"/>
	<path class="st2" d="M66.01,256.89c0.81,1.14,0.9,2.47,0.19,2.97c-0.71,0.51-1.94-0.01-2.75-1.14c-0.81-1.14-0.9-2.47-0.19-2.97
		C63.96,255.24,65.19,255.75,66.01,256.89z"/>
	<path class="st3" d="M498.7,364.5l-18.52-10.69c-3.87-2.23-7.03-8.28-7.03-13.44v-13.29c0-5.16,3.16-7.55,7.03-5.32l18.52,10.69
		c3.87,2.23,7.03,8.28,7.03,13.44v13.29C505.73,364.34,502.57,366.73,498.7,364.5z"/>
	<g>
		<g>
			<path class="st4" d="M453.17,225.08c2.99,3.73,8.36,2.81,11.61,0.13c3.94-3.25,5.64-8.93,6.58-13.74
				c1.01-5.17,1.37-10.46,1.42-15.72c0.03-2.59-2.3-5.07-4.95-4.95c-2.71,0.12-4.93,2.18-4.95,4.95c-0.02,2.19-0.09,4.37-0.25,6.55
				c-0.07,0.96-0.15,1.91-0.26,2.87c-0.04,0.41-0.14,0.84-0.15,1.25c0.03-1.4-0.03,0.16-0.09,0.54c-0.43,2.72-1.06,5.41-2.04,7.99
				c-0.36,0.94,0.25-0.53,0.13-0.31c-0.1,0.21-0.19,0.42-0.29,0.63c-0.21,0.43-0.44,0.86-0.69,1.28c-0.19,0.32-0.42,0.62-0.62,0.94
				c-0.29,0.47,0.95-1.1,0.33-0.43c-0.12,0.13-0.24,0.27-0.36,0.41c-0.2,0.21-0.51,0.4-0.68,0.63c-0.1,0.13,1.22-0.81,0.6-0.47
				c-0.13,0.07-0.27,0.16-0.4,0.25c-0.85,0.57,1.19-0.32,0.48-0.19c-0.92,0.18-0.36-0.1,0.56-0.01c-0.12-0.01-0.24,0.02-0.36,0.02
				c-0.76-0.06,0.93,0.12,0.93,0.14c-0.01-0.02-0.25-0.05-0.29-0.06c-0.25-0.07-0.77-0.3,0.24,0.13c1.01,0.42,0.48,0.22,0.27,0.08
				c-0.61-0.37,0.72,0.52,0.7,0.56c0-0.01-0.43-0.43-0.47-0.48c-1.63-2.03-5.33-1.83-7.01,0
				C451.19,220.23,451.43,222.92,453.17,225.08L453.17,225.08z"/>
		</g>
	</g>
	<path class="st5" d="M465.42,195.73l-3.21,13.28c-0.03,3.99,8.93,4.34,9.26,1.08l1.98-13.02c0.2-2.09-1.22-3.98-3.27-4.39l0,0
		C468.03,192.27,465.93,193.61,465.42,195.73z"/>
	<g>
		<g>
			<path class="st4" d="M197.85,195.95c-0.75,0.93-1.53,1.83-2.38,2.68c-0.74,0.74-1.57,1.37-2.32,2.09
				c0.12-0.12,0.85-0.63,0.32-0.26c-0.22,0.16-0.43,0.31-0.65,0.47c-0.35,0.24-0.72,0.48-1.08,0.7c-0.73,0.45-1.49,0.85-2.26,1.23
				c-0.36,0.17-0.72,0.33-1.07,0.49c-0.53,0.24,1.14-0.46,0.41-0.17c-0.18,0.07-0.36,0.14-0.54,0.22c-0.75,0.3-1.51,0.57-2.26,0.84
				c-1.87,0.67-3.72,1.38-5.55,2.15c-1.04,0.44-1.94,1.87-2.23,2.9c-0.32,1.16-0.18,2.71,0.49,3.73c0.67,1.03,1.66,1.95,2.9,2.23
				c1.36,0.31,2.46,0.05,3.73-0.49c-1.57,0.66-0.09,0.05,0.28-0.1c0.4-0.16,0.8-0.31,1.21-0.45c0.72-0.27,1.45-0.52,2.17-0.78
				c1.89-0.68,3.77-1.42,5.57-2.3c3.96-1.94,7.37-4.9,10.13-8.32c0.83-1.03,1.42-2.05,1.42-3.43c0-1.19-0.53-2.61-1.42-3.43
				C202.94,194.33,199.55,193.85,197.85,195.95L197.85,195.95z"/>
		</g>
	</g>
	<path class="st4" d="M201.33,190.15L201.33,190.15c-1.58-0.19-3.02,0.94-3.22,2.52l-0.67,5.46c-0.19,1.58,0.94,3.02,2.52,3.22l0,0
		c1.58,0.19,3.02-0.94,3.22-2.52l0.67-5.46C204.03,191.79,202.9,190.34,201.33,190.15z"/>
	<path class="st6" d="M181.26,417.49L181.26,417.49c-1.21-0.42-1.87-1.75-1.45-2.96l1.79-5.21c0.42-1.21,1.75-1.86,2.96-1.45l0,0
		c1.21,0.42,1.87,1.75,1.45,2.96l-1.79,5.21C183.81,417.26,182.48,417.91,181.26,417.49z"/>
	<path class="st7" d="M381.64,471.48H262.81c-12.96,0-23.46-10.5-23.46-23.46V209.74c0-12.96,10.5-23.46,23.46-23.46h118.83
		c12.96,0,23.46,10.5,23.46,23.46v238.29C405.1,460.98,394.6,471.48,381.64,471.48z"/>
	<path class="st8" d="M381.64,457.52H262.81c-12.96,0-23.46-10.5-23.46-23.46V195.77c0-12.96,10.5-23.46,23.46-23.46h118.83
		c12.96,0,23.46,10.5,23.46,23.46v238.29C405.1,447.01,394.6,457.52,381.64,457.52z"/>
	<path class="st9" d="M374.83,424.96h-104.8c-11,0-19.92-8.92-19.92-19.92V209.23c0-11,8.92-19.92,19.92-19.92h104.8
		c11,0,19.92,8.92,19.92,19.92v195.81C394.75,416.04,385.83,424.96,374.83,424.96z"/>
	<path class="st10" d="M339.37,181.27H305.5c-0.97,0-1.76-0.79-1.76-1.76l0,0c0-0.97,0.79-1.76,1.76-1.76h33.87
		c0.97,0,1.76,0.79,1.76,1.76l0,0C341.13,180.48,340.34,181.27,339.37,181.27z"/>
	<path class="st8" d="M338.66,466.66H304.8c-0.97,0-1.76-0.79-1.76-1.76l0,0c0-0.97,0.79-1.76,1.76-1.76h33.87
		c0.97,0,1.76,0.79,1.76,1.76l0,0C340.43,465.87,339.63,466.66,338.66,466.66z"/>
	<path class="st8" d="M388.75,464.5c0,1.92-1.56,3.48-3.48,3.48c-1.92,0-3.48-1.56-3.48-3.48c0-1.92,1.56-3.48,3.48-3.48
		C387.19,461.02,388.75,462.58,388.75,464.5z"/>
	<ellipse class="st0" cx="488.33" cy="511.45" rx="17.43" ry="9.11"/>
	<g>
		<path class="st11" d="M497.58,445.9c1.44,19.54,1.18,39.05,1.28,58.62c0.02,4.63-7.16,4.63-7.19,0
			c-0.1-19.57,0.16-39.09-1.27-58.62c-0.14-1.94,1.75-3.59,3.59-3.59C496.05,442.3,497.44,443.95,497.58,445.9L497.58,445.9z"/>
	</g>
	<g>
		<path class="st12" d="M496.53,508.47l-1.15,3.52c-0.39,0.59-1.7,1.59-2.35,1.3c-2.68-1.22-9.86-3.81-8.65-6.97
			c1.53-3.98,11.68,0.71,11.68,0.71L496.53,508.47z"/>
		<path class="st11" d="M493.91,504.95c0,0-4.04-0.55-5.91,0.82c-0.74,0.54-0.06,1.36,1.27,1.99c2.62,1.23,5.63,0.88,7.08-1.13
			l0.93-0.56L493.91,504.95z"/>
		<path class="st12" d="M499.99,505.6l-0.98,8.32c-0.03,0.27-0.17,0.51-0.39,0.67l0,0c-0.62,0.45-1.49,0.03-1.53-0.73l-0.37-6.92
			c-0.01-0.27,0.08-0.53,0.27-0.72l1.34-1.39C498.98,504.15,500.1,504.68,499.99,505.6z"/>
		<path class="st12" d="M499.03,503.55c0,0,2.43,1.76,0.24,6.93c-0.03,0.07-0.04,0.27-0.09,0.21c-2.15-2.85-3.79,0-3.79,0
			l-6.04-2.56c0,0,3.97,1.01,7.19-2.32C497.39,504.93,499.03,503.55,499.03,503.55z"/>
	</g>
	<path class="st12" d="M488.15,513.26l-1.15,3.52c-0.39,0.59-1.7,1.59-2.35,1.3c-2.68-1.22-9.86-3.81-8.65-6.97
		c1.53-3.98,11.68,0.71,11.68,0.71L488.15,513.26z"/>
	<path class="st4" d="M485.53,509.74c0,0-4.04-0.55-5.91,0.82c-0.74,0.54-0.06,1.36,1.27,1.99c2.62,1.23,5.63,0.88,7.08-1.13
		l0.93-0.56L485.53,509.74z"/>
	<g>
		<path class="st4" d="M486.76,451.2c-0.15,10.22-0.08,20.45,0.57,30.65c0.23,3.52,0.53,7.04,0.92,10.55
			c0.37,3.35,0.59,4.93,1.09,8.19c0.45,2.91,0.95,5.81,1.44,8.71c0.32,1.91-0.51,3.87-2.51,4.42c-1.73,0.47-4.09-0.59-4.42-2.51
			c-2.28-13.48-3.84-26.91-4.21-40.59c-0.17-6.48-0.17-12.96-0.08-19.43C479.64,446.58,486.83,446.56,486.76,451.2L486.76,451.2z"/>
	</g>
	<path class="st12" d="M491.6,510.39l-0.98,8.32c-0.03,0.27-0.17,0.51-0.39,0.67l0,0c-0.62,0.45-1.49,0.03-1.53-0.73l-0.37-6.92
		c-0.01-0.27,0.08-0.53,0.27-0.72l1.34-1.39C490.59,508.94,491.71,509.47,491.6,510.39z"/>
	<path class="st12" d="M490.64,508.35c0,0,2.43,1.76,0.24,6.93c-0.03,0.07-0.04,0.27-0.09,0.21c-2.15-2.85-3.79,0-3.79,0l-6.04-2.56
		c0,0,3.97,1.01,7.19-2.32C489,509.72,490.64,508.35,490.64,508.35z"/>
	<path class="st3" d="M501.01,448.67c0,0-0.68,30.47-0.94,30.89c-1.61,2.59-2.41,7.85-18.66,4.03c-1.87-0.44-2.6-2.48-2.51-4.11
		l-0.27-31.35l7.79,3.34L501.01,448.67z"/>
	<path class="st4" d="M488.59,383.86c0,0,5.47-4.01,5.75,5.41c0.2,6.55-2.1,13.24-7.86,14.76c-6.08,1.61-8.55-0.02-8.81-3.28
		c-0.91-4.74-1.03-9.19,0.44-13.05c-0.32-3.93,2.42-2.59,7.09-2.96L488.59,383.86z"/>
	<g>
		<path class="st4" d="M475.58,397.31L475.58,397.31c-0.02,0.17,0.11,0.33,0.24,0.44c0.37,0.34,0.8,0.6,1.26,0.77
			c0.22,0.08,0.48,0.14,0.69,0.03c0.22-0.12,0.3-0.4,0.33-0.64c0.08-0.66-0.06-1.84-0.82-2.08c-0.31-0.1,0.15-2.28,0.06-1.97
			C476.99,395.09,476.08,396.61,475.58,397.31z"/>
	</g>
	<path class="st13" d="M478.93,394.68c-0.01,0.46-0.23,0.83-0.49,0.82c-0.26-0.01-0.46-0.39-0.44-0.85
		c0.01-0.46,0.23-0.83,0.49-0.82C478.74,393.84,478.94,394.22,478.93,394.68z"/>
	<g>
		<g>
			<path class="st14" d="M496.31,412.11c2.73,6.02,1.85,12.5-0.23,18.57c-1.51,4.38,5.43,6.27,6.93,1.91
				c2.77-8.06,3.06-16.27-0.49-24.11c-0.8-1.77-3.36-2.2-4.92-1.29C495.78,408.26,495.5,410.34,496.31,412.11L496.31,412.11z"/>
		</g>
	</g>
	<g>
		<path class="st6" d="M501.71,416.19c-2.15,4.28-6.02,6.39-10.65,6.99c-6.75,0.88-13.77-0.12-20.52-0.5
			c-3.21-0.18-3.24-5.21,0-5.03c6.26,0.36,12.66,1.17,18.92,0.68c3.76-0.3,6.26-1.41,7.91-4.68
			C498.82,410.76,503.16,413.31,501.71,416.19L501.71,416.19z"/>
	</g>
	<g>
		<path class="st7" d="M468.11,423.93l6-3.3c0.36-0.19,0.53-0.7,0.38-1.15l-3.82-11.56c-0.15-0.44-0.55-0.64-0.91-0.45l-5.96,3.19
			c-0.36,0.19-0.53,0.7-0.38,1.15l3.81,11.5c0.1,0.29,0.23,0.34,0.5,0.45L468.11,423.93z"/>
		<path class="st7" d="M469.01,412.91c0,0,5.64,7.02,5.49,6.58l-3.78-11.93l-0.5-0.12c-0.15-0.05-0.31-0.04-0.46,0.04l-5.96,3.19
			c-0.17,0.09-0.3,0.26-0.37,0.46L469.01,412.91z"/>
		<path class="st8" d="M468.68,423.94l5.94-3.19c0.36-0.19,0.51-0.7,0.36-1.15l-3.82-11.56c-0.15-0.44-0.55-0.64-0.9-0.45
			l-5.94,3.19c-0.36,0.19-0.51,0.7-0.36,1.15l3.82,11.56C467.93,423.93,468.32,424.13,468.68,423.94z"/>
		<path class="st8" d="M464.05,412.82l0.22,0.66c0.02,0.05-0.01,0.07-0.06,0.05l0.01-0.01c-0.05-0.02-0.08-0.07-0.1-0.12l-0.22-0.66
			c-0.02-0.05-0.01-0.07,0.04-0.05l0,0.01C463.99,412.72,464.04,412.77,464.05,412.82z"/>
		<path class="st8" d="M464.43,413.97l0.22,0.66c0.02,0.05-0.01,0.07-0.06,0.05l0.01-0.01c-0.05-0.02-0.08-0.07-0.1-0.12l-0.22-0.66
			c-0.02-0.05-0.01-0.07,0.04-0.05l0,0.01C464.38,413.87,464.42,413.93,464.43,413.97z"/>
		<path class="st15" d="M468.08,422.04l5.85-3.13l-3.34-10.19l-5.81,3.11l3.42,9.95C468.22,421.86,468,422.08,468.08,422.04z"/>
		<path class="st16" d="M466.48,410.43l1.84-0.98c0.06-0.03,0.1-0.13,0.07-0.21l0,0c-0.03-0.08-0.1-0.12-0.17-0.08l-1.84,0.98
			c-0.06,0.03-0.1,0.13-0.07,0.21l0,0C466.34,410.43,466.41,410.46,466.48,410.43z"/>
	</g>
	<g>
		<path class="st4" d="M485.33,419.13c-0.36,4.64-1.01,8.82-3.15,12.99c-1.77,3.45-3.32,8.28-6.87,10.34
			c-3.01,1.75-6.26,0.47-8.09-2.27c-2.76-4.12-2.81-9.93-2.63-14.68c0.12-3.22,5.15-3.24,5.03,0c-0.14,3.68-0.3,8.18,1.56,11.52
			c0.35,0.63,0.38,0.65,0.83,1.09c0.07,0.07-0.06-0.13,0.3,0.18c-0.27-0.23-0.08-0.12,0.16,0.02c-0.28-0.16-0.28-0.07,0.11-0.04
			c-0.51-0.04-0.11,0.04,0.12-0.08c-0.51,0.25,0.08-0.06,0.18-0.13c0.31-0.2-0.03,0.08,0.36-0.29c0.99-0.95,1.53-2.21,2.18-3.52
			c0.87-1.74,1.81-3.44,2.68-5.18c1.57-3.14,1.94-6.49,2.21-9.95C480.55,415.92,485.58,415.9,485.33,419.13L485.33,419.13z"/>
	</g>
	<path class="st4" d="M471.06,424.09l-0.26,2.32c-0.17,1.48-1.72,2.66-3.45,2.63l0,0c-1.73-0.03-3.02-1.26-2.85-2.74l0.26-2.32
		c0.17-1.48,1.72-2.66,3.45-2.63l0,0C469.94,421.38,471.23,422.62,471.06,424.09z"/>
	<path class="st4" d="M469.42,424.45L469.42,424.45c0.68,0.08,1.3-0.4,1.39-1.08l0.42-3.35c0.08-0.68-0.4-1.3-1.08-1.39l0,0
		c-0.68-0.08-1.3,0.4-1.39,1.08l-0.42,3.35C468.26,423.74,468.74,424.37,469.42,424.45z"/>
	<path class="st6" d="M474.32,417.68L474.32,417.68c0.32-0.13,0.48-0.5,0.35-0.82l-0.9-2.23c-0.13-0.32-0.5-0.48-0.82-0.35l0,0
		c-0.32,0.13-0.48,0.5-0.35,0.82l0.9,2.23C473.62,417.65,473.99,417.81,474.32,417.68z"/>
	<path class="st3" d="M481.6,458.87c5.17,9.82,9.61,5.08,15.67,0.61c6.06-4.47,6.66-13.3,3.45-20.69c0,0-9.03-10.52-15.09-6.05
		C479.57,437.21,475.6,447.47,481.6,458.87z"/>
	<path class="st17" d="M502.34,415.57c0,0-2.67,21.35-3.11,23.14c0,0-2.17,6.17-17.56,0.34l-4.25-19.06L502.34,415.57z"/>
	<path class="st17" d="M477.62,427.2c-0.59-0.36-1.44-5.44-1.44-5.44c0.31-6.05,3.51-5.25,7.34-11.28c0.62-0.97,5.09-3.6,11.39-4.74
		c3.06-0.55,6.08,1.15,7.31,4c0.72,1.67,0.02,6.64,0.02,6.64c-1.89,9.12-2.35,5.65-2.94,10.32c-0.37,2.92-0.63,5.03-0.65,5.32
		c0,0.01,0,0.03,0,0.04l-10.93,8.62l-5.75-10.39l0,0L477.62,427.2z"/>
	<path class="st18" d="M500.91,438.58L500.91,438.58c0.09,0.47-0.09,0.94-0.47,1.24c-1.36,1.06-4.99,3.31-10.7,2.69
		c-4.89-0.53-7.75-1.6-9.12-2.27c-0.59-0.29-0.88-0.97-0.65-1.59l0.14-0.38c0.25-0.68,1.02-1.02,1.69-0.74
		c2.58,1.09,8.74,3.32,13.05,2.03c1.99-0.6,3.27-1.23,4.09-1.8C499.7,437.24,500.75,437.68,500.91,438.58z"/>
	<path class="st4" d="M493.43,407.52l-2.19-9.76l-5.95,4.01l1.71,7.62C487.16,410.82,493.86,410.83,493.43,407.52z"/>
	<path class="st19" d="M494.11,402.46c0,0,6.63-3.21,5.05-12.82c-1.71-10.4-8.45-8.65-13.85-8.65c-2.39,0-6.59,2.03-7.63,4.33
		c-1.23,2.7-0.98,4.37,2.21,4.35c1.27-0.01,1.02,3.43,1.38,4.56c0.65,2.02,4.59,1.58,5.25,3.53c0.63,1.85,1.15,5.87,2.98,5.91
		C492.76,403.72,494.11,402.46,494.11,402.46z"/>
	<path class="st4" d="M483.27,396.46c0.02,1.67,1,3.01,2.19,3c0.13,0,0.26-0.02,0.38-0.05c1.01-0.26,1.77-1.51,1.75-2.99
		c-0.02-1.67-1-3.01-2.19-3C484.21,393.43,483.26,394.79,483.27,396.46z"/>
	<g>
		<path class="st18" d="M493.74,405.88c-0.44,1.62-1.7,2.95-3.38,3.28c-1.81,0.36-3.95-0.17-5.76-0.35c-1.15-0.12-1.14,1.68,0,1.8
			c2.32,0.24,4.99,0.9,7.23-0.03c1.82-0.75,3.14-2.33,3.65-4.21C495.77,405.24,494.04,404.76,493.74,405.88L493.74,405.88z"/>
	</g>
	<g>
		<g>
			<path class="st19" d="M481.45,387.68c-0.64,2.95-1,6.13-0.58,9.13c0.22,1.57,0.97,2.82,1.67,4.22c0.26,0.53,0.48,1.07,0.25,1.64
				c-0.36,0.87-0.96,1.55-1.2,2.49c-0.55,2.17,2.8,3.1,3.35,0.92c0.19-0.76,0.74-1.39,1.05-2.1c0.4-0.93,0.48-1.92,0.26-2.91
				c-0.36-1.58-1.53-2.82-1.88-4.37c-0.55-2.46-0.12-5.57,0.44-8.1C485.28,386.43,481.93,385.49,481.45,387.68L481.45,387.68z"/>
		</g>
	</g>
	<g>
		<path class="st20" d="M479.22,415.77c-0.5,4.04-1.22,8.1-2.66,11.92c-0.38,1-0.74,1.76-1.43,3.18c-0.69,1.42-1.4,2.84-2.06,4.29
			c-0.8,1.77-0.51,3.87,1.29,4.92c1.54,0.9,4.11,0.49,4.92-1.29c1.39-3.07,3.01-6.03,4.21-9.18c1.67-4.43,2.34-9.16,2.92-13.83
			c0.24-1.93-1.82-3.59-3.59-3.59C480.68,412.17,479.46,413.83,479.22,415.77L479.22,415.77z"/>
	</g>
	<path class="st18" d="M492.48,385.68c0,1.83,1.55,3.31,3.45,3.31c1.91,0,3.45-1.48,3.45-3.31s-1.55-3.31-3.45-3.31
		C494.02,382.37,492.48,383.85,492.48,385.68z"/>
	<path class="st21" d="M500.15,382.79c-1.71-0.34-3.37,0.8-3.76,2.51c-0.56,2.5-1.01,7.34,1.76,13c4.05,8.27-3,19.76,0.6,24.86
		c0,0,0.85-3.32,3.58-8.42c2.72-5.1,3.56-13.88,3-19.89c-0.56-5.96-3.53-11.21-3.53-11.21
		C501.37,383.21,500.99,382.96,500.15,382.79z"/>
	<path class="st22" d="M500.85,455.33c0,0-2.84,3.42-3.96,4.17c0,0,3.87-0.68,3.89-1.55L500.85,455.33z"/>
	<g>
		<g>
			<path class="st23" d="M479.68,391.91c-0.43-0.17-0.86-0.34-1.29-0.51c-0.16-0.06-0.41-0.01-0.55,0.07
				c-0.15,0.09-0.29,0.26-0.33,0.43c-0.04,0.18-0.03,0.39,0.07,0.55c0.04,0.05,0.07,0.1,0.11,0.14c0.09,0.09,0.19,0.15,0.32,0.18
				c0.43,0.17,0.86,0.34,1.29,0.51c0.16,0.06,0.41,0.01,0.55-0.07c0.15-0.09,0.29-0.26,0.33-0.43c0.04-0.18,0.03-0.39-0.07-0.55
				c-0.04-0.05-0.07-0.1-0.11-0.14C479.91,392.01,479.81,391.95,479.68,391.91L479.68,391.91z"/>
		</g>
	</g>
	<path class="st18" d="M480.4,399.59c0,0-0.75,1.87-1.75,1.82l-0.19-1.82H480.4z"/>
	<path class="st3" d="M497.79,364.49v-16.95c0-0.91-0.56-1.98-1.25-2.38l-19.29-11.14c-0.23-0.13-0.44-0.17-0.63-0.13l-0.02-0.02
		l-2.36,1.32l1.77,6.04v10.68c0,0.91,0.56,1.98,1.25,2.38l3.1,1.79l5.03,11.6l7.34-3.97l0.92,0.06l1.24,3.14l2.29-1.33l0-0.01
		C497.54,365.47,497.79,365.09,497.79,364.49z"/>
	<path class="st24" d="M478.75,357.86l4.36,9.01c0.5,1.04,1.87,1.3,2.72,0.52l4.18-3.85L478.75,357.86z"/>
	<path class="st18" d="M486.6,369.81"/>
	<g>
		<g>
			<path class="st4" d="M141.51,409.3c2.74,5.55,7.46,10.07,13.31,12.16c7.84,2.81,16.29-0.43,22.58-5.23
				c1.08-0.82,1.92-1.62,2.3-2.99c0.33-1.2,0.18-2.79-0.5-3.85c-1.32-2.05-4.61-3.49-6.84-1.79c-1.66,1.27-3.4,2.43-5.27,3.37
				c-0.21,0.11-0.83,0.51-1.07,0.51c0.61-0.25,0.65-0.27,0.14-0.07c-0.23,0.09-0.46,0.17-0.69,0.25c-0.66,0.23-1.33,0.42-2.01,0.58
				c-0.28,0.06-1.09,0.07-1.29,0.25c0.75-0.09,0.93-0.12,0.54-0.08c-0.16,0.02-0.31,0.03-0.47,0.04c-0.7,0.05-1.4,0.06-2.1,0.01
				c-0.29-0.02-0.58-0.08-0.87-0.08c1.54,0.01,0.4,0.04-0.06-0.06c-0.58-0.13-1.15-0.3-1.72-0.5c-0.51-0.18-1.02-0.7,0.07,0.05
				c-0.2-0.14-0.5-0.24-0.72-0.35c-0.55-0.28-1.08-0.6-1.59-0.94c-0.21-0.14-0.42-0.33-0.64-0.45c1.28,0.7,0.36,0.28-0.01-0.03
				c-0.42-0.37-0.83-0.75-1.22-1.15c-0.39-0.4-0.76-0.81-1.11-1.23c-0.83-1,0.48,0.72,0.01,0.02c-0.14-0.21-0.29-0.4-0.43-0.61
				c-0.63-0.92-1.19-1.88-1.68-2.87c-1.16-2.35-4.68-3.19-6.84-1.79C140.9,404.01,140.26,406.79,141.51,409.3L141.51,409.3z"/>
		</g>
	</g>
	
		<ellipse transform="matrix(5.421096e-03 -1 1 5.421096e-03 -351.9388 663.0082)" class="st0" cx="157.34" cy="508.43" rx="12.49" ry="21.64"/>
	<path class="st25" d="M152.43,504.56c-0.16,0.14-2.5,1.31-2.65,1.44c-0.23,0.2-0.9,0.74-1.31,1.03c-0.86,0.62-2.67,2.97-5.62,1.31
		c-4.32-2.42,5.99-9.3,5.99-9.3l4.56-2.38c0.56-0.29,1.22-0.29,1.8,0l0,0c1.07,0.53,1.5,1.86,0.92,2.86
		C155.13,501.25,155.08,502.26,152.43,504.56z"/>
	<path class="st26" d="M151.95,503.27c-0.16,0.14-2.5,1.31-2.65,1.44c-0.23,0.2-0.9,0.74-1.31,1.03c-0.86,0.62-2.67,2.97-5.62,1.31
		c-4.32-2.42,5.99-9.3,5.99-9.3l4.56-2.38c0.56-0.29,1.22-0.29,1.8,0l0,0c1.07,0.53,1.5,1.86,0.92,2.86
		C154.65,499.96,154.59,500.97,151.95,503.27z"/>
	<path class="st25" d="M168.52,514.41c-0.18,0.1-2.71,0.79-2.88,0.88c-0.26,0.15-1.03,0.54-1.49,0.75
		c-0.96,0.43-3.21,2.37-5.77,0.16c-3.75-3.24,7.73-7.92,7.73-7.92l4.94-1.42c0.6-0.17,1.26-0.04,1.77,0.36l0,0
		c0.94,0.74,1.09,2.12,0.32,2.99C171.83,511.7,171.57,512.68,168.52,514.41z"/>
	<path class="st26" d="M168.3,513.04c-0.18,0.1-2.71,0.79-2.88,0.88c-0.26,0.15-1.03,0.54-1.49,0.75c-0.96,0.43-3.21,2.37-5.77,0.16
		c-3.75-3.24,7.73-7.92,7.73-7.92l4.94-1.42c0.6-0.17,1.26-0.04,1.77,0.36l0,0c0.94,0.74,1.09,2.12,0.32,2.99
		C171.61,510.34,171.35,511.31,168.3,513.04z"/>
	<g>
		<g>
			<path class="st27" d="M151.89,454.33c1.35,3.93,2.2,8,2.76,12.11c-0.09-0.69-0.18-1.38-0.28-2.06
				c1.66,12.59,0.62,25.24-0.24,37.85c-0.14,2.06-0.3,4.14-0.24,6.2c0.11,4.06,3.49,7.96,7.77,7.77c4.11-0.18,7.89-3.42,7.77-7.77
				c-0.16-5.81,0.68-11.7,1.01-17.49c0.47-8.34,0.62-16.75-0.35-25.06c-0.62-5.32-1.48-10.6-3.23-15.68
				c-1.32-3.83-5.39-6.77-9.55-5.42C153.52,446.01,150.48,450.22,151.89,454.33L151.89,454.33z"/>
		</g>
	</g>
	<g>
		<g>
			<path class="st27" d="M135.75,445.29c1.16,4.18,1.89,8.46,2.47,12.75c-0.09-0.69-0.18-1.38-0.28-2.06
				c0.6,4.54,1.02,9.11,1.43,13.67c0.18,2.04,0.23,3.77,0.02,5.78c-0.58,5.66-1.29,11.31-1.83,16.97c-0.25,2.6-0.54,5.23-0.51,7.85
				c0.04,4.06,3.54,7.96,7.77,7.77c4.17-0.19,7.81-3.41,7.77-7.77c-0.03-2.8,0.29-5.62,0.56-8.4c0.36-3.66,0.77-7.31,1.18-10.97
				c0.29-2.54,0.63-5.09,0.8-7.64c0.09-1.4-0.15-2.82-0.27-4.21c-0.24-2.69-0.48-5.38-0.77-8.06c-0.72-6.65-1.55-13.36-3.35-19.81
				c-1.09-3.91-5.55-6.72-9.55-5.42C137.18,437.03,134.58,441.09,135.75,445.29L135.75,445.29z"/>
		</g>
	</g>
	<g>
		<path class="st28" d="M164.73,507.89c-1.7,1.49-5.23,1.28-6.55-0.6c-0.02,1.04-0.03,2.07,0,3.11c0.1,4.22,6.67,4.23,6.57,0
			C164.73,509.56,164.72,508.72,164.73,507.89z"/>
	</g>
	<g>
		<path class="st27" d="M145.95,454.9L145.95,454.9c0.74,0.83-2.44-3.21-1.49-2.63c1.98,1.2,13.13,8.77,15.45,8.81
			c2.8,0.05,1.17-2.66,3.25-4.53c1.98-1.78,2.44-4.66,2.64-7.31c0.05-0.73,0.09-1.5-0.2-2.17c-0.32-0.73-0.97-1.24-1.6-1.72
			c-4.95-3.75-14.69-13.02-21.6-10.05C134.39,438.71,142.4,450.92,145.95,454.9z"/>
	</g>
	<path class="st29" d="M140.14,395.6c-1.47,1.89-1.29,3.06-1.22,5.64c0.07,2.52,1.78,4.7,4.21,5.39l24.81,6.96
		c0,0,1.43-9.55-3.47-12.42c-2.64-1.55-6.73-4.02-9.94-5.98C149.81,392.31,143.52,391.23,140.14,395.6z"/>
	<path class="st4" d="M151.45,395.28l2.1-9.35l5.7,3.84l-1.72,8.52C157.37,399.66,151.04,398.45,151.45,395.28z"/>
	<path class="st4" d="M157.72,372.32c0,0-4.98-4.87-6.63,4.67c-1.15,6.64,1.92,13.07,6.94,16.57c3.12,2.18,7.62,0.81,8.36-2.47
		c1.61-4.69,2.38-9.2,1.45-13.34c0.89-3.95-2.09-2.99-6.79-4.04L157.72,372.32z"/>
	<path class="st19" d="M151.4,390.31c0,0-6.12-3.51-3.97-12.59c2.33-9.82,11.32-7.44,16.48-7.08c2.28,0.16,3.9,0.1,5.86,2.54
		c1.78,2.22-0.88,6.09-3.93,5.86c-1.21-0.09-2.04,3.22-2.46,4.28c-0.75,1.89-2.41,2.27-3.18,4.09c-0.73,1.72-2.72,4.45-4.48,4.36
		C152.6,391.61,151.4,390.31,151.4,390.31z"/>
	<path class="st29" d="M138.83,440.45c-1.58-0.61-1.2-27.76,0.22-42.75l27.93,13.29c-0.14,12.76-1.75,22.84-0.22,38.39
		L138.83,440.45z"/>
	<path class="st29" d="M157.43,452.15c-6.9-2.52-13.47-5.27-17.34-10.01c-1.9-1.1-1.66-3.03,0.53-4.29l0,0
		c2.19-1.26,5.53-1.4,7.43-0.31l17.33,10.01c1.9,1.1,1.66,3.03-0.53,4.29l0,0C162.67,453.11,159.33,453.24,157.43,452.15z"/>
	<path class="st30" d="M166.98,410.98l-4.6-2.19c-0.19,12.44-1.71,22.44-0.21,37.71l-0.08-0.02c0.03,0.86-0.58,1.78-1.81,2.49l0,0
		c-2.19,1.26-5.53,1.4-7.43,0.31c-3.31-1.21-6.55-2.47-9.44-3.99c3.81,2.92,8.83,4.96,14.03,6.85c1.9,1.1,5.24,0.96,7.43-0.31l0,0
		c1.23-0.71,1.84-1.63,1.81-2.49l0.08,0.02C165.22,433.82,166.83,423.75,166.98,410.98z"/>
	<path class="st31" d="M156.46,506.62l0.07,2.91c0,0.12,0.04,0.24,0.12,0.34c0.44,0.59,2.16,2.58,5.3,2.03
		c2.76-0.49,4.24-1.35,4.81-1.76c0.18-0.13,0.27-0.33,0.25-0.55l-0.27-2.96c-0.04-0.44-0.52-0.7-0.91-0.47
		c-1.41,0.83-4.52,2.06-8.46-0.08C156.95,505.86,156.45,506.15,156.46,506.62z"/>
	<g>
		<path class="st28" d="M148.09,499.28c-1.7,1.49-5.23,1.28-6.55-0.6c-0.02,1.04-0.03,2.07,0,3.11c0.1,4.22,6.67,4.23,6.57,0
			C148.08,500.95,148.08,500.11,148.09,499.28z"/>
	</g>
	<path class="st31" d="M139.82,498.02l0.07,2.91c0,0.12,0.04,0.24,0.12,0.34c0.44,0.59,2.16,2.58,5.3,2.03
		c2.76-0.49,4.24-1.35,4.81-1.76c0.18-0.13,0.27-0.33,0.25-0.55l-0.27-2.96c-0.04-0.44-0.52-0.7-0.91-0.47
		c-1.41,0.83-4.52,2.06-8.46-0.08C140.31,497.25,139.81,497.55,139.82,498.02z"/>
	<path class="st32" d="M161.24,399.23c-6.41-0.96-10.73,3.06-12.26-6.16l0,0c0.93-0.58,2.14-0.3,2.77,0.61
		c1.1,1.59,3.44,2.59,6.02,2.28c0.77-0.09,1.53,0.26,1.95,0.92L161.24,399.23z"/>
	<path class="st4" d="M161.94,385.33c0.06,1.45-0.74,2.65-1.78,2.7c-0.11,0-0.23-0.01-0.33-0.03c-0.89-0.19-1.6-1.23-1.65-2.52
		c-0.06-1.45,0.74-2.66,1.78-2.7C161,382.74,161.89,383.89,161.94,385.33z"/>
	<g>
		<g>
			<path class="st4" d="M158.71,407.6c0.26,3.56,0.32,7.24,1.11,10.74c0.74,3.26,2.35,6.32,3.8,9.3c1.52,3.11,3.68,6.1,7.15,7.15
				c3.44,1.05,7.06-0.64,9.29-3.28c3.25-3.85,5.06-8.7,6.55-13.45c0.78-2.49-0.92-5.56-3.49-6.15c-2.72-0.62-5.31,0.82-6.15,3.49
				c-0.33,1.06-0.68,2.12-1.07,3.17c-0.17,0.48-0.35,0.95-0.54,1.42c-0.07,0.18-0.15,0.36-0.22,0.54c0.53-1.39,0.21-0.5,0.07-0.17
				c-0.63,1.41-1.34,2.8-2.22,4.08c-0.1,0.15-0.26,0.31-0.33,0.47c-0.02,0.04,0.89-1.08,0.45-0.58c-0.19,0.21-0.36,0.43-0.56,0.63
				c-0.18,0.18-0.37,0.35-0.56,0.53c-0.41,0.4,0.73-0.53,0.68-0.52c-0.13,0.04-0.27,0.19-0.39,0.26c-0.16,0.1-0.33,0.17-0.5,0.27
				c1.41-0.82,1.07-0.48,0.54-0.28c-0.79,0.29,1.51-0.15,0.68-0.1c-0.07,0-0.14-0.01-0.21,0c-0.65,0.05,1.56,0.35,0.85,0.11
				c-0.15-0.05-0.32-0.11-0.47-0.15c1.43,0.33,1.14,0.46,0.57,0.18c-0.18-0.09-0.63-0.47,0.2,0.17c0.81,0.63,0.36,0.29,0.2,0.14
				c-0.19-0.18-0.37-0.35-0.55-0.55c-0.08-0.09-0.16-0.19-0.25-0.29c-0.4-0.45,0.55,0.63,0.49,0.64c-0.08,0.01-0.41-0.6-0.48-0.7
				c-0.39-0.62-0.72-1.27-1.04-1.93c-0.39-0.79-0.77-1.59-1.15-2.39c-0.17-0.36-0.33-0.71-0.49-1.07c-0.12-0.26-0.66-1.52-0.25-0.55
				c0.4,0.95-0.01-0.04-0.1-0.27c-0.1-0.27-0.2-0.54-0.3-0.81c-0.19-0.55-0.36-1.1-0.5-1.67c-0.14-0.56-0.23-1.12-0.33-1.69
				c-0.11-0.66,0.16,0.91,0.11,0.83c-0.08-0.12-0.06-0.46-0.07-0.6c-0.04-0.34-0.07-0.68-0.1-1.03c-0.18-1.96-0.29-3.93-0.43-5.89
				c-0.19-2.6-2.16-5.12-5-5C161.17,402.72,158.51,404.81,158.71,407.6L158.71,407.6z"/>
		</g>
	</g>
	<path class="st29" d="M159.7,407.52c1.56,13.21,5.73,21.61,11.49,25.88c3.03,1.68,5.87-3.11,4.71-6
		c-5.74-5.11-7.76-13.07-8.31-22.17c-0.75-1.85-2.89-2.84-4.94-2.31l0,0C160.52,403.48,159.21,405.51,159.7,407.52z"/>
	<g>
		<path class="st4" d="M169.06,387.48L169.06,387.48c-0.01,0.18-0.16,0.31-0.31,0.42c-0.42,0.29-0.9,0.49-1.4,0.6
			c-0.24,0.05-0.51,0.07-0.7-0.07c-0.21-0.16-0.25-0.45-0.24-0.7c0.02-0.68,0.32-1.86,1.13-1.99c0.33-0.05,0.18-2.34,0.23-2.02
			C167.95,385.01,168.65,386.69,169.06,387.48z"/>
	</g>
	<path class="st13" d="M166.01,384.5c-0.05,0.47,0.12,0.88,0.38,0.91c0.26,0.03,0.52-0.33,0.57-0.8c0.05-0.47-0.12-0.88-0.38-0.91
		S166.07,384.03,166.01,384.5z"/>
	<g>
		<g>
			<path class="st23" d="M165.78,383.55c0.17-0.11,0.35-0.19,0.54-0.27c-0.06,0.02-0.12,0.05-0.18,0.07
				c0.31-0.13,0.64-0.23,0.98-0.28c-0.07,0.01-0.13,0.02-0.2,0.03c0.16-0.02,0.32-0.03,0.47-0.01c-0.07-0.01-0.13-0.02-0.2-0.03
				c0.06,0.01,0.11,0.02,0.17,0.04c0.37,0.11,0.82-0.13,0.9-0.51c0.09-0.4-0.12-0.78-0.51-0.9c-0.47-0.14-1-0.07-1.46,0.06
				c-0.44,0.12-0.87,0.3-1.26,0.54c-0.33,0.2-0.48,0.67-0.26,1.01C164.99,383.62,165.43,383.77,165.78,383.55L165.78,383.55z"/>
		</g>
	</g>
	<g>
		<g>
			<path class="st23" d="M165.94,389.92c-0.14,0.01-0.28,0-0.43-0.01c0.07,0.01,0.13,0.02,0.2,0.03c-0.22-0.03-0.43-0.09-0.63-0.17
				c0.06,0.02,0.12,0.05,0.18,0.07c-0.2-0.09-0.39-0.2-0.57-0.33c0.05,0.04,0.1,0.08,0.15,0.11c-0.16-0.12-0.29-0.26-0.42-0.42
				c0.04,0.05,0.08,0.1,0.11,0.15c-0.07-0.09-0.13-0.18-0.18-0.27c-0.19-0.33-0.67-0.48-1.01-0.26c-0.34,0.22-0.47,0.65-0.26,1.01
				c0.57,0.99,1.72,1.64,2.86,1.58c0.38-0.02,0.75-0.32,0.74-0.74C166.66,390.28,166.35,389.9,165.94,389.92L165.94,389.92z"/>
		</g>
	</g>
	<path class="st32" d="M175.78,425.58c0.48,2.03,1.11,6.53-2.29,8.16c-0.5,0.24-1.1,0.24-1.61,0.01l-1.04-0.46
		c-1.05-0.47-1.46-1.74-0.89-2.74c0.73-1.28,1.62-3.08,2.02-4.9c0.26-1.16,1.46-1.85,2.57-1.44l0.02,0.01
		C175.17,424.44,175.63,424.95,175.78,425.58z"/>
	<path class="st33" d="M171.73,510.3c0.32-0.39,0.83-1.16,1.24-1.61c0.76-0.85,0.53-2.13-0.39-2.85c-0.5-0.39-1.15-0.53-1.74-0.36
		l-2.38,0.68C169.63,506.87,170.88,508.29,171.73,510.3z"/>
	<path class="st33" d="M154.84,499.85c0.23-0.45,0.58-1.3,0.89-1.83c0.57-0.99,0.1-2.19-0.95-2.71c-0.57-0.28-1.23-0.28-1.77,0
		l-2.19,1.14C152.1,496.91,153.6,498.05,154.84,499.85z"/>
	<g>
		<g>
			<path class="st7" d="M181.2,417.25l-5.6-4.17c-0.33-0.24-0.43-0.78-0.22-1.21l5.48-11.13c0.21-0.43,0.65-0.57,0.98-0.33
				l5.57,4.06c0.33,0.24,0.43,0.78,0.22,1.21l-5.46,11.08c-0.14,0.28-0.28,0.31-0.56,0.38L181.2,417.25z"/>
			<path class="st7" d="M181.84,405.99c0,0-6.67,6.29-6.47,5.87l5.49-11.51l0.52-0.05c0.15-0.03,0.31,0,0.45,0.11l5.57,4.06
				c0.16,0.12,0.27,0.31,0.31,0.52L181.84,405.99z"/>
			<path class="st8" d="M180.63,417.18l-5.55-4.06c-0.33-0.24-0.42-0.78-0.21-1.21l5.48-11.13c0.21-0.43,0.64-0.57,0.97-0.33
				l5.54,4.06c0.33,0.24,0.41,0.78,0.2,1.21l-5.48,11.13C181.38,417.27,180.96,417.42,180.63,417.18z"/>
			<path class="st8" d="M186.86,406.6l-0.31,0.64c-0.02,0.04,0,0.07,0.06,0.06l-0.01-0.01c0.05-0.01,0.09-0.06,0.11-0.11l0.31-0.64
				c0.02-0.04,0.02-0.07-0.04-0.05l0,0.01C186.93,406.51,186.88,406.56,186.86,406.6z"/>
			<path class="st8" d="M186.31,407.72l-0.31,0.64c-0.02,0.04,0,0.07,0.06,0.06l-0.01-0.01c0.05-0.01,0.09-0.06,0.11-0.11l0.31-0.64
				c0.02-0.04,0.02-0.07-0.04-0.05l0,0.01C186.38,407.62,186.33,407.67,186.31,407.72z"/>
			<path class="st15" d="M181.5,415.35l-5.46-3.99l4.81-9.82l5.43,3.96l-4.85,9.56C181.38,415.15,181.57,415.4,181.5,415.35z"/>
			<path class="st16" d="M184.75,403.85l-1.72-1.25c-0.06-0.04-0.08-0.14-0.04-0.22l0,0c0.04-0.08,0.12-0.1,0.18-0.06l1.72,1.25
				c0.06,0.04,0.08,0.14,0.04,0.22l0,0C184.89,403.87,184.81,403.9,184.75,403.85z"/>
		</g>
		<path class="st6" d="M183.41,415.62l0.67-1.39c-0.54-0.01-1.16,2.18-1.15,1.74l0.02-6.2c0.01-0.44,0.46-0.8,1-0.78l0,0
			c0.54,0.01,0.97,0.39,0.95,0.83l-0.09,3.06C184.81,413.32,183.95,415.63,183.41,415.62z"/>
	</g>
	<g>
		<path class="st7" d="M460.22,228.99l-5.82-2.71c-0.36-0.14-0.72-0.65-0.8-1.15l-2.09-12.87c-0.08-0.49,0.15-0.78,0.51-0.63
			l6.08,2.36c0.36,0.14,0.72,0.65,0.8,1.15l2.08,12.81c0.05,0.32-0.03,0.4-0.19,0.56L460.22,228.99z"/>
		<path class="st7" d="M455.01,217.24c0,0-1.33,8.38-1.41,7.89l-2.29-13.26l0.34-0.22c0.09-0.08,0.22-0.09,0.38-0.03l6.08,2.36
			c0.18,0.07,0.35,0.23,0.5,0.43L455.01,217.24z"/>
		<path class="st8" d="M459.83,229.04l-6.07-2.37c-0.36-0.14-0.71-0.66-0.79-1.15l-2.09-12.87c-0.08-0.49,0.14-0.77,0.51-0.63
			l6.06,2.37c0.36,0.14,0.71,0.66,0.79,1.15l2.09,12.87C460.41,228.9,460.19,229.18,459.83,229.04z"/>
		<path class="st8" d="M458.7,216.49l0.12,0.74c0.01,0.05,0.04,0.07,0.07,0.04l-0.01,0c0.03-0.03,0.03-0.09,0.02-0.14l-0.12-0.74
			c-0.01-0.05-0.02-0.07-0.05-0.04l0,0.01C458.7,216.37,458.7,216.44,458.7,216.49z"/>
		<path class="st8" d="M458.91,217.77l0.12,0.74c0.01,0.05,0.04,0.07,0.07,0.04l-0.01,0c0.03-0.03,0.03-0.09,0.02-0.14l-0.12-0.74
			c-0.01-0.05-0.02-0.07-0.05-0.04l0,0.01C458.91,217.66,458.9,217.72,458.91,217.77z"/>
	</g>
	<g>
		<g>
			<path class="st7" d="M207.09,202.01l-6.97-1.73c-0.41-0.1-0.72-0.57-0.69-1.06l0.77-12.73c0.03-0.49,0.39-0.8,0.8-0.7l6.89,1.63
				c0.41,0.1,0.72,0.57,0.69,1.06l-0.76,12.67c-0.02,0.32-0.14,0.41-0.38,0.59L207.09,202.01z"/>
			<path class="st7" d="M203.22,191.08c0,0-3.82,8.63-3.79,8.14l0.62-13.1l0.48-0.26c0.13-0.09,0.3-0.12,0.47-0.08l6.89,1.63
				c0.2,0.05,0.38,0.18,0.5,0.37L203.22,191.08z"/>
			<path class="st8" d="M206.53,202.17l-6.88-1.64c-0.41-0.1-0.71-0.58-0.68-1.06l0.77-12.73c0.03-0.49,0.38-0.8,0.79-0.7l6.87,1.64
				c0.41,0.1,0.7,0.58,0.67,1.06l-0.77,12.73C207.28,201.96,206.94,202.27,206.53,202.17z"/>
			<path class="st8" d="M208.22,189.66l-0.04,0.73c0,0.05,0.03,0.06,0.08,0.03l-0.01,0c0.05-0.03,0.06-0.1,0.07-0.15l0.04-0.73
				c0-0.05-0.01-0.07-0.05-0.04l0,0.01C208.25,189.54,208.23,189.61,208.22,189.66z"/>
			<path class="st8" d="M208.15,190.93l-0.04,0.73c0,0.05,0.03,0.06,0.08,0.03l-0.01,0c0.05-0.03,0.06-0.1,0.07-0.15l0.04-0.73
				c0-0.05-0.01-0.07-0.05-0.04l0,0.01C208.18,190.82,208.15,190.88,208.15,190.93z"/>
			<path class="st15" d="M206.62,200.08l-6.77-1.6l0.64-11.22l6.73,1.59l-0.79,11C206.43,199.94,206.71,200.11,206.62,200.08z"/>
			<path class="st16" d="M205.12,187.89l-2.13-0.5c-0.07-0.02-0.13-0.1-0.13-0.19l0,0c0.01-0.09,0.07-0.15,0.15-0.13l2.13,0.5
				c0.07,0.02,0.13,0.1,0.13,0.19l0,0C205.26,187.85,205.2,187.91,205.12,187.89z"/>
		</g>
	</g>
	<g>
		<polygon class="st34" points="208.68,320.36 202.45,318.05 171.89,354.82 179.53,357.59 		"/>
		<path class="st35" d="M201.28,342.65l-20.01,11.48c-7.87,4.52-16.89-1.76-16.23-11.31l0.07-0.95c0.31-4.43,2.75-8.45,6.4-10.55
			l21.93-12.58c7.62-4.37,16.35,1.71,15.71,10.94l0,0C208.77,335.14,205.77,340.08,201.28,342.65z"/>
		<path class="st35" d="M166.39,348.46l-0.04,14.89c0,1.24,1.44,1.93,2.4,1.15l13-10.5L166.39,348.46z"/>
		<path class="st5" d="M207.42,344.92l-20.01,11.48c-7.87,4.52-16.89-1.76-16.23-11.31l0.07-0.95c0.31-4.43,2.75-8.45,6.4-10.55
			l21.93-12.58c7.62-4.37,16.35,1.71,15.71,10.94l0,0C214.91,337.41,211.91,342.35,207.42,344.92z"/>
		<path class="st18" d="M186.58,342.15c0.13,2.21-1.17,4.81-2.9,5.8c-1.73,0.99-3.23,0-3.36-2.21c-0.13-2.21,1.17-4.81,2.9-5.8
			S186.45,339.93,186.58,342.15z"/>
		<path class="st18" d="M196.86,336.64c0.13,2.21-1.17,4.81-2.9,5.8c-1.73,0.99-3.23,0-3.36-2.21c-0.13-2.21,1.17-4.81,2.9-5.8
			C195.23,333.44,196.73,334.43,196.86,336.64z"/>
		<path class="st18" d="M206.15,331.73c0.13,2.21-1.17,4.81-2.9,5.8c-1.73,0.99-3.23,0-3.36-2.21c-0.13-2.21,1.17-4.81,2.9-5.8
			C204.52,328.53,206.02,329.52,206.15,331.73z"/>
	</g>
	
		<ellipse transform="matrix(1 -5.421353e-03 5.421353e-03 1 -1.653 0.8799)" class="st0" cx="161.47" cy="305.34" rx="20.99" ry="12.12"/>
	<g>
		<path class="st36" d="M163.92,298.84l0.47-0.06c0.27-0.03,0.46-0.28,0.43-0.55l0,0c-0.03-0.27-0.28-0.46-0.55-0.43l-0.47,0.06
			c-0.27,0.03-0.46,0.28-0.43,0.55l0,0C163.4,298.68,163.65,298.87,163.92,298.84z"/>
		<path class="st37" d="M164.8,298.45l0.79-2.08c0.1-0.25-0.03-0.54-0.28-0.63l0,0c-0.25-0.1-0.54,0.03-0.63,0.28l-0.79,2.08
			c-0.1,0.25,0.03,0.54,0.28,0.63l0,0C164.42,298.83,164.7,298.7,164.8,298.45z"/>
		<g>
			<path class="st36" d="M164.62,292.02c-0.43,2.53-1.25,6.23-1.25,6.23l0.79,0.49l0.79-2.5c0.24-0.33,0.72,0.31,0.84,0.8
				c0.7,2.89-0.85,3.94,0.29,5.58c0,0,2.96,2.98,6.82,3.68c0,0,1.93,0.01,1.6-1.3c-0.67-2.58-3.82-10.25-4.35-11.97l-0.25-0.2
				l-0.74-3.76c-0.64-0.48-2.38,0.08-3.26,0.87C165.3,290.22,164.8,290.97,164.62,292.02z"/>
			<path class="st38" d="M169.74,288.98l1.09,1.93c0,0,1.63,7.78,1.91,9.32c0.33,1.79-5.88,2.3-6.25-7.63
				C165.57,287.09,169.74,288.98,169.74,288.98z"/>
		</g>
	</g>
	<g>
		<g>
			<path class="st38" d="M165.8,240.71c0.14,9.18,0.12,18.37-0.47,27.54c-0.19,3.01-0.45,6.02-0.8,9.01
				c-0.07,0.63-0.15,1.25-0.23,1.88c-0.02,0.14-0.04,0.29-0.06,0.43c-0.13,0.98,0.24-1.73,0.13-0.98c-0.05,0.35-0.1,0.69-0.14,1.04
				c-0.17,1.19-0.35,2.38-0.55,3.57c-0.41,2.56-0.87,5.12-1.31,7.68c-0.3,1.76-0.28,3.39,0.65,4.98c0.78,1.34,2.32,2.62,3.86,2.97
				c3.13,0.71,7.35-0.95,7.95-4.51c0.89-5.23,1.79-10.45,2.45-15.72c0.85-6.76,1.23-13.56,1.39-20.36
				c0.14-5.84,0.13-11.68,0.04-17.52c-0.05-3.38-2.94-6.62-6.46-6.46C168.8,234.41,165.74,237.09,165.8,240.71L165.8,240.71z"/>
		</g>
	</g>
	<g>
		<g>
			<path class="st39" d="M164.35,239.32c0.77,11.01,1.25,22.06,0.04,33.05c-0.2,1.8,0.99,4.11,2.21,5.34
				c1.31,1.31,3.46,2.3,5.34,2.21c1.95-0.09,3.98-0.73,5.34-2.21c1.44-1.56,1.98-3.24,2.21-5.34c1.21-10.99,0.72-22.05-0.04-33.05
				c-0.14-2.02-0.75-3.87-2.21-5.34c-1.31-1.31-3.46-2.3-5.34-2.21C168.05,231.94,164.06,235.1,164.35,239.32L164.35,239.32z"/>
		</g>
	</g>
	<g>
		<path class="st8" d="M174.16,187.79c1.18,2.01,1.88,4.56,0.83,6.64c-0.19,0.38-0.44,0.73-0.67,1.09c-0.6,0.94-1.09,1.96-1.44,3.02
			c-0.06,0.18-0.12,0.37-0.25,0.51c-0.3,0.33-0.85,0.26-1.22,0.01c-0.37-0.25-0.61-0.64-0.92-0.96
			c-0.92-0.95-14.08,10.56-15.02,9.63c-1.27-1.26-0.79-18.36-0.74-20.15c0.07-2.28,11.46-1.48,12.97-3.18c0.3-0.33,0.64-0.63,0.89-1
			l0,0c0.36-0.54,0.59-1.57,1.4-1.39c0.65,0.14,1.06,1.19,1.37,1.67C172.25,185.07,173.32,186.35,174.16,187.79z"/>
	</g>
	<g>
		<g>
			<path class="st39" d="M156.27,204.97c0.53-0.62,1.28-0.97,1.99-1.32c0.77-0.38,1.56-0.72,2.38-0.99
				c1.71-0.57,3.45-0.88,5.26-0.82c1.62,0.05,1.62-2.46,0-2.52c-2.07-0.07-4.15,0.3-6.1,0.97c-0.99,0.34-1.95,0.76-2.89,1.23
				c-0.87,0.44-1.77,0.92-2.42,1.67c-0.44,0.51-0.51,1.27,0,1.78C154.94,205.42,155.82,205.48,156.27,204.97L156.27,204.97z"/>
		</g>
	</g>
	<g>
		<g>
			<path class="st40" d="M166.03,207.5c3.21,3.67,7.21,6.84,11.93,8.27c5.23,1.58,10.83,0.41,15.41-2.4
				c2.88-1.77,4.24-5.87,2.32-8.84c-1.86-2.89-5.76-4.21-8.84-2.32c-0.76,0.47-1.54,0.88-2.36,1.24c0.51-0.22,1.03-0.43,1.54-0.65
				c-1.1,0.45-2.22,0.77-3.4,0.93c0.57-0.08,1.15-0.15,1.72-0.23c-0.91,0.1-1.8,0.1-2.71,0c0.57,0.08,1.15,0.15,1.72,0.23
				c-1.16-0.16-2.28-0.47-3.36-0.93c0.51,0.22,1.03,0.43,1.54,0.65c-1.31-0.58-2.51-1.33-3.64-2.19c0.44,0.34,0.87,0.67,1.31,1.01
				c-1.48-1.16-2.81-2.48-4.04-3.9c-2.23-2.56-6.89-2.45-9.14,0C163.53,201.08,163.65,204.77,166.03,207.5L166.03,207.5z"/>
		</g>
	</g>
	<g>
		<g>
			<path class="st4" d="M152.08,242.04c-0.55,9.9-0.34,19.85,0,29.75c0.02,0.5,0.03,1,0.05,1.5c0.05,1.27-0.29,0.05,0.25-1.12
				c-0.28,0.62-0.44,1.32-0.66,1.96c-1.24,3.63-2.5,7.25-3.81,10.86c-0.87,2.39-1.76,4.78-2.7,7.15c-0.2,0.5-0.4,1-0.6,1.49
				c-0.1,0.24-0.19,0.47-0.29,0.71c-0.4,0.98,0.76-1.76,0.18-0.43c-0.36,0.82-0.72,1.63-1.11,2.43c-1.5,3.02-0.91,7.14,2.32,8.84
				c2.92,1.54,7.24,0.92,8.84-2.32c3.83-7.73,6.51-16.14,9.3-24.28c0.66-1.92,1.28-3.61,1.2-5.68c-0.14-3.9-0.24-7.8-0.29-11.7
				c-0.09-6.39-0.1-12.79,0.26-19.17c0.19-3.38-3.11-6.61-6.46-6.46C154.88,235.74,152.28,238.42,152.08,242.04L152.08,242.04z"/>
		</g>
	</g>
	<path class="st39" d="M152.59,244.54c0.68,9.38,6.68,10.33,12.74,6.83c3.74-2.16,8.66-5.05,10.19-9.33
		c0.95-2.66-0.76-6.44-0.76-9.12c0,0-3.37-10.38-9.43-6.88C159.27,229.54,151.8,233.64,152.59,244.54z"/>
	<path class="st41" d="M173.24,205.77c0,0,4.01,6.3,3.55,10.11c-0.29,2.42-2.04,5.14-2.29,5.92c-2.09,6.34-0.93,8.26-1.16,10.02
		c0,0-1.39,6.03-16.28,0.33l-6.25-18.37L173.24,205.77z"/>
	<path class="st41" d="M151.91,217.79c-0.55-0.34-0.68-1.23-0.68-1.23c-0.38-3.27-2.18-4.76,1.38-10.37c0.57-0.9,8.37-4.94,14.22-6
		c2.84-0.51,5.65,1.07,6.79,3.72c0.67,1.55,1.32,4.61,1.32,4.61c0.28,6.01-2.39-1.88-2.81,1.44c0.01-0.08,0.03-0.16,0.05-0.24
		c0,0-0.73,5.61-1.28,9.95c-0.34,2.71-0.58,4.67-0.6,4.94c0,0.01,0,0.03,0,0.03l-10.16,8.01L154.8,223l0,0L151.91,217.79z"/>
	<path class="st4" d="M166.47,200.11c0,0,5.08,5.24,0.67,8.96c-4.4,3.72-11.9-4.59-11.9-4.59
		C159.18,202.01,162.96,200.34,166.47,200.11z"/>
	<path class="st4" d="M164.68,202.91l2.64-10.18l-6.38,2.02l-2.15,8.32C158.33,204.42,162.77,208.11,164.68,202.91z"/>
	<path class="st42" d="M165.31,200.87c0,0-2.86-1.47-2.87-1.49c0,0,0.98,2.08,2.4,2.9L165.31,200.87z"/>
	<g>
		<path class="st36" d="M142.65,302.5l0.47,0.08c0.27,0.05,0.52-0.13,0.57-0.4l0,0c0.05-0.27-0.13-0.52-0.4-0.57l-0.47-0.08
			c-0.27-0.05-0.52,0.13-0.57,0.4l0,0C142.21,302.2,142.38,302.45,142.65,302.5z"/>
		<path class="st37" d="M143.6,302.39l1.36-1.76c0.17-0.21,0.13-0.52-0.09-0.69l0,0c-0.21-0.17-0.52-0.13-0.69,0.09l-1.36,1.76
			c-0.17,0.21-0.13,0.52,0.09,0.69v0C143.13,302.64,143.44,302.61,143.6,302.39z"/>
		<g>
			<path class="st36" d="M145.32,296.19c-1.16,2.3-3.02,5.59-3.02,5.59l0.61,0.7l1.49-2.16c0.33-0.24,0.59,0.51,0.57,1.01
				c-0.18,2.97-1.97,3.52-1.36,5.42c0,0,1.96,3.72,5.44,5.52c0,0,1.84,0.58,1.91-0.77c0.12-2.66-0.64-10.92-0.64-12.72l-0.18-0.26
				l0.4-3.82c-0.47-0.64-2.3-0.62-3.37-0.13C146.5,294.67,145.8,295.24,145.32,296.19z"/>
			<path class="st4" d="M151.11,294.79l0.48,2.16c0,0-0.73,7.92-0.91,9.47c-0.21,1.8-6.3,0.47-3.74-9.13
				C147.68,291.75,151.11,294.79,151.11,294.79z"/>
		</g>
	</g>
	<path class="st43" d="M153.51,216.08c0.5,1.13,1.21,2.29,2.06,3.46c2.19,2.99,5.97,4.34,9.57,3.48c5.3-1.27,10.67-3.96,10.67-3.96
		s-2.29,7.36-1.49,11.65c0.37,1.99,0.1,1.62,0.1,1.62c-0.11,1.9-3.25,1.38-3.25,1.38c-6.7,2.08-14.11-1.58-14.11-1.58l-4.34-12.71
		L153.51,216.08z"/>
	<path class="st44" d="M175.19,231.83L175.19,231.83c0.08,0.44-0.09,0.88-0.44,1.15c-1.26,0.98-4.64,3.08-9.94,2.5
		c-4.54-0.49-7.2-1.49-8.48-2.11c-0.55-0.27-0.81-0.9-0.6-1.48l0.13-0.35c0.23-0.63,0.94-0.95,1.57-0.69
		c2.4,1.01,8.12,3.08,12.13,1.88c1.85-0.55,3.04-1.14,3.8-1.67C174.06,230.58,175.03,230.98,175.19,231.83z"/>
	<path class="st18" d="M167.6,235.9l2.57-0.51c0.86-0.17,1.56-1.01,1.56-1.86v0c0-0.86-0.7-1.42-1.56-1.25l-2.57,0.51
		c-0.86,0.17-1.56,1.01-1.56,1.86l0,0C166.05,235.51,166.75,236.07,167.6,235.9z"/>
	<path class="st44" d="M168.21,235.14l1.49-0.29c0.5-0.1,0.9-0.58,0.9-1.08l0,0c0-0.5-0.41-0.82-0.9-0.72l-1.49,0.29
		c-0.5,0.1-0.9,0.58-0.9,1.08l0,0C167.31,234.91,167.72,235.24,168.21,235.14z"/>
	<g>
		<g>
			<path class="st39" d="M166.24,200.83c0,0.95,0.35,1.96,0.55,2.88c0.14,0.64,0.27,1.28,0.39,1.92c0.05,0.29,0.1,0.57,0.14,0.86
				c-0.03-0.22,0-0.01,0.01,0.09c0.01,0.12,0.02,0.24,0.03,0.35c0,0.06-0.03,0.19,0,0.24c0.01,0.03,0.02-0.25,0.03-0.25
				c-0.06,0.01-0.28,0.32-0.34,0.38c-0.17,0.15-0.36,0.27-0.56,0.39c-0.71,0.42-1.52,0.61-2.33,0.61c-1.54-0.01-2.72-0.9-3.97-1.68
				c-0.58-0.36-1.16-0.72-1.75-1.08c-0.81-0.49-1.32-1.34-2.03-1.96c-1.21-1.06-3,0.71-1.78,1.78c0.86,0.75,1.47,1.69,2.46,2.3
				c0.49,0.31,1,0.61,1.49,0.92c1.6,0.99,3.07,2.02,5,2.2c2.16,0.21,4.68-0.65,5.93-2.51c0.74-1.1,0.24-2.66,0.01-3.85
				c-0.16-0.81-0.34-1.61-0.51-2.42c-0.06-0.3-0.13-0.59-0.19-0.89c-0.02-0.11-0.03-0.23-0.06-0.34c-0.05-0.17,0.02,0.35,0.02,0.06
				C168.75,199.21,166.23,199.21,166.24,200.83L166.24,200.83z"/>
		</g>
	</g>
	<path class="st4" d="M166.5,200.58L166.5,200.58c3.56-0.57,6.01-3.94,5.44-7.5l-1.27-8.01c-0.57-3.56-3.94-6.01-7.5-5.44l0,0
		c-3.56,0.57-6.01,3.94-5.44,7.5l1.27,8.01C159.57,198.7,162.94,201.15,166.5,200.58z"/>
	<path class="st8" d="M161.66,188.37c1.72-3.23,6.55-0.71,8.64-2.02c2.27-1.42,0.95-3.78-1.11-5.49c-1.1-0.92-2.42-1.62-4.85-2.04
		c-6.81-1.17-12.65,2.74-11.51,9.96c0,0,1.32,9.94,7.33,10.28l0.09-1.51c0,0-3.99-3-0.9-5.79c0.72-0.65,0.76-0.68,0.45-1.85
		C159.51,188.72,161.08,189.45,161.66,188.37z"/>
	<path class="st18" d="M170.26,194.04l-3.09,2.09c-0.13,0.09-0.19,0.25-0.14,0.39c0.18,0.52,0.78,1.58,2.49,0.57
		c1.2-0.71,1.32-2.03,1.28-2.79C170.79,194.03,170.48,193.89,170.26,194.04z"/>
	<path class="st13" d="M164.93,193.15c0.08,0.42,0.32,0.73,0.53,0.69c0.21-0.04,0.31-0.41,0.23-0.84c-0.08-0.42-0.32-0.73-0.53-0.69
		C164.95,192.35,164.85,192.73,164.93,193.15z"/>
	<path class="st13" d="M169.5,190.2c0.08,0.42,0.32,0.73,0.53,0.69c0.21-0.04,0.31-0.41,0.23-0.84c-0.08-0.42-0.32-0.73-0.53-0.69
		C169.53,189.4,169.42,189.78,169.5,190.2z"/>
	<g>
		<path class="st44" d="M165.38,190.67c-0.74,0.16-1.61,0.79-2.02,1.42c-0.29,0.45-0.98-0.02-0.69-0.47
			c0.53-0.82,1.6-1.57,2.55-1.77C165.75,189.73,165.91,190.55,165.38,190.67L165.38,190.67z"/>
	</g>
	<g>
		<path class="st44" d="M170.48,187.51c-0.75,0.1-1.68,0.64-2.13,1.24c-0.32,0.43-1.02-0.04-0.69-0.47c0.59-0.77,1.7-1.46,2.67-1.59
			C170.85,186.62,171.01,187.44,170.48,187.51L170.48,187.51z"/>
	</g>
	<g>
		<g>
			<path class="st39" d="M149.98,245.59c-0.19,9.19,1.7,18.35,0.54,27.53c0.09-0.67,0.18-1.34,0.27-2.01
				c-0.15,1.09-0.33,2.18-0.55,3.26c-0.41,2-0.3,4.01,0.76,5.82c0.92,1.57,2.71,3.06,4.51,3.47c3.76,0.86,8.45-1.13,9.29-5.27
				c1.15-5.66,1.4-11.35,1.04-17.1c-0.32-5.23-0.87-10.44-0.76-15.7c0.08-3.95-3.53-7.73-7.55-7.55
				C153.37,238.23,150.07,241.36,149.98,245.59L149.98,245.59z"/>
		</g>
	</g>
	<path class="st8" d="M172.93,191.73c0,0-0.73-3.28-9.45-6.06c-8.72-2.78-0.4-0.13-0.4-0.13l7.48-3.28
		C170.57,182.26,174.34,185.17,172.93,191.73z"/>
	<g>
		<g>
			<path class="st41" d="M151.52,202.19c-3.94,1.95-5.92,6.5-7.06,10.48c-1.52,5.32-2.16,10.91-2.91,16.38
				c-0.25,1.8-0.31,3.34,0.65,4.98c0.78,1.34,2.32,2.62,3.86,2.97c1.65,0.38,3.51,0.3,4.98-0.65c1.31-0.84,2.75-2.25,2.97-3.86
				c0.72-5.23,1.36-10.54,2.71-15.65c0.22-0.84,0.47-1.67,0.76-2.49c0.07-0.2,0.15-0.39,0.22-0.59c0.24-0.68-0.76,1.69-0.38,0.9
				c0.16-0.34,0.31-0.67,0.49-0.99c0.15-0.27,0.33-0.52,0.49-0.79c0.51-0.84-1.08,1.26-0.63,0.81c0.09-0.09,0.16-0.19,0.25-0.28
				c0.62-0.59,1.2-0.63-0.57,0.36c0.23-0.13,0.45-0.29,0.69-0.41c3.04-1.5,4.12-6.05,2.32-8.84
				C158.36,201.4,154.77,200.58,151.52,202.19L151.52,202.19z"/>
		</g>
	</g>
	<path class="st8" d="M161.92,187.95c0,0-4.74,9.53-3.12,14.85c1.34,4.4,6.77,6.31,8.95,12.93c0.45,1.38-1.23,2.48-2.32,1.52
		c-1.37-1.2-3.11-2.47-5.07-3.32c-4.79-2.08-6.16-5.01-6.2-7.34c-0.04-2.33-1.46-19.15-1.46-19.15l9.54-2.85L161.92,187.95z"/>
	<path class="st4" d="M156.48,215.86L156.48,215.86c1.76,0.37,3.51-0.77,3.89-2.53l0.7-3.31c0.37-1.76-0.77-3.51-2.53-3.89h0
		c-1.76-0.37-3.51,0.77-3.89,2.53l-0.7,3.31C153.58,213.74,154.72,215.49,156.48,215.86z"/>
	<path class="st4" d="M158.1,196.54c1.01,0.56,1.97,0.11,2.12-0.99c0.16-1.11-0.53-2.45-1.55-3.01c-1.01-0.56-1.97-0.11-2.12,0.99
		C156.39,194.64,157.08,195.99,158.1,196.54z"/>
	<line class="st45" x1="193.43" y1="183.47" x2="197.91" y2="185.5"/>
	<line class="st45" x1="196.98" y1="179.71" x2="199.23" y2="184.44"/>
	<line class="st45" x1="201.13" y1="179.51" x2="200.93" y2="184.06"/>
	<g>
		<g>
			<path class="st4" d="M144.68,235.29c1.93,2.34,5.48,2.48,7.96,1.02c2.01-1.19,3.49-3.2,4.66-5.17
				c2.88-4.85,4.46-10.46,5.06-16.03c0.13-1.16-0.63-2.64-1.42-3.43c-0.84-0.84-2.22-1.47-3.43-1.42c-1.25,0.06-2.55,0.47-3.43,1.42
				c-0.92,1-1.27,2.08-1.42,3.43c-0.03,0.26-0.06,0.53-0.09,0.79c0.06-0.43,0.12-0.86,0.17-1.29c-0.25,1.87-0.66,3.71-1.2,5.51
				c-0.28,0.92-0.59,1.83-0.93,2.72c-0.08,0.2-0.15,0.39-0.23,0.59c-0.33,0.81,0-0.25,0.15-0.35c-0.23,0.16-0.42,0.94-0.55,1.2
				c-0.34,0.7-0.7,1.39-1.11,2.06c-0.17,0.29-0.35,0.57-0.54,0.85c-0.11,0.16-0.22,0.31-0.32,0.46c-0.41,0.58,0.73-0.89,0.38-0.49
				c-0.19,0.23-0.38,0.46-0.59,0.67c-0.11,0.11-0.49,0.35-0.53,0.49c0.02-0.06,1.17-0.77,0.62-0.49c-0.08,0.04-0.18,0.1-0.25,0.15
				c-0.44,0.34,1.26-0.49,0.77-0.31c-0.09,0.03-0.19,0.05-0.28,0.07c0.43-0.06,0.86-0.12,1.29-0.17c-0.12,0.02-0.24,0.02-0.36,0.01
				c0.43,0.06,0.86,0.12,1.29,0.17c-0.07-0.01-0.15-0.02-0.22-0.04c-0.37-0.14,1.36,0.65,0.87,0.36c-0.46-0.27,0.91,0.68,0.75,0.58
				c-0.08-0.04-0.16-0.17-0.22-0.23c-0.75-0.9-2.3-1.42-3.43-1.42c-1.19,0-2.61,0.53-3.43,1.42c-0.85,0.92-1.48,2.14-1.42,3.43
				C143.32,233.22,143.82,234.25,144.68,235.29L144.68,235.29z"/>
		</g>
	</g>
	<ellipse class="st0" cx="473.52" cy="301.91" rx="20.67" ry="11.94"/>
	<path class="st18" d="M465.16,300.33c0.17-0.07,1.82-1.4,1.98-1.47c0.24-0.1,2.6-1.27,2.97-1.48c0.79-0.43,2.7-0.72,1.73-3.25
		c-1.43-3.7-11.28,2.15-11.28,2.15l-3.3,2.55c-0.4,0.31-0.55,0.78-0.39,1.27l0,0c0.29,0.9,1.49,1.56,2.59,1.43
		C461.35,301.32,462.34,301.56,465.16,300.33z"/>
	<path class="st5" d="M464.89,299.15c0.17-0.07,1.82-1.4,1.98-1.47c0.24-0.1,3.1-1.24,3.47-1.45c0.79-0.43,2.64-0.96,1.67-3.49
		c-1.43-3.7-11.72,2.37-11.72,2.37l-3.3,2.55c-0.4,0.31-0.55,0.78-0.39,1.27l0,0c0.29,0.9,1.49,1.56,2.59,1.43
		C461.08,300.14,462.07,300.37,464.89,299.15z"/>
	<path class="st18" d="M485.39,307.06c0.14-0.12,1.37-1.84,1.5-1.95c0.2-0.17,2.15-1.93,2.46-2.23c0.64-0.63,2.41-1.42,0.78-3.59
		c-2.38-3.18-10.27,5.13-10.27,5.13l-2.48,3.35c-0.3,0.41-0.31,0.9-0.03,1.33l0,0c0.52,0.79,1.86,1.1,2.88,0.67
		C482,309.04,483.01,309,485.39,307.06z"/>
	<path class="st5" d="M484.81,305.99c0.14-0.12,1.37-1.84,1.5-1.95c0.2-0.17,2.64-2.04,2.95-2.34c0.64-0.63,2.28-1.64,0.66-3.81
		c-2.38-3.18-10.63,5.46-10.63,5.46l-2.48,3.35c-0.3,0.41-0.31,0.9-0.03,1.33l0,0c0.52,0.79,1.86,1.1,2.88,0.67
		C481.42,307.97,482.43,307.93,484.81,305.99z"/>
	<g>
		<path class="st8" d="M490.23,240.11c0.79,1.86,0.93,3.95,0.38,5.89c-2.53,8.94-2.98,16.6-2.15,26.15
			c0.7,8.14,2.6,16.46,2.54,24.64c-0.04,4.84-7.56,4.85-7.52,0c0.03-3.32-0.52-6.66-0.92-9.95c-0.63-5.14-1.25-10.27-1.68-15.43
			c-0.91-10.99-1.37-22.77,2.06-33.4c1.48-4.59,8.75-2.62,7.25,2L490.23,240.11z"/>
	</g>
	<g>
		<path class="st8" d="M473.76,238.32c-1.66,6.06-2.43,12.29-3.04,18.53c-0.36,3.66-0.85,7.22-0.48,10.89
			c0.74,7.38,2.08,14.87,2.04,22.31c-0.02,4.84-7.54,4.85-7.52,0c0.04-7.57-1.34-15.19-2.08-22.72c-0.39-3.95,0.26-7.91,0.66-11.84
			c0.66-6.44,1.46-12.91,3.17-19.17C467.78,231.65,475.04,233.63,473.76,238.32L473.76,238.32z"/>
	</g>
	<path class="st8" d="M472.01,248.26L472.01,248.26c0.69,0.78-2.29-3.01-1.4-2.47c1.86,1.12,12.3,8.22,14.47,8.25
		c2.62,0.04,1.09-2.49,3.05-4.25c1.85-1.66,2.29-4.36,2.47-6.85c0.05-0.69,0.08-1.4-0.19-2.03c-0.3-0.68-0.91-1.17-1.5-1.61
		c-4.64-3.51-13.76-12.2-20.24-9.42C461.18,233.09,468.68,244.53,472.01,248.26z"/>
	<path class="st5" d="M466.56,192.7c-1.37,1.77-1.21,2.86-1.14,5.28c0.06,2.36,1.67,4.41,3.94,5.05l23.25,6.52
		c0,0,1.34-8.94-3.25-11.64c-2.47-1.45-6.3-3.77-9.31-5.6C475.63,189.62,469.74,188.61,466.56,192.7z"/>
	<path class="st5" d="M465.34,234.72c0.69,0.89,1.57-24.19,0.2-40.05l26.17,12.45c-0.13,11.96,0.15,26.78-0.71,36.45
		C487.6,250.08,476.07,241.66,465.34,234.72z"/>
	<path class="st4" d="M476.14,194.48l-2.66-9.82l6.75,1.87l2.16,8.02C482.86,195.86,478.09,199.49,476.14,194.48z"/>
	<path class="st42" d="M475.51,192.53c0,0,2.77-1.42,2.78-1.44c0,0-0.95,2.01-2.32,2.8L475.51,192.53z"/>
	<path class="st4" d="M474.78,192.55L474.78,192.55c-3.48,0.12-6.42-2.63-6.53-6.11l-0.26-7.83c-0.12-3.48,2.63-6.42,6.11-6.53l0,0
		c3.48-0.12,6.42,2.63,6.53,6.11l0.26,7.83C481,189.5,478.25,192.44,474.78,192.55z"/>
	<path class="st10" d="M475.56,179.3c-2.01,0.94-4.49,1.47-6.72,0.61c-2.41-0.93-4.12-4.32-2.22-6.08c1.02-0.95,3.64-1.81,5.82-2.7
		c6.18-2.51,12.88,0.66,13.12,7.72c0,0,0.46,7.83-3.55,10.44c-0.71,0.46-1.67,0.07-1.88-0.75l0,0c0,0,2.03-2.88-1.42-4.97
		c-0.79-0.48-0.98-1.59-0.91-2.75C477.87,179.64,476.64,178.79,475.56,179.3z"/>
	<path class="st4" d="M482,187.18c-0.86,0.71-1.84,0.47-2.2-0.55s0.06-2.42,0.92-3.14c0.86-0.71,1.84-0.47,2.2,0.55
		C483.27,185.06,482.86,186.47,482,187.18z"/>
	<g>
		<path class="st18" d="M470.74,187.26l3.38,1.04c0.14,0.04,0.24,0.17,0.23,0.32c-0.02,0.52-0.27,1.65-2.1,1.2
			c-1.29-0.31-1.76-1.48-1.93-2.18C470.27,187.4,470.5,187.18,470.74,187.26z"/>
		<path class="st2" d="M474.88,184.14c0.29-0.04,0.54,0.32,0.59,0.82c0.02,0.22,0,0.43-0.06,0.59c-0.07,0.2-0.2,0.32-0.35,0.33
			c-0.01,0-0.02,0-0.03,0c-0.27,0-0.51-0.34-0.56-0.82C474.42,184.57,474.6,184.17,474.88,184.14z"/>
		<path class="st2" d="M469.91,182.73c0.15-0.02,0.3,0.07,0.41,0.25c0.09,0.15,0.16,0.35,0.18,0.57c0.05,0.5-0.12,0.89-0.41,0.92
			c-0.01,0-0.02,0-0.03,0c-0.27,0-0.51-0.34-0.56-0.82C469.45,183.16,469.63,182.76,469.91,182.73z"/>
		<path class="st2" d="M474.24,182.85c0.71-0.06,1.68,0.27,2.23,0.73c0.39,0.33,0.89-0.29,0.5-0.62c-0.7-0.6-1.89-0.98-2.81-0.9
			C473.65,182.1,473.73,182.89,474.24,182.85L474.24,182.85z"/>
		<path class="st2" d="M468.74,181.4c0.7-0.11,1.7,0.12,2.28,0.54c0.41,0.3,0.91-0.32,0.5-0.62c-0.75-0.54-1.95-0.86-2.86-0.71
			C468.16,180.69,468.24,181.48,468.74,181.4L468.74,181.4z"/>
	</g>
	<path class="st10" d="M470.03,174.93c0,1.63-1.32,2.96-2.96,2.96s-2.96-1.32-2.96-2.96c0-1.63,1.32-2.96,2.96-2.96
		S470.03,173.3,470.03,174.93z"/>
	<path class="st10" d="M472.72,176.93c0,1.63-1.32,2.96-2.96,2.96c-1.63,0-2.96-1.32-2.96-2.96c0-1.63,1.32-2.96,2.96-2.96
		C471.4,173.98,472.72,175.3,472.72,176.93z"/>
	<path class="st10" d="M473.74,172.89c0,1.63-1.32,2.96-2.96,2.96c-1.63,0-2.96-1.32-2.96-2.96c0-1.63,1.32-2.96,2.96-2.96
		C472.42,169.93,473.74,171.26,473.74,172.89z"/>
	<path class="st46" d="M461.99,294.18c0,0,2.49-0.98,3.98,2.39"/>
	<path class="st46" d="M460,295.66c0,0,2.49-0.98,3.98,2.39"/>
	<path class="st46" d="M481.62,301.18c0,0,2.49-0.98,3.98,2.39"/>
	<path class="st46" d="M479.63,302.65c0,0,2.49-0.98,3.98,2.39"/>
	<g>
		<g>
			<path class="st4" d="M485.57,204.8c1.56,3.74,3.63,6.85,6.23,9.96c0.46,0.55,0.93,1.09,1.39,1.65c0.22,0.27,0.44,0.54,0.67,0.81
				c0.1,0.12,0.41,0.55-0.02-0.03c-0.49-0.66,0.04,0.06,0.15,0.21c0.4,0.55,0.78,1.13,1.12,1.72c0.15,0.26,0.28,0.52,0.41,0.78
				c0.06,0.11,0.15,0.43,0.25,0.54c-0.15-0.17-0.35-0.98-0.16-0.33c0.07,0.23,0.72,2.09,0.56,2.17c-0.02,0.01-0.12-1.31-0.04-0.29
				c0.01,0.18,0.03,0.36,0.04,0.54c0.03,0.51,0.03,1.03,0.02,1.54c-0.02,0.94-0.11,1.88-0.19,2.82c-0.05,0.58,0.03-0.37,0.05-0.39
				c-0.06,0.07-0.09,0.57-0.12,0.71c-0.08,0.45-0.18,0.9-0.29,1.35c-0.18,0.73-0.43,1.44-0.66,2.15c-0.29,0.86,0.42-0.86,0.03-0.05
				c-0.17,0.36-0.34,0.71-0.52,1.06c-0.32,0.6-0.67,1.18-1.05,1.74c-0.19,0.28-0.4,0.54-0.58,0.82c-0.28,0.44,0.35-0.44,0.33-0.43
				c-0.17,0.15-0.31,0.39-0.46,0.56c-2.22,2.68-4.83,5.01-7.22,7.52c-1.78,1.87-2,5.15,0,6.99c1.93,1.77,5.08,2,6.99,0
				c4.79-5.03,10.03-9.52,12.26-16.34c1.33-4.04,1.63-8.59,0.95-12.77c-0.61-3.77-2.7-6.91-5.06-9.81
				c-0.51-0.63-1.04-1.25-1.57-1.87c-0.31-0.36-0.61-0.72-0.91-1.09c-0.17-0.21-0.89-1.23-0.52-0.64c0.38,0.61,0-0.01-0.11-0.16
				c-0.17-0.23-0.33-0.46-0.49-0.69c-0.26-0.38-0.52-0.78-0.76-1.17c-0.25-0.41-0.49-0.84-0.72-1.27c-0.14-0.27-0.93-2.01-0.48-0.93
				c-0.52-1.24-1.06-2.24-2.27-2.95c-1.06-0.62-2.62-0.88-3.81-0.5C486.74,199.47,484.51,202.25,485.57,204.8L485.57,204.8z"/>
		</g>
	</g>
	<path class="st4" d="M485.23,250L485.23,250c-1.29-0.98-1.53-2.84-0.55-4.12l3.4-4.45c0.98-1.29,2.84-1.53,4.12-0.55l0,0
		c1.29,0.98,1.53,2.84,0.55,4.12l-3.4,4.45C488.37,250.73,486.51,250.98,485.23,250z"/>
	<path class="st5" d="M483.98,203.51l6.68,11.92c2.69,2.95,9.5-2.89,7.52-5.5l-7.41-10.89c-1.27-1.66-3.6-2.09-5.38-0.99v0
		C483.53,199.2,482.91,201.61,483.98,203.51z"/>
	<path class="st4" d="M452.55,225.86L452.55,225.86c-1.34,0.32-2.69-0.52-3-1.85l-0.8-3.35c-0.32-1.34,0.52-2.69,1.85-3l0,0
		c1.34-0.32,2.69,0.52,3,1.85l0.8,3.35C454.72,224.19,453.88,225.55,452.55,225.86z"/>
	<path class="st24" d="M495.02,367.57l-18.52-10.69c-3.87-2.23-7.03-8.28-7.03-13.44v-13.29c0-5.16,3.16-7.55,7.03-5.32l18.52,10.69
		c3.87,2.23,7.03,8.28,7.03,13.44v13.29C502.05,367.41,498.88,369.8,495.02,367.57z"/>
	<path class="st47" d="M144.8,164.26l18.52-10.69c3.87-2.23,7.03-8.28,7.03-13.44v-13.29c0-5.16-3.16-7.55-7.03-5.32l-18.52,10.69
		c-3.87,2.23-7.03,8.28-7.03,13.44v13.29C137.77,164.1,140.93,166.49,144.8,164.26z"/>
	<path class="st3" d="M145.71,164.25l0-16.95c0-0.91,0.56-1.98,1.25-2.38l19.29-11.14c0.23-0.13,0.44-0.17,0.63-0.13l0.02-0.02
		l2.36,1.32l-1.77,6.04v10.68c0,0.91-0.56,1.98-1.25,2.38l-3.1,1.79l-5.03,11.6l-7.34-3.97l-0.92,0.06l-1.24,3.14l-2.29-1.33l0-0.01
		C145.96,165.24,145.71,164.85,145.71,164.25z"/>
	<path class="st48" d="M164.75,157.62l-4.36,9.01c-0.5,1.04-1.87,1.3-2.72,0.52l-4.18-3.85L164.75,157.62z"/>
	<path class="st18" d="M193.09,177.53"/>
	<path class="st48" d="M148.49,167.33L167,156.64c3.87-2.23,7.03-8.28,7.03-13.44v-13.29c0-5.16-3.16-7.55-7.03-5.32l-18.52,10.69
		c-3.87,2.23-7.03,8.28-7.03,13.44v13.29C141.45,167.17,144.62,169.56,148.49,167.33z"/>
	<path class="st18" d="M158.54,161.95"/>
	<path class="st49" d="M519.67,182.88l-18.52-10.69c-3.87-2.23-7.03-8.28-7.03-13.44v-13.29c0-5.16,3.16-7.55,7.03-5.32l18.52,10.69
		c3.87,2.23,7.03,8.28,7.03,13.44v13.29C526.7,182.72,523.53,185.11,519.67,182.88z"/>
	<path class="st49" d="M518.75,182.87l0-16.95c0-0.91-0.56-1.98-1.25-2.38l-19.29-11.14c-0.23-0.13-0.44-0.17-0.63-0.13l-0.02-0.02
		l-2.36,1.32l1.77,6.04v10.68c0,0.91,0.56,1.98,1.25,2.38l3.1,1.79l5.03,11.6l7.34-3.97l0.92,0.06l1.24,3.14l2.29-1.33l0-0.01
		C518.51,183.86,518.75,183.47,518.75,182.87z"/>
	<path class="st29" d="M499.71,176.24l4.36,9.01c0.5,1.04,1.87,1.3,2.72,0.52l4.18-3.85L499.71,176.24z"/>
	<path class="st29" d="M515.98,185.95l-18.52-10.69c-3.87-2.23-7.03-8.28-7.03-13.44v-13.29c0-5.16,3.16-7.55,7.03-5.32l18.52,10.69
		c3.87,2.23,7.03,8.28,7.03,13.44v13.29C523.01,185.79,519.85,188.18,515.98,185.95z"/>
	<path class="st18" d="M482.53,352.11c1.15,2.22,4.06,2.79,5.96,1.17l4.11-3.49c0.76-0.44,1.22-1.32,1.21-2.57
		c-0.02-2.58-2.06-5.71-4.54-7c-2.27-1.18-4.13-0.41-4.41,1.7c-0.33-2.43-2.22-5.15-4.49-6.33c-2.48-1.29-4.47-0.25-4.45,2.33
		c0.01,0.9,0.26,1.86,0.69,2.79c0,0-0.01,0-0.01,0l0.11,0.21c0.06,0.11,0.11,0.22,0.17,0.34L482.53,352.11z"/>
	<g>
		<path class="st18" d="M496.08,159.52c0.11,6.21,4.61,13.68,10.04,16.69c5.43,3.01,9.75,0.41,9.64-5.8
			c-0.11-6.21-4.55-13.6-9.99-16.73C499.8,150.25,495.97,153.31,496.08,159.52z"/>
		<path class="st50" d="M508.9,163.66c0.02,1.3,0.62,2.68,1.33,3.07c0.71,0.39,1.27-0.34,1.25-1.65c-0.02-1.3-0.62-2.68-1.33-3.07
			S508.88,162.35,508.9,163.66z"/>
		<path class="st50" d="M500.33,158.78c0.02,1.3,0.62,2.68,1.33,3.07c0.71,0.39,1.27-0.34,1.25-1.65c-0.02-1.3-0.62-2.68-1.33-3.07
			C500.87,156.74,500.31,157.48,500.33,158.78z"/>
		<path class="st50" d="M511.42,168.68l-11.38-6.17c-0.27-0.15-0.47,0.03-0.4,0.37c0.36,1.83,1.77,7.08,6.5,9.42
			c4.72,2.33,5.57-1.38,5.73-2.83C511.89,169.2,511.68,168.82,511.42,168.68z"/>
		<path class="st24" d="M509.76,172.88c0,0-1.87-3.09-4-4.21c-2.11-1.11-3.72,0.04-3.72,0.04
			C502.05,168.84,506.02,174.34,509.76,172.88z"/>
	</g>
	<g>
		<path class="st0" d="M611.71,302.31c-10.18-6.87-27.39-8.08-38.43-2.69s-11.74,15.32-1.55,22.19c10.18,6.87,27.2,8.07,38.43,2.82
			C622.5,318.85,621.89,309.18,611.71,302.31z"/>
		<g>
			<path class="st47" d="M602.45,302.34c-10.18-6.87-27.39-8.08-38.43-2.69s-11.74,15.32-1.55,22.19
				c10.18,6.87,27.2,8.07,38.43,2.82C613.25,318.88,612.63,309.21,602.45,302.34z"/>
			<path class="st48" d="M602.43,295.78c-10.18-6.87-27.39-8.08-38.43-2.69c-11.04,5.38-11.74,15.32-1.55,22.19
				c10.18,6.87,27.2,8.07,38.43,2.82C613.23,312.32,612.61,302.65,602.43,295.78z"/>
			<path class="st50" d="M572.37,302.55c-2.14-1.44-5.05-2.04-6.49-1.34c-1.45,0.71-0.89,2.45,1.25,3.89
				c2.14,1.44,5.05,2.04,6.49,1.34C575.07,305.73,574.51,303.99,572.37,302.55z"/>
			<path class="st50" d="M590,294.2c-2.14-1.44-5.05-2.04-6.49-1.34c-1.45,0.71-0.89,2.45,1.25,3.89c2.14,1.44,5.05,2.04,6.49,1.34
				C592.7,297.39,592.14,295.64,590,294.2z"/>
			<path class="st50" d="M596.99,300.95l-23.48,10.21c-0.57,0.25-0.52,0.77,0.09,1.08c3.29,1.68,13.18,5.88,22.59,1.36
				c9.39-4.51,4.65-10.36,2.58-12.37C598.37,300.85,597.54,300.72,596.99,300.95z"/>
			<path class="st24" d="M601.52,308.66c0,0-7.1-0.85-11.43,1.09c-4.3,1.93-4.47,5.84-4.47,5.84
				C585.82,315.75,599.22,316.26,601.52,308.66z"/>
		</g>
	</g>
	<path class="st18" d="M159.89,135.97l1.35,2.37c0.22,0.38,0.65,0.49,1.14,0.29l3.03-1.24c1.24-0.51,1.73,0.95,0.84,2.47l-2.19,3.71
		c-0.36,0.6-0.52,1.27-0.43,1.78l0.52,3.16c0.21,1.29-1.08,3.12-2.19,3.09l-2.71-0.07c-0.44-0.01-0.97,0.29-1.41,0.81l-2.71,3.2
		c-1.11,1.31-2.4,0.98-2.19-0.56l0.52-3.76c0.08-0.61-0.08-1.09-0.43-1.28l-2.19-1.19c-0.9-0.48-0.4-2.52,0.84-3.44l3.03-2.25
		c0.49-0.37,0.92-0.97,1.14-1.6l1.35-3.93C157.74,135.92,159.34,135,159.89,135.97z"/>
	<path class="st0" d="M96.05,451.13c-12.23-7.33-32.25-7.67-44.71-0.74s-12.66,18.48-0.43,25.81c12.23,7.33,32.03,7.67,44.72,0.89
		C109.59,469.64,108.27,458.47,96.05,451.13z"/>
	<path class="st3" d="M78.43,452.69c-11.61-6.96-30.62-7.28-42.46-0.71c-11.84,6.58-12.02,17.55-0.41,24.52
		c11.61,6.96,30.42,7.29,42.47,0.84C91.28,470.27,90.04,459.66,78.43,452.69z"/>
	<path class="st24" d="M78.02,445.47c-11.61-6.96-30.62-7.28-42.46-0.7c-11.84,6.58-12.02,17.55-0.41,24.52s30.42,7.29,42.47,0.84
		C90.88,463.04,89.63,452.43,78.02,445.47z"/>
	<g>
		<g>
			<path class="st51" d="M606.45,453.09c0,0,2.35-1.09,1.95-3.17c-0.18-0.93-6.73-11.48-7.9-11.97c-1.17-0.5-3.49,1.01-3.49,1.01
				L606.45,453.09z"/>
			<path class="st27" d="M592.34,438.43c0,0,1.44,0.36,1.76,0.32c0.32-0.04,3.36-1.02,4.71-0.45c1.35,0.57,9.09,11.4,8.72,12.45
				l-0.01,0.19c0,0-0.41,4.23-4.72,1.92l-12.48-9.7L592.34,438.43z"/>
			<path class="st52" d="M597.02,446.91c-0.16-0.07-0.07-2.61,1.77-2.7"/>
			<path class="st52" d="M599.65,449.05c-0.16-0.07-0.07-2.61,1.77-2.7"/>
		</g>
		<path class="st51" d="M575.41,450.22c0,0-1.74-1.93-0.55-3.68c0.53-0.78,10.69-7.92,11.96-7.92s2.81,2.3,2.81,2.3L575.41,450.22z"
			/>
		<path class="st27" d="M594.14,442.26c0,0-1.46-0.24-1.74-0.4c-0.28-0.16-2.69-2.26-4.16-2.26c-1.46,0-12.83,6.93-12.91,8.04
			l-0.07,0.18c0,0-1.28,4.05,3.59,3.62l15.28-4.04V442.26z"/>
		<path class="st8" d="M600.66,421.41c0,0-13.24-7.64-17.93-7.11c-4.69,0.52-5.76,2.54-6.18,3.85s19.36,18.23,29.57,18.11l3.86,1.13
			c0,0,23.63,1.6,21.79-1.84c-1.84-3.44-7.07-7.36-10.33-9.14C618.17,424.62,600.66,421.41,600.66,421.41z"/>
		<ellipse class="st0" cx="604.15" cy="440" rx="26.68" ry="15.41"/>
		<path class="st51" d="M577.27,418.21c0,0,5.23-4.87,14.61,10.09c9.38,14.96,10.33,16.75,10.33,16.75l-9.62-1.9
			C592.59,443.15,572.52,421.77,577.27,418.21z"/>
		<path class="st52" d="M586.51,448.23c0.18,0,1.08-2.38-0.57-3.18"/>
		<path class="st52" d="M583.25,449.17c0.18,0,1.08-2.38-0.57-3.18"/>
		<g>
			<g>
				<path class="st4" d="M591.78,393.83c0.11,3.2,0.61,6.33,0.91,9.51c0.11,1.19,0.08,2.35-0.02,3.54
					c-0.05,0.59,0.22-1.32,0.09-0.73c-0.04,0.18-0.06,0.36-0.1,0.54c-0.06,0.31-0.13,0.61-0.2,0.92c-0.22,0.89-0.49,1.77-0.79,2.64
					c-0.14,0.41-0.29,0.82-0.44,1.23c-0.05,0.14-0.53,1.18-0.1,0.31c0.36-0.73,0.07-0.16-0.02,0.02c-0.16,0.33-0.32,0.66-0.51,0.97
					c-0.08,0.13-0.16,0.25-0.24,0.37c-0.44,0.73,0.85-0.94,0.31-0.4c-0.18,0.18-0.96,0.85-0.11,0.19c0.84-0.65,0.09-0.15-0.12,0
					c0.91-0.64,1.29-0.5,0.83-0.37c-0.23,0.07-0.78,0.13,0.29-0.02c0.96-0.13,0.6-0.08,0.35-0.07c-0.8,0.04,1.31,0.3,0.83,0.12
					c-0.72-0.26-0.41-0.34,0.5,0.27c-0.18-0.12-0.39-0.23-0.58-0.33c-0.7-0.38,1.08,0.99,0.33,0.26c-0.21-0.2-0.42-0.4-0.61-0.61
					c-0.17-0.18-0.31-0.38-0.48-0.56c1.21,1.33,0.39,0.5,0.12,0.09c-0.34-0.52-0.65-1.05-0.93-1.6c-0.18-0.35-0.33-0.71-0.5-1.06
					c-0.27-0.56,0.53,1.33,0.22,0.52c-0.06-0.17-0.13-0.33-0.19-0.5c-0.26-0.7-0.48-1.41-0.66-2.13c-0.08-0.33-0.16-0.66-0.22-1
					c-0.02-0.13-0.04-0.26-0.07-0.39c-0.15-0.84,0.14,1.38,0.08,0.59c-0.05-0.65-0.08-1.29-0.02-1.94c0.23-2.66-2.51-5.21-5.09-5.09
					c-2.96,0.13-4.85,2.24-5.09,5.09c-0.3,3.52,0.93,7.15,2.38,10.3c1.31,2.84,3.42,5.85,6.31,7.23c2.4,1.15,4.96,1.25,7.36,0.01
					c1.81-0.93,3.24-2.66,4.15-4.44c1.85-3.63,3.19-7.98,3.22-12.08c0.01-1.52-0.21-3.02-0.41-4.52c-0.3-2.28-0.51-4.57-0.59-6.87
					c-0.09-2.66-2.28-5.22-5.09-5.09C594.18,388.86,591.68,390.98,591.78,393.83L591.78,393.83z"/>
			</g>
		</g>
		<path class="st48" d="M600.66,385.67c0,0-5.07-0.87-6.41,5.86c-0.85,4.27-1.04,6.75-1.06,8c-0.01,0.62,0.33,1.19,0.87,1.48
			l5.89,3.19L600.66,385.67z"/>
		<path class="st48" d="M597.65,389.23c-1.24,1.95-0.97,3.06-0.67,5.53c0.29,2.42,2.13,4.37,4.53,4.8l24.49,4.47
			c0,0,0.52-9.31-4.45-11.64c-2.68-1.25-6.83-3.27-10.1-4.86C606.66,385.2,600.52,384.72,597.65,389.23z"/>
		<path class="st48" d="M597.23,396.21c0,0.32-0.63,6.73,0,10.93c0.63,4.2,0.79,9.18,0.79,9.66s-1.5,2.14-1.74,3.33
			c0,0,3.8,8.16,6.57,8.87s9.78-1.86,15.56-2.97s4.39-19.44,4.39-19.44l-6.81-12.75L597.23,396.21z"/>
		<path class="st47" d="M602.85,428.98c2.77,0.71,9.78-1.86,15.56-2.97s4.39-19.44,4.39-19.44l-3.5-6.55
			c-0.64-1.19-2.45-0.64-2.32,0.7C618.26,413.68,615.5,424.24,602.85,428.98z"/>
		<g>
			<g>
				<path class="st4" d="M614.62,399.81c1.28,3.14,2.72,6.24,3.81,9.45c0.44,1.29,0.8,2.6,1.06,3.94c0.07,0.36,0.12,0.73,0.18,1.1
					c0.1,0.54-0.08-0.53-0.07-0.54c-0.03,0.03,0.08,0.71,0.07,0.68c0.08,0.86,0.14,1.72,0.16,2.59c0.06,1.85,0.04,3.71-0.1,5.55
					c-0.03,0.34-0.18,0.85-0.12,1.18c0,0,0.21-1.1,0.07-0.59c-0.04,0.14-0.05,0.29-0.07,0.44c-0.12,0.64-0.27,1.28-0.48,1.89
					c-0.07,0.21-0.4,1.03-0.03,0.13c0.38-0.92,0-0.05-0.11,0.16c-0.1,0.18-0.2,0.35-0.31,0.52c-0.07,0.11-0.15,0.21-0.22,0.32
					c-0.32,0.54,0.42-0.55,0.44-0.57c-0.71,0.52-1.3,1.32-2,1.89c-0.08,0.07-0.17,0.13-0.25,0.2c-0.44,0.37,0.99-0.75,0.52-0.4
					c-0.25,0.18-0.48,0.37-0.73,0.55c-0.77,0.59-1.55,1.18-2.31,1.79c-1.29,1.03-2.5,2.14-3.64,3.33c-1.84,1.93-2.06,5.31,0,7.2
					c2,1.83,5.24,2.06,7.2,0c1.05-1.09,2.15-2.12,3.32-3.08c0.24-0.19,0.48-0.38,0.72-0.57c0.67-0.53-0.97,0.74-0.16,0.13
					c0.73-0.55,1.46-1.11,2.19-1.68c1.81-1.41,3.43-3.12,4.38-5.24c1.55-3.49,1.87-7.26,1.89-11.05c0.02-3.68-0.29-7.44-1.3-10.99
					c-1.08-3.79-2.83-7.39-4.31-11.04c-1-2.46-3.43-4.47-6.27-3.56C615.8,394.31,613.54,397.16,614.62,399.81L614.62,399.81z"/>
			</g>
		</g>
		<path class="st48" d="M618.79,391.08c0,0,6.25,2.45,7.84,6.81c0.89,2.43,1.7,5.84,2.24,8.36c0.41,1.92-0.75,3.83-2.64,4.35
			l-2.82,0.77c-1.92,0.52-3.9-0.56-4.5-2.46l-4-12.68C614.91,396.23,618,394.33,618.79,391.08z"/>
		<path class="st51" d="M631.34,434.83c0,0-2.14-4.04-11.4-1.66c-9.26,2.38-28.19,8.31-28.19,8.31s-0.95,5.07,0.55,6.1
			c0,0,35.09-4.2,39.03-8.95C632.86,436.81,631.34,434.83,631.34,434.83z"/>
		<g>
			<path class="st7" d="M592.39,410.21l-6-2.8c-0.38-0.15-0.75-0.68-0.83-1.18l-2.15-13.27c-0.08-0.51,0.16-0.8,0.53-0.65l6.27,2.44
				c0.38,0.15,0.75,0.68,0.83,1.18l2.14,13.21c0.05,0.33-0.03,0.41-0.2,0.58L592.39,410.21z"/>
			<path class="st7" d="M587.01,398.09c0,0-1.37,8.64-1.45,8.13l-2.36-13.67l0.35-0.22c0.1-0.08,0.23-0.09,0.39-0.03l6.27,2.44
				c0.18,0.07,0.37,0.23,0.51,0.44L587.01,398.09z"/>
			<path class="st8" d="M591.98,410.27l-6.26-2.44c-0.38-0.15-0.73-0.68-0.82-1.19l-2.15-13.27c-0.08-0.51,0.15-0.8,0.52-0.65
				l6.25,2.44c0.38,0.15,0.73,0.68,0.81,1.19l2.15,13.27C592.58,410.12,592.36,410.41,591.98,410.27z"/>
			<path class="st8" d="M590.82,397.32l0.12,0.76c0.01,0.05,0.04,0.07,0.07,0.04l-0.01,0c0.03-0.03,0.03-0.09,0.02-0.15l-0.12-0.76
				c-0.01-0.05-0.02-0.07-0.06-0.04l0,0.01C590.82,397.2,590.81,397.27,590.82,397.32z"/>
			<path class="st8" d="M591.04,398.65l0.12,0.76c0.01,0.05,0.04,0.07,0.07,0.04l-0.01,0c0.03-0.03,0.03-0.09,0.02-0.15l-0.12-0.76
				c-0.01-0.05-0.02-0.07-0.05-0.04l0,0.01C591.04,398.53,591.03,398.6,591.04,398.65z"/>
		</g>
		<path class="st4" d="M584.47,406.99L584.47,406.99c-1.38,0.33-2.77-0.53-3.1-1.91l-0.82-3.45c-0.33-1.38,0.53-2.77,1.91-3.1l0,0
			c1.38-0.33,2.77,0.53,3.1,1.91l0.82,3.45C586.71,405.27,585.85,406.67,584.47,406.99z"/>
		<path class="st18" d="M606.83,386.85c0.22,0.05,5.41,0,9.25,2.93c0,0-0.43,6.97-6.02,5.35
			C604.48,393.5,606.83,386.85,606.83,386.85z"/>
		<path class="st4" d="M607.83,390.98l-4.23-9.6l7.17,0.86l3.21,7.31C614.91,391.64,610.6,395.79,607.83,390.98z"/>
		<path class="st42" d="M606.83,388.2c0,0,2.7-1.72,2.71-1.75c0,0-0.78,2.16-2.11,3.1L606.83,388.2z"/>
		<path class="st4" d="M606.14,389.22L606.14,389.22c-3.53,0.66-6.95-1.69-7.61-5.22l-1.48-7.94c-0.66-3.53,1.69-6.95,5.22-7.61h0
			c3.53-0.66,6.95,1.69,7.61,5.22l1.48,7.94C612.02,385.14,609.67,388.57,606.14,389.22z"/>
		<path class="st19" d="M604.89,375.59c-1.9,1.27-4.35,2.19-6.75,1.66c-2.6-0.58-2.47-4.44-0.81-6.53c0.9-1.13,1.04-1.73,3.13-2.97
			c5.92-3.51,13.24-1.32,14.57,5.84c0,0,1.68,7.91-2,11.19c-0.65,0.58-1.69,0.33-2.03-0.48l0,0c0,0,1.62-3.25-2.22-4.85
			c-0.88-0.37-1.24-1.47-1.35-2.66C607.3,375.57,605.91,374.91,604.89,375.59z"/>
		<path class="st4" d="M612.68,382.63c-0.77,0.86-1.81,0.76-2.33-0.22c-0.52-0.98-0.32-2.48,0.45-3.34
			c0.77-0.86,1.81-0.76,2.33,0.22C613.64,380.27,613.44,381.77,612.68,382.63z"/>
		<g>
			<path class="st18" d="M601.21,384.45l3.61,0.54c0.15,0.02,0.27,0.14,0.29,0.29c0.06,0.54-0.02,1.72-1.96,1.55
				c-1.36-0.12-2.02-1.23-2.31-1.92C600.74,384.66,600.95,384.41,601.21,384.45z"/>
			<path class="st2" d="M604.95,380.63c0.29-0.08,0.6,0.24,0.73,0.74c0.06,0.22,0.07,0.43,0.03,0.61c-0.04,0.21-0.15,0.35-0.31,0.39
				c-0.01,0-0.02,0.01-0.03,0.01c-0.28,0.04-0.57-0.27-0.7-0.75C604.54,381.14,604.66,380.7,604.95,380.63z"/>
			<path class="st2" d="M599.66,379.96c0.15-0.04,0.32,0.03,0.46,0.19c0.12,0.14,0.22,0.33,0.27,0.55c0.13,0.5,0.01,0.93-0.27,1.01
				c-0.01,0-0.02,0.01-0.03,0.01c-0.28,0.04-0.57-0.27-0.7-0.75C599.26,380.47,599.38,380.04,599.66,379.96z"/>
			<path class="st2" d="M604.09,379.41c0.72-0.17,1.75,0.01,2.38,0.4c0.45,0.28,0.86-0.43,0.41-0.7c-0.81-0.5-2.08-0.71-3-0.48
				C603.38,378.74,603.58,379.53,604.09,379.41L604.09,379.41z"/>
			<path class="st2" d="M598.26,378.78c0.7-0.23,1.75-0.14,2.41,0.19c0.47,0.24,0.88-0.46,0.41-0.7c-0.84-0.44-2.12-0.57-3.03-0.28
				C597.56,378.15,597.76,378.95,598.26,378.78L598.26,378.78z"/>
		</g>
		<path class="st19" d="M599.25,370.3c0,0-3.07-0.72-3.47,5.79c-0.15,2.5-0.22,3.99-0.23,4.87c-0.01,0.57,0.63,0.91,1.1,0.59
			c2.13-1.47,6.67-5.1,5.5-8.5C601.07,369.94,599.25,370.3,599.25,370.3z"/>
		<path class="st19" d="M606.37,374.8c0,0,0.81,4.15,0.91,6.26c0.01,0.24,0.34,0.32,0.45,0.1c0.77-1.49,2.13-4.44,1.75-6.03
			C608.96,372.95,606.37,374.8,606.37,374.8z"/>
		<path class="st19" d="M608.05,376.83c0,0,0.81,4.15,0.91,6.26c0.01,0.24,0.34,0.32,0.45,0.1c0.77-1.49,2.13-4.44,1.75-6.03
			C610.64,374.97,608.05,376.83,608.05,376.83z"/>
	</g>
	<path class="st4" d="M70.01,301.96c-0.44,0.23-0.89,0.46-1.4,0.53c-1.16,0.16-2.42-0.54-3.58-1.22c-0.11-0.06-0.22-0.13-0.29-0.23
		c-0.16-0.22-0.13-0.51-0.07-0.74c0.42-1.42,1.09-1.39,2.07-2.21c0.44-0.37,0.83-0.81,1.27-1.18c0.68-0.59,1.47-1.03,2.25-1.46v0
		c0.94-0.53,4.39-2.34,5.1,0.25c0.3,1.12,0.2,1.85-0.34,2.58c-0.66,0.88-1.02,1.29-1.9,1.9C72.13,300.86,71.07,301.41,70.01,301.96z
		"/>
	<path class="st4" d="M65.11,299.47c0.37-0.95,0.47-1.5,1-2.31c0.41-0.63,1.01-1.13,1.71-1.41c1.36-0.54,3.63-1.32,4.38-0.79
		c0.97,0.67-0.02,1.81-0.63,2.5c-1.21,1.38-3.24,2.36-4.89,2.97c-0.28,0.11-0.51,0.04-0.67-0.11c-0.07,0.15,0.54-0.25,0.48-0.1
		C66.12,301.16,64.74,300.4,65.11,299.47z"/>
	<polygon class="st41" points="65.45,299 63.85,300.68 66.96,304.34 68.8,302.47 	"/>
	<path class="st8" d="M76.61,380.72l-7.27-5.54l-4.24-0.72c-1.4,5.52-0.77,4.85,0.84,6.27l6.33,3.94c3.33,1.59,4.39,1.79,6.33,0.94
		l0,0C79.78,384.36,78.66,382.73,76.61,380.72z"/>
	<path class="st8" d="M68.47,386l-7.27-5.54l-4.24-0.72c-1.4,5.52-0.77,4.85,0.84,6.27l6.33,3.94c3.33,1.59,4.39,1.79,6.33,0.94l0,0
		C71.63,389.63,70.52,388.01,68.47,386z"/>
	<g>
		<g>
			<path class="st18" d="M56.58,284.29c0.37-0.43,0.43-0.45,0.87-0.71c0.38-0.22,0.77-0.42,1.16-0.62c0.86-0.43,1.49-0.69,2.41-1.01
				c1.88-0.63,3.48-0.91,5.43-0.85c0.89,0.03,1.74-0.8,1.7-1.7c-0.04-0.94-0.75-1.67-1.7-1.7c-2.21-0.07-4.44,0.31-6.52,1.04
				c-1.07,0.37-2.12,0.82-3.13,1.33c-0.95,0.48-1.92,1.01-2.62,1.82c-0.6,0.69-0.68,1.72,0,2.4
				C54.79,284.91,55.98,284.99,56.58,284.29L56.58,284.29z"/>
		</g>
	</g>
	<g>
		<g>
			<path class="st5" d="M69.97,282.55c0.69,9.43,1.89,18.69,4,27.91c1.01,4.4,7.79,2.57,6.78-1.84c-1.97-8.62-3.11-17.23-3.76-26.04
				C76.66,278.1,69.64,278.04,69.97,282.55L69.97,282.55z"/>
		</g>
	</g>
	<g>
		<g>
			<path class="st38" d="M65.19,318c0.15,10.02,0.08,20.05-0.57,30.05c-0.22,3.47-0.52,6.93-0.91,10.39
				c-0.08,0.73-0.17,1.46-0.26,2.19c-0.04,0.35-0.09,0.7-0.13,1.06c-0.02,0.15-0.04,0.31-0.06,0.46c-0.15,1.19,0.09-0.67,0.12-0.89
				c-0.21,1.37-0.39,2.75-0.6,4.13c-0.44,2.85-0.93,5.69-1.41,8.53c-0.31,1.85-0.3,3.56,0.68,5.24c0.82,1.41,2.44,2.75,4.06,3.12
				c3.29,0.75,7.72-1,8.36-4.75c0.99-5.86,1.95-11.71,2.65-17.61c0.92-7.69,1.38-15.43,1.58-23.17c0.16-6.24,0.16-12.49,0.07-18.74
				c-0.05-3.55-3.09-6.96-6.79-6.79C68.35,311.37,65.14,314.2,65.19,318L65.19,318z"/>
		</g>
	</g>
	<g>
		<g>
			<path class="st38" d="M56.01,323.46c-0.88,15.38-2.1,30.74-2.62,46.14c-0.13,3.73-0.2,7.47-0.2,11.2c0,3.55,3.13,6.96,6.79,6.79
				c3.68-0.16,6.79-2.99,6.79-6.79c0.01-14.25,1.04-28.48,1.94-42.69c0.31-4.88,0.61-9.77,0.89-14.65c0.2-3.55-3.27-6.95-6.79-6.79
				C58.95,316.84,56.23,319.66,56.01,323.46L56.01,323.46z"/>
		</g>
	</g>
	<path class="st48" d="M52.45,325.64c0.71,9.87,7.02,10.86,13.39,7.18c6.37-3.68,9.91-12.05,9.91-19.4c0,0-3.54-10.91-9.91-7.23
		S51.62,314.18,52.45,325.64z"/>
	<path class="st5" d="M74.16,284.87c0,0,4.22,6.63,3.74,10.63c-0.31,2.54-2.14,5.41-2.41,6.22c-2.19,6.67-0.98,8.69-1.22,10.53
		c0,0-1.46,6.34-17.12,0.35l-6.57-19.31L74.16,284.87z"/>
	<path class="st5" d="M51.74,297.52c-0.58-0.35-0.72-1.3-0.72-1.3c-0.4-3.44-2.29-5.01,1.45-10.9c0.6-0.95,8.8-5.19,14.96-6.31
		c2.99-0.54,5.94,1.12,7.14,3.91c0.7,1.63,1.39,4.85,1.39,4.85c0.29,6.32-2.51-1.98-2.95,1.51c0.01-0.08,0.04-0.17,0.05-0.25
		c0,0-0.76,5.9-1.34,10.46c-0.36,2.85-0.61,4.91-0.64,5.2c0,0.01,0,0.03,0,0.04l-10.68,8.42l-5.62-10.15l0,0L51.74,297.52z"/>
	<path class="st4" d="M67.05,278.92c0,0,5.34,5.51,0.71,9.42c-4.63,3.91-12.52-4.83-12.52-4.83
		C59.38,280.92,63.36,279.16,67.05,278.92z"/>
	<path class="st5" d="M75.76,313.42l3.79,26.01c0.02,0.35-0.09,0.7-0.32,1.01c-1.45,1.93-8.8,6.98-24.86,4.14
		c-1.85-0.33-2.16-0.41-2.15-1.63l0.93-20.71l9.45-0.09L75.76,313.42z"/>
	<path class="st4" d="M64.63,282.1l2.55-9.83l-6.16,1.95l-2.07,8.03C58.5,283.56,62.79,287.12,64.63,282.1z"/>
	<path class="st35" d="M53.42,295.72c0.52,1.19,1.27,2.41,2.16,3.64c2.3,3.15,6.27,4.56,10.06,3.66c5.57-1.33,11.21-4.16,11.21-4.16
		s-2.41,7.74-1.57,12.25c0.39,2.09,0.11,1.71,0.11,1.71c-0.12,2-3.42,1.45-3.42,1.45c-7.05,2.19-14.83-1.67-14.83-1.67l-4.57-13.37
		L53.42,295.72z"/>
	<path class="st2" d="M76.21,312.27L76.21,312.27c0.08,0.46-0.09,0.92-0.46,1.21c-1.33,1.03-4.88,3.23-10.45,2.63
		c-4.77-0.52-7.57-1.56-8.91-2.22c-0.58-0.28-0.86-0.95-0.64-1.55l0.14-0.37c0.24-0.67,0.99-1,1.65-0.72
		c2.52,1.06,8.53,3.24,12.75,1.98c1.95-0.58,3.2-1.2,4-1.76C75.03,310.96,76.05,311.38,76.21,312.27z"/>
	<g>
		<g>
			<path class="st18" d="M66.43,279.68c0.01,1.03,0.38,2.13,0.59,3.12c0.14,0.67,0.29,1.34,0.41,2.02c0.06,0.3,0.1,0.6,0.15,0.9
				c-0.09-0.47,0.02,0.18,0.02,0.36c0.01,0.61-0.02-0.19,0.08-0.2c-0.04,0-0.25,0.27-0.3,0.32c-0.16,0.14-0.31,0.24-0.51,0.35
				c-0.71,0.42-1.48,0.59-2.26,0.59c-1.47-0.01-2.64-0.88-3.98-1.71c-0.61-0.38-1.22-0.76-1.84-1.13c-0.79-0.48-1.34-1.37-2.06-2
				c-0.69-0.6-1.72-0.68-2.4,0c-0.62,0.62-0.69,1.8,0,2.4c0.93,0.81,1.6,1.82,2.66,2.48c0.52,0.33,1.05,0.64,1.57,0.96
				c1.74,1.08,3.34,2.17,5.45,2.36c2.4,0.23,5.18-0.76,6.56-2.82c0.84-1.26,0.32-2.98,0.05-4.34c-0.17-0.85-0.36-1.69-0.54-2.54
				c-0.07-0.31-0.14-0.62-0.2-0.94c-0.02-0.12-0.04-0.24-0.07-0.36c-0.05-0.21,0.03,0.51,0.03,0.16
				C69.82,277.49,66.42,277.49,66.43,279.68L66.43,279.68z"/>
		</g>
	</g>
	<path class="st4" d="M67.79,278.97L67.79,278.97c3.33-1.02,5.22-4.57,4.2-7.89l-2.29-7.49c-1.02-3.33-4.57-5.22-7.89-4.2h0
		c-3.33,1.02-5.22,4.57-4.2,7.89l2.29,7.49C60.91,278.1,64.46,279.99,67.79,278.97z"/>
	<path class="st42" d="M65.7,279.42c-0.82,0.18-2.91-0.02-3.8-0.44c0,0,1.74,1.85,3.65,2.04L65.7,279.42z"/>
	<g>
		<path class="st18" d="M69.72,273.32l-3.01,1.8c-0.12,0.07-0.19,0.22-0.15,0.36c0.14,0.5,0.64,1.52,2.31,0.67
			c1.16-0.6,1.35-1.83,1.35-2.55C70.21,273.34,69.93,273.19,69.72,273.32z"/>
		<path class="st2" d="M65.01,271.29c-0.29,0.03-0.45,0.44-0.38,0.93c0.03,0.21,0.1,0.41,0.2,0.56c0.12,0.17,0.26,0.26,0.41,0.24
			c0.01,0,0.02,0,0.03-0.01c0.26-0.06,0.41-0.45,0.35-0.92C65.55,271.59,65.29,271.25,65.01,271.29z"/>
		<path class="st2" d="M69.46,268.77c-0.15,0.02-0.27,0.14-0.34,0.34c-0.06,0.17-0.07,0.37-0.04,0.59c0.07,0.49,0.33,0.83,0.61,0.79
			c0.01,0,0.02,0,0.03-0.01c0.26-0.06,0.41-0.45,0.35-0.92C70.01,269.08,69.74,268.73,69.46,268.77z"/>
		<path class="st2" d="M64.69,269.93c-0.54-0.02-1.18,0.36-1.49,0.84c-0.22,0.35-0.71-0.23-0.5-0.58c0.39-0.62,1.19-1.07,1.88-1.04
			C64.97,269.17,65.07,269.95,64.69,269.93L64.69,269.93z"/>
		<path class="st2" d="M69.57,267.59c-0.53-0.04-1.2,0.29-1.53,0.76c-0.23,0.33-0.72-0.21-0.49-0.55c0.42-0.61,1.22-1.04,1.91-0.99
			C69.84,266.84,69.95,267.61,69.57,267.59L69.57,267.59z"/>
	</g>
	<g>
		<path class="st3" d="M85.54,301.05c1.12,9.99-4.53,22.94-12.63,28.9c-8.1,5.97-15.57,2.7-16.69-7.29
			c-1.12-9.99,4.47-22.8,12.54-28.95C77.64,286.94,84.42,291.06,85.54,301.05z"/>
		<path class="st24" d="M90.3,303.56c1.12,9.99-4.53,22.94-12.63,28.9c-8.1,5.97-15.57,2.7-16.69-7.29
			c-1.12-9.99,4.47-22.8,12.54-28.95C82.39,289.45,89.17,293.56,90.3,303.56z"/>
		<path class="st18" d="M79.06,320.85c-1.15,2.22-4.08,2.8-5.98,1.17l-4.12-3.51c-0.76-0.44-1.22-1.33-1.21-2.58
			c0.02-2.58,2.06-5.73,4.55-7.03c2.28-1.18,4.14-0.41,4.42,1.7c0.33-2.43,2.23-5.17,4.5-6.35c2.49-1.3,4.49-0.25,4.46,2.33
			c-0.01,0.9-0.26,1.87-0.69,2.8c0,0,0.01,0,0.01,0l-0.11,0.21c-0.06,0.11-0.11,0.23-0.17,0.34L79.06,320.85z"/>
	</g>
	<path class="st4" d="M64.88,321.71L64.88,321.71c-0.1-1.67-1.55-2.95-3.21-2.85l-2.87,0.17c-1.67,0.1-2.95,1.55-2.85,3.21l0,0
		c0.1,1.67,1.55,2.95,3.21,2.85l2.87-0.17C63.7,324.82,64.98,323.38,64.88,321.71z"/>
	<path class="st4" d="M94.08,301.57L94.08,301.57c-0.97-1.36-2.87-1.68-4.23-0.71l-2.35,1.67c-1.36,0.97-1.68,2.87-0.71,4.23l0,0
		c0.97,1.36,2.87,1.68,4.23,0.71l2.35-1.67C94.73,304.83,95.05,302.93,94.08,301.57z"/>
	<path class="st1" d="M63.05,262.18c0,0-1.6,7.79-3.81,10.15l0.73,1.41c0.73,1.42,0.77,3.1,0.12,4.56l-0.27,0.6
		c0,0-12.07-9.65-5.32-18.11c5.76-7.22,15.72-2.53,15.47,3.64L63.05,262.18z"/>
	<path class="st4" d="M59.22,276.24c1.04,0.4,1.89-0.15,1.9-1.23c0-1.08-0.84-2.27-1.88-2.67c-1.04-0.4-1.89,0.15-1.9,1.23
		C57.33,274.64,58.17,275.84,59.22,276.24z"/>
	<path class="st2" d="M54.87,266.24c0,1.4-0.7,2.53-1.57,2.53c-0.87,0-1.57-1.13-1.57-2.53c0-1.4,0.7-2.53,1.57-2.53
		C54.17,263.71,54.87,264.84,54.87,266.24z"/>
	<path class="st1" d="M53.36,267.88c0.45-1.21-0.24-2.54-1.48-2.88c-1.53-0.42-3.39-0.34-4.03,2.18c-0.73,2.87-2.52,8.38-3.73,12.04
		c-0.42,1.26,1.21,2.19,2.07,1.18c0.76-0.88,1.39-2.01,1.55-3.4c0,0-0.66,2.35-1.38,4.32c-0.37,1.02,0.67,1.99,1.65,1.52
		c1.7-0.81,3.53-2.33,3.38-5.09C51.21,274.35,52.49,270.23,53.36,267.88z"/>
	<g>
		<g>
			<path class="st4" d="M48.02,286.61c-1.4,3.48-2.64,7.04-3.22,10.76c-0.6,3.85-0.73,7.67-0.68,11.56
				c0.08,6.59,0.34,15.22,7.89,17.6c2.55,0.8,5.34,0.53,7.96,0.4c2.66-0.14,5.22-2.25,5.1-5.1c-0.12-2.64-2.24-5.24-5.1-5.1
				c-1.04,0.05-2.07,0.12-3.11,0.14c-0.44,0.01-0.88,0.01-1.31-0.01c-0.19-0.01-0.38-0.03-0.57-0.04c-0.75-0.02,1.48,0.3,0.47,0.06
				c-0.33-0.08-1.48-0.49-0.51-0.07c0.94,0.41,0.3,0.14,0.1,0.02c-0.82-0.5,0.44,0.42,0.37,0.34c-0.09-0.11-0.25-0.25-0.36-0.34
				c-0.62-0.5,0.56,0.94,0.31,0.41c-0.08-0.16-0.2-0.33-0.29-0.49c-0.56-0.89,0.26,0.86,0.08,0.26c-0.14-0.47-0.3-0.93-0.42-1.41
				c-0.07-0.32-0.13-0.65-0.19-0.97c-0.22-1.13,0.06,0.86-0.01-0.05c-0.15-1.81-0.2-3.62-0.23-5.44c-0.02-1.74-0.03-3.49,0.03-5.24
				c0.03-0.74,0.07-1.49,0.12-2.23c0.03-0.33,0.06-0.66,0.09-0.99c0.02-0.22,0.06-0.44,0.07-0.66c0.06-0.69-0.18,1.05-0.05,0.38
				c0.71-3.84,1.81-7.46,3.27-11.09c1-2.48-1.09-5.71-3.56-6.27C51.34,282.38,49.09,283.95,48.02,286.61L48.02,286.61z"/>
		</g>
	</g>
	<g>
		<g>
			<path class="st5" d="M49.55,286.59c-3.69,7.69-3.93,15.91-3.75,24.07c0.08,3.67,7.1,3.69,7.02,0c-0.16-7.69,0.02-15.29,3.5-22.55
				C57.97,284.68,51.18,283.19,49.55,286.59L49.55,286.59z"/>
		</g>
	</g>
	<path class="st18" d="M65.9,448.5l0.41,13.23c0.04,1.28-1.18,2.23-2.41,1.88l-18.72-5.39c-1.71-0.49-1.86-2.86-0.22-3.56l18.3-7.84
		C64.49,446.29,65.85,447.17,65.9,448.5z"/>
	<line class="st53" x1="548.69" y1="269.47" x2="548.69" y2="292.48"/>
	<line class="st53" x1="548.69" y1="245.58" x2="548.69" y2="254.76"/>
	<line class="st53" x1="608.8" y1="284.33" x2="608.8" y2="292.48"/>
	<line class="st53" x1="608.8" y1="245.58" x2="608.8" y2="250.17"/>
	<line class="st53" x1="608.8" y1="259.24" x2="608.8" y2="275.07"/>
	<line class="st53" x1="577.11" y1="245.5" x2="577.11" y2="264.3"/>
	<line class="st53" x1="577.11" y1="226.46" x2="577.11" y2="235.64"/>
	<line class="st53" x1="577.11" y1="273.22" x2="577.11" y2="279.04"/>
	<path class="st10" d="M357.36,179.51c0,1.96-1.59,3.55-3.55,3.55s-3.55-1.59-3.55-3.55c0-1.96,1.59-3.55,3.55-3.55
		S357.36,177.55,357.36,179.51z"/>
	<g>
		<g>
			<g>
				<path class="st54" d="M292.09,353.3c0-0.33-0.05-24.45-0.07-34.64c-0.01-5.22,3.24-9.4,8.18-10.55
					c5.89-1.35,11.86,2.83,12.58,8.84c0.06,0.53,0.1,1.06,0.1,1.58c0.03,10.24,0.07,34.39,0.07,34.66L292.09,353.3z"/>
			</g>
			<g>
				<path class="st54" d="M354.91,353.08c0-0.23-0.05-23.88-0.07-33.92c-0.01-0.76-0.02-1.51-0.11-2.27
					c-0.56-5.61-6.17-9.91-11.75-9.02c-5.42,0.87-9.04,5.17-9.02,10.7c0.02,10.2,0.07,34.57,0.07,34.57L354.91,353.08z"/>
			</g>
			<g>
				<path class="st54" d="M312.96,281.02c2.25,1.33,4.68,2.12,7.26,2.41c0.68,0.07,0.98,0.33,1.13,0.98
					c0.47,2.13,0.35,4.18-0.54,6.18c-0.55,1.25-1.38,2.3-2.49,3.34c2.1-0.37,3.8-1.21,5.25-2.54c2.35-2.14,3.45-4.84,3.46-8.02
					c0.8-0.2,1.56-0.36,2.29-0.58c2.8-0.83,5.33-2.12,7.3-4.37c2.68-3.06,2.7-7.07,0.08-10.17c-1.27-1.51-2.82-2.59-4.59-3.41
					c-4.39-2-8.96-2.35-13.64-1.35c-2.86,0.61-5.47,1.76-7.66,3.74c-3.46,3.13-3.91,7.53-1.14,10.95
					C310.59,279.34,311.7,280.27,312.96,281.02"/>
			</g>
			<g>
				<path class="st54" d="M302.3,304.46c5.79,0.03,10.48-4.58,10.52-10.29c0.04-5.83-4.59-10.54-10.33-10.55
					c-5.86-0.02-10.49,4.57-10.52,10.41C291.96,299.75,296.57,304.43,302.3,304.46"/>
			</g>
			<g>
				<path class="st54" d="M333.92,293.89c0,5.84,4.67,10.51,10.48,10.47c5.78-0.02,10.41-4.69,10.39-10.49
					c-0.02-5.74-4.73-10.37-10.54-10.35C338.58,283.54,333.91,288.23,333.92,293.89"/>
			</g>
		</g>
	</g>
</g>
</svg>
