<svg width="72" height="72" viewBox="0 0 72 72" fill="none" xmlns="http://www.w3.org/2000/svg">
<path d="M72 0H0V72H72V0Z" fill="#E9F2FF"/>
<path d="M15.84 16.8V18.72H55.2V49.44H30.24V51.36H56.16C56.7024 51.36 57.12 51.7776 57.12 52.32V53.28H30.24V55.2H58.08C58.3346 55.2 58.5787 55.0988 58.7588 54.9188C58.9388 54.7388 59.0399 54.4946 59.04 54.24V52.32C59.04 51.1136 58.1824 50.265 57.12 49.8394V17.76C57.1199 17.5054 57.0188 17.2612 56.8388 17.0812C56.6587 16.9012 56.4146 16.8 56.16 16.8H15.84ZM20.64 22.56C16.94 22.56 13.92 25.58 13.92 29.28C13.92 32.98 16.94 36 20.64 36C24.3399 36 27.36 32.98 27.36 29.28C27.36 25.58 24.3399 22.56 20.64 22.56ZM31.2 22.56V24.48H32.16H41.76H42.72V22.56H41.76H32.16H31.2ZM45.6 22.56V24.48H46.56H51.36H52.32V22.56H51.36H46.56H45.6ZM20.64 24.48C23.3023 24.48 25.44 26.6177 25.44 29.28C25.44 31.9423 23.3023 34.08 20.64 34.08C17.9776 34.08 15.84 31.9423 15.84 29.28C15.84 26.6177 17.9776 24.48 20.64 24.48ZM31.2 27.36V29.28H32.16H51.36H52.32V27.36H51.36H32.16H31.2ZM39.2268 32.8725C39.0129 32.8688 38.7995 32.8861 38.5893 32.9231C37.7485 33.0712 36.9635 33.5412 36.4443 34.2937L32.7393 39.6619L29.2537 38.4994C28.1023 38.1152 26.8964 37.92 25.6837 37.92H18.72C15.5504 37.92 12.96 40.5104 12.96 43.68V55.2H14.88V43.68C14.88 41.5484 16.5884 39.84 18.72 39.84H25.6837C26.6905 39.84 27.6914 40.0014 28.6462 40.32L32.8162 41.7112C33.0134 41.7768 33.2266 41.7767 33.4237 41.7107C33.6209 41.6448 33.7913 41.5167 33.9093 41.3456L38.025 35.3831C38.4688 34.7398 39.3223 34.5893 39.9581 35.0419C39.9581 35.0425 39.9581 35.0431 39.9581 35.0437C40.579 35.4852 40.7275 36.3182 40.2956 36.9469L34.8506 44.8744C34.614 45.2171 34.1936 45.3687 33.7931 45.2531L27.6262 43.4719C27.4832 43.4306 27.3326 43.4232 27.1862 43.4501C27.0399 43.477 26.9018 43.5376 26.7829 43.6271C26.664 43.7166 26.5675 43.8325 26.501 43.9656C26.4345 44.0988 26.4 44.2455 26.4 44.3944V55.2H28.32V45.6712L33.2606 47.0981C34.4492 47.4412 35.7325 46.9812 36.4331 45.9619C36.4337 45.9619 36.4343 45.9619 36.435 45.9619L41.8781 38.0344V38.0325C42.8907 36.557 42.5298 34.5147 41.0718 33.4781C40.5132 33.0805 39.8687 32.8835 39.2268 32.8725Z" fill="#0E6EFF"/>
</svg>
