<svg viewBox="0 0 50 50" xmlns="http://www.w3.org/2000/svg" xmlns:xlink="http://www.w3.org/1999/xlink"><linearGradient id="a" gradientUnits="userSpaceOnUse" x1="4.04" x2="53.27" y1="44.35" y2="4.29"><stop offset="0" stop-color="#00ffde"/><stop offset="1" stop-color="#2ac6ff"/></linearGradient><path d="m48.5 27.6-5.6-7.5-.1-.1s-.1 0-.1-.1c0 0-.1 0-.1-.1l-10.9-4.8a8.41 8.41 0 0 0 -7.3-13.9c-1.8.2-3.5 1-4.8 2.3s-2.2 3-2.5 4.7c-.4 2.5.3 5 2 6.9l-10.9 4.9s-.1 0-.1.1c0 0-.1 0-.1.1l-.1.1-5.6 7.5c-.3.1-.3.4-.3.7.1.3.3.5.5.6l5 2.2v9.2c0 .4.2.7.6.9l16.9 7.5h.8l16.8-7.5c.3-.1.6-.5.6-.9v-9.2l5-2.2c.3-.1.5-.3.5-.6s-.1-.6-.2-.8zm-29.6-19.1c.4-2.8 2.8-5.1 5.7-5.4 1.9-.2 3.7.4 5.1 1.6s2.2 3 2.2 4.9c0 2-.9 3.8-2.4 5.1-.1 0-.1.1-.2.1-.1.1-.3.2-.4.4h-2.6v-3.3l1.6-1.6c.4-.4.4-1 0-1.3-.4-.4-1-.4-1.3 0l-1.2 1.2-1.2-1.2c-.4-.4-1-.4-1.3 0-.4.4-.4 1 0 1.3l1.6 1.6v3.3h-2.6l-.4-.4c-.1 0-.1-.1-.2-.1a6.6 6.6 0 0 1 -2.4-6.2zm4.6 10.3c-.1 0-.3 0-.4-.1-.3-.2-.5-.5-.5-.8v-.9h5.6v.9c0 .4-.2.7-.6.9-.1 0-.2.1-.4.1h-3.7zm3.7 1.9c0 1-.8 1.9-1.9 1.9-.5 0-1-.2-1.3-.5-.4-.4-.5-.8-.5-1.3zm-6.7-4.3.1.1c.1.1.1.3.1.4v.9c0 .8.4 1.6.9 2.1v.7c0 1 .4 1.9 1.1 2.6a3.7 3.7 0 0 0 6.3-2.6v-.6c.6-.5.9-1.3.9-2.1v-.9c0-.1 0-.3.1-.4l.1-.1 9.7 4.3-14.5 6.4-14.5-6.4zm-16.1 11.4 4.5-5.9 15 6.7-4.5 5.9zm36.8 12.1-14.9 6.6v-9c0-.5-.4-.9-.9-.9s-.9.4-.9.9v9l-15-6.6v-7.8l9.9 4.4c.4.2.9.1 1.1-.3l4.9-6.5 4.9 6.5c.2.2.5.4.7.4.1 0 .3 0 .4-.1l9.9-4.4v7.8zm-10-5.4-4.5-5.9 15-6.7 4.5 5.9z" fill="url(#a)"/></svg>