<svg viewBox="0 0 100 100" xmlns="http://www.w3.org/2000/svg" xmlns:xlink="http://www.w3.org/1999/xlink"><linearGradient id="a"><stop offset="0" stop-color="#00ffde"/><stop offset="1" stop-color="#2ac6ff"/></linearGradient><linearGradient id="b" gradientUnits="userSpaceOnUse" x1="-15.6" x2="111.54" xlink:href="#a" y1="53.41" y2="32.59"/><linearGradient id="c" gradientUnits="userSpaceOnUse" x1="-14.75" x2="112.39" xlink:href="#a" y1="58.58" y2="37.77"/><linearGradient id="d" gradientUnits="userSpaceOnUse" x1="-13.64" x2="113.49" xlink:href="#a" y1="65.33" y2="44.52"/><path d="m0 26.2h10.4v47.5h-10.4z" fill="url(#b)"/><path d="m19.6 26.2h35.5v8.8h-25v10.2h23v8.1h-23v11.7h25.6v8.8h-36.1z" fill="url(#c)"/><path d="m69.9 58c0 6.3 4.9 8.8 10.5 8.8 3.7 0 9.3-1.1 9.3-5.9 0-5.1-7.1-6-14.1-7.9-7.1-1.9-14.2-4.6-14.2-13.5 0-9.7 9.2-14.4 17.8-14.4 9.9 0 19 4.3 19 15.3h-10.1c-.3-5.7-4.4-7.2-9.4-7.2-3.3 0-7.2 1.4-7.2 5.4 0 3.7 2.3 4.1 14.2 7.2 3.5.9 14.1 3.1 14.1 13.8 0 8.7-6.9 15.2-19.8 15.2-10.5 0-20.4-5.2-20.2-16.9h10.1z" fill="url(#d)"/></svg>