<?xml version="1.0" encoding="utf-8"?>
<!-- Generator: Adobe Illustrator 22.1.0, SVG Export Plug-In . SVG Version: 6.00 Build 0)  -->
<svg version="1.1" id="Layer_1" xmlns="http://www.w3.org/2000/svg" xmlns:xlink="http://www.w3.org/1999/xlink" x="0px" y="0px"
	 viewBox="0 0 100 100" style="enable-background:new 0 0 100 100;" xml:space="preserve">
<style type="text/css">
	.st0{fill:#FEFEFE;}
	.st1{fill:#2096F3;}
	.st2{opacity:0.53;}
	.st3{clip-path:url(#SVGID_2_);}
	.st4{fill:#FFFFFF;}
</style>
<path class="st0" d="M405,559c-0.1,0.1-0.1,0.3-0.2,0.4c0,0-0.2,0-0.3-0.1C404.6,559.2,404.8,559.2,405,559L405,559z"/>
<g>
	<path class="st1" d="M70.4,74.4H29.6c-2.1,0-3.9-1.8-3.9-3.9V29.6c0-2.1,1.8-3.9,3.9-3.9h40.9c2.1,0,3.9,1.8,3.9,3.9v40.9
		C74.4,72.6,72.6,74.4,70.4,74.4z"/>
	<g class="st2">
		<defs>
			<path id="SVGID_1_" class="st2" d="M70.4,74.4H29.6c-2.1,0-3.9-1.8-3.9-3.9V29.6c0-2.1,1.8-3.9,3.9-3.9h40.9
				c2.1,0,3.9,1.8,3.9,3.9v40.9C74.4,72.6,72.6,74.4,70.4,74.4z"/>
		</defs>
		<clipPath id="SVGID_2_">
			<use xlink:href="#SVGID_1_"  style="overflow:visible;"/>
		</clipPath>
		<g class="st3">
			
				<image style="overflow:visible;" width="100" height="105" xlink:href="1CDC65E5D95C55E2.png"  transform="matrix(1 0 0 1 15.4183 4.3317)">
			</image>
		</g>
		<g class="st3">
			
				<image style="overflow:visible;" width="114" height="102" xlink:href="1CDC65E5D95C55E7.png"  transform="matrix(1 0 0 1 -2.5817 11.3317)">
			</image>
		</g>
	</g>
	<g>
		<path class="st4" d="M59.2,37.8c-3.4-0.2-6.5,1.1-9.6,3.8c-4.6,4.2-4.9,9.1-0.9,13.8c0.2,0.3,0.4,0.5,0.7,0.7
			c0.7,0.8,1.4,1.6,1.9,2.4l0.1,0.2c0.7,1.1,0.8,1.4,0.5,1.8c-0.3,0.5-0.9,0.6-2.2,0.6c-4.1,0-8.2,0-12.2,0c-1.1,0-2,0.3-2.5,0.9
			c-0.4,0.4-0.8,1.1-0.7,2.2c0,0.8,0.4,2.8,3.3,2.8c0,0,0,0,0,0c1.6,0,3.1,0,4.7,0l3.9,0c0.7,0,1.3,0,2,0c0.8,0,1.6,0,2.4,0
			c2.8-0.1,5.2-1.3,6.4-3.4c1.2-2.1,1.2-4.8-0.1-7.3c-0.8-1.6-1.9-2.9-3-4.1c-0.3-0.4-0.7-0.8-1-1.2C52,50,51.7,49.2,52,48.3
			c0.7-2.2,4.3-4.7,6.8-4.6c0.1,0,0.2,0,0.3,0c0,0.1,0,0.2-0.1,0.3c-0.3,1.1-0.8,2.2-1.4,3.2c-0.7,1-0.6,1.9-0.5,2.4
			c0.1,0.5,0.5,1.3,1.5,1.9c1.5,0.9,3,0.4,4.1-1.2c1.1-1.8,1.9-3.5,2.2-5.3c0.4-1.9,0.1-3.7-1-5C62.9,38.7,61.2,37.9,59.2,37.8z"/>
		<path class="st4" d="M39.2,48c1.8,0,3.3-1.5,3.3-3.3s-1.5-3.3-3.3-3.3c-1.8,0-3.3,1.5-3.3,3.3S37.4,48,39.2,48z"/>
		<path class="st4" d="M49.3,38.1c1.8,0,3.3-1.5,3.3-3.3c0-1.8-1.5-3.3-3.3-3.3c-1.8,0-3.3,1.5-3.3,3.3C46,36.6,47.4,38.1,49.3,38.1
			z"/>
		<path class="st4" d="M62.5,36c1.8,0,3.3-1.5,3.3-3.3c0-1.8-1.5-3.3-3.3-3.3c-1.8,0-3.3,1.5-3.3,3.3C59.2,34.6,60.6,36,62.5,36z"/>
	</g>
</g>
</svg>
