<svg viewBox="0 0 26.7 26.7" xmlns="http://www.w3.org/2000/svg"><g fill="#333"><path d="m.4 25.7c.1-.2.3-.2.5-.2h2.5v-13c0-.5.1-.6.6-.6h3.3v-4.3c0-.3.1-.4.3-.5 1.8-1 3.5-2 5.2-3 .2-.1.2-.2.2-.4v-2.8c0-.4.1-.5.5-.5h2.4c.4 0 .5.1.5.5v1.6c0 .3-.1.4-.4.4h-2.3v.9c0 .1.1.2.2.2 1.7 1 3.4 2 5.2 3 .2.1.4.3.4.6v4.2h3.3c.5 0 .6.1.6.6v13h2.6c.2 0 .4.1.4.3s-.1.3-.4.3h-25c-.2 0-.4 0-.5-.2-.1.1-.1 0-.1-.1zm16.5-.2h5.8v-13h-3.4c-.4 0-.5-.1-.5-.5v-4.1c0-.2 0-.3-.2-.3-1.7-1-3.3-1.9-5-2.9-.1-.1-.2-.1-.4 0-1.7 1-3.4 1.9-5.1 2.9-.2 0-.2.1-.2.2v4.1c0 .5-.1.6-.6.6h-3.3v13h5.8v-6c0-.4.1-.5.5-.5h6.1c.4 0 .5.1.5.5zm-3.9 0v-5.9h-2.6v5.9zm.7 0h2.5v-5.9h-2.5zm2-23.3v-1.2h-2v1.2z"/><path d="m10.5 10.2c0-1.6 1.3-2.8 2.8-2.8s2.8 1.3 2.8 2.8c0 1.6-1.3 2.8-2.8 2.8-1.6 0-2.8-1.2-2.8-2.8zm2.7 2.2c1.2.1 2.2-.8 2.3-2.1.1-1.1-.7-2.1-2.1-2.2-1.1-.1-2.2.7-2.3 2.1 0 1.1.8 2.1 2.1 2.2zm3.7 3.9v1.2c0 .3-.1.4-.4.4h-2.4c-.3 0-.4-.1-.4-.4v-2.5c0-.3.1-.4.4-.4h2.4c.3 0 .4.1.4.4zm-.7-1h-1.9v2h1.9zm-3.2 1.1v1.2c0 .3-.1.4-.4.4h-2.4c-.3 0-.4-.1-.4-.4v-2.5c0-.3.1-.4.4-.4h2.3c.4 0 .5.1.5.5zm-.7-1h-1.9v2h1.9zm9 5.2v1.2c0 .3-.1.4-.4.4h-2.4c-.3 0-.4-.1-.4-.4v-2.5c0-.3.1-.4.4-.4h2.4c.3 0 .4.1.4.4zm-2.6-1v2h1.9v-2zm2.6-3.2v1.2c0 .3-.1.4-.4.4h-2.4c-.3 0-.4-.1-.4-.4v-2.5c0-.3.1-.4.4-.4h2.4c.3 0 .4.1.4.4zm-.7-1h-1.9v2h1.9zm-12 1v1.2c0 .3-.1.4-.4.4h-2.4c-.3 0-.4-.1-.4-.4v-2.5c0-.3.1-.4.4-.4h2.4c.3 0 .4.1.4.4zm-.7-1h-1.9v2h1.9zm.7 5.2v1.2c0 .3-.1.4-.4.4h-2.3c-.3 0-.4-.1-.4-.4v-2.4c0-.3.1-.4.4-.4h2.3c.3 0 .4.1.4.4zm-2.6 1h1.9v-2h-1.9z"/><path d="m13.7 10.1h.9c.3 0 .4.1.4.3s-.1.3-.4.3h-1.2c-.3 0-.4-.1-.4-.4v-1.3c0-.3.1-.4.3-.4s.3.2.3.4c.1.4.1.7.1 1.1z"/></g></svg>