<svg viewBox="0 0 889.1 1020.4" xmlns="http://www.w3.org/2000/svg" xmlns:xlink="http://www.w3.org/1999/xlink"><linearGradient id="a"><stop offset="0" stop-color="#00ffde"/><stop offset="1" stop-color="#2ac6ff"/></linearGradient><linearGradient id="b" gradientTransform="matrix(1 0 0 -1 0 1020)" gradientUnits="userSpaceOnUse" x1="2.3" x2="892.24" xlink:href="#a" y1="578.96" y2="578.96"/><linearGradient id="c" gradientTransform="matrix(1 0 0 -1 0 1020)" gradientUnits="userSpaceOnUse" x1="189.91" x2="894.16" xlink:href="#a" y1="755.94" y2="755.94"/><linearGradient id="d"><stop offset="0" stop-color="#ff497f"/><stop offset="1" stop-color="#2ac6ff"/></linearGradient><linearGradient id="e" gradientTransform="matrix(1 0 0 -1 0 1020)" gradientUnits="userSpaceOnUse" x1="-.08" x2="881.45" xlink:href="#d" y1="222.05" y2="222.05"/><linearGradient id="f" gradientTransform="matrix(1 0 0 -1 0 1020)" gradientUnits="userSpaceOnUse" x1="2.31" x2="706.56" xlink:href="#d" y1="48.75" y2="48.75"/><path d="m6.9 221.1v799.3m173.8-800v799.4m173.8-799.4v799.4m173.8-799.4v799.4m173.8-799.4v799.4m173.7-799.4v799.4" fill="none" stroke="#e5e5e5" stroke-miterlimit="10"/><path d="m6.8 620.4 869-358.7" fill="none" stroke="url(#b)" stroke-linecap="round" stroke-linejoin="round" stroke-width="9"/><path d="m869.4 280.7 8.3-19.9-19.9-8.3 11.9-5 20 8.3-8.3 19.9z" fill="url(#c)"/><path d="m16.3 975.6 860.7-355.3" fill="none" stroke="url(#e)" stroke-linecap="round" stroke-linejoin="round" stroke-width="9"/><path d="m38.7 982.9-19.9-8.3 8.3-19.9-12 4.9-8.3 19.9 19.9 8.3z" fill="url(#f)"/><path d="m272.3 434.5c-.7.3-1.5.4-2.2.1-.6-.3-1.5-.8-1.8-1.8-.2-.8-.4-1.5.1-2.4.2-.6.9-1.3 1.6-1.5.7-.3 1.5-.4 2.2-.1.6.3 1.2.9 1.5 1.6.4 1 .4 1.5.1 2.3s-.8 1.6-1.5 1.8zm4.9 4.8 6.5 16.3c.5 1.3.5 2 .4 3s-.7 1.5-1.5 1.8c-.7.3-1.5.4-2.3-.1-.6-.3-1.3-1.1-1.7-2.2l-6.6-16.6c-.5-1.3-.5-2-.2-2.8.2-.6.9-1.3 1.6-1.5.7-.3 1.5-.4 2.2-.1.6.3 1.2 1.2 1.6 2.2zm8.1-3.8.2.8c.5-1.6 1.2-3 1.8-4.2.9-1.3 2-2 3.7-2.7 1.5-.6 2.9-1 4.2-.6s2.4.6 3.7 1.5c.7.5 1.3 1.1 1.6 1.9.2.8.9 1.6 1.5 3l4.2 10.5c.5 1.3.5 2 .4 3s-.7 1.5-1.5 1.8c-.7.3-1.5.4-2.3-.1-.6-.3-1.3-1.1-1.7-2.2l-3.8-9.5c-.7-1.9-1.5-3-2.4-4-1.3-.6-2.4-.6-3.9 0-1 .4-1.8 1-2.2 2s-.9 2-.7 3.2c-.1 1.1.2 2.8 1.2 5.2l2.8 7.1c.5 1.3.5 2 .4 3-.2.6-.7 1.5-1.5 1.8-.7.3-1.5.4-2.3-.1-.7-.5-1.3-1.1-1.7-2.2l-6.6-16.6c-.4-1-.5-2-.2-2.8.2-.6.9-1.3 1.6-1.5.5-.3 1-.4 1.5-.4.1.3.5.4.9.8.4.2.9.8 1.1 1.3zm37.8-15 6.5 16.3c.7 1.9 1.1 3.5 1.5 5.1.1 1.6 0 2.8-.5 4.2-.6 1.4-1.3 2.3-2.6 3.3-1.2 1.1-2.8 2-4.9 2.9-1.8.8-3.7 1.3-5.2 1.4-1.6.1-3.1-.1-4.4-.6-1.1-.6-1.8-1.1-2.2-2.2-.2-.8-.2-1.3 0-2 .2-.8.6-1.1 1.3-1.4s1.5-.4 2.4.1c.5.4 1 .4 1.5.8s1 .4 1.3.6c.6 0 1.1.1 1.6-.1.6 0 1.2-.3 2-.5 1.5-.6 2.4-1.4 3.1-2.2.6-.8 1-1.5 1-2.4s-.1-1.6-.5-2.7c-.2-.8-.9-2.2-1.5-4.2-.5 1.6-1 3-1.7 3.9s-2 2-3.7 2.7c-1.8.8-3.7 1-5.2.5-1.8-.4-3.3-1.4-4.6-2.8s-2.7-3.2-3.5-5.6c-.7-1.6-1-3.3-1.1-4.9s.2-2.9.5-4.2c.6-1.4 1.2-2.5 2-3.4 1-1 2.1-1.8 3.2-2.3 1.6-.8 2.9-1 4.4-.8 1.5.3 2.7.5 4.3 1.6-.4-1-.5-1.8-.1-2.5.4-.8.9-1.3 1.6-1.5 1-.4 1.7-.5 2.4.1 0 .8.6 1.6 1.1 2.8zm-13.1 14.1c.9 2.2 2.1 3.9 3.4 4.6 1.5.8 2.8.8 4.4.1 1-.4 1.6-.9 2.3-1.8.5-.8 1-1.8 1-3 0-1.3-.1-2.5-.7-3.9-.9-2.2-2.1-3.9-3.5-4.8-1.5-.8-3.2-.9-4.5-.4-1.6.8-2.6 1.9-2.9 3.5-.6 1.7-.4 3.6.5 5.7zm21.6.6-9.8-24.6c-.5-1.3-.5-2-.4-3 .2-.6.9-1.3 1.8-1.6s1.5-.4 2.3.1c.6.3 1.2.9 1.7 2.2l9.8 24.6c.5 1.3.5 2 .4 3-.2.6-.7 1.5-1.5 1.8-.7.3-1.5.4-2.3-.1-1-.7-1.6-1.6-2-2.4zm21.3-17.1-10.6 4.6c.5 1.3 1.2 2.3 2.1 3.2.9.8 1.8 1.1 2.8 1.4.9.1 2 0 2.9-.4.7-.3 1.2-.5 1.8-1s1-1 1.3-1.4c.4-.5.6-1.1 1-1.5.4-.5.6-1.4 1.1-2.2.1-.4.5-.8 1-1 .5-.3 1-.1 1.6-.1.4.1.7.5 1.1 1.3.2.5.2 1.3.2 1.9-.1.9-.5 1.6-.9 2.7-.4 1-1.1 1.9-2.2 2.7s-2.3 1.8-3.7 2.4c-3.5 1.5-6.5 1.6-9.5.4-2.9-1.3-5.2-3.4-6.7-7.1-.7-1.6-1-3.3-1.1-4.9s.1-3.2.6-4.6c.6-1.4 1.5-2.7 2.3-3.8 1.2-1.1 2.6-1.9 4.2-2.7 2.1-.9 4.2-1.3 6-.9s3.4 1.1 5 2.2c1.3 1.1 2.3 2.4 3.1 4.2.6 1.5.5 2.7-.1 3.2-1.2.1-2 .7-3.3 1.4zm-12.1 1.4 9.9-4.2c-1-1.9-2.1-3.2-3.2-3.8-1.3-.6-2.7-.5-4.2 0-1.5.6-2.4 1.6-2.7 2.9-.6 1.4-.4 3 .2 5.1zm-1.5-20.2 2.6-1.1c.7-.3 1-.4 1-.1 0 0-.2.6-.6 2-.4 1.3-.9 2-1.5 3.2-.4 1-.7 1.8-1.1 1.9-.5.8-1.5 1.1-2.2 1.5-.5.3-1 .1-1.1-.1-.1-.3 0-.9 0-1.4l.2-2.2c.1-1.1.2-2.2.6-2.5.5-.5 1.4-.9 2.1-1.2zm38.7 11.1c.6 1.5.7 3.2.4 4.4a6.1 6.1 0 0 1 -2.3 3.8c-1.2 1.1-2.7 2.3-4.8 3.2-1.8.8-3.7 1.3-5.4 1.1-1.7-.1-2.9-.5-4-1.1s-1.7-1.5-2.1-2.5c-.2-.8-.2-1.3 0-2 .2-.8.6-1.1 1.3-1.4.5-.3 1-.1 1.6-.1.4.1 1 .4 1.5.8.9.8 1.8 1.1 2.9 1.3 1.1.1 2.2-.1 3.5-.6 1.2-.5 1.8-1 2.3-1.8s.6-1.4.2-2.2c-.4-1-1.1-1.5-2.1-1.6-.9-.1-2.3-.1-4 .3-2.1.4-3.7.4-5 .5-1.3 0-2.6-.3-3.7-1-1.1-.6-2-1.4-2.4-2.7-.5-1.3-.6-2.3-.4-3.5s1-2.4 1.8-3.7c.9-1.3 2.4-2.2 4.3-3a18 18 0 0 1 3.9-1.1c1.2-.3 2.4-.1 3.3 0s1.8.4 2.3 1c.7.5 1 1 1.1 1.5.2.8.2 1.3 0 2-.2.6-.6 1.1-1.6 1.5-.5.3-1 .1-1.6.1s-1.2-.4-2-.9c-.6-.3-1.3-.6-2-.6-.6 0-1.6.1-2.6.5s-1.8 1-2.1 1.8c-.5.8-.6 1.4-.2 2.2.2.5.6.9 1.3 1.1.6.3 1.5.3 2.3.1.9 0 2.1-.4 3.7-.4 1.8-.3 3.4-.4 4.8-.4 1.3 0 2.3.4 3.2 1.1 1.4.5 2.2 1.4 2.6 2.3zm39.6-38c-.7.3-1.5.4-2.2.1-.6-.3-1.2-.9-1.5-1.6-.2-.8-.4-1.5.1-2.4.2-.6.9-1.3 1.6-1.5.7-.3 1.5-.4 2.2-.1.6.3 1.2.9 1.5 1.6.4 1 .4 1.5.1 2.3-.3.7-1.1 1.3-1.8 1.6zm4.8 4.8 6.5 16.3c.5 1.3.5 2 .4 3-.1.9-.7 1.5-1.5 1.8-.7.3-1.5.4-2.3-.1-.6-.3-1.3-1.1-1.7-2.2l-6.6-16.6c-.5-1.3-.5-2-.2-2.8.2-.6.9-1.3 1.6-1.5.7-.3 1.5-.4 2.2-.1s1.3 1.2 1.6 2.2zm8.2-3.8.2.8c.5-1.6 1.2-3 1.8-4.2.6-1.1 2-2 3.7-2.7 1.5-.6 2.9-1 4.2-.6 1.2.4 2.4.6 3.7 1.5.7.5 1.3 1.1 1.6 1.9.2.8.9 1.6 1.5 3l4.2 10.5c.5 1.3.5 2 .4 3-.1.9-.7 1.5-1.5 1.8-.7.3-1.5.4-2.3-.1-.7-.5-1.3-1.1-1.7-2.2l-3.8-9.5c-.7-1.9-1.5-3-2.4-4-.9-.8-2-.9-3.7-.1-1 .4-1.8 1-2.2 2s-.9 2-.7 3.2c0 .9.5 2.7 1.3 4.8l2.8 7.1c.5 1.3.5 2 .4 3-.2.6-.7 1.5-1.5 1.8-.7.3-1.5.4-2.3-.1-.6-.3-1.3-1.1-1.7-2.2l-6.5-16.3c-.4-1-.5-2-.2-2.8.2-.6.9-1.3 1.6-1.5.5-.3 1-.4 1.5-.4.6 0 .9.1 1.3.6-.4.6.1 1.2.3 1.7zm38.8 3-.2-.5c-.4 1.3-.9 2-1.2 3-.5.8-1 1.5-1.8 2.3-.9.6-1.5 1.1-2.6 1.6-1.5.6-2.7.9-3.9.5-1.3 0-2.7-.5-3.8-1.3-1.1-.6-2.3-1.6-3.3-2.8-1.1-1.3-1.8-2.7-2.6-4.3-1.3-3.4-1.6-6.7-.7-9.4s2.6-4.6 5.4-5.7c1.6-.8 2.9-1 4.3-1 1-.1 2.6.3 4 1.1l-3.4-8.5c-.5-1.3-.5-2-.4-3 .2-.6.9-1.3 1.6-1.5 1-.4 1.5-.4 2.2-.1.6.3 1.3 1.1 1.7 2.2l9.9 24.8c.4 1 .5 2 .2 2.8s-.9 1.3-1.6 1.5-1.5.4-2.2.1c-.7-.1-1.2-.8-1.6-1.8zm-14.1-3.9c.6 1.5 1.3 2.8 2.2 3.5.9.8 2 1.4 2.8 1.6.9.1 2 0 2.9-.4 1-.4 1.8-1 2.3-1.8s1-1.8.9-3.3c0-1.4-.2-2.8-.9-4.2-.6-1.5-1.3-2.5-2.2-3.5-.9-.8-2-1.4-2.8-1.6-.9-.1-2 0-2.9.4-1 .4-1.8 1-2.2 2s-.9 2-.9 3.3c-.1 1.2.3 2.7.8 4zm16.2-23.1c-.7.3-1.5.4-2.2.1s-1.2-.9-1.5-1.6c-.2-.8-.4-1.5.1-2.4.2-.6.9-1.3 1.6-1.5.7-.3 1.5-.4 2.2-.1s1.2.9 1.5 1.6c.4 1 .4 1.5.1 2.3-.7.8-1 1.2-1.8 1.6zm5 4.6 6.5 16.3c.5 1.3.5 2 .4 3s-.7 1.5-1.5 1.8-1.5.4-2.3-.1c-.6-.3-1.3-1.1-1.7-2.2l-6.6-16.6c-.5-1.3-.5-2-.2-2.8.2-.6.9-1.3 1.6-1.5.7-.3 1.5-.4 2.2-.1.5.5 1.1 1.2 1.6 2.2zm7.1-2.7 9.6 11-.6-15.4c.1-1.1-.1-2.3.2-2.7.4-.5.6-1.1 1.3-1.4s1.2-.3 2.2-.1c.6.3 1.1.6 1.3 1.4.1.3.2.5.1 1 .1.3 0 .9.1 1s0 .9-.1 1.1l.1 15.6c0 .6.1 1 .1 1.6s0 1.4-.1 1.8-.4 1-.6 1.4c-.4.5-.9.6-1.6.9s-1.5.4-2.1.4-1-.4-1.5-.8-1.2-.9-2.2-2.2l-10.5-11.1c-.4-.1-.5-.6-.9-.8-.4-.1-.6-.3-.9-.8-.1-.3-.5-.6-.6-.9-.2-.5-.2-.8-.2-1.3s.1-.9.6-1.4.9-.6 1.3-.9c1-.4 1.7-.5 2.2-.1.9.6 1.8 1.6 2.8 2.7zm16.1-14c-.7.3-1.5.4-2.2.1s-1.2-.9-1.5-1.6c-.2-.8-.4-1.5.1-2.4.2-.6.9-1.3 1.6-1.5.7-.3 1.5-.4 2.2-.1.6.3 1.2.9 1.5 1.6.4 1 .4 1.5.1 2.3-.4.7-1 1.3-1.8 1.6zm5.1 4.6 6.5 16.3c.5 1.3.5 2 .4 3-.1.9-.7 1.5-1.5 1.8-.7.3-1.5.4-2.3-.1-.6-.3-1.3-1.1-1.7-2.2l-6.6-16.6c-.5-1.3-.5-2-.2-2.8.2-.8.9-1.3 1.6-1.5.7-.3 1.5-.4 2.2-.1.7.4 1.3 1.2 1.6 2.2zm24.7 8.8-.2-.5c-.4 1.3-.9 2-1.2 3-.5.8-1 1.5-1.8 2.3-.9.6-1.5 1.1-2.6 1.6-1.5.6-2.7.9-3.9.5-1.3 0-2.7-.5-3.8-1.3s-2.3-1.6-3.3-2.8c-1.1-1.3-1.8-2.7-2.6-4.3-1.3-3.4-1.6-6.7-.7-9.4s2.6-4.6 5.4-5.7c1.6-.8 2.9-1 4.3-1s2.7.5 4.2 1.4l-3.5-8.7c-.5-1.3-.5-2-.4-3 .2-.6.7-1.5 1.5-1.8.7-.3 1.5-.4 2.2-.1.6.3 1.3 1.1 1.7 2.2l9.9 24.8c.4 1 .5 2 .2 2.8-.2.6-.9 1.3-1.6 1.5-.7.3-1.5.4-2.2.1-.6 0-1.2-.7-1.6-1.6zm-14.2-3.9c.6 1.5 1.3 2.8 2.2 3.5.9.8 2 1.4 2.8 1.6.9.1 2 0 2.9-.4s1.8-1 2.3-1.8 1-1.8.9-3.3c0-1.4-.2-2.8-.9-4.2-.6-1.5-1.3-2.5-2.2-3.5-.9-.8-2-1.4-2.8-1.6-.9-.1-2.1-.3-2.9.1-1 .4-1.8 1-2.2 2s-.9 2-.9 3.3c0 1.5.4 3.1.8 4.3zm36.6-5.7-.2-.8c-.4 1.3-.9 2-1.2 3-.4 1-1 1.5-1.8 2.3-.9.6-1.7 1.3-2.6 1.6-1.5.6-2.7.9-3.8.8s-2.4-.6-3.3-1.4c-1.2-.9-2.1-2.5-2.9-4.7l-4.5-11.4c-.5-1.3-.5-2-.2-2.8.2-.6.9-1.3 1.6-1.5 1-.4 1.5-.4 2.2-.1.6.3 1.3 1.1 1.7 2.2l3.5 9c.5 1.3 1 2.4 1.6 3.3s1.3 1.4 2.1 1.6c.7.3 1.7.1 2.7-.3s1.8-1 2.3-1.8 1-1.8 1-3c0-.9-.5-2.7-1.7-5.6l-2.8-7.1c-.5-1.3-.5-2-.2-2.8.2-.6.9-1.3 1.6-1.5s1.5-.4 2.2-.1c.6.3 1.3 1.1 1.7 2.2l6.5 16.3c.4 1 .5 2 .2 2.8-.2.6-.9 1.3-1.6 1.5-.7.3-1.5.4-2.2.1-1.1-.1-1.6-.8-1.9-1.8zm21.8-9.2c-1 1.5-1.8 3-2.8 4s-2.3 1.8-3.9 2.5c-1.5.6-2.7.9-4.2.6-1.1-.1-2.4-.6-3.3-1.4s-1.7-1.5-2.2-2.8c-.6-1.5-.7-3.2-.1-4.6s1.7-2.7 3.2-3.9c.2-.1 1.1-.8 2.4-1.6 1.3-.9 2.4-1.6 3.2-2.3.9-.6 2-1.4 2.9-2.4-.6-1.5-1.6-2.5-2.2-2.8-1-.4-2.1-.5-3.8.1-1.5.6-2.2 1.3-2.8 1.8-.5.8-1 1.5-1.2 2.5-.1.9-.5 1.6-.2 2.2.2.5-.5.8-1.2 1.1s-1.2.3-2 0c-.7-.3-1.1-.6-1.3-1.1-.4-1-.5-2-.2-3.3.4-1.3 1-2.4 2.1-3.8s2.9-2.4 5-3.3c2.3-1 4.3-1.5 6-1.4s2.9.5 3.9 1.5 2.1 2.5 2.9 4.7c.5 1.3 1 2.4 1.3 3.4s.7 1.9 1.2 3.2c.4 1 1.1 2.2 1.8 3.2.7 1.1 1.2 1.8 1.3 2 .2.5.2 1.3-.1 1.8-.2.6-.9 1.3-1.6 1.5-.5.3-1.2.3-2 0-.3-.3-1.2-.7-2.1-1.4zm-3.8-8.1c-.6.5-1.6 1.5-3.2 2.5-1.3.9-2.4 1.6-2.8 2-.4.5-1 1-1.2 1.6s-.2 1.5.1 2.3c.4 1 .9 1.4 1.8 1.8 1 .4 1.8.4 2.7 0 1.2-.5 2.1-1.1 2.8-2s1.1-1.9 1.3-2.9c.1-1.1-.1-2.5-1-4.4l-.4-1zm11.6 4.4-9.8-24.6c-.5-1.3-.5-2-.4-3 .2-.6.7-1.5 1.5-1.8.7-.3 1.5-.4 2.3.1.6.3 1.3 1.1 1.7 2.4l9.8 24.6c.5 1.3.5 2 .4 3-.2.6-.7 1.5-1.5 1.8-.7.3-1.5.4-2.3-.1-.7-.6-1.3-1.5-1.7-2.4zm-189.6 57.7c1.2-.5 2.3-1 3.5-1.5l.2-.1c2.4-.8 4.8-1.1 7.2-1.4 2.4.1 5 .1 7.4 1.4 1.3.6 2.6 1.5 3.4 2.5.5.4.7 1.1 1.1 1.5.2.8.5 1.3.7 1.9.1.3 0 .9.1 1 .1 1.6 0 3.4-.7 5.2-1.1 2.8-2.9 5.2-5.1 7.1-.9.6-1.7 1.3-2.6 1.9-.2.1-.2.1-.1.4s.2.5 0 .9c.5 2.7.1 5.1-1.5 7.5-1.2 1.6-2.6 3.2-4.4 4.2-.5.3-1 .4-1.3.9l-.2.1s-.1-.3.1-.4c.4-1 1-1.8 1.2-3 .5-1.6.7-3.2.4-4.7-.2-.5-.5-1.3-.9-1.6-.4-.1-.5-.4-.9-.1-.2.1-.5.3-.7.3-2.2.6-4.6.9-7 1-2 0-3.9-.3-5.7-1.3-1.7-.8-3.2-1.8-4.2-3.4-.2-.5-.6-.9-.9-1.4-.1-.3-.2-.5-.2-.8l-.1-.3c-.4-1.5-.5-3.2-.2-4.7.6-2 1.3-3.7 2.6-5.3 1.7-2.4 4.3-4.4 6.7-5.9 1-1.1 1.5-1.4 2.1-1.9z" fill="#333"/><path d="m361 890.2-3.8 1.6-6.9-16.3h-.1l3.3 17.8-4 1.7-10.5-14.8h-.1l6.9 16.3-3.8 1.6-8.3-19.5 5.9-2.5 10 13.9h.1l-3-16.8 5.9-2.5zm11.5-23.8-10.3 4.4 1.7 4.1 9.5-4 1.5 3.4-9.5 4 2.1 5.1 10.8-4.6 1.5 3.4-14.8 6.3-8.3-19.5 14.3-6.1zm-8.5-2.8-2.7 1.2.9-5 4.2-1.8zm27.3 13.8-4.1 1.7-6.8-16.1-5.9 2.5-1.5-3.4 15.9-6.7 1.5 3.5-5.9 2.5zm7.3-26.7c2.6-1.1 9.8-2.9 13.7 6.3s-2.4 13.1-5 14.2-9.8 2.9-13.7-6.3 2.4-13.1 5-14.2zm7.2 17.1c2.2-.9 4.7-3.6 2.4-9.1s-6-5.5-8.2-4.6-4.7 3.6-2.4 9.1 6 5.5 8.2 4.6zm5.6-21.9 8.6-3.6c6.6-2.8 10.3 2.2 11.9 5.9 1.8 4.2 2.7 10.9-3.8 13.6l-8.4 3.6zm10.8 14.4 4-1.7c3.3-1.4 3-5.2 1.7-8.4-2.4-5.8-5.4-5.1-7.1-4.3l-3.9 1.7zm17.1-26.9c2.6-1.1 9.8-2.9 13.7 6.3s-2.4 13.1-5 14.2-9.8 2.9-13.7-6.3c-3.9-9.1 2.4-13.1 5-14.2zm7.2 17.1c2.2-.9 4.7-3.6 2.4-9.1s-6-5.5-8.2-4.6-4.7 3.6-2.4 9.1c2.4 5.5 6 5.5 8.2 4.6zm27-8-4.1 1.7-6.8-16.1-5.9 2.5-1.5-3.5 15.9-6.7 1.5 3.5-5.9 2.5zm.1-23 9.9-4.2c5.2-2.2 7.8 1.2 8.5 2.9.9 2.1.6 4.5-1 5.9 1.9 0 3 .3 4.6 3.9 1.2 2.9 1.5 3.6 2.5 3.5l.2.5-4.5 1.9c-.7-.8-1.3-1.7-2.1-3.8-1.1-2.7-1.7-3.6-4.7-2.3l-4.2 1.8 3.2 7.6-4 1.7zm12.4 4.9c2.1-.9 2.8-2.1 2-4-.4-1-1.5-2.4-3.9-1.3l-5.1 2.2 2.2 5.2zm17.7 5.4-4.3 1.8-1.3-22.4 4.7-2 15.1 16.6-4.4 1.9-3-3.5-7.2 3zm-.7-8.4 5-2.1-5.7-6.7h-.1zm9.2-18.3 8.6-3.6c6.6-2.8 10.3 2.2 11.9 5.9 1.8 4.2 2.7 10.9-3.8 13.6l-8.4 3.6zm10.9 14.5 4-1.7c3.3-1.4 3-5.2 1.7-8.4-2.4-5.8-5.4-5.1-7.1-4.3l-3.9 1.7zm20.8-4.8-4.1 1.7-8.3-19.5 4.1-1.7zm10.6-20c-.8-1-2.4-3-5.7-1.5-2 .8-4.3 3.4-1.9 8.9 1.5 3.5 4.2 6.1 7.7 4.6 2.3-1 3.3-2.9 2.8-5.5l4.1-1.7c1 4.6-.5 8.7-5.4 10.8-5.2 2.2-10.4.3-13.2-6.5-2.9-6.8-.4-12 4.6-14.1 5.8-2.5 9.9.5 11.3 3.3zm16.5 8.5-4.1 1.7-8.3-19.5 4.1-1.7zm3.8-25.3c2.6-1.1 9.8-2.9 13.7 6.3s-2.4 13.1-5 14.2-9.8 2.9-13.7-6.3 2.5-13.1 5-14.2zm7.3 17.1c2.2-.9 4.7-3.6 2.4-9.1s-6-5.5-8.2-4.6-4.7 3.6-2.4 9.1 6 5.5 8.2 4.6zm17.5-26.9 3.8-1.6 8.3 19.5-4.1 1.7-13.8-10.5h-.1l5.9 13.9-3.8 1.6-8.3-19.5 4.3-1.8 13.5 10.3h.1zm18.7 15-4.3 1.8-1.3-22.4 4.7-2 15.1 16.6-4.4 1.9-3-3.5-7.2 3zm-.7-8.4 5-2.1-5.7-6.7h-.1zm20.1-4 9.7-4.1 1.5 3.5-13.8 5.8-8.3-19.5 4.1-1.7z" fill="#a8a8a8"/><path d="m42.3 738.9h-12.6v5h11.6v4.2h-11.6v6.2h13.2v4.2h-18v-23.7h17.5v4.1zm20.2 19.5h-4.6v-10.7c0-1.3-.1-3.5-3-3.5-2 0-3.6 1.4-3.6 4.1v10.1h-4.6v-17.6h4.3v2.6h.1c.6-1.1 2-3 5.3-3 3.4 0 6.1 2 6.1 5.9zm9.5-17.6h2.9v3.3h-2.9v9.6c0 1 0 1.4 1.9 1.4.3 0 .6 0 1-.1v3.5c-.7 0-1.5.1-2.2.1h-.6c-4 0-4.7-1.5-4.7-3.8v-10.7h-2.4v-3.3h2.4v-4.8h4.6zm20.4 12.4c-1.2 4.2-4.7 5.6-7.7 5.6-5 0-8.8-2.4-8.8-9.6 0-2.1.7-8.9 8.4-8.9 3.5 0 8.3 1.7 8.3 9.7v.8h-12.1c.1 1.3.4 4.3 4.1 4.3 1.3 0 2.6-.7 3-1.9zm-4.6-5.4c-.3-2.8-2.1-3.7-3.6-3.7-2.2 0-3.3 1.4-3.6 3.7zm23.8 10.6h-4.6v-10.7c0-1.3-.1-3.5-3-3.5-2 0-3.6 1.4-3.6 4.1v10.1h-4.6v-17.6h4.4v2.6h.1c.6-1.1 2-3 5.3-3 3.4 0 6.1 2 6.1 5.9v12.1zm20.3 0h-4.5v-2.2h-.1c-1.1 2-3.2 2.7-5.1 2.7-5.2 0-7.4-4.6-7.4-9.5 0-6.1 3.4-9.1 7.3-9.1 3 0 4.4 1.6 5.1 2.7h.1v-8.4h4.6zm-8.5-3.3c2.9 0 4.1-2.4 4.1-5.1 0-2.8-.8-5.7-4-5.7-2.9 0-3.9 2.6-3.9 5.4 0 2.1.8 5.4 3.8 5.4zm27.8-1.9c-1.2 4.2-4.7 5.6-7.7 5.6-5 0-8.8-2.4-8.8-9.6 0-2.1.7-8.9 8.4-8.9 3.5 0 8.3 1.7 8.3 9.7v.8h-12.1c.1 1.3.4 4.3 4.1 4.3 1.3 0 2.6-.7 3-1.9zm-4.6-5.4c-.3-2.8-2.1-3.7-3.6-3.7-2.2 0-3.3 1.4-3.6 3.7zm7.8-7h4.4v3h.1c1-1.8 2-3.5 4.8-3.5.3 0 .6 0 .9.1v4.7c-.4-.1-.9-.1-1.3-.1-3.6 0-4.3 2.2-4.3 4.2v9.2h-4.6zm-103.5 29.1h1.7l5.2 15.4 5.2-15.4h1.7l-6 17.3h-1.8zm15.5 11.4c0 2.7 1.4 4.9 4.2 4.9 1.9 0 3.3-1 3.8-2.9h1.6c-.7 2.4-2.2 4.2-5.4 4.2-4 0-5.7-2.8-5.7-6.5 0-3.6 2.2-6.6 5.7-6.6 3.4 0 5.5 2.4 5.5 6.9zm8.1-1.2c0-2.4-1.3-4.4-3.9-4.4-2.5 0-3.9 2-4.2 4.4zm5.8 7.1h-1.4v-12.4h1.4v2.3c.8-2 2-2.7 4.1-2.7v1.6c-3.2-.1-4.1 2.3-4.1 5.1zm13.1 3.4c.4.1.8.1 1.2.1 1.6 0 1.9-2.4 2.4-3.4l-4.8-12.5h1.6l4 10.7 4-10.7h1.6l-4.7 12.2c-1.2 3.1-1.9 5.1-3.9 5.1-.5 0-1-.1-1.4-.2zm18-9.6c0-3.6 1.9-6.6 5.8-6.6s5.8 2.9 5.8 6.6c0 3.9-2.3 6.6-5.8 6.6-3.3-.1-5.8-2.3-5.8-6.6zm5.7-5.3c-3 0-4.2 2.6-4.2 5.3 0 3.1 1.5 5.3 4.2 5.3 3 0 4.2-2.6 4.2-5.3 0-3-1.1-5.3-4.2-5.3zm7.5-2.3 2.7-3.3h1.8l-3.3 3.3zm1.1 13.8v-12.4h1.4v12.4zm6.7 0h-1.4v-12.4h1.4v2.3c.8-2 2-2.7 4.1-2.7v1.6c-3.2-.1-4.1 2.3-4.1 5.1zm284.5-197.6h11.8v4.3h-16.8v-23.7h5zm30-.8c-1.2 4.2-4.7 5.6-7.7 5.6-5 0-8.8-2.4-8.8-9.6 0-2.1.7-8.9 8.4-8.9 3.5 0 8.3 1.7 8.3 9.7v.8h-12.1c.1 1.3.4 4.3 4.1 4.3 1.3 0 2.6-.7 3-1.9zm-4.5-5.4c-.3-2.8-2.1-3.7-3.6-3.7-2.2 0-3.3 1.4-3.6 3.7zm22.9 5.4c-1.2 4.2-4.7 5.6-7.7 5.6-5 0-8.8-2.4-8.8-9.6 0-2.1.7-8.9 8.4-8.9 3.5 0 8.3 1.7 8.3 9.7v.8h-12.1c.1 1.3.4 4.3 4.1 4.3 1.3 0 2.6-.7 3-1.9zm-4.6-5.4c-.3-2.8-2.1-3.7-3.6-3.7-2.2 0-3.3 1.4-3.6 3.7zm7.9-7.1h4.4v3h.1c1-1.8 2-3.5 4.8-3.5.3 0 .6 0 .9.1v4.7c-.4-.1-.9-.1-1.3-.1-3.6 0-4.3 2.2-4.3 4.2v9.2h-4.6zm-76.2 41.6 5.7-14.4h1.5l5.5 14.4h-1.4l-1.7-4.5h-6.6l-1.7 4.5zm3.6-5.6h5.6l-2.8-7.6zm11.6 2.4c.4 1.8 1.3 2.4 3.1 2.4 1.7 0 2.6-.9 2.6-1.9 0-3-6.6-.9-6.6-5 0-1.7 1.3-3 3.6-3 2.2 0 3.7.9 4 3.3h-1.2c-.2-1.6-1.3-2.2-2.8-2.2s-2.3.7-2.3 1.8c0 2.8 6.6 1.1 6.6 5 0 2-1.8 3-4.2 3s-3.8-1.6-3.9-3.5h1.1zm8.6-1.9c0-3 1.6-5.5 4.8-5.5s4.8 2.4 4.8 5.5c0 3.3-1.9 5.5-4.8 5.5-2.6-.1-4.8-1.9-4.8-5.5zm4.8-4.4c-2.5 0-3.5 2.1-3.5 4.4 0 2.6 1.2 4.4 3.5 4.4 2.5 0 3.5-2.2 3.5-4.4 0-2.5-.9-4.4-3.5-4.4zm14.4 2.4c-.4-1.5-1.5-2.5-3.1-2.5-2.5 0-3.5 2.2-3.5 4.4s1 4.4 3.5 4.4c1.8 0 2.9-1.1 3.2-2.8h1.3c-.4 2.3-1.9 3.9-4.5 3.9-3.3 0-4.8-2.4-4.8-5.4 0-2.9 1.7-5.5 4.8-5.5 2.4 0 3.9 1.1 4.3 3.5zm3.9-5.5v-1.8h1.3v1.8zm0 12.6v-10.4h1.2v10.4zm9.1-6c.4 0 1.2-.2 1.6-.3.4-.2.4-.7.4-1.1 0-1.2-.7-2.1-2.6-2.1-1.7 0-2.8.5-3 2.3h-1.2c.2-2.4 2-3.4 4.3-3.4 2.1 0 3.8.8 3.8 3.2v5.6c0 .9.2 1.2 1.3.8v.9c-.2.1-.6.2-.9.2-.2 0-.4 0-.5-.1-.8-.1-.9-.8-1-1.5-1 1.1-2.4 1.7-3.9 1.7-1.8 0-3.5-1-3.5-3 0-1.7 1.2-2.8 3.6-3.1zm2 .6c-1 .4-2.1.5-3.1.6-1.8.1-2.9.8-2.9 2.2 0 1.3 1.1 1.9 2.2 1.9 1.9 0 3.8-.9 3.8-3zm11.7-1.7c-.4-1.5-1.5-2.5-3.1-2.5-2.5 0-3.5 2.2-3.5 4.4s1 4.4 3.5 4.4c1.8 0 2.9-1.1 3.2-2.8h1.3c-.4 2.3-1.9 3.9-4.5 3.9-3.3 0-4.8-2.4-4.8-5.4 0-2.9 1.7-5.5 4.8-5.5 2.4 0 3.9 1.1 4.3 3.5zm3.8-5.5v-1.8h1.3v1.8zm.1 12.6v-10.4h1.2v10.4zm3.6-5.1c0-3 1.6-5.5 4.8-5.5s4.8 2.4 4.8 5.5c0 3.3-1.9 5.5-4.8 5.5-2.7-.1-4.8-1.9-4.8-5.5zm4.8-4.4c-2.5 0-3.5 2.1-3.5 4.4 0 2.6 1.2 4.4 3.5 4.4 2.5 0 3.5-2.2 3.5-4.4 0-2.5-1-4.4-3.5-4.4zm-1.2-1.9 2.2-2.8h1.5l-2.7 2.8zm9.4 11.4h-1.2v-10.4h1.2v1.4c1-1 1.9-1.7 3.3-1.7 1.3 0 2.4.4 3.2 1.5.5.7.5 1.5.5 2.4v6.8h-1.2v-6.8c0-1.9-.8-2.8-2.7-2.8-1.5 0-2.5 1-2.9 2-.2.7-.3 1.2-.3 2v5.6zm-82.1 9.6h1.2v14.4h-1.2v-1.8c-.7 1.4-2.3 2.1-3.6 2.1-3.3 0-4.7-2.4-4.7-5.4 0-2.9 1.5-5.5 4.6-5.5 1.5 0 2.9.7 3.7 1.9zm-3.5 4.9c-2.5 0-3.6 2.1-3.5 4.7 0 2.6 1.5 4.1 3.5 4.1 2.3 0 3.5-1.9 3.5-4.4 0-2.4-1.3-4.4-3.5-4.4zm8.4 4.6c0 2.2 1.2 4.1 3.5 4.1 1.6 0 2.8-.9 3.1-2.4h1.3c-.6 2-1.8 3.5-4.5 3.5-3.3 0-4.8-2.4-4.8-5.4s1.8-5.5 4.8-5.5c2.8 0 4.6 2 4.6 5.7zm6.8-1c0-2-1.1-3.7-3.3-3.7-2.1 0-3.2 1.7-3.5 3.7zm9.9 1.6c.2 2.6 1.9 3.5 4.1 3.5 2.6 0 3.7-1.4 3.7-3 0-4.5-8.8-1.5-8.8-7.2 0-2 1.7-3.9 4.9-3.9s4.9 2 4.8 4.3h-1.2c0-2.2-1.7-3.1-3.5-3.1-2.8 0-3.8 1.7-3.5 3.2.6 3.7 8.8 1 8.8 6.6 0 2.6-1.9 4.2-5.3 4.2-3 0-5.2-1.6-5.2-4.7h1.2zm10.8-.8c0-3 1.6-5.5 4.8-5.5s4.8 2.4 4.8 5.5c0 3.3-1.9 5.5-4.8 5.5-2.6-.1-4.8-1.9-4.8-5.5zm4.8-4.4c-2.5 0-3.5 2.1-3.5 4.4 0 2.6 1.2 4.4 3.5 4.4 2.5 0 3.5-2.2 3.5-4.4 0-2.5-.9-4.4-3.5-4.4zm8.2 9.5h-1.2v-10.4h1.2v1.4c1-1 1.9-1.7 3.3-1.7 1.3 0 2.4.4 3.2 1.5.5.7.5 1.5.5 2.4v6.8h-1.2v-6.8c0-1.9-.8-2.8-2.7-2.8-1.5 0-2.5 1-2.9 2-.2.7-.3 1.2-.3 2v5.6zm10.1-12.6v-1.8h1.3v1.8zm0 12.6v-10.4h1.2v10.4zm12.3-14.4h1.2v14.4h-1.2v-1.8c-.7 1.4-2.3 2.1-3.6 2.1-3.3 0-4.7-2.4-4.7-5.4 0-2.9 1.5-5.5 4.6-5.5 1.5 0 2.9.7 3.7 1.9zm-3.5 4.9c-2.5 0-3.6 2.1-3.5 4.7 0 2.6 1.5 4.1 3.5 4.1 2.3 0 3.5-1.9 3.5-4.4 0-2.4-1.3-4.4-3.5-4.4zm7 4.4c0-3 1.6-5.5 4.8-5.5s4.8 2.4 4.8 5.5c0 3.3-1.9 5.5-4.8 5.5-2.6-.1-4.8-1.9-4.8-5.5zm4.8-4.4c-2.5 0-3.5 2.1-3.5 4.4 0 2.6 1.2 4.4 3.5 4.4 2.5 0 3.5-2.2 3.5-4.4 0-2.5-.9-4.4-3.5-4.4zm7.7 6.3c.4 1.8 1.3 2.4 3.1 2.4 1.7 0 2.6-.9 2.6-1.9 0-3-6.6-.9-6.6-5 0-1.7 1.3-3 3.6-3 2.2 0 3.7.9 4 3.3h-1.2c-.2-1.6-1.3-2.2-2.8-2.2s-2.3.7-2.3 1.8c0 2.8 6.6 1.1 6.6 5 0 2-1.8 3-4.2 3s-3.8-1.6-3.9-3.5h1.1zm-87.4 30.1c.3.1.7.1 1 .1 1.4 0 1.6-2 2-2.9l-4-10.4h1.3l3.3 8.9 3.3-8.9h1.3l-3.9 10.2c-1 2.6-1.6 4.2-3.3 4.2-.4 0-.8-.1-1.1-.1v-1.1zm16.3-7.2c.2 2.6 1.9 3.5 4.1 3.5 2.6 0 3.7-1.4 3.7-3 0-4.5-8.8-1.5-8.8-7.2 0-2 1.7-3.9 4.9-3.9s4.9 2 4.8 4.3h-1.3c0-2.2-1.7-3.1-3.5-3.1-2.8 0-3.8 1.7-3.5 3.2.6 3.7 8.8 1 8.8 6.6 0 2.6-1.9 4.2-5.3 4.2-3 0-5.2-1.6-5.2-4.7h1.3zm10.7-7.1 2.2-2.8h1.5l-2.7 2.8zm.9 11.4v-10.4h1.2v10.4zm5.4 0h-1.2v-10.4h1.2v1.6c.6-1.2 1.9-1.8 3.2-1.8 1.9 0 2.6.9 3 2 .7-1.3 1.9-2 3.4-2 2.8 0 3.2 2 3.2 4.1v6.5h-1.2v-7.2c0-1.5-.5-2.4-2.2-2.4-.9 0-1.7.4-2.3 1.2-.5.7-.7 1.9-.7 2.8v5.6h-1.2v-7.2c0-1.5-.5-2.4-2.2-2.4-.9 0-1.7.4-2.3 1.2-.5.7-.7 1.9-.7 2.8zm16.9 0h-1.2v-14.4h1.2v5.7c.8-1.3 2.2-1.9 3.7-1.9 3.2 0 4.6 2.6 4.6 5.5 0 3.1-1.3 5.4-4.7 5.4-1.3 0-2.9-.7-3.6-2.1zm3.6-.8c2 0 3.5-1.5 3.5-4.1.1-2.6-1.1-4.7-3.5-4.7-2.2 0-3.5 2-3.5 4.3-.1 2.6 1.2 4.5 3.5 4.5zm6.6-4.3c0-3 1.6-5.5 4.8-5.5s4.8 2.4 4.8 5.5c0 3.3-1.9 5.5-4.8 5.5-2.6-.1-4.8-1.9-4.8-5.5zm4.8-4.4c-2.5 0-3.5 2.1-3.5 4.4 0 2.6 1.2 4.4 3.5 4.4 2.5 0 3.5-2.2 3.5-4.4.1-2.5-.9-4.4-3.5-4.4zm7.2 9.5v-14.4h1.2v14.4zm3.6-5.1c0-3 1.6-5.5 4.8-5.5s4.8 2.4 4.8 5.5c0 3.3-1.9 5.5-4.8 5.5-2.6-.1-4.8-1.9-4.8-5.5zm4.8-4.4c-2.5 0-3.5 2.1-3.5 4.4 0 2.6 1.2 4.4 3.5 4.4 2.5 0 3.5-2.2 3.5-4.4 0-2.5-.9-4.4-3.5-4.4zm7.7 6.3c.4 1.8 1.3 2.4 3.1 2.4 1.7 0 2.6-.9 2.6-1.9 0-3-6.6-.9-6.6-5 0-1.7 1.3-3 3.6-3 2.2 0 3.7.9 4 3.3h-1.2c-.2-1.6-1.3-2.2-2.8-2.2s-2.3.7-2.3 1.8c0 2.8 6.6 1.1 6.6 5 0 2-1.8 3-4.2 3s-3.8-1.6-3.9-3.5h1.1zm87.7-138.8h-12.6v5h11.6v4.2h-11.6v6.2h13.2v4.2h-18v-23.7h17.5zm14.2 7.3c-.2-1.1-.6-2.3-3.1-2.3s-2.8 1-2.8 1.7c0 2.8 11 .8 11 7.2 0 5.1-5 6.1-7.7 6.1-4 0-8.3-1.4-8.5-6.1h4.8c0 1.5.9 2.6 3.8 2.6 2.4 0 2.9-1.2 2.9-1.8 0-2.9-10.9-.7-10.9-7.3 0-2.6 1.6-5.9 7.1-5.9 3.4 0 7.5.9 7.9 5.8zm23.6 5.8c-.2 1.8-1.6 6.9-8 6.9-6.6 0-8.1-5.1-8.1-8.8 0-5.7 2.5-9.8 8.4-9.8 2.8 0 7.3 1.3 7.8 6.7h-4.7c-.2-1.1-.9-2.8-2.8-2.8h-.2c-2.9 0-3.7 2.9-3.7 5.1 0 1.9.1 5.7 3.6 5.7 2.3 0 3.1-2.2 3.1-3.1zm3.2-11.2h4.4v3h.1c1-1.8 2-3.5 4.8-3.5.3 0 .6 0 .9.1v4.7c-.4-.1-.9-.1-1.3-.1-3.6 0-4.3 2.2-4.3 4.2v9.2h-4.6zm17.1-2h-4.6v-4.3h4.6zm0 2v17.6h-4.6v-17.6zm9 2.3c.8-1.1 2.2-2.7 5.2-2.7 3.9 0 7.3 3 7.3 9.1 0 4.8-2.2 9.5-7.4 9.5-1.9 0-4-.7-5.1-2.7h-.1v2.2h-4.6v-23.7h4.6zm3.7 1.3c-3.2 0-4 2.8-4 5.7 0 2.6 1.2 5.1 4.1 5.1 3 0 3.8-3.2 3.8-5.3.1-2.9-.9-5.5-3.9-5.5zm16.7-5.6h-4.6v-4.3h4.6zm0 2v17.6h-4.6v-17.6zm4.4 0h4.4v3h.1c1-1.8 2-3.5 4.8-3.5.3 0 .6 0 .9.1v4.7c-.4-.1-.9-.1-1.3-.1-3.6 0-4.3 2.2-4.3 4.2v9.2h-4.6zm-96.7 46.4v-17.3h1.6v17.3zm7.1 0h-1.4v-12.4h1.4v1.9c.7-1.4 2.2-2.2 3.8-2.2 2.3 0 3.1 1.1 3.6 2.4.8-1.6 2.3-2.4 4.1-2.4 3.4 0 3.9 2.4 3.9 4.9v7.8h-1.4v-8.6c0-1.8-.6-2.9-2.7-2.9-1.1 0-2.1.5-2.8 1.4-.6.8-.8 2.3-.8 3.4v6.7h-1.4v-8.6c0-1.8-.6-2.9-2.7-2.9-1.1 0-2.1.5-2.8 1.4-.6.8-.8 2.3-.8 3.4zm18.9-15.1v-2.1h1.6v2.1zm.1 15.1v-12.4h1.4v12.4zm9.5.1c-.3.1-1 .3-1.7.3-1.4 0-2.2-.6-2.2-2.5v-9.1h-1.8v-1.2h1.8v-3.5h1.4v3.5h2.3v1.2h-2.3v8.5c0 1.2 0 1.8 1.2 1.8.4 0 .8-.1 1.2-.2v1.2zm8-7.3c.5 0 1.4-.2 1.9-.4s.5-.9.5-1.3c0-1.5-.9-2.5-3.1-2.5-2 0-3.4.6-3.6 2.8h-1.5c.2-2.9 2.4-4.1 5.1-4.1 2.5 0 4.5 1 4.5 3.9v6.8c0 1.1.3 1.4 1.5 1v1.1c-.2.1-.7.2-1.1.2-.2 0-.4 0-.6-.1-1-.1-1.1-1-1.2-1.8a6.22 6.22 0 0 1 -4.6 2.1c-2.2 0-4.2-1.2-4.2-3.6 0-2.1 1.4-3.4 4.3-3.7zm2.4.7c-1.2.5-2.5.6-3.7.7-2.2.2-3.5 1-3.5 2.6 0 1.5 1.3 2.2 2.7 2.2 2.3 0 4.5-1.1 4.5-3.6zm14-2c-.5-1.8-1.8-3-3.7-3-3 0-4.2 2.7-4.2 5.3s1.2 5.2 4.2 5.2c2.1 0 3.5-1.3 3.8-3.3h1.5c-.5 2.8-2.2 4.6-5.4 4.6-4 0-5.7-2.9-5.7-6.5 0-3.5 2-6.6 5.7-6.6 2.9 0 4.7 1.4 5.2 4.2zm4.7-6.6v-2.1h1.6v2.1zm.1 15.1v-12.4h1.4v12.4zm4.3-6.2c0-3.6 1.9-6.6 5.8-6.6s5.8 2.9 5.8 6.6c0 3.9-2.3 6.6-5.8 6.6-3.2-.1-5.8-2.2-5.8-6.6zm5.7-5.2c-3 0-4.2 2.6-4.2 5.3 0 3.1 1.5 5.3 4.2 5.3 3 0 4.2-2.6 4.2-5.3 0-3-1.1-5.3-4.2-5.3zm-1.3-2.4 2.7-3.3h1.8l-3.3 3.3zm11.2 13.8h-1.5v-12.4h1.4v1.7c1.2-1.2 2.3-2.1 4-2.1 1.5 0 2.9.5 3.8 1.8.6.9.6 1.8.6 2.9v8.1h-1.4v-8.1c0-2.2-.9-3.4-3.2-3.4-1.8 0-3 1.2-3.5 2.4-.3.8-.3 1.5-.3 2.4zm68.8-117.5h9.9v12.8h-3.3l-.5-3c-1.3 1.5-3.1 3.6-7.4 3.6-5.7 0-10.9-4.1-10.9-12.4 0-6.4 3.6-12.6 11.5-12.6h.1c7.3 0 10.2 4.7 10.4 8h-5c0-.9-1.7-3.9-5.2-3.9s-6.8 2.4-6.8 8.5c0 6.5 3.5 8.2 6.9 8.2 1.1 0 4.7-.4 5.8-5.2h-5.5zm14.1-4.8h4.4v3h.1c1-1.8 2-3.5 4.8-3.5.3 0 .6 0 .9.1v4.7c-.4-.1-.9-.1-1.3-.1-3.6 0-4.3 2.2-4.3 4.2v9.2h-4.5zm26.5 14.1c0 2.1.5 2.5 1 2.7v.7h-5c-.3-.8-.3-1.1-.4-2.1-1.1 1.1-2.5 2.5-5.7 2.5-2.6 0-5.4-1.5-5.4-5.1 0-3.4 2.2-5.2 5.1-5.6l4.2-.6c.7-.1 1.6-.4 1.6-1.4 0-2-1.9-2.1-3-2.1-2.3 0-2.7 1.4-2.8 2.4h-4.5c.5-5.4 4.3-6.1 7.9-6.1 2.5 0 7 .8 7 5.1zm-4.5-5.1c-.5.4-1.2.7-3.1 1-1.7.3-3.1.7-3.1 2.6 0 1.6 1.3 2.1 2.1 2.1 2.1 0 4.1-1.3 4.1-3.5zm33.9 8.6h-4.6v-10.7c0-2.6-1.2-3.5-2.5-3.5-2.3 0-3.1 1.5-3.1 3.6v10.5h-4.6v-10.6c0-1.5 0-3.6-2.8-3.6-2.2 0-2.9 1.5-2.9 3.4v10.7h-4.6v-17.6h4.4v2.6h.1c.6-1.2 1.9-3 5-3 2.5 0 3.7.9 4.9 2.8.6-.9 1.9-2.8 4.7-2.8 3.4 0 6.1 2 6.1 5.9v12.3zm18.4-3.5c0 2.1.5 2.5 1 2.7v.7h-5c-.3-.8-.3-1.1-.4-2.1-1.1 1.1-2.5 2.5-5.7 2.5-2.6 0-5.4-1.5-5.4-5.1 0-3.4 2.2-5.2 5.1-5.6l4.2-.6c.7-.1 1.6-.4 1.6-1.4 0-2-1.9-2.1-3-2.1-2.3 0-2.7 1.4-2.8 2.4h-4.5c.5-5.4 4.3-6.1 7.9-6.1 2.5 0 7 .8 7 5.1zm-4.4-5.1c-.5.4-1.2.7-3.1 1-1.7.3-3.1.7-3.1 2.6 0 1.6 1.3 2.1 2.1 2.1 2 0 4.1-1.3 4.1-3.5zm-1.4-11.4h-3.3l3.1-4.8h5.1zm15.1 2.4h2.9v3.3h-2.9v9.6c0 1 0 1.4 1.9 1.4.3 0 .6 0 1-.1v3.5c-.7 0-1.5.1-2.2.1h-.6c-4 0-4.7-1.5-4.7-3.8v-10.7h-2.4v-3.3h2.4v-4.8h4.6zm10.6-2.1h-4.6v-4.3h4.6zm0 2.1v17.6h-4.6v-17.6zm19.7 11.2c-.2 1.8-1.6 6.9-8 6.9-6.6 0-8.1-5.1-8.1-8.8 0-5.7 2.5-9.8 8.4-9.8 2.8 0 7.3 1.3 7.8 6.7h-4.7c-.2-1.1-.9-2.8-2.8-2.8h-.2c-2.9 0-3.7 2.9-3.7 5.1 0 1.9.1 5.7 3.6 5.7 2.3 0 3.1-2.2 3.1-3.1zm17.4 2.9c0 2.1.5 2.5 1 2.7v.7h-5c-.3-.8-.3-1.1-.4-2.1-1.1 1.1-2.5 2.5-5.7 2.5-2.6 0-5.4-1.5-5.4-5.1 0-3.4 2.2-5.2 5.1-5.6l4.2-.6c.7-.1 1.6-.4 1.6-1.4 0-2-1.9-2.1-3-2.1-2.3 0-2.7 1.4-2.8 2.4h-4.5c.5-5.4 4.3-6.1 7.9-6.1 2.5 0 7 .8 7 5.1zm-4.4-5.1c-.5.4-1.2.7-3.1 1-1.7.3-3.1.7-3.1 2.6 0 1.6 1.3 2.1 2.1 2.1 2.1 0 4.1-1.3 4.1-3.5zm-114.9 37.4v-17.3h11.5v1.4h-9.9v6.2h8.9v1.4h-8.9v6.9h10.1v1.4zm15.3-3.9c.5 2.1 1.6 2.9 3.7 2.9s3.1-1.1 3.1-2.3c0-3.6-8-1.1-8-6 0-2.1 1.6-3.6 4.4-3.6 2.7 0 4.4 1.1 4.8 3.9h-1.5c-.3-1.9-1.6-2.6-3.4-2.6s-2.8.9-2.8 2.1c0 3.4 8 1.3 8 6 0 2.4-2.1 3.6-5.1 3.6-2.9 0-4.6-1.9-4.7-4.2h1.5zm20-4.6c-.5-1.8-1.8-3-3.7-3-3 0-4.2 2.7-4.2 5.3s1.2 5.2 4.2 5.2c2.1 0 3.5-1.3 3.8-3.3h1.5c-.5 2.8-2.2 4.6-5.4 4.6-4 0-5.7-2.9-5.7-6.5 0-3.5 2-6.6 5.7-6.6 2.9 0 4.7 1.4 5.2 4.2zm12.9-4h1.4v12.4h-1.4v-1.7c-.8.9-1.8 2.1-4 2.1-3.3 0-4.4-2-4.4-4.6v-8.2h1.4v8.2c0 2.1.9 3.3 3.2 3.3 2.4 0 3.8-2 3.8-4.7zm5.8 6.6c0 2.7 1.4 4.9 4.2 4.9 1.9 0 3.3-1 3.8-2.9h1.6c-.7 2.4-2.2 4.2-5.4 4.2-4 0-5.7-2.8-5.7-6.5 0-3.6 2.2-6.6 5.7-6.6 3.4 0 5.5 2.4 5.5 6.9zm8.1-1.2c0-2.4-1.3-4.4-3.9-4.4-2.5 0-3.9 2-4.2 4.4zm4.6 7.1v-17.3h1.4v17.3zm10.8-7.3c.5 0 1.4-.2 1.9-.4s.5-.9.5-1.3c0-1.5-.9-2.5-3.1-2.5-2 0-3.4.6-3.6 2.8h-1.5c.2-2.9 2.4-4.1 5.1-4.1 2.5 0 4.5 1 4.5 3.9v6.8c0 1.1.3 1.4 1.5 1v1.1c-.2.1-.7.2-1.1.2-.2 0-.4 0-.6-.1-1-.1-1.1-1-1.2-1.8a6.22 6.22 0 0 1 -4.6 2.1c-2.2 0-4.2-1.2-4.2-3.6 0-2.1 1.4-3.4 4.3-3.7zm2.4.7c-1.2.5-2.5.6-3.7.7-2.2.2-3.5 1-3.5 2.6 0 1.5 1.3 2.2 2.7 2.2 2.3 0 4.5-1.1 4.5-3.6z" fill="#333"/><path d="m165.2 119.8c.1 5.3 2.8 15.4 20.2 15.4 9.4 0 19.9-2.3 19.9-12.4 0-7.4-7.2-9.4-17.3-11.8l-10.2-2.4c-15.4-3.6-30.3-7-30.3-28 0-10.6 5.7-29.4 36.7-29.4 29.2 0 37.1 19.1 37.2 30.8h-19.1c-.5-4.3-2.1-14.4-19.5-14.4-7.6 0-16.6 2.8-16.6 11.4 0 7.4 6.1 9 10.1 10l23.3 5.7c13 3.2 25 8.5 25 25.6 0 28.7-29.2 31.2-37.6 31.2-34.8 0-40.8-20.1-40.8-31.9h19zm132.6-66.1h18.6v95.4h-19.9l-38.9-68h-.3v68h-18.6v-95.4h21l37.9 66.4h.3v-66.4zm51.3 95.5h-21l34-95.4h23l33.6 95.4h-21.7l-6.1-19.7h-35.2zm12-36.2h24.3l-11.8-37.7h-.3zm97.9-33.4c.5 5.5 4.2 7.5 8.9 7.5 5.5 0 7.8-3 7.8-6.4 0-9.5-18.8-3.2-18.8-15.3 0-4.3 3.6-8.3 10.4-8.3 6.9 0 10.4 4.2 10.4 9.2h-2.8c0-4.7-3.6-6.7-7.6-6.7-5.9 0-8 3.6-7.5 6.8 1.3 8 18.8 2.2 18.8 14.2 0 5.7-4.2 9-11.3 9-6.4 0-11.2-3.3-11.2-10zm24.8-17.8v-3.8h2.8v3.8zm.1 27v-22.2h2.6v22.2zm10.6-6.9c.8 3.8 2.8 5.2 6.6 5.2 3.7 0 5.5-2 5.5-4.1 0-6.4-14.2-1.9-14.2-10.6 0-3.7 2.9-6.3 7.8-6.3 4.8 0 7.9 2 8.6 7h-2.6c-.5-3.4-2.8-4.7-6-4.7-3.3 0-5 1.5-5 3.8 0 6 14.2 2.3 14.2 10.8 0 4.2-3.8 6.5-9 6.5s-8.2-3.3-8.4-7.5h2.5zm27.8 7c-.6.1-1.7.5-3 .5-2.5 0-3.9-1.1-3.9-4.4v-16.2h-3.1v-2.1h3.1v-6.2h2.6v6.2h4.2v2.1h-4.2v15.2c0 2.2.1 3.1 2.2 3.1.7 0 1.4-.1 2.1-.3zm5.6-10.6c0 4.8 2.5 8.8 7.5 8.8 3.3 0 6-1.8 6.7-5.1h2.9c-1.3 4.2-3.9 7.4-9.6 7.4-7.1 0-10.2-5.1-10.2-11.6s3.9-11.8 10.2-11.8c6.1 0 9.8 4.3 9.8 12.3zm14.5-2.1c0-4.3-2.4-7.8-7-7.8-4.5 0-6.9 3.6-7.5 7.8zm10 12.6h-2.6v-22.2h2.6v3.4h.1c1.3-2.5 4-3.9 6.9-3.9 4.1 0 5.6 1.9 6.5 4.3a7.7 7.7 0 0 1 7.2-4.3c6 0 6.9 4.3 6.9 8.8v14h-2.6v-15.4c0-3.2-1.1-5.1-4.8-5.1-1.9 0-3.7.8-5 2.5-1.1 1.5-1.5 4.2-1.5 6v11.9h-2.6v-15.3c0-3.2-1.1-5.1-4.8-5.1-1.9 0-3.7.8-5 2.5-1.1 1.5-1.5 4.2-1.5 6v11.9zm43.6-12.9c.9-.1 2.5-.3 3.4-.7s.9-1.5.9-2.3c0-2.6-1.5-4.5-5.5-4.5-3.6 0-6 1.2-6.5 5h-2.6c.4-5.2 4.3-7.3 9.1-7.3 4.5 0 8 1.8 8 6.9v12c0 2 .5 2.5 2.7 1.7v2c-.4.1-1.3.4-2 .4-.4 0-.8 0-1.2-.1-1.7-.3-2-1.8-2.1-3.3-2.1 2.4-5.1 3.7-8.3 3.7-3.9 0-7.4-2.1-7.4-6.4 0-3.7 2.6-6 7.8-6.7zm4.3 1.3c-2.2.9-4.4 1.1-6.6 1.2-3.9.3-6.3 1.7-6.3 4.7 0 2.7 2.4 4 4.8 4 4.1 0 8.1-2 8.1-6.5zm24.5-15.3-.1 26.9h-2.9v-30.8h3.3l17.8 26.9h.1v-26.9h2.9v30.8h-3.4zm37.8 14c.9-.1 2.5-.3 3.4-.7s.9-1.5.9-2.3c0-2.6-1.5-4.5-5.5-4.5-3.6 0-6 1.2-6.5 5h-2.5c.4-5.2 4.3-7.3 9.1-7.3 4.5 0 8 1.8 8 6.9v12c0 2 .5 2.5 2.7 1.7v2c-.4.1-1.3.4-2 .4-.4 0-.8 0-1.2-.1-1.7-.3-2-1.8-2.1-3.3-2.1 2.4-5.1 3.7-8.3 3.7-3.9 0-7.4-2.1-7.4-6.4 0-3.7 2.6-6 7.8-6.7zm4.4 1.3c-2.2.9-4.4 1.1-6.6 1.2-3.9.3-6.3 1.7-6.3 4.7 0 2.7 2.4 4 4.8 4 4.1 0 8.1-2 8.1-6.5zm17.1 11.7c-.6.1-1.7.5-3 .5-2.5 0-3.9-1.1-3.9-4.4v-16.2h-3.1v-2.1h3.1v-6.2h2.6v6.2h4.2v2.1h-4.2v15.2c0 2.2.1 3.1 2.2 3.1.7 0 1.4-.1 2.1-.3zm19.1-22.3h2.6v22.2h-2.6v-3.1c-1.4 1.5-3.3 3.7-7.2 3.7-5.9 0-7.9-3.6-7.9-8.2v-14.6h2.6v14.6c0 3.8 1.7 5.9 5.7 5.9 4.2 0 6.8-3.5 6.8-8.4zm11.5 22.2h-2.6v-22.2h2.6v4.2h.1c1.4-3.6 3.5-4.8 7.2-4.8v2.8c-5.8-.1-7.3 4.2-7.3 9.1zm21.7-12.9c.9-.1 2.5-.3 3.4-.7s.9-1.5.9-2.3c0-2.6-1.5-4.5-5.5-4.5-3.6 0-6 1.2-6.5 5h-2.6c.4-5.2 4.3-7.3 9.1-7.3 4.5 0 8 1.8 8 6.9v12c0 2 .5 2.5 2.7 1.7v2c-.4.1-1.3.4-2 .4-.4 0-.8 0-1.2-.1-1.7-.3-2-1.8-2.1-3.3-2.1 2.4-5.1 3.7-8.3 3.7-3.9 0-7.4-2.1-7.4-6.4 0-3.7 2.6-6 7.8-6.7zm4.3 1.3c-2.2.9-4.4 1.1-6.6 1.2-3.9.3-6.3 1.7-6.3 4.7 0 2.7 2.4 4 4.8 4 4.1 0 8.1-2 8.1-6.5zm9.7 11.6v-30.8h2.6v30.8zm-275.9 20.6h2.6v30.8h-2.6v-3.9h-.1c-1.5 2.9-4.9 4.5-7.7 4.5-7.2 0-10-5.1-10-11.6 0-6.2 3.1-11.7 9.9-11.7 3.1 0 6.3 1.5 7.9 4.2zm-7.5 10.3c-5.3 0-7.8 4.5-7.6 10.1 0 5.6 3.3 8.7 7.6 8.7 4.8 0 7.5-4.1 7.5-9.5 0-5-2.8-9.3-7.5-9.3zm18.1 10c0 4.8 2.5 8.8 7.5 8.8 3.3 0 6-1.8 6.7-5.1h2.9c-1.3 4.2-3.9 7.4-9.6 7.4-7.1 0-10.2-5.1-10.2-11.6s3.9-11.8 10.2-11.8c6.1 0 9.8 4.3 9.8 12.3zm14.5-2.1c0-4.3-2.4-7.8-7-7.8-4.5 0-6.9 3.6-7.5 7.8zm17.2 12.6 12.1-30.8h3.3l11.8 30.8h-3l-3.6-9.7h-14l-3.6 9.7zm7.6-12.2h12.1l-6-16.2zm26.3 20.9h-2.6v-30.9h2.6v3.9h.1c1.5-2.9 4.9-4.5 7.7-4.5 7.2 0 10 5.1 10 11.6 0 6.2-3.1 11.7-9.9 11.7-3.1 0-6.3-1.5-7.9-4.2zm7.5-10.4c5.3 0 7.8-4.5 7.6-10.1 0-5.6-3.3-8.7-7.6-8.7-4.8 0-7.5 4.1-7.5 9.5 0 5 2.8 9.3 7.5 9.3zm18.5 1.7h-2.6v-22.2h2.6v4.2h.1c1.4-3.6 3.5-4.8 7.2-4.8v2.8c-5.8-.1-7.3 4.2-7.3 9.1zm12.3-10.5c0 4.8 2.5 8.8 7.5 8.8 3.3 0 6-1.8 6.7-5.1h2.9c-1.3 4.2-3.9 7.4-9.6 7.4-7.1 0-10.2-5.1-10.2-11.6s3.9-11.8 10.2-11.8c6.1 0 9.8 4.3 9.8 12.3zm14.5-2.1c0-4.3-2.4-7.8-7-7.8-4.5 0-6.9 3.6-7.5 7.8zm10.3 12.6h-2.6v-22.2h2.6v3.1c2.1-2.2 4.1-3.7 7.2-3.7 2.7 0 5.2.9 6.8 3.2 1.1 1.6 1.1 3.3 1.1 5.1v14.5h-2.6v-14.5c0-4-1.6-6-5.7-6-3.2 0-5.4 2.1-6.2 4.3-.5 1.4-.6 2.7-.6 4.2zm38.4-30.8h2.6v30.8h-2.6v-3.9h-.1c-1.5 2.9-4.9 4.5-7.7 4.5-7.2 0-10-5.1-10-11.6 0-6.2 3.1-11.7 9.9-11.7 3.1 0 6.3 1.5 7.9 4.2zm-7.5 10.3c-5.3 0-7.8 4.5-7.6 10.1 0 5.6 3.3 8.7 7.6 8.7 4.8 0 7.5-4.1 7.5-9.5 0-5-2.8-9.3-7.5-9.3zm16.8-6.5v-3.8h2.8v3.8zm.1 27v-22.2h2.6v22.2zm7.5 0v-2.3l14.7-17.8h-13.7v-2.1h17v2.3l-14.7 17.8h15.3v2.1zm33.2-12.9c.9-.1 2.5-.3 3.4-.7s.9-1.5.9-2.3c0-2.6-1.5-4.5-5.5-4.5-3.6 0-6 1.2-6.5 5h-2.6c.4-5.2 4.3-7.3 9.1-7.3 4.5 0 8 1.8 8 6.9v12.1c0 2 .5 2.5 2.7 1.7v2c-.4.1-1.3.4-2 .4-.4 0-.8 0-1.2-.1-1.7-.3-2-1.8-2.1-3.3-2.1 2.4-5.1 3.7-8.3 3.7-3.9 0-7.4-2.1-7.4-6.4 0-3.7 2.6-6 7.8-6.7zm4.4 1.3c-2.2.9-4.4 1.1-6.6 1.2-3.9.3-6.3 1.7-6.3 4.7 0 2.7 2.4 4 4.8 4 4.1 0 8.1-2 8.1-6.5zm12.5-10.6v25.1c0 3.8-.3 5.8-4.5 5.8-.6 0-1.1 0-1.7-.2v-2.3c3 .4 3.6-.7 3.6-3v-25.4zm.1-4.8h-2.8v-3.8h2.8zm7.7 16.5c0 4.8 2.5 8.8 7.5 8.8 3.3 0 6-1.8 6.7-5.1h2.9c-1.3 4.2-3.9 7.4-9.6 7.4-7.1 0-10.2-5.1-10.2-11.6s3.9-11.8 10.2-11.8c6.1 0 9.8 4.3 9.8 12.3zm14.5-2.1c0-4.3-2.4-7.8-7-7.8-4.5 0-6.9 3.6-7.5 7.8z" fill="#a8a8a8"/><path d="m218.7 674.2v11.5h-5.4v-25.7h5.4v9.7h10v-9.7h5.4v25.7h-5.4v-11.5zm35.7 7.8c0 2.3.5 2.8 1.1 3v.8h-5.4c-.3-.9-.4-1.2-.5-2.3a7.66 7.66 0 0 1 -6.1 2.8c-2.9 0-5.8-1.6-5.8-5.5 0-3.7 2.4-5.6 5.5-6.1l4.5-.7c.8-.1 1.8-.4 1.8-1.5 0-2.1-2-2.2-3.3-2.2-2.5 0-2.9 1.5-3.1 2.6h-4.8c.6-5.8 4.6-6.6 8.5-6.6 2.7 0 7.6.8 7.6 5.5zm-4.9-5.6c-.5.4-1.3.7-3.4 1-1.9.3-3.4.8-3.4 2.9 0 1.8 1.4 2.3 2.3 2.3 2.2 0 4.5-1.4 4.5-3.8zm14.2-7.3c.9-1.2 2.4-3 5.6-3 4.2 0 7.9 3.2 7.9 9.8 0 5.2-2.4 10.2-8 10.2-2.1 0-4.3-.8-5.5-2.9h-.1v2.4h-4.9v-25.6h5zm4.1 1.4c-3.4 0-4.3 3.1-4.3 6.1 0 2.8 1.3 5.5 4.4 5.5 3.2 0 4.1-3.5 4.1-5.8 0-3-1.1-5.8-4.2-5.8zm17.6 15.2h-5v-25.7h5zm20.2-3.7c0 2.3.5 2.8 1.1 3v.8h-5.4c-.3-.9-.4-1.2-.5-2.3a7.66 7.66 0 0 1 -6.1 2.8c-2.9 0-5.8-1.6-5.8-5.5 0-3.7 2.4-5.6 5.5-6.1l4.5-.7c.8-.1 1.8-.4 1.8-1.5 0-2.1-2-2.2-3.3-2.2-2.5 0-2.9 1.5-3.1 2.6h-4.8c.6-5.8 4.6-6.6 8.5-6.6 2.7 0 7.6.8 7.6 5.5zm-4.9-5.6c-.5.4-1.3.7-3.4 1-1.9.3-3.4.8-3.4 2.9 0 1.8 1.4 2.3 2.3 2.3 2.2 0 4.5-1.4 4.5-3.8zm9.4-9.7h4.8v3.3h.1c1-1.9 2.2-3.8 5.2-3.8.3 0 .6 0 1 .1v5.1c-.4-.1-1-.1-1.4-.1-3.9 0-4.6 2.4-4.6 4.5v9.9h-5v-19zm-82.9 39.5v-14.6h1.4v14.6zm6 0h-1.2v-10.5h1.2v1.6c.6-1.2 1.9-1.9 3.3-1.9 2 0 2.6.9 3.1 2 .7-1.4 1.9-2 3.4-2 2.9 0 3.3 2.1 3.3 4.2v6.6h-1.2v-7.3c0-1.5-.5-2.4-2.3-2.4-.9 0-1.8.4-2.4 1.2-.5.7-.7 2-.7 2.8v5.7h-1.2v-7.3c0-1.5-.5-2.4-2.3-2.4-.9 0-1.8.4-2.4 1.2-.5.7-.7 2-.7 2.8v5.7zm16-12.9v-1.8h1.3v1.8zm.1 12.9v-10.5h1.2v10.5zm8 0c-.3.1-.8.2-1.4.2-1.2 0-1.9-.5-1.9-2.1v-7.7h-1.5v-1h1.5v-2.9h1.2v2.9h2v1h-2v7.2c0 1 0 1.5 1.1 1.5.3 0 .7-.1 1-.1zm6.8-6.2c.4 0 1.2-.2 1.6-.3.4-.2.4-.7.4-1.1 0-1.2-.7-2.1-2.6-2.1-1.7 0-2.8.5-3.1 2.4h-1.2c.2-2.5 2-3.5 4.3-3.5 2.1 0 3.8.8 3.8 3.3v5.7c0 1 .2 1.2 1.3.8v1c-.2.1-.6.2-1 .2-.2 0-.4 0-.5-.1-.8-.1-1-.8-1-1.6-1 1.1-2.4 1.7-3.9 1.7-1.8 0-3.5-1-3.5-3 0-1.8 1.2-2.8 3.7-3.2zm2 .6c-1 .4-2.1.5-3.2.6-1.8.1-3 .8-3 2.2 0 1.3 1.1 1.9 2.3 1.9 1.9 0 3.8-.9 3.8-3.1v-1.6zm11.9-1.7c-.4-1.6-1.5-2.5-3.1-2.5-2.5 0-3.5 2.3-3.5 4.5s1 4.4 3.5 4.4c1.8 0 2.9-1.1 3.2-2.8h1.3c-.4 2.3-1.9 3.9-4.5 3.9-3.4 0-4.8-2.4-4.8-5.5 0-2.9 1.7-5.6 4.8-5.6 2.4 0 4 1.2 4.4 3.6zm4-5.6v-1.8h1.3v1.8zm0 12.9v-10.5h1.2v10.5zm3.7-5.3c0-3.1 1.6-5.5 4.9-5.5s4.9 2.5 4.9 5.5c0 3.3-1.9 5.5-4.9 5.5-2.7 0-4.9-1.8-4.9-5.5zm4.9-4.5c-2.6 0-3.6 2.2-3.6 4.5 0 2.6 1.2 4.5 3.6 4.5 2.6 0 3.6-2.2 3.6-4.5-.1-2.5-1.1-4.5-3.6-4.5zm-1.2-1.9 2.3-2.8h1.6l-2.8 2.8zm9.5 11.7h-1.2v-10.5h1.2v1.5c1-1 1.9-1.7 3.4-1.7 1.3 0 2.5.4 3.2 1.5.5.8.5 1.5.5 2.4v6.9h-1.2v-6.9c0-1.9-.8-2.8-2.7-2.8-1.5 0-2.5 1-2.9 2.1-.2.7-.3 1.3-.3 2z" fill="#333"/></svg>