<?xml version="1.0" encoding="utf-8"?>
<!-- Generator: Adobe Illustrator 24.1.3, SVG Export Plug-In . SVG Version: 6.00 Build 0)  -->
<svg version="1.1" id="Layer_1" xmlns="http://www.w3.org/2000/svg" xmlns:xlink="http://www.w3.org/1999/xlink" x="0px" y="0px"
	 viewBox="0 0 800 73" style="enable-background:new 0 0 800 73;" xml:space="preserve">
<style type="text/css">
	.st0{fill-rule:evenodd;clip-rule:evenodd;fill:#191919;}
	.st1{fill:#191919;}
	.st2{fill:#90E601;}
</style>
<g>
	<path class="st0" d="M591.69,6.48h-0.78v1.19h0.76c0.2,0,0.37-0.02,0.51-0.05c0.14-0.04,0.24-0.1,0.32-0.19
		c0.08-0.09,0.11-0.21,0.11-0.36c0-0.12-0.03-0.23-0.09-0.32c-0.06-0.09-0.14-0.16-0.24-0.2C592.18,6.51,591.98,6.48,591.69,6.48
		 M591.21,8.3h-0.3v1.39c0,0.18-0.04,0.32-0.11,0.41c-0.08,0.09-0.18,0.13-0.31,0.13c-0.13,0-0.24-0.04-0.31-0.14
		c-0.07-0.09-0.11-0.22-0.11-0.4V6.37c0-0.19,0.04-0.33,0.12-0.41c0.08-0.08,0.21-0.13,0.4-0.13h1.37c0.19,0,0.35,0.01,0.48,0.02
		c0.14,0.02,0.26,0.05,0.37,0.1c0.13,0.06,0.24,0.14,0.35,0.24c0.1,0.11,0.18,0.23,0.23,0.37c0.05,0.14,0.08,0.29,0.08,0.45
		c0,0.32-0.09,0.58-0.26,0.77c-0.18,0.19-0.45,0.33-0.8,0.41c0.16,0.08,0.3,0.2,0.43,0.37c0.14,0.16,0.26,0.33,0.36,0.51
		c0.1,0.18,0.19,0.34,0.25,0.49c0.06,0.15,0.09,0.25,0.09,0.3c0,0.06-0.01,0.11-0.05,0.17c-0.04,0.06-0.08,0.1-0.15,0.13
		c-0.06,0.03-0.13,0.05-0.21,0.05c-0.09,0-0.17-0.02-0.24-0.07c-0.06-0.05-0.12-0.11-0.16-0.18c-0.05-0.07-0.11-0.17-0.19-0.31
		l-0.34-0.59c-0.12-0.21-0.23-0.38-0.33-0.49c-0.09-0.11-0.19-0.19-0.29-0.23C591.48,8.32,591.36,8.3,591.21,8.3"/>
	<path class="st1" d="M591.8,13.14c-2.82,0-5.12-2.3-5.12-5.11c0-2.82,2.3-5.12,5.12-5.12c2.82,0,5.12,2.3,5.12,5.12
		C596.92,10.85,594.63,13.14,591.8,13.14 M591.8,4.59c-1.89,0-3.44,1.54-3.44,3.44c0,1.89,1.54,3.44,3.44,3.44
		c1.9,0,3.44-1.54,3.44-3.44C595.24,6.13,593.7,4.59,591.8,4.59"/>
	<path class="st1" d="M242.46,18.74c-3.27-0.81-6.81-1.24-10.5-1.24c-6.41,0-12.36,1.33-17.27,3.6
		c-7.98,3.68-13.21,9.85-13.21,16.83c0,1.39,0.21,2.75,0.6,4.06c0.02,0.06,0.04,0.12,0.06,0.18c0.04,0.11,0.08,0.22,0.11,0.33
		c2.87,8.38,13.43,14.8,26.44,15.74c0.11,0.46,0.25,0.92,0.35,1.39c0.34,1.61,0.45,3.22,0.1,4.84c-0.38,1.78-1.12,3.32-2.27,4.68
		c-1.03,1.22-2.37,2.24-3.59,3.26c-0.12,0.11-0.24,0.22-0.36,0.33c0.36,0.07,0.68,0.06,1,0.02c3.97-0.59,7.53-1.98,10.61-4.59
		c3.14-2.66,4.93-6.13,5.03-10.3c0-0.05,0.01-0.11,0.01-0.16c5.79-1,10.91-3.11,14.83-5.96c4.99-3.64,8.03-8.49,8.03-13.82
		C262.44,29.11,254.12,21.6,242.46,18.74"/>
	<path class="st1" d="M278.38,23.44v28.75c0,1.99-0.48,3.5-1.44,4.51c-0.96,1.02-2.18,1.53-3.66,1.53c-1.48,0-2.68-0.52-3.6-1.57
		c-0.92-1.04-1.38-2.54-1.38-4.48V23.73c0-1.97,0.46-3.45,1.38-4.45c0.92-1,2.13-1.49,3.6-1.49c1.48,0,2.69,0.5,3.66,1.49
		C277.9,20.28,278.38,21.67,278.38,23.44"/>
	<path class="st1" d="M278.5,8.14c0,2.81-2.31,5.09-5.16,5.09c-2.85,0-5.16-2.28-5.16-5.09c0-2.81,2.31-5.09,5.16-5.09
		C276.19,3.04,278.5,5.32,278.5,8.14"/>
	<path class="st1" d="M380.12,23.44v28.75c0,1.99-0.47,3.5-1.42,4.52c-0.95,1.02-2.15,1.53-3.61,1.53c-1.46,0-2.64-0.52-3.55-1.57
		c-0.91-1.04-1.37-2.54-1.37-4.48V23.73c0-1.97,0.45-3.45,1.37-4.45c0.91-1,2.09-1.49,3.55-1.49c1.45,0,2.66,0.5,3.61,1.49
		C379.65,20.28,380.12,21.67,380.12,23.44"/>
	<path class="st1" d="M380.24,8.07c0,2.81-2.28,5.09-5.09,5.09c-2.81,0-5.09-2.28-5.09-5.09c0-2.81,2.28-5.09,5.09-5.09
		C377.96,2.98,380.24,5.26,380.24,8.07"/>
	<path class="st1" d="M438.3,23.44v28.75c0,1.99-0.49,3.5-1.47,4.51c-0.98,1.02-2.23,1.53-3.73,1.53c-1.51,0-2.73-0.52-3.68-1.57
		c-0.94-1.04-1.41-2.54-1.41-4.48V23.73c0-1.97,0.47-3.45,1.41-4.45c0.94-1,2.17-1.49,3.68-1.49c1.5,0,2.75,0.5,3.73,1.49
		C437.81,20.28,438.3,21.67,438.3,23.44"/>
	<path class="st1" d="M438.42,8.21c0,2.82-2.36,5.09-5.27,5.09c-2.91,0-5.26-2.28-5.26-5.09c0-2.81,2.36-5.09,5.26-5.09
		C436.06,3.12,438.42,5.4,438.42,8.21"/>
	<path class="st1" d="M319.27,28.22c-0.19-1.41-0.62-2.72-1.27-3.94c-1.02-2.09-2.56-3.7-4.63-4.85c-2.07-1.14-4.41-1.71-7.03-1.71
		c-2.7,0-5.09,0.54-7.16,1.62c-1.76,0.91-3.39,2.28-4.91,4.06c-0.01-1.76-0.48-3.13-1.44-4.12c-0.26-0.27-0.54-0.49-0.84-0.69
		c-0.82-0.61-1.8-0.92-2.94-0.92c-0.39,0-0.75,0.04-1.1,0.11c-1.06,0.14-1.94,0.58-2.61,1.33c-0.83,0.94-1.24,2.35-1.24,4.25v28.75
		c0,1.94,0.46,3.44,1.39,4.48c0.24,0.27,0.49,0.5,0.75,0.7c0.81,0.62,1.78,0.94,2.92,0.94c1.48,0,2.7-0.51,3.66-1.53
		c0.96-1.02,1.44-2.52,1.44-4.51V34.27c0.12-1.25,0.29-2.23,0.52-2.92c0.68-1.85,1.75-3.3,3.21-4.35c1.46-1.06,3.07-1.58,4.85-1.58
		c2.72,0,4.54,0.87,5.45,2.6c0.91,1.74,1.23,4.34,1.23,7.62v16.58c0,1.94,0.46,3.44,1.38,4.48c0.92,1.05,2.26,1.48,3.74,1.48
		c1.46,0,2.64-0.51,3.55-1.53c0.91-1.02,1.37-2.53,1.37-4.52V33.61C319.57,31.42,319.47,29.63,319.27,28.22"/>
	<path class="st1" d="M363.16,4.97c-0.74-0.82-1.68-1.45-2.81-1.6c-0.34-0.06-0.92-0.11-1.3-0.11c-1.5,0-2.67,0.68-3.48,1.73
		c-0.81,1.04-1.21,2.59-1.21,4.63l-0.04,14.23c-1.86-2.04-3.56-3.55-5.52-4.53c-1.96-0.98-4.36-1.48-7.21-1.48
		c-4.93,0-8.91,1.74-11.93,5.21c-3.02,3.47-4.53,8.32-4.53,14.54c0,2.94,0.38,5.67,1.14,8.2c0.76,2.53,1.88,4.72,3.35,6.59
		c1.48,1.87,3.22,3.31,5.24,4.32c2.02,1.01,4.22,1.51,6.58,1.51c1.79,0,3.44-0.25,4.95-0.75c1.51-0.5,2.91-1.22,4.21-2.18
		c1.29-0.96,2.4-2.21,3.72-3.74v0.99c0,1.82,0.44,3.23,1.32,4.21c0.71,0.79,1.59,1.25,2.6,1.4c0.33,0.07,0.89,0.11,1.25,0.11
		c1.48,0,2.68-0.51,3.61-1.51c0.93-1.01,1.39-2.52,1.39-4.54l0.04-42.69C364.54,7.49,364.08,5.97,363.16,4.97 M352.7,44.97
		c-0.86,1.88-2.01,3.28-3.45,4.19c-1.44,0.91-3.02,1.37-4.77,1.37c-1.72,0-3.3-0.48-4.75-1.44c-1.45-0.96-2.59-2.38-3.43-4.28
		c-0.83-1.89-1.25-4.19-1.25-6.89c0-2.55,0.39-4.79,1.17-6.72c0.79-1.93,1.89-3.41,3.32-4.45c1.43-1.03,3.04-1.55,4.86-1.55
		c1.74,0,3.34,0.5,4.8,1.51c1.46,1.01,2.63,2.47,3.48,4.37c0.85,1.91,1.28,4.19,1.28,6.83C353.98,40.73,353.55,43.08,352.7,44.97"/>
	<path class="st1" d="M481.85,4.97c-0.75-0.82-1.69-1.45-2.82-1.6c-0.34-0.06-0.92-0.11-1.31-0.11c-1.5,0-2.67,0.68-3.48,1.73
		c-0.81,1.04-1.21,2.59-1.21,4.63l-0.04,14.23c-1.86-2.04-3.57-3.55-5.53-4.53c-1.96-0.98-4.37-1.48-7.23-1.48
		c-4.94,0-8.93,1.74-11.95,5.21c-3.03,3.47-4.54,8.32-4.54,14.54c0,2.94,0.38,5.67,1.15,8.2c0.76,2.53,1.88,4.72,3.36,6.59
		c1.48,1.87,3.23,3.31,5.25,4.32c2.02,1.01,4.22,1.51,6.59,1.51c1.79,0,3.45-0.25,4.96-0.75c1.51-0.5,2.92-1.22,4.21-2.18
		c1.3-0.96,2.4-2.21,3.73-3.74v0.99c0,1.82,0.44,3.23,1.32,4.21c0.71,0.79,1.59,1.25,2.61,1.4c0.33,0.07,0.89,0.11,1.26,0.11
		c1.48,0,2.68-0.51,3.61-1.51c0.94-1.01,1.4-2.52,1.4-4.54l0.04-42.69C483.23,7.49,482.77,5.97,481.85,4.97 M471.36,44.97
		c-0.86,1.88-2.01,3.28-3.46,4.19c-1.44,0.91-3.03,1.37-4.77,1.37c-1.72,0-3.31-0.48-4.76-1.44c-1.45-0.96-2.6-2.38-3.43-4.28
		c-0.84-1.9-1.25-4.19-1.25-6.89c0-2.55,0.39-4.79,1.18-6.72c0.79-1.93,1.89-3.41,3.33-4.45c1.43-1.03,3.05-1.55,4.87-1.55
		c1.74,0,3.35,0.5,4.81,1.51c1.46,1.01,2.63,2.47,3.49,4.37c0.86,1.91,1.29,4.19,1.29,6.83C472.65,40.73,472.22,43.08,471.36,44.97"
		/>
	<path class="st1" d="M396.27,23.99l8.05,22.59L413,23c0.68-1.9,1.34-3.24,2-4.03c0.65-0.79,1.65-1.18,2.99-1.18
		c1.26,0,2.34,0.43,3.23,1.28c0.89,0.85,1.33,1.84,1.33,2.95c0,0.44-0.08,0.95-0.24,1.53c-0.16,0.58-0.34,1.13-0.55,1.64
		c-0.2,0.51-0.44,1.09-0.71,1.75l-9.55,23.68c-0.26,0.68-0.61,1.54-1.04,2.59c-0.42,1.04-0.9,1.94-1.42,2.68
		c-0.52,0.74-1.17,1.32-1.93,1.73c-0.76,0.41-1.7,0.62-2.79,0.62c-1.41,0-2.54-0.32-3.37-0.97c-0.84-0.65-1.46-1.35-1.86-2.12
		c-0.4-0.77-1.08-2.27-2.02-4.54l-9.47-23.43c-0.22-0.58-0.45-1.16-0.68-1.75c-0.23-0.58-0.42-1.18-0.58-1.78
		c-0.16-0.61-0.24-1.13-0.24-1.57c0-0.68,0.21-1.35,0.62-2.02c0.41-0.67,0.99-1.21,1.71-1.64c0.73-0.43,1.52-0.64,2.37-0.64
		c1.65,0,2.78,0.47,3.4,1.42C394.83,20.16,395.52,21.75,396.27,23.99"/>
	<path class="st1" d="M515.08,52.63v-1.28c-1.19,1.51-2.45,2.77-3.76,3.79c-1.31,1.02-2.74,1.78-4.3,2.28
		c-1.56,0.5-3.33,0.75-5.32,0.75c-2.4,0-4.56-0.5-6.47-1.5c-1.9-1-3.38-2.37-4.42-4.12c-1.24-2.11-1.86-5.15-1.86-9.11V23.73
		c0-1.99,0.45-3.48,1.35-4.46c0.9-0.99,2.09-1.48,3.57-1.48c1.5,0,2.99,0.55,3.92,1.55c0.92,1,1.38,2.48,1.38,4.45l-0.27,15.87
		c0,2.31,0.2,4.25,0.59,5.81c0.38,1.57,1.08,2.79,2.09,3.68c1.01,0.89,2.38,1.33,4.1,1.33c1.68,0,3.25-0.5,4.74-1.5
		c1.48-1,2.56-2.29,3.24-3.9c0.56-1.41,0.84-4.49,0.84-9.26v-12.1c0-1.97,0.46-3.45,1.38-4.45c0.92-1,2.12-1.49,3.61-1.49
		c1.48,0,2.87,0.5,3.77,1.48c0.9,0.98,1.35,2.47,1.35,4.46v28.82c0,1.9-0.43,3.32-1.29,4.26c-0.87,0.95-2.18,1.42-3.54,1.42
		c-1.36,0-2.48-0.5-3.37-1.48C515.52,55.78,515.08,54.4,515.08,52.63"/>
	<path class="st1" d="M557.51,52.63c-2.41,1.87-4.73,3.28-6.98,4.21c-2.25,0.94-4.77,1.4-7.56,1.4c-2.55,0-4.79-0.51-6.73-1.51
		c-1.93-1.01-3.42-2.38-4.46-4.1c-1.04-1.72-1.56-3.59-1.56-5.61c0-2.72,0.86-5.04,2.59-6.96c1.72-1.92,4.09-3.21,7.11-3.86
		c0.63-0.14,2.2-0.47,4.7-0.98c2.5-0.51,4.65-0.98,6.43-1.4c1.79-0.43,3.72-0.94,5.81-1.55c-0.12-2.62-0.65-4.55-1.58-5.78
		c-0.94-1.23-2.87-1.84-5.81-1.84c-2.52,0-4.42,0.35-5.7,1.06c-1.27,0.7-2.37,1.76-3.28,3.17c-0.91,1.41-1.55,2.34-1.93,2.79
		c-0.38,0.45-1.18,0.67-2.42,0.67c-1.12,0-2.09-0.36-2.9-1.08c-0.82-0.71-1.22-1.63-1.22-2.75c0-1.75,0.62-3.45,1.86-5.1
		c1.24-1.65,3.17-3.01,5.79-4.08c2.62-1.07,5.89-1.6,9.8-1.6c4.38,0,7.81,0.52,10.31,1.55c2.5,1.03,4.27,2.67,5.31,4.9
		c1.03,2.24,1.55,5.2,1.55,8.89c0,2.33-0.01,4.31-0.02,5.94c-0.01,1.63-0.03,3.44-0.05,5.43c0,1.87,0.31,3.82,0.93,5.85
		c0.62,2.03,0.93,3.33,0.93,3.92c0,1.02-0.48,1.95-1.44,2.79c-0.96,0.84-2.05,1.26-3.27,1.26c-1.02,0-2.02-0.48-3.02-1.44
		C559.69,55.84,558.63,54.45,557.51,52.63 M556.86,38.23c-1.46,0.54-3.58,1.1-6.36,1.7c-2.78,0.6-4.71,1.03-5.78,1.31
		c-1.07,0.28-2.09,0.83-3.06,1.64c-0.97,0.81-1.46,1.95-1.46,3.41c0,1.51,0.57,2.79,1.71,3.84c1.14,1.06,2.64,1.59,4.48,1.59
		c1.97,0,3.79-0.43,5.45-1.29c1.67-0.86,2.89-1.97,3.66-3.33c0.9-1.51,1.35-3.98,1.35-7.43V38.23z"/>
	<path class="st1" d="M573.69,52.19V9.05c0-1.99,0.46-3.5,1.38-4.52c0.92-1.02,2.16-1.53,3.72-1.53c1.56,0,2.82,0.5,3.77,1.51
		c0.96,1.01,1.44,2.52,1.44,4.54v43.15c0,2.01-0.49,3.53-1.46,4.54c-0.97,1.01-2.22,1.51-3.75,1.51c-1.51,0-2.74-0.52-3.68-1.57
		C574.17,55.63,573.69,54.14,573.69,52.19"/>
	<path class="st1" d="M102.67,52.19V9.05c0-1.99,0.45-3.5,1.34-4.52c0.89-1.02,2.1-1.53,3.62-1.53c1.52,0,2.74,0.51,3.67,1.51
		c0.93,1.01,1.4,2.52,1.4,4.54v43.15c0,2.01-0.47,3.53-1.42,4.54c-0.94,1.01-2.16,1.51-3.65,1.51c-1.47,0-2.67-0.52-3.59-1.57
		C103.13,55.63,102.67,54.14,102.67,52.19"/>
	<path class="st1" d="M152.73,44.54c-0.95,0-2.18,0.25-2.69,0.69c-1.24,1.17-1.75,2.05-2.52,2.73c-0.78,0.68-1.63,1.32-2.55,1.91
		c-0.92,0.59-2.38,1.07-3.36,1.35c-0.98,0.28-2.07,0.42-3.26,0.42c-1.77,0-3.39-0.44-4.86-1.31c-1.47-0.87-2.65-2.17-3.54-3.9
		c-0.89-1.72-1.34-3.72-1.36-5.97h19.46c2.6,0,4.62-0.37,6.05-1.11c1.43-0.74,2.15-2.36,2.15-4.86c0-2.7-0.69-5.34-2.08-7.94
		c-1.38-2.6-3.47-4.72-6.25-6.36c-2.78-1.64-6.12-2.46-10-2.46c-2.99,0-5.71,0.48-8.16,1.44c-2.45,0.96-4.52,2.34-6.19,4.14
		c-1.68,1.8-2.95,3.96-3.83,6.47c-0.87,2.51-1.31,5.24-1.31,8.18c0,6.24,1.77,11.19,5.32,14.83c3.55,3.64,8.52,5.47,14.9,5.47
		c2.8,0,5.77-0.4,7.92-1.13c2.15-0.73,3.94-1.65,5.36-2.75c1.42-1.11,2.49-2.26,3.19-3.46c0.7-1.2,1.06-2.25,1.06-3.15
		c0-1.02-0.32-1.81-0.95-2.37C154.57,44.82,153.75,44.54,152.73,44.54 M131.47,27.21c1.59-1.71,3.63-2.57,6.11-2.57
		c2.6,0,4.7,0.84,6.29,2.53c1.59,1.69,2.5,4,2.74,7.4h-18.04C128.91,31.22,129.88,28.93,131.47,27.21"/>
	<path class="st1" d="M137.94,2.97h4.92c1.24,0,1.86,0.18,1.86,0.55c0,0.19-0.68,0.98-2.04,2.37c-1.36,1.38-2.73,2.71-4.12,3.97
		c-1.39,1.26-2.35,2.03-2.88,2.3c-1.38,0.7-2.87,1.06-4.45,1.06c-1.04,0-1.57-0.3-1.57-0.91c0-0.41,0.32-1.13,0.95-2.15l1.64-3.06
		c0.95-1.77,1.77-2.9,2.48-3.39C135.44,3.21,136.51,2.97,137.94,2.97"/>
	<path class="st1" d="M195.87,45.23c0,2.75-0.67,5.1-2,7.05c-1.34,1.96-3.31,3.44-5.92,4.45c-2.61,1.01-5.79,1.51-9.53,1.51
		c-3.57,0-6.63-0.55-9.18-1.64c-2.55-1.09-4.43-2.46-5.65-4.1c-1.21-1.64-1.82-3.28-1.82-4.94c0-1.09,0.39-2.03,1.17-2.81
		c0.78-0.78,1.76-1.17,2.95-1.17c1.05,0,1.85,0.26,2.41,0.77c0.56,0.51,1.09,1.23,1.6,2.15c1.02,1.77,2.24,3.1,3.66,3.97
		c1.42,0.88,3.36,1.31,5.81,1.31c1.99,0,3.62-0.44,4.9-1.33c1.27-0.89,1.91-1.9,1.91-3.04c0-1.75-0.66-3.03-1.99-3.83
		c-1.32-0.8-3.5-1.57-6.54-2.29c-3.42-0.85-6.4-1.7-8.55-2.64c-2.15-0.94-3.87-2.17-5.16-3.7c-1.29-1.53-1.93-3.41-1.93-5.65
		c0-1.99,0.59-3.87,1.79-5.65c1.19-1.77,2.95-3.19,5.27-4.25c2.32-1.06,5.31-1.62,8.59-1.62c2.58,0,4.89,0.27,6.94,0.8
		c2.05,0.53,3.77,1.25,5.14,2.15c1.37,0.9,2.42,1.9,3.14,2.99c0.72,1.09,1.07,2.16,1.07,3.21c0,1.14-0.38,2.08-1.15,2.81
		c-0.77,0.73-1.85,1.09-3.26,1.09c-1.02,0-1.89-0.29-2.6-0.87c-0.72-0.58-1.54-1.46-2.46-2.62c-0.75-0.97-1.64-1.75-2.66-2.33
		c-1.02-0.58-2.41-0.88-4.16-0.88c-1.8,0-3.29,0.38-4.48,1.15c-1.19,0.77-1.79,1.72-1.79,2.86c0,1.04,0.44,1.9,1.31,2.57
		c0.87,0.67,2.05,1.22,3.54,1.66c1.48,0.44,3.52,0.97,6.12,1.6c3.09,0.75,5.61,1.65,7.56,2.7c1.96,1.04,3.44,2.28,4.45,3.7
		C195.37,41.79,195.87,43.41,195.87,45.23"/>
	<path class="st1" d="M11.41,23.44v28.75c0,1.99-0.47,3.5-1.42,4.52c-0.95,1.02-2.15,1.53-3.61,1.53c-1.46,0-2.64-0.52-3.55-1.57
		c-0.91-1.04-1.37-2.54-1.37-4.48V23.73c0-1.97,0.46-3.45,1.37-4.45c0.91-1,2.1-1.49,3.55-1.49c1.46,0,2.66,0.5,3.61,1.49
		C10.94,20.28,11.41,21.67,11.41,23.44"/>
	<path class="st1" d="M11.53,8.24c0,2.81-2.28,5.09-5.09,5.09c-2.82,0-5.09-2.28-5.09-5.09c0-2.81,2.28-5.09,5.09-5.09
		C9.25,3.14,11.53,5.42,11.53,8.24"/>
	<path class="st1" d="M52.24,28.29c-0.19-1.41-0.62-2.72-1.28-3.94c-1.02-2.09-2.58-3.7-4.65-4.85c-2.07-1.14-4.43-1.71-7.07-1.71
		c-2.71,0-5.1,0.54-7.19,1.62c-1.83,0.95-3.54,2.37-5.12,4.27V23.4c0-1.77-0.48-3.16-1.43-4.16c-0.95-1-2.16-1.49-3.62-1.49
		c-0.39,0-0.76,0.04-1.11,0.11c-1.07,0.14-1.95,0.58-2.62,1.33c-0.83,0.94-1.25,2.35-1.25,4.25v28.75c0,1.94,0.46,3.44,1.39,4.48
		c0.93,1.05,2.11,1.57,3.55,1.57c1.49,0,2.7-0.51,3.64-1.51c0.48-0.51,0.83-1.15,1.06-1.92c0.25-0.76,0.37-1.65,0.37-2.66V37.67
		c0.07-2.94,0.3-5.03,0.7-6.24c0.68-1.85,1.76-3.3,3.22-4.35c1.47-1.06,3.09-1.58,4.87-1.58c2.74,0,4.23,0.87,5.15,2.61
		s1.37,4.24,1.37,7.52v16.58c0,1.94,0.46,3.44,1.39,4.48c0.93,1.05,2.13,1.57,3.62,1.57c1.46,0,2.98-0.51,3.89-1.53
		c0.92-1.02,1.37-2.52,1.37-4.51V33.68C52.53,31.49,52.43,29.7,52.24,28.29"/>
	<path class="st1" d="M97.01,24.7v-1.53c0-1.78-0.47-3.16-1.42-4.16c-0.95-1-2.15-1.49-3.61-1.49c-1.46,0-2.64,0.5-3.55,1.49
		c-0.9,0.98-1.35,2.44-1.36,4.37c0,0.03,0,0.05,0,0.08c-0.69-0.83-1.41-1.55-2.14-2.19c-2.77-2.32-6.15-3.69-9.8-3.69
		c-8.48,0-15.49,7.37-16.84,17.02c-0.15,1.1-0.25,2.22-0.25,3.36c0,11.26,7.65,20.39,17.09,20.39c4.66,0,8.88-2.23,11.97-5.84
		c0,0.07,0.01,0.15,0.01,0.22c-0.04,2.13-0.11,4.71-0.18,5.82c-0.1,1.47-0.43,1.88-1,3.17c-0.57,1.29-1.57,2.29-2.99,3.01
		c-1.42,0.72-3.42,1.08-5.99,1.08c-1.26,0-2.38-0.12-3.35-0.35c-0.97-0.23-1.81-0.58-2.5-1.06c-0.69-0.48-1.32-1.05-1.89-1.72
		c-0.57-0.67-1.12-1.33-1.66-1.99c-1.09-1.29-2.37-1.93-3.83-1.93c-1.17,0-2.16,0.38-2.99,1.15c-0.83,0.77-1.24,1.76-1.24,2.97
		c0,1.61,0.73,3.17,2.19,4.69c1.46,1.52,3.53,2.76,6.23,3.72c2.7,0.96,5.76,1.45,9.18,1.45c3.74,0,6.87-0.38,9.38-1.13
		c2.51-0.75,4.55-1.91,6.1-3.47c1.56-1.55,2.68-3.53,3.39-5.91c0.7-2.39,1.06-5.23,1.06-8.54V24.76
		C97.02,24.74,97.01,24.72,97.01,24.7 M77.36,49.41c-3.11,0-5.86-1.77-7.61-4.49c-1.24-1.93-1.99-4.33-1.99-6.95
		c0-1.6,0.28-3.12,0.77-4.5c1.47-4.09,4.87-6.95,8.83-6.95c5.3,0,9.6,5.12,9.6,11.45S82.66,49.41,77.36,49.41"/>
</g>
<g>
	<path class="st2" d="M611.42,52.45c0-3.14,2.64-5.79,5.79-5.79s5.79,2.64,5.79,5.79c0,3.14-2.64,5.79-5.79,5.79
		S611.42,55.59,611.42,52.45z"/>
	<path class="st2" d="M637.85,57.45V9.8h10.22v38.72h20.15v8.93H637.85z"/>
	<path class="st2" d="M682.22,57.45V9.8h10.15v47.65H682.22z"/>
	<path class="st2" d="M722.3,57.45L703.93,9.8h11.5l13.22,36.58L741.87,9.8h11.5l-18.36,47.65H722.3z"/>
	<path class="st2" d="M764.95,57.45V9.8h33.72v8.93h-23.58v10h23.08v8.93h-23.08v10.86h23.58v8.93H764.95z"/>
</g>
</svg>
