<svg xmlns="http://www.w3.org/2000/svg" viewBox="0 0 50 50" xmlns:xlink="http://www.w3.org/1999/xlink"><linearGradient id="a"><stop offset="0" stop-color="#00ffde"/><stop offset="1" stop-color="#2ac6ff"/></linearGradient><linearGradient id="b" x1="4.08" x2="53.33" y1="45.24" y2="-2.51" gradientUnits="userSpaceOnUse" xlink:href="#a"/><linearGradient id="c" x1="6.96" x2="56.21" y1="48.21" y2=".46" gradientUnits="userSpaceOnUse" xlink:href="#a"/><linearGradient id="d" x1="1.46" x2="50.7" y1="42.54" y2="-5.22" gradientUnits="userSpaceOnUse" xlink:href="#a"/><linearGradient id="e" x1="-4.05" x2="45.2" y1="36.86" y2="-10.9" gradientUnits="userSpaceOnUse" xlink:href="#a"/><linearGradient id="f" x1=".21" x2="49.46" y1="41.25" y2="-6.5" gradientUnits="userSpaceOnUse" xlink:href="#a"/><linearGradient id="g" x1="1.46" x2="50.71" y1="42.54" y2="-5.21" gradientUnits="userSpaceOnUse" xlink:href="#a"/><linearGradient id="h" x1="6.97" x2="56.22" y1="48.22" y2=".47" gradientUnits="userSpaceOnUse" xlink:href="#a"/><linearGradient id="i" x1="12.47" x2="61.72" y1="53.9" y2="6.14" gradientUnits="userSpaceOnUse" xlink:href="#a"/><linearGradient id="j" x1="-3.82" x2="45.43" y1="37.1" y2="-10.66" gradientUnits="userSpaceOnUse" xlink:href="#a"/><linearGradient id="k" x1="16.38" x2="65.63" y1="57.92" y2="10.17" gradientUnits="userSpaceOnUse" xlink:href="#a"/><linearGradient id="l" x1="9.41" x2="58.66" y1="50.74" y2="2.98" gradientUnits="userSpaceOnUse" xlink:href="#a"/><path fill="url(#b)" d="M16 48.5c-.8-.3-1.6-.5-2.3-.9a5.45 5.45 0 0 1-2.7-4.7V26.1c0-.5.1-.9.6-1 .4-.1.8-.1 1 .3.1.2.2.5.2.8v16.3c0 1.7.7 2.9 2.2 3.7 2.2 1.2 5.2-.4 5.4-2.9 0-.2.1-.4.1-.5.1-.9.3-1.1 1.2-1.1h6c.6 0 .9.3 1 .8 0 .4-.2.9-.7 1h-5.3c-.3 0-.4.1-.5.4-.2 1-.6 1.9-1.3 2.7h21.4c2 0 3.6-1.1 4.1-2.8 0-.1 0-.2.1-.3H36.4c-.6 0-.9-.4-.9-.9s.4-.9.9-.9h5.3v-7c0-.5-.1-.8-.5-1.2-.2-.1-.2-.3-.4-.6l-3.5 3.5c-.1.1-.2.2-.4.3-.3.3-.6.3-1 .2-.3-.2-.5-.4-.5-.8V35h-9.1c-.5-.1-.8-.4-.8-.9s.3-.8.8-.9h9.2v-6.7c0-.2-.1-.5-.3-.6-.4-.5-.8-1-1.2-1.6-.1-.2-.3-.3-.5-.3h-7c-.6 0-1-.4-1-.9s.4-.9 1-.9h6.6c-.4-2.6.1-4.9 1.9-6.8s4-2.7 6.6-2.5V7.5c0-2-1.1-3.5-3-4.1-.4-.1-.8-.2-1.2-.2H11.5c.1.1.1.2.2.3.8 1 1.2 2.2 1.2 3.6v10.4c0 .4-.1.8-.6.9-.3.1-.7 0-.9-.1-.2-.2-.3-.6-.3-.9V7.9H2.7c-.8 0-1.2-.3-1.2-1.2 0-2.5 2.1-4.9 4.6-5.3.1 0 .2-.1.3-.1h31.9c.1 0 .2.1.3.1 2.8.5 4.9 2.9 4.9 5.7v5.6c0 .4.1.5.4.7 2.2 1.1 3.7 2.8 4.3 5.2.1.3.2.7.2 1v1.6c0 .1-.1.1-.1.2-.2 1.7-.9 3.1-2.1 4.3-.1.2-.2.4-.2.6v9.3c0 .5-.1.9-.6 1.1s-.9 0-1.2-.3l-.8-.8v5.9h3.7c.6 0 1 .1 1.2.7v1.1c0 .1-.1.1-.1.2-.5 2.3-1.9 3.9-4.1 4.6-.3.1-.6.2-.9.2-8.9.2-18 .2-27.2.2zm24.8-22c3.2 0 5.8-2.6 5.8-5.8a5.9 5.9 0 0 0-11.8-.1 6 6 0 0 0 6 5.9zm-3.5 7.4c.9-.9 1.8-1.8 2.6-2.7.6-.6 1.1-.6 1.7 0l2.3 2.3.3.3v-6.3c-2.3 1.1-4.6 1-6.9 0zM3.5 6.3h7.3c-.2-1.6-1.8-2.9-3.6-3-1.6 0-3.4 1.3-3.7 3z"/><path fill="url(#c)" d="M19.5 39.5c-1.9 0-3.5-1.6-3.5-3.5s1.6-3.5 3.5-3.5S23 34.1 23 36c0 2.1-1.6 3.5-3.5 3.5zM17.9 36c0 .9.7 1.6 1.6 1.7.9 0 1.7-.7 1.7-1.7 0-.9-.7-1.6-1.6-1.6s-1.7.7-1.7 1.6z"/><path fill="url(#d)" d="M19.5 28.5c-1.9 0-3.5-1.6-3.5-3.5s1.6-3.5 3.5-3.5S23 23.1 23 25s-1.6 3.5-3.5 3.5zm1.7-3.5c0-.9-.7-1.6-1.6-1.6s-1.6.8-1.6 1.7.8 1.6 1.7 1.6c.8-.1 1.5-.8 1.5-1.7z"/><path fill="url(#e)" d="M19.5 17.5c-1.9 0-3.5-1.6-3.5-3.5s1.6-3.5 3.5-3.5S23 12.1 23 14s-1.6 3.5-3.5 3.5zm1.7-3.5c0-.9-.7-1.6-1.6-1.6S18 13.1 18 14s.7 1.7 1.6 1.7c.9-.1 1.6-.8 1.6-1.7z"/><path fill="url(#f)" d="M30.2 13.1h-3.6c-.7 0-1.1-.3-1.1-.9s.4-.9 1.1-.9h7.1c.7 0 1.1.4 1.1.9s-.4.9-1.1.9z"/><path fill="url(#g)" d="M29 14.9h2.4c.6 0 1 .4 1 .9s-.4.9-1 .9h-4.9c-.7 0-1.1-.4-1.1-.9s.4-.9 1.1-.9z"/><path fill="url(#h)" d="M29 25.9h2.4c.6 0 1 .4 1 .9s-.4.9-1 .9h-5c-.6 0-1-.4-1-.9s.4-.9 1-.9z"/><path fill="url(#i)" d="M29 38.8h-2.4c-.6 0-1-.4-1-.9s.4-.9 1-.9h4.9c.6 0 1 .4 1 .9s-.4.9-1 .9z"/><path fill="url(#j)" d="M11.9 22.7a.9.9 0 0 1-.9-.9c0-.5.5-.9 1-.9s.9.4.9.9-.5.9-1 .9z"/><path fill="url(#k)" d="M33.1 42.6c0 .5-.4.9-.9.9a.9.9 0 0 1-.9-.9c0-.5.4-.9.9-.9.4 0 .9.4.9.9z"/><path fill="url(#l)" d="M40.6 21l2.5-2.5c.2-.2.5-.4.8-.4s.6.2.8.4c.1.2 0 .6 0 .9-1.2 1.2-2.3 2.4-3.5 3.5-.3.3-.8.2-1.1-.1-.7-.6-1.3-1.3-1.9-1.9-.3-.4-.3-.9.1-1.2.3-.3.9-.4 1.2 0 .3.5.7.9 1.1 1.3z"/></svg>