<svg width="72" height="72" viewBox="0 0 72 72" fill="none" xmlns="http://www.w3.org/2000/svg">
<path d="M72 0H0V72H72V0Z" fill="#E9F2FF"/>
<path d="M25.4398 15.84C20.149 15.84 15.8398 20.1491 15.8398 25.44V46.56C15.8398 51.8509 20.149 56.16 25.4398 56.16H46.5598C51.8507 56.16 56.1598 51.8509 56.1598 46.56V25.44C56.1598 20.1491 51.8507 15.84 46.5598 15.84H25.4398ZM25.4398 17.76H46.5598C50.8133 17.76 54.2398 21.1866 54.2398 25.44V46.56C54.2398 50.8135 50.8133 54.24 46.5598 54.24H25.4398C21.1864 54.24 17.7598 50.8135 17.7598 46.56V25.44C17.7598 21.1866 21.1864 17.76 25.4398 17.76ZM35.9998 21.6C34.7326 21.6 33.5038 21.7632 32.323 22.08C33.0718 22.4352 33.7051 22.983 34.1755 23.655H34.1848C34.4675 23.614 34.7528 23.584 35.0398 23.5613V35.04H29.2798L26.7167 36.96H28.348C28.41 38.8583 28.6721 40.6333 29.0773 42.2457C28.0724 42.6776 27.1383 43.201 26.2948 43.8132C24.9251 42.114 23.9894 40.0512 23.6642 37.7944C23.501 37.756 23.3472 37.6893 23.1936 37.6125C22.2912 37.1709 21.705 36.2876 21.6186 35.2988C21.609 35.5292 21.5998 35.76 21.5998 36C21.5998 43.9392 28.0606 50.4 35.9998 50.4C37.267 50.4 38.4959 50.2368 39.6767 49.92C38.9279 49.5648 38.2946 49.017 37.8242 48.345C37.5401 48.3863 37.2506 48.418 36.9598 48.4407V36.96H48.4798C49.1326 36.96 49.7563 37.0953 50.3323 37.3257C50.3803 36.8937 50.3998 36.4512 50.3998 36C50.3998 28.0608 43.939 21.6 35.9998 21.6ZM23.5198 23.52C21.9407 23.52 20.6398 24.8209 20.6398 26.4V30.24C20.6398 31.8192 21.9407 33.12 23.5198 33.12V35.04C23.5198 35.2183 23.5694 35.3931 23.663 35.5447C23.7567 35.6964 23.8907 35.819 24.0502 35.8988C24.2096 35.9786 24.388 36.0125 24.5656 35.9966C24.7432 35.9807 24.9128 35.9156 25.0555 35.8088L28.6405 33.12H30.2398C31.819 33.12 33.1198 31.8192 33.1198 30.24V26.4C33.1198 24.8209 31.819 23.52 30.2398 23.52H23.5198ZM36.9598 23.9269C37.9958 24.3406 39.0312 25.2028 39.8923 26.925C40.1178 27.376 40.2427 28.0155 40.4342 28.5394C39.3453 28.8639 38.1751 29.0445 36.9598 29.1207V23.9269ZM40.6086 24.405C41.9966 24.9594 43.2583 25.76 44.3492 26.7469C43.6847 27.1505 42.9459 27.4924 42.2061 27.8288C41.9939 27.2554 41.8649 26.5763 41.6098 26.0663C41.31 25.4666 40.9727 24.9121 40.6086 24.405ZM23.5198 25.44H30.2398C30.7823 25.44 31.1998 25.8576 31.1998 26.4V30.24C31.1998 30.7825 30.7823 31.2 30.2398 31.2H28.3198C28.1123 31.1999 27.9104 31.267 27.7442 31.3913L25.4398 33.12V32.16C25.4398 31.9054 25.3387 31.6613 25.1586 31.4812C24.9786 31.3012 24.7344 31.2001 24.4798 31.2H23.5198C22.9774 31.2 22.5598 30.7825 22.5598 30.24V26.4C22.5598 25.8576 22.9774 25.44 23.5198 25.44ZM45.703 28.1869C47.2392 30.0946 48.2344 32.4554 48.4311 35.04H43.6461C43.5668 33.1484 43.2755 31.3908 42.8586 29.7544C43.8758 29.3108 44.8394 28.7973 45.703 28.1869ZM41.068 30.4219C41.4133 31.8427 41.6555 33.3833 41.728 35.04H36.9598V31.1213C38.3969 31.0446 39.7736 30.8119 41.068 30.4219ZM30.2586 36.96H35.0398V40.8788C33.582 40.9565 32.1824 41.205 30.868 41.595C30.5377 40.2118 30.3197 38.657 30.2586 36.96ZM41.7598 38.88C40.1807 38.88 38.8798 40.1809 38.8798 41.76V45.6C38.8798 47.1792 40.1807 48.48 41.7598 48.48H43.3592L46.9442 51.1688C47.0869 51.2756 47.2565 51.3407 47.4341 51.3566C47.6116 51.3725 47.7901 51.3386 47.9495 51.2588C48.1089 51.179 48.243 51.0564 48.3367 50.9047C48.4303 50.7531 48.4799 50.5783 48.4798 50.4V48.48C50.059 48.48 51.3598 47.1792 51.3598 45.6V41.76C51.3598 40.1809 50.059 38.88 48.4798 38.88H41.7598ZM41.7598 40.8H48.4798C49.0223 40.8 49.4398 41.2176 49.4398 41.76V45.6C49.4398 46.1425 49.0223 46.56 48.4798 46.56H47.5198C47.2652 46.5601 47.0211 46.6612 46.841 46.8412C46.661 47.0213 46.5599 47.2654 46.5598 47.52V48.48L44.2555 46.7513C44.0893 46.627 43.8873 46.5599 43.6798 46.56H41.7598C41.2174 46.56 40.7998 46.1425 40.7998 45.6V41.76C40.7998 41.2176 41.2174 40.8 41.7598 40.8ZM35.0398 42.8794V48.2832C33.6678 47.7318 32.3408 46.0287 31.4305 43.4888C32.5655 43.1664 33.7785 42.9585 35.0398 42.8794ZM29.6398 44.1282C30.1199 45.4638 30.7142 46.6403 31.4023 47.5969C30.0006 47.0349 28.727 46.2214 27.628 45.2213C28.2415 44.8036 28.9181 44.4404 29.6398 44.1282Z" fill="#458FFF"/>
</svg>
