<svg width="72" height="72" viewBox="0 0 72 72" fill="none" xmlns="http://www.w3.org/2000/svg">
<path d="M72 0H0V72H72V0Z" fill="#E9F2FF"/>
<path d="M22.9798 13.92C21.971 13.92 21.1235 14.6512 20.9098 15.57V15.6C20.9098 15.6 15.2698 41.4862 14.1598 46.65V46.68C13.9948 47.505 14.1598 48.3037 14.6398 48.81C15.1198 49.3162 15.7273 49.44 16.2298 49.44H24.4498C24.191 50.61 23.9023 51.8962 23.6998 52.83C23.516 53.6737 23.3585 54.36 23.2498 54.87C23.141 55.38 23.0998 55.6125 23.0698 55.77C22.991 56.1862 23.0098 56.6625 23.3398 57.18C23.6698 57.6975 24.3935 58.08 25.1998 58.08H33.7798C34.811 58.08 35.636 57.36 35.8498 56.4C35.8498 56.4 36.3635 54.0862 36.8698 51.75C37.121 50.58 37.361 49.4212 37.5598 48.51C37.7585 47.5987 37.9198 46.89 37.9198 46.89C37.9685 46.6837 38.0098 46.5937 38.0098 46.59C38.0098 46.5862 37.916 46.56 38.1898 46.56H43.1098C50.1973 46.56 56.1598 42.2925 57.7498 34.86C58.646 30.6562 57.5735 27.4575 55.5298 25.44C53.726 23.6587 51.2473 22.8112 48.8698 22.62C48.5848 19.7662 47.2273 17.5387 45.3898 16.11C43.4585 14.61 41.066 13.92 38.7898 13.92H22.9798ZM22.9798 15.84H38.7898C40.6648 15.84 42.6785 16.44 44.2198 17.64C45.626 18.735 46.571 20.3625 46.8598 22.56H32.0998C31.8485 22.56 31.571 22.53 31.1398 22.65C30.7085 22.77 30.1798 23.2725 30.0598 23.79L26.9398 37.83V37.89L24.7798 47.52H16.2298C16.0835 47.52 16.0123 47.4825 16.0198 47.49C16.0273 47.4975 15.9898 47.4225 16.0498 47.07C16.0535 47.0437 16.0423 47.07 16.0498 47.04C17.1635 41.865 22.7885 16.0687 22.7998 16.02V15.99C22.8298 15.8925 22.886 15.84 22.9798 15.84ZM31.8598 24.48C31.9423 24.4762 31.9385 24.48 32.0998 24.48H46.9498C46.9085 25.1062 46.8223 25.77 46.6498 26.58C45.9373 29.9175 44.4935 32.1975 42.3898 33.72C40.286 35.2425 37.4585 36 34.0198 36H29.7898C29.6435 36 29.4635 36.0412 29.2798 36.06L31.8598 24.48ZM48.7798 24.63C50.7635 24.8062 52.7923 25.4512 54.1798 26.82C55.766 28.3875 56.6548 30.7425 55.8598 34.47C54.4385 41.1075 49.4548 44.64 43.1098 44.64H38.1898C37.4735 44.64 36.8473 44.9587 36.5098 45.39C36.1723 45.8212 36.0973 46.2787 36.0598 46.44C36.0148 46.6237 35.8985 47.1787 35.6998 48.09C35.501 49.0012 35.231 50.19 34.9798 51.36C34.4735 53.6962 33.9898 55.98 33.9898 55.98C33.971 56.0587 33.8135 56.16 33.7798 56.16H25.1998C25.0385 56.16 24.9823 56.1375 24.9598 56.13C24.9448 56.205 25.031 55.8 25.1398 55.29C25.2485 54.78 25.406 54.0637 25.5898 53.22C25.9535 51.5287 26.4298 49.3125 26.9098 47.1C27.8698 42.675 28.8298 38.28 28.8298 38.28C28.8748 38.1412 28.9085 38.1075 29.0698 38.04C29.2498 37.965 29.5573 37.92 29.7898 37.92H34.0198C37.7435 37.92 40.9835 37.0987 43.4998 35.28C46.016 33.4612 47.7485 30.6675 48.5398 26.97C48.7198 26.1262 48.731 25.3875 48.7798 24.63Z" fill="#458FFF"/>
</svg>
