<?xml version="1.0" encoding="utf-8"?>
<!-- Generator: Adobe Illustrator 27.0.0, SVG Export Plug-In . SVG Version: 6.00 Build 0)  -->
<svg version="1.1" id="Layer_1" xmlns="http://www.w3.org/2000/svg" xmlns:xlink="http://www.w3.org/1999/xlink" x="0px" y="0px"
	 viewBox="0 0 251 130.3" style="enable-background:new 0 0 251 130.3;" xml:space="preserve">
<style type="text/css">
	.st0{fill:#FFFFFF;}
</style>
<path class="st0" d="M173.7,93.7c0,10.3,0,20.5,0,30.8c0,0.9-0.1,1.9-0.3,2.7c-0.7,2.2-2.9,3.4-5.3,3.1c-2.1-0.3-3.8-2.2-3.9-4.4
	c0-0.4,0-0.7,0-1.1c0-19.7,0-39.4,0-59.1c0-18.5,10.8-34.3,27.9-41.2c25.1-10.1,53.9,5.7,59,32.2c4.7,24.2-10.8,47.1-35,51.6
	c-10.6,2-20.9,0.4-30.7-4.4c-2.1-1-3.2-3-3-5c0.3-2,1.7-3.7,3.7-4c1.2-0.1,2.6,0.2,3.7,0.7c9.8,4.3,19.9,5.7,30.1,1.8
	c13-5,20.6-14.7,22.1-28.6c2-18.3-10.8-34.6-28.8-37.4c-18.7-2.8-36,9.6-39.2,28.3c-0.4,2.2-0.4,4.4-0.4,6.6
	C173.6,75.4,173.7,84.5,173.7,93.7z"/>
<path class="st0" d="M44.2,109.2C23,109.2,5.1,94.7,0.9,73.8c-4.2-20.7,7-41.5,26.8-49.1c17.4-6.7,33.3-3.5,47.3,9
	c1.4,1.2,2.2,2.7,1.9,4.6c-0.3,1.9-1.4,3.3-3.2,3.9c-1.9,0.6-3.6,0.2-5-1.2C64,36.3,58.4,33.3,52,31.8c-19.2-4.5-38.6,8.4-41.8,27.7
	c-3.1,18.8,9.3,36.4,28,39.6c11.5,1.9,21.6-1.1,30.2-9.1c1.5-1.4,3-2.2,5-1.6c3.7,1,4.8,5.4,2,8.1c-4.9,4.9-10.7,8.4-17.2,10.5
	C53.7,108.5,49,109.3,44.2,109.2z"/>
<path class="st0" d="M100.1,53.3c0-16,0-32,0-48.1c0-1.7,0.5-3.3,1.9-4.4c2.4-1.9,5.8-0.5,6.5,2.6c0.2,0.7,0.2,1.5,0.2,2.2
	c0,31.8,0,63.6,0,95.3c0,0.6,0,1.2-0.2,1.9c-0.4,2.3-2.2,3.9-4.2,3.8c-2.1-0.1-3.9-1.9-4.1-4.2c-0.1-0.5,0-1.1,0-1.6
	C100.1,85.1,100.1,69.2,100.1,53.3z"/>
<path class="st0" d="M132.1,64.3c0-12.5,0-24.9,0-37.4c0-0.9,0.1-1.8,0.4-2.6c0.7-1.9,2.4-3,4.2-2.8c1.7,0.1,3.3,1.5,3.7,3.4
	c0.2,0.7,0.2,1.4,0.2,2.1c0,24.8,0,49.7,0,74.5c0,0.5,0,1.1-0.1,1.6c-0.4,2.4-2.2,4.1-4.3,4c-2.2-0.1-4-2-4.2-4.4c0-0.4,0-0.9,0-1.3
	C132.1,88.9,132.1,76.6,132.1,64.3z"/>
<path class="st0" d="M136.4,8.5c-2.4,0-4.3-1.9-4.3-4.3c0-2.3,1.9-4.2,4.2-4.2c2.4,0,4.3,2,4.3,4.3C140.6,6.6,138.7,8.5,136.4,8.5z"
	/>
</svg>
