<?xml version="1.0" encoding="UTF-8"?>
<svg width="315px" height="84px" viewBox="0 0 315 84" version="1.1" xmlns="http://www.w3.org/2000/svg" xmlns:xlink="http://www.w3.org/1999/xlink">
    <!-- Generator: Sketch 64 (93537) - https://sketch.com -->
    <title>PayPal-logo</title>
    <desc>Created with Sketch.</desc>
    <g id="L&amp;F" stroke="none" stroke-width="1" fill="none" fill-rule="evenodd">
        <g id="PayPal-logo" fill="#FFFFFF">
            <path d="M37.978,0.281 L13.562,0.281 C11.891,0.281 10.47,1.495 10.209,3.145 L0.334,65.753 C0.138,66.989 1.095,68.102 2.348,68.102 L14.004,68.102 C15.675,68.102 17.096,66.889 17.357,65.236 L20.02,48.349 C20.277,46.696 21.701,45.482 23.369,45.482 L31.098,45.482 C47.181,45.482 56.463,37.699 58.888,22.277 C59.98,15.529 58.934,10.228 55.774,6.515 C52.304,2.438 46.149,0.281 37.978,0.281 Z M40.794,23.148 C39.459,31.909 32.765,31.909 26.293,31.909 L22.608,31.909 L25.193,15.547 C25.347,14.558 26.203,13.83 27.203,13.83 L28.892,13.83 C33.301,13.83 37.46,13.83 39.609,16.343 C40.891,17.842 41.283,20.07 40.794,23.148 L40.794,23.148 Z" id="Fill-1"></path>
            <path d="M110.961,22.866 L99.269,22.866 C98.273,22.866 97.412,23.594 97.259,24.583 L96.741,27.853 L95.924,26.668 C93.393,22.994 87.748,21.766 82.115,21.766 C69.194,21.766 58.159,31.552 56.01,45.279 C54.893,52.126 56.481,58.674 60.366,63.24 C63.929,67.438 69.027,69.188 75.092,69.188 C85.503,69.188 91.275,62.494 91.275,62.494 L90.754,65.743 C90.558,66.985 91.515,68.099 92.761,68.099 L103.292,68.099 C104.967,68.099 106.381,66.885 106.645,65.232 L112.964,25.215 C113.164,23.983 112.21,22.866 110.961,22.866 Z M94.663,45.622 C93.535,52.301 88.234,56.785 81.472,56.785 C78.077,56.785 75.364,55.696 73.621,53.633 C71.893,51.584 71.237,48.667 71.786,45.418 C72.84,38.796 78.23,34.165 84.889,34.165 C88.209,34.165 90.908,35.269 92.686,37.349 C94.467,39.452 95.174,42.387 94.663,45.622 L94.663,45.622 Z" id="Fill-2"></path>
            <path d="M173.231,22.866 L161.481,22.866 C160.36,22.866 159.307,23.423 158.672,24.355 L142.467,48.224 L135.598,25.286 C135.166,23.851 133.842,22.866 132.342,22.866 L120.797,22.866 C119.393,22.866 118.419,24.237 118.865,25.558 L131.807,63.536 L119.64,80.712 C118.683,82.065 119.647,83.925 121.3,83.925 L133.035,83.925 C134.149,83.925 135.191,83.382 135.823,82.469 L174.901,26.061 C175.837,24.712 174.876,22.866 173.231,22.866" id="Fill-3"></path>
            <path d="M212.13,0.281 L187.711,0.281 C186.044,0.281 184.623,1.495 184.362,3.145 L174.487,65.753 C174.291,66.989 175.248,68.102 176.494,68.102 L189.025,68.102 C190.188,68.102 191.184,67.253 191.366,66.096 L194.169,48.349 C194.426,46.696 195.851,45.482 197.518,45.482 L205.244,45.482 C221.33,45.482 230.609,37.699 233.037,22.277 C234.133,15.529 233.08,10.228 229.92,6.515 C226.453,2.438 220.302,0.281 212.13,0.281 Z M214.947,23.148 C213.615,31.909 206.921,31.909 200.445,31.909 L196.765,31.909 L199.353,15.547 C199.506,14.558 200.356,13.83 201.359,13.83 L203.048,13.83 C207.453,13.83 211.616,13.83 213.765,16.343 C215.047,17.842 215.436,20.07 214.947,23.148 L214.947,23.148 Z" id="Fill-4"></path>
            <path d="M285.11,22.866 L273.425,22.866 C272.422,22.866 271.569,23.594 271.419,24.583 L270.901,27.853 L270.08,26.668 C267.549,22.994 261.908,21.766 256.274,21.766 C243.354,21.766 232.323,31.552 230.174,45.279 C229.06,52.126 230.641,58.674 234.525,63.24 C238.096,67.438 243.186,69.188 249.252,69.188 C259.662,69.188 265.435,62.494 265.435,62.494 L264.914,65.743 C264.718,66.985 265.674,68.099 266.928,68.099 L277.456,68.099 C279.123,68.099 280.544,66.885 280.805,65.232 L287.127,25.215 C287.32,23.983 286.363,22.866 285.11,22.866 Z M268.813,45.622 C267.692,52.301 262.383,56.785 255.621,56.785 C252.233,56.785 249.513,55.696 247.77,53.633 C246.043,51.584 245.393,48.667 245.935,45.418 C246.996,38.796 252.379,34.165 259.038,34.165 C262.358,34.165 265.057,35.269 266.835,37.349 C268.623,39.452 269.33,42.387 268.813,45.622 L268.813,45.622 Z" id="Fill-5"></path>
            <path d="M298.894,1.999 L288.873,65.753 C288.677,66.989 289.633,68.102 290.879,68.102 L300.954,68.102 C302.629,68.102 304.049,66.889 304.306,65.236 L314.188,2.631 C314.385,1.395 313.428,0.278 312.182,0.278 L300.901,0.278 C299.905,0.281 299.048,1.01 298.894,1.999" id="Fill-6"></path>
        </g>
    </g>
</svg>