<?xml version="1.0" encoding="utf-8"?>
<!-- Generator: Adobe Illustrator 24.1.0, SVG Export Plug-In . SVG Version: 6.00 Build 0)  -->
<svg version="1.1" id="Layer_1" xmlns="http://www.w3.org/2000/svg" xmlns:xlink="http://www.w3.org/1999/xlink" x="0px" y="0px"
	 viewBox="0 0 50 50" style="enable-background:new 0 0 50 50;" xml:space="preserve">
<style type="text/css">
	.st0{fill:url(#SVGID_1_);}
	.st1{fill:url(#SVGID_2_);}
	.st2{fill:url(#SVGID_3_);}
	.st3{fill:url(#SVGID_4_);}
	.st4{fill:url(#SVGID_5_);}
	.st5{fill:url(#SVGID_6_);}
	.st6{fill:url(#SVGID_7_);}
	.st7{fill:url(#SVGID_8_);}
</style>
<g>
	<linearGradient id="SVGID_1_" gradientUnits="userSpaceOnUse" x1="-14.139" y1="50.5644" x2="61.6355" y2="4.8204">
		<stop  offset="0" style="stop-color:#00FFDE"/>
		<stop  offset="1" style="stop-color:#2AC6FF"/>
	</linearGradient>
	<path class="st0" d="M47.2,10.5l-1.2-5.3c-0.2-0.9-0.7-1.7-1.5-2.1c-0.8-0.5-1.7-0.7-2.6-0.5L6.7,10.3H3.6c-2,0-3.6,1.6-3.6,3.6
		v15.6c0,0.5,0.4,1,1,1s1-0.4,1-1c0,0,0-0.1,0-0.1V13.9c0-0.9,0.7-1.7,1.7-1.7h42.5c0.9,0,1.7,0.7,1.7,1.7v23.3H1c-0.5,0-1,0.4-1,1
		v1.9c0,0.7,0.2,1.3,0.5,1.8c0,0,0,0,0,0c0,0,0,0,0,0c0.6,1,1.8,1.7,3.1,1.7h42.5c1.2,0,2.3-0.6,3-1.6c0,0,0,0,0,0c0,0,0,0,0,0
		c0.4-0.6,0.6-1.3,0.6-2V13.9C49.7,12.3,48.7,11,47.2,10.5z M42.4,4.4c0.8-0.2,1.6,0.3,1.8,1.1l1,4.7H15.7L42.4,4.4z M47.8,40.1
		c0,0.3-0.1,0.5-0.2,0.7c-0.3,0.5-0.8,0.9-1.5,0.9H3.6c-0.6,0-1.2-0.4-1.5-0.9c-0.1-0.2-0.2-0.5-0.2-0.7v-1h45.8V40.1z"/>
	<linearGradient id="SVGID_2_" gradientUnits="userSpaceOnUse" x1="-14.3705" y1="50.1809" x2="61.4039" y2="4.4369">
		<stop  offset="0" style="stop-color:#00FFDE"/>
		<stop  offset="1" style="stop-color:#2AC6FF"/>
	</linearGradient>
	<path class="st1" d="M18.8,27.5c-0.5,0-1,0.4-1,1c0,0.5,0.4,1,1,1h5.5c0.5,0,1-0.4,1-1c0-0.5-0.4-1-1-1H18.8z"/>
	<linearGradient id="SVGID_3_" gradientUnits="userSpaceOnUse" x1="-11.8653" y1="54.3308" x2="63.9092" y2="8.5868">
		<stop  offset="0" style="stop-color:#00FFDE"/>
		<stop  offset="1" style="stop-color:#2AC6FF"/>
	</linearGradient>
	<path class="st2" d="M33.7,29.5c0.5,0,1-0.4,1-1c0-0.5-0.4-1-1-1h-5.5c-0.5,0-1,0.4-1,1c0,0.5,0.4,1,1,1H33.7z"/>
	<linearGradient id="SVGID_4_" gradientUnits="userSpaceOnUse" x1="-9.36" y1="58.4808" x2="66.4145" y2="12.7367">
		<stop  offset="0" style="stop-color:#00FFDE"/>
		<stop  offset="1" style="stop-color:#2AC6FF"/>
	</linearGradient>
	<path class="st3" d="M43.1,27.5h-5.5c-0.5,0-1,0.4-1,1c0,0.5,0.4,1,1,1h5.5c0.5,0,1-0.4,1-1C44,27.9,43.6,27.5,43.1,27.5z"/>
	<linearGradient id="SVGID_5_" gradientUnits="userSpaceOnUse" x1="-9.0246" y1="59.0363" x2="66.7498" y2="13.2922">
		<stop  offset="0" style="stop-color:#00FFDE"/>
		<stop  offset="1" style="stop-color:#2AC6FF"/>
	</linearGradient>
	<path class="st4" d="M24.6,32.9c0,0.5,0.4,1,1,1h17.5c0.5,0,1-0.4,1-1c0-0.5-0.4-1-1-1H25.6C25.1,31.9,24.6,32.3,24.6,32.9z"/>
	<linearGradient id="SVGID_6_" gradientUnits="userSpaceOnUse" x1="-20.1445" y1="40.6163" x2="55.6299" y2="-5.1277">
		<stop  offset="0" style="stop-color:#00FFDE"/>
		<stop  offset="1" style="stop-color:#2AC6FF"/>
	</linearGradient>
	<path class="st5" d="M5.5,25c0.2,0.3,0.5,0.5,0.8,0.5h2.9l1.5,2.5c0.2,0.3,0.5,0.5,0.8,0.5c0.3,0,0.7-0.2,0.8-0.5l1.5-2.5h2.9
		c0.3,0,0.7-0.2,0.8-0.5c0.2-0.3,0.2-0.7,0-1l-1.5-2.5l1.5-2.5c0.2-0.3,0.2-0.7,0-1c-0.2-0.3-0.5-0.5-0.8-0.5h-2.9L12.4,15
		c-0.2-0.3-0.5-0.5-0.8-0.5c-0.3,0-0.7,0.2-0.8,0.5l-1.5,2.5H6.3c-0.3,0-0.7,0.2-0.8,0.5c-0.2,0.3-0.2,0.7,0,1l1.5,2.5L5.5,24
		C5.3,24.3,5.3,24.7,5.5,25z M8.9,21L8,19.4h1.8c0.3,0,0.7-0.2,0.8-0.5l0.9-1.6l0.9,1.6c0.2,0.3,0.5,0.5,0.8,0.5h1.8L14.2,21
		c-0.2,0.3-0.2,0.7,0,1l0.9,1.6h-1.8c-0.3,0-0.7,0.2-0.8,0.5l-0.9,1.6L10.6,24c-0.2-0.3-0.5-0.5-0.8-0.5H8L8.9,22
		C9.1,21.7,9.1,21.3,8.9,21z"/>
	<linearGradient id="SVGID_7_" gradientUnits="userSpaceOnUse" x1="-15.2732" y1="48.6857" x2="60.5013" y2="2.9416">
		<stop  offset="0" style="stop-color:#00FFDE"/>
		<stop  offset="1" style="stop-color:#2AC6FF"/>
	</linearGradient>
	<path class="st6" d="M44.2,16.2c0-0.5-0.4-1-1-1H25.8c-0.5,0-1,0.4-1,1v4.9c0,0.5,0.4,1,1,1h17.4c0.5,0,1-0.4,1-1V16.2z M42.3,20.1
		H26.8v-3h15.5V20.1z"/>
	<linearGradient id="SVGID_8_" gradientUnits="userSpaceOnUse" x1="-17.4004" y1="45.162" x2="58.3741" y2="-0.582">
		<stop  offset="0" style="stop-color:#00FFDE"/>
		<stop  offset="1" style="stop-color:#2AC6FF"/>
	</linearGradient>
	<path class="st7" d="M0.2,34.6C0.4,35,0.8,35.1,1.2,35c0.4-0.1,0.7-0.5,0.7-0.9c0-0.9-1.1-1.3-1.7-0.7C0,33.7-0.1,34.2,0.2,34.6z"
		/>
</g>
</svg>
