<svg width="72" height="72" viewBox="0 0 72 72" fill="none" xmlns="http://www.w3.org/2000/svg">
<g clip-path="url(#clip0_790_7017)">
<path d="M72 0H0V72H72V0Z" fill="#F3FFF4"/>
<path d="M17.76 12C14.5913 12 12 14.5913 12 17.76C12 20.9287 14.5913 23.52 17.76 23.52C19.0013 23.52 20.1487 23.115 21.09 22.44L28.56 29.94C27.2062 31.5937 26.4 33.7012 26.4 36C26.4 37.9012 26.9737 39.6675 27.93 41.16L21.63 46.14C20.6063 45.21 19.245 44.64 17.76 44.64C14.5913 44.64 12 47.2312 12 50.4C12 53.5687 14.5913 56.16 17.76 56.16C20.9287 56.16 23.52 53.5687 23.52 50.4C23.52 49.395 23.2575 48.465 22.8 47.64L29.13 42.66C30.8775 44.46 33.3 45.6 36 45.6C37.275 45.6 38.4862 45.3637 39.6 44.91L42.12 49.68C40.7437 50.7337 39.84 52.38 39.84 54.24C39.84 57.4087 42.4312 60 45.6 60C48.7687 60 51.36 57.4087 51.36 54.24C51.36 51.0712 48.7687 48.48 45.6 48.48C44.9737 48.48 44.3662 48.5925 43.8 48.78L41.28 44.01C43.0912 42.8137 44.475 41.0175 45.15 38.91L48.48 39.6C48.4762 39.6787 48.48 39.7612 48.48 39.84C48.48 43.0087 51.0712 45.6 54.24 45.6C57.4087 45.6 60 43.0087 60 39.84C60 36.6712 57.4087 34.08 54.24 34.08C51.8062 34.08 49.71 35.595 48.87 37.74L45.54 37.02C45.5737 36.6862 45.6 36.3412 45.6 36C45.6 32.2237 43.3837 28.9537 40.2 27.39L41.67 23.43C42.0075 23.49 42.3675 23.52 42.72 23.52C45.8887 23.52 48.48 20.9287 48.48 17.76C48.48 14.5913 45.8887 12 42.72 12C39.5512 12 36.96 14.5913 36.96 17.76C36.96 19.8863 38.145 21.7425 39.87 22.74L38.4 26.73C37.6275 26.5275 36.8325 26.4 36 26.4C33.7012 26.4 31.5937 27.2062 29.94 28.56L22.44 21.09C23.115 20.1487 23.52 19.0013 23.52 17.76C23.52 14.5913 20.9287 12 17.76 12ZM17.76 13.92C19.8937 13.92 21.6 15.6263 21.6 17.76C21.6 19.8937 19.8937 21.6 17.76 21.6C15.6263 21.6 13.92 19.8937 13.92 17.76C13.92 15.6263 15.6263 13.92 17.76 13.92ZM42.72 13.92C44.8537 13.92 46.56 15.6263 46.56 17.76C46.56 19.8937 44.8537 21.6 42.72 21.6C40.5862 21.6 38.88 19.8937 38.88 17.76C38.88 15.6263 40.5862 13.92 42.72 13.92ZM36 28.32C40.2562 28.32 43.68 31.7513 43.68 36C43.68 40.2562 40.2562 43.68 36 43.68C31.7475 43.68 28.32 40.2562 28.32 36C28.32 33.9337 29.13 32.07 30.45 30.69C30.5287 30.63 30.6 30.5587 30.66 30.48C32.04 29.145 33.9187 28.32 36 28.32ZM54.24 36C56.3737 36 58.08 37.7062 58.08 39.84C58.08 41.9737 56.3737 43.68 54.24 43.68C52.1062 43.68 50.4 41.9737 50.4 39.84C50.4 37.7062 52.1062 36 54.24 36ZM17.76 46.56C19.8937 46.56 21.6 48.2662 21.6 50.4C21.6 52.5337 19.8937 54.24 17.76 54.24C15.6263 54.24 13.92 52.5337 13.92 50.4C13.92 48.2662 15.6263 46.56 17.76 46.56ZM45.6 50.4C47.7337 50.4 49.44 52.1062 49.44 54.24C49.44 56.3737 47.7337 58.08 45.6 58.08C43.4662 58.08 41.76 56.3737 41.76 54.24C41.76 52.785 42.555 51.5325 43.74 50.88C43.77 50.8725 43.8 50.8612 43.83 50.85C43.8412 50.8425 43.8487 50.8275 43.86 50.82C43.8787 50.8125 43.9012 50.8012 43.92 50.79C44.4262 50.5462 44.9962 50.4 45.6 50.4Z" fill="#47AD4B"/>
</g>
<defs>
<clipPath id="clip0_790_7017">
<rect width="72" height="72" fill="white"/>
</clipPath>
</defs>
</svg>
