<svg xmlns="http://www.w3.org/2000/svg" width="2500" height="2500" viewBox="0 0 1024 1024"><linearGradient id="a" x1="512" x2="512" y1=".98" y2="1025.02" gradientUnits="userSpaceOnUse"><stop offset="0" stop-color="#61fd7d"/><stop offset="1" stop-color="#2bb826"/></linearGradient><path fill="url(#a)" d="M1023.94 765.15c0 5.6-.17 17.77-.5 27.16-.83 23-2.65 52.67-5.4 66.18-4.15 20.3-10.4 39.47-18.55 55.43a198.63 198.63 0 0 1-36.6 50.36 198.68 198.68 0 0 1-50.3 36.42c-16.04 8.17-35.33 14.42-55.75 18.55-13.38 2.7-42.8 4.48-65.65 5.3-9.4.33-21.55.5-27.14.5l-504.22-.08c-5.6 0-17.77-.17-27.16-.5-23-.83-52.65-2.65-66.16-5.4-20.3-4.15-39.48-10.4-55.43-18.55a198.64 198.64 0 0 1-50.37-36.58 198.65 198.65 0 0 1-36.42-50.3c-8.16-16.05-14.4-35.34-18.54-55.76-2.7-13.38-4.48-42.8-5.3-65.65-.33-9.4-.5-21.54-.5-27.12l.08-504.23c0-5.6.17-17.77.5-27.16.83-23 2.65-52.66 5.4-66.17 4.15-20.3 10.4-39.48 18.55-55.43a198.65 198.65 0 0 1 36.56-50.36 198.7 198.7 0 0 1 50.32-36.42c16-8.17 35.3-14.42 55.72-18.55 13.38-2.7 42.8-4.5 65.65-5.3 9.4-.33 21.56-.5 27.15-.5l504.22.08c5.6 0 17.77.17 27.16.5 23 .83 52.65 2.65 66.17 5.4 20.3 4.15 39.47 10.4 55.42 18.55a198.64 198.64 0 0 1 50.34 36.57 198.66 198.66 0 0 1 36.43 50.3c8.17 16.05 14.43 35.34 18.55 55.76 2.7 13.38 4.5 42.8 5.3 65.65.34 9.4.5 21.56.5 27.15z"/><path fill="#fff" d="M783.3 243.25c-69.33-69.4-161.53-107.62-259.76-107.66-202.4 0-367.13 164.64-367.2 367.04a366.36 366.36 0 0 0 49 183.52l-52.1 190.23 194.67-51.05a367.06 367.06 0 0 0 175.5 44.7h.16c202.4 0 367.13-164.7 367.2-367.1.05-98.1-38.1-190.33-107.44-259.7zm-259.76 564.8h-.12a304.8 304.8 0 0 1-155.34-42.53l-11.15-6.6L241.4 789.2l30.84-112.6-7.26-11.54a304.32 304.32 0 0 1-46.67-162.38c.1-168.22 137-305.1 305.37-305.1 81.52.04 158.16 31.82 215.78 89.5s89.34 134.32 89.3 215.85c-.05 168.24-136.97 305.12-305.2 305.12zm167.42-228.52c-9.18-4.6-54.3-26.78-62.7-29.84-8.4-3.1-14.52-4.6-20.64 4.6-6.12 9.14-23.7 29.8-29.06 35.93-5.35 6.12-10.7 6.88-19.87 2.3-9.2-4.6-38.78-14.3-73.8-45.53-27.3-24.3-45.7-54.35-51.06-63.54-5.36-9.18-.57-14.14 4.02-18.72 4.13-4.1 9.17-10.7 13.76-16.07 4.6-5.35 6.12-9.18 9.18-15.3s1.54-11.48-.76-16.07c-2.3-4.6-20.64-49.73-28.3-68.1-7.43-17.9-15-15.46-20.63-15.74-5.33-.27-11.45-.32-17.6-.32s-16.02 2.3-24.43 11.47-32.12 31.4-32.12 76.56c0 45.14 32.88 88.76 37.47 94.88s64.7 98.77 156.75 138.5a527.9 527.9 0 0 0 52.3 19.32c22 6.98 42 6 57.8 3.64 17.63-2.64 54.28-22.2 61.93-43.63s7.64-39.8 5.34-43.6c-2.3-3.84-8.4-6.14-17.58-10.73z"/></svg>