<svg xmlns="http://www.w3.org/2000/svg" viewBox="0 0 50 50" xmlns:xlink="http://www.w3.org/1999/xlink"><linearGradient id="a"><stop offset="0" stop-color="#00ffde"/><stop offset="1" stop-color="#2ac6ff"/></linearGradient><linearGradient id="b" x1="-1.3" x2="55.42" y1="47.56" y2=".96" gradientUnits="userSpaceOnUse" xlink:href="#a"/><linearGradient id="c" x1="4.41" x2="61.14" y1="54.51" y2="7.92" gradientUnits="userSpaceOnUse" xlink:href="#a"/><linearGradient id="d" x1="-8.56" x2="48.16" y1="38.72" y2="-7.88" gradientUnits="userSpaceOnUse" xlink:href="#a"/><linearGradient id="e" x1="5.08" x2="61.8" y1="55.32" y2="8.72" gradientUnits="userSpaceOnUse" xlink:href="#a"/><linearGradient id="f" x1="1.33" x2="58.06" y1="50.76" y2="4.17" gradientUnits="userSpaceOnUse" xlink:href="#a"/><linearGradient id="g" x1="-1.74" x2="54.98" y1="47.02" y2=".43" gradientUnits="userSpaceOnUse" xlink:href="#a"/><linearGradient id="h" x1=".66" x2="57.39" y1="49.95" y2="3.35" gradientUnits="userSpaceOnUse" xlink:href="#a"/><linearGradient id="i" x1="2" x2="58.72" y1="51.57" y2="4.98" gradientUnits="userSpaceOnUse" xlink:href="#a"/><linearGradient id="j" x1="-1.07" x2="55.65" y1="47.83" y2="1.24" gradientUnits="userSpaceOnUse" xlink:href="#a"/><linearGradient id="k" x1="7.48" x2="64.21" y1="58.25" y2="11.65" gradientUnits="userSpaceOnUse" xlink:href="#a"/><linearGradient id="l" x1="-4.82" x2="51.91" y1="43.27" y2="-3.32" gradientUnits="userSpaceOnUse" xlink:href="#a"/><linearGradient id="m" x1="3.74" x2="60.46" y1="53.69" y2="7.1" gradientUnits="userSpaceOnUse" xlink:href="#a"/><linearGradient id="n" x1="8.15" x2="64.87" y1="59.06" y2="12.47" gradientUnits="userSpaceOnUse" xlink:href="#a"/><linearGradient id="o" x1="11.23" x2="67.95" y1="62.81" y2="16.21" gradientUnits="userSpaceOnUse" xlink:href="#a"/><linearGradient id="p" x1="-2.41" x2="54.31" y1="46.2" y2="-.39" gradientUnits="userSpaceOnUse" xlink:href="#a"/><linearGradient id="q" x1="-5.49" x2="51.23" y1="42.45" y2="-4.14" gradientUnits="userSpaceOnUse" xlink:href="#a"/><path fill="url(#b)" d="M.6 45.7V6.3c0-.1.1-.1.1-.2.6-1.9 1.9-2.9 3.9-2.9h1.3V1.7c0-.5.3-.8.7-.8s.7.3.7.8v1.4h35.2V1.7c0-.2 0-.4.1-.5.4-.2.6-.3.9-.3s.5.3.5.7v1.6h1.7c1.1 0 2 .4 2.7 1.3.4.5.7 1.2 1 1.9v39.4s-.1 0-.1.1c-.4 1.8-2 3.1-4.2 3.1-9.1-.1-18.1 0-27.2 0H4.5c-1.3 0-2.4-.5-3.2-1.6-.3-.6-.4-1.2-.7-1.7zM2 15.3v29.3c0 1.8.9 2.8 2.7 2.8h40.4c1.8 0 2.7-.9 2.7-2.7V15.3zm45.9-1.5V6.9c0-1.1-.7-2.1-1.7-2.2-.7-.1-1.4-.1-2.2-.1v1.3c0 .3.1.5.4.6 1.5.6 2.3 2.3 1.7 3.8-.5 1.4-2.2 2.3-3.7 1.8-1.2-.4-2.1-1.5-2.1-2.7-.1-1.4.7-2.5 1.9-3 .1-.1.3-.2.3-.3V4.6H7.3v1.1c0 .4.1.5.4.7 1.5.6 2.2 2.3 1.7 3.9-.6 1.5-2.2 2.3-3.7 1.8-1.2-.4-2-1.5-2.1-2.8 0-1.3.7-2.4 1.9-2.9.1-.1.3-.2.4-.3V4.6H4.6C3 4.6 2.1 5.5 2 7.2v6.6zm-3.8-5.9c0 .4 0 .8-.1 1.2 0 .5-.3.8-.7.8-.5 0-.7-.3-.7-.8V7.9c-.7.4-1 1.1-.8 1.8s.8 1.2 1.6 1.1c.7 0 1.3-.5 1.4-1.2.2-.7-.1-1.4-.7-1.7zM6 7.8c-.8.5-1 1.2-.8 1.9s.9 1.1 1.6 1.1c.7-.1 1.3-.7 1.4-1.4S8 8.1 7.4 7.9v1.2c0 .5-.3.8-.7.8-.5 0-.7-.3-.7-.8-.1-.4 0-.8 0-1.3z"/><path fill="url(#c)" d="M29.6 31.2c.1-1.7 1.5-3 3.1-2.8 1.8.1 3 1.7 2.9 3.2-.1 1.7-1.6 3-3.1 2.9-1.7-.3-3-1.7-2.9-3.3zm1.7.9c.4.6.9.9 1.6.8.5-.1.8-.3 1.1-.8zm0-1.6h2.6c-.6-1-1.9-1-2.6 0z"/><path fill="url(#d)" d="M12.7 23.7a3 3 0 0 1-3 3c-1.6 0-3-1.4-3-3s1.4-3 3-3c1.7 0 3 1.3 3 3zm-4.2-.8h2.6c-.7-1.1-2.4-.9-2.6 0zm2.6 1.6H8.5c.6 1 1.8 1 2.6 0z"/><path fill="url(#e)" d="M25 36c1.7 0 3.1 1.4 3 3 0 1.6-1.4 3-3 3s-3-1.4-3-3c0-1.7 1.3-3 3-3zm1.3 2.2c-.3-.6-.8-.9-1.4-.8-.6 0-1 .4-1.1.8zm0 1.5h-2.7c.3.6.8.8 1.3.8.7 0 1.1-.2 1.4-.8z"/><path fill="url(#f)" d="M25 34.3c-1.6 0-3-1.4-3-3s1.4-3 3-3 3 1.4 3 3a3 3 0 0 1-3 3zm1.5-3c0-.9-.7-1.5-1.5-1.5-.9 0-1.6.7-1.6 1.6s.7 1.5 1.5 1.5c1 0 1.6-.7 1.6-1.6z"/><path fill="url(#g)" d="M20.4 31.2a3 3 0 0 1-6 .2 3 3 0 0 1 6-.2zm-3 1.7c.9 0 1.5-.7 1.6-1.5 0-.9-.7-1.6-1.5-1.6-.9 0-1.6.7-1.6 1.6-.1.8.6 1.5 1.5 1.5z"/><path fill="url(#h)" d="M29.6 23.6c.1-1.7 1.4-3 3-3 1.7 0 3.1 1.5 3 3.1-.1 1.7-1.5 3-3.1 3-1.6-.1-2.9-1.5-2.9-3.1zm3 1.6c.9 0 1.6-.7 1.6-1.6s-.7-1.5-1.5-1.5c-.9 0-1.6.7-1.6 1.6s.7 1.5 1.5 1.5z"/><path fill="url(#i)" d="M17.4 36a3 3 0 0 1 3 3c0 1.7-1.4 3-3.1 3-1.6 0-3-1.4-3-3 .1-1.7 1.4-3 3.1-3zm0 1.4c-.9 0-1.6.7-1.6 1.6s.7 1.5 1.5 1.6c.8 0 1.6-.7 1.6-1.5 0-1-.6-1.7-1.5-1.7z"/><path fill="url(#j)" d="M12.7 38.9c0 1.7-1.3 3-3 3-1.6 0-3-1.4-3-3a3 3 0 0 1 3-3c1.7.1 3 1.4 3 3zm-3-1.5c-.8 0-1.5.7-1.6 1.5 0 .9.7 1.6 1.6 1.6.8 0 1.5-.7 1.5-1.5.1-.9-.6-1.6-1.5-1.6z"/><path fill="url(#k)" d="M37.3 31.3c0-1.7 1.3-3 3-3a3 3 0 0 1 3 3c0 1.6-1.4 3-3 3-1.6.1-3-1.3-3-3zm3 1.6c.9 0 1.6-.7 1.5-1.6 0-.9-.7-1.5-1.6-1.5-.8 0-1.5.7-1.5 1.6 0 .8.7 1.5 1.6 1.5z"/><path fill="url(#l)" d="M12.7 31.3a3 3 0 0 1-3 3c-1.6 0-3-1.4-3-3s1.4-3 3-3a3 3 0 0 1 3 3zm-3 1.6c.9 0 1.6-.7 1.6-1.5 0-.9-.7-1.6-1.6-1.6s-1.6.7-1.6 1.6c.1.8.8 1.5 1.6 1.5z"/><path fill="url(#m)" d="M37.3 23.7a3 3 0 0 1 3-3c1.6 0 3 1.4 3 3s-1.4 3.1-3 3a3 3 0 0 1-3-3zm1.4 0c0 .9.7 1.5 1.5 1.6.9 0 1.6-.7 1.6-1.5s-.7-1.5-1.5-1.6c-.9-.1-1.6.6-1.6 1.5z"/><path fill="url(#n)" d="M29.6 39.1a3 3 0 1 1 6-.2c.1 1.5-1.2 3-2.8 3.1-1.7.1-3.1-1.2-3.2-2.9zm3-1.7c-.9 0-1.5.7-1.5 1.6 0 .8.7 1.5 1.5 1.5.9 0 1.6-.7 1.6-1.6 0-.8-.7-1.5-1.6-1.5z"/><path fill="url(#o)" d="M37.3 38.9c0-1.7 1.4-3 3-2.9 1.7 0 3 1.4 3 3.1 0 1.6-1.4 3-3.1 2.9-1.6-.1-3-1.5-2.9-3.1zm1.4.1c0 .9.7 1.6 1.6 1.6.8 0 1.5-.7 1.6-1.5 0-.8-.7-1.6-1.6-1.6-.9-.1-1.6.6-1.6 1.5z"/><path fill="url(#p)" d="M25 26.7c-1.7 0-3.1-1.5-3-3.1.1-1.7 1.4-3 3-3 1.7 0 3.1 1.5 3 3.1a3 3 0 0 1-3 3zm0-1.5c.9 0 1.6-.6 1.6-1.5s-.6-1.6-1.5-1.6-1.6.7-1.6 1.5c-.1 1 .6 1.6 1.5 1.6z"/><path fill="url(#q)" d="M20.4 23.6a3 3 0 0 1-6 .2c-.1-1.6 1.2-3.1 2.9-3.1 1.6-.1 3 1.1 3.1 2.9zm-3 1.6c.9 0 1.6-.7 1.6-1.5 0-.9-.7-1.6-1.5-1.6-.9 0-1.6.7-1.6 1.6-.1.9.6 1.5 1.5 1.5z"/></svg>