<svg xmlns="http://www.w3.org/2000/svg" enable-background="new 0 0 58.6 51.1" viewBox="0 0 58.6 51.1" xmlns:xlink="http://www.w3.org/1999/xlink"><linearGradient id="a"><stop offset="0" stop-color="#00ffde"/><stop offset="1" stop-color="#2ac6ff"/></linearGradient><linearGradient id="b" x1="1.363" x2="63.756" y1="49.508" y2="11.155" gradientUnits="userSpaceOnUse" xlink:href="#a"/><linearGradient id="c" x1="10.567" x2="72.595" y1="65.259" y2="27.131" gradientUnits="userSpaceOnUse" xlink:href="#a"/><linearGradient id="d" x1="6.452" x2="67.772" y1="57.56" y2="19.867" gradientUnits="userSpaceOnUse" xlink:href="#a"/><linearGradient id="e" x1="6.157" x2="67.52" y1="56.806" y2="19.087" gradientUnits="userSpaceOnUse" xlink:href="#a"/><linearGradient id="f" x1="-3.424" x2="59.464" y1="41.75" y2="3.093" gradientUnits="userSpaceOnUse" xlink:href="#a"/><path fill="url(#b)" d="M51.1 18.2h-7.8L54 6.8c.5-.6.9-1.4.9-2.2S54.6 3 54 2.4l-1.1-1.2c-1.1-1.2-3-1.2-4.1 0l-16 16.9H4.9c-1.9 0-3.4 1.6-3.4 3.6v22.6c0 2 1.5 3.6 3.4 3.6h46.2c1.9 0 3.4-1.6 3.4-3.6V21.8c.1-2-1.5-3.6-3.4-3.6zm-.8-15.3c.3-.3.8-.3 1.1 0l1.1 1.2c.1.2.2.4.2.6s-.1.4-.2.6l-2.7 2.9-1.9-2-.3-.3zm-4.2 4.5l2.2 2.4L27 32.2l-3.3 1.2 1.1-3.5zm6.3 37c0 .8-.6 1.4-1.3 1.4H4.9c-.7 0-1.3-.6-1.3-1.4V21.8c0-.8.6-1.4 1.3-1.4h25.7l-7.6 8c-.1.1-.2.3-.3.4l-1.7 6c-.1.4 0 .9.3 1.2.2.2.5.3.8.3.1 0 .2 0 .3-.1l5.6-2c.2-.1.3-.1.4-.3l12.8-13.5h10c.7 0 1.3.6 1.3 1.4z"/><path fill="url(#c)" d="M48.5 41h-.6c-.6 0-1.1.5-1.1 1.1s.5 1.1 1.1 1.1h.6c.6 0 1.1-.5 1.1-1.1s-.5-1.1-1.1-1.1z"/><path fill="url(#d)" d="M43.7 41H19.5c-.6 0-1.1.5-1.1 1.1s.5 1.1 1.1 1.1h24.2c.6 0 1.1-.5 1.1-1.1-.1-.6-.5-1.1-1.1-1.1z"/><path fill="url(#e)" d="M48.5 34.5H32.7c-.6 0-1.1.5-1.1 1.1s.5 1.1 1.1 1.1h15.8c.6 0 1.1-.5 1.1-1.1s-.5-1.1-1.1-1.1z"/><path fill="url(#f)" d="M12.7 30.8v-4.2c1.4.1 1.9.8 2.3.8.6 0 .9-.8.9-1.2 0-1-1.9-1.4-3.2-1.5v-.6c0-.2-.3-.5-.6-.5s-.6.2-.6.5v.6c-1.8.2-3.7 1.2-3.7 3.8s1.9 3.4 3.7 4v4.8c-2-.2-2.5-1.6-3.1-1.6-.5 0-.9.7-.9 1.2 0 1 1.6 2.4 4 2.4v.6c0 .2.2.5.6.5.3 0 .6-.2.6-.5v-.7c2.1-.3 3.5-1.7 3.5-4.2.1-2.6-1.8-3.5-3.5-4.2zm-1-.3c-1-.4-1.9-.8-1.9-2 0-1.1.8-1.6 1.9-1.7 0-.1 0 3.7 0 3.7zm.9 7v-4.3c1 .4 1.7 1 1.7 2.3 0 1.1-.6 1.8-1.7 2z"/></svg>