<svg width="72" height="72" viewBox="0 0 72 72" fill="none" xmlns="http://www.w3.org/2000/svg">
<path d="M72 0H0V72H72V0Z" fill="#E9F2FF"/>
<path d="M36 16.8C33.8887 16.8 32.16 18.5287 32.16 20.64C32.16 21.9975 32.8875 23.1975 33.96 23.88L27.3 39.24L18.84 31.62C19.3537 30.9675 19.68 30.1687 19.68 29.28C19.68 27.1687 17.9513 25.44 15.84 25.44C13.7287 25.44 12 27.1687 12 29.28C12 31.29 13.5713 32.9362 15.54 33.09L18.78 46.23C18.7425 46.335 18.72 46.4475 18.72 46.56V54.24C18.72 54.7687 19.1513 55.2 19.68 55.2H52.32C52.8487 55.2 53.28 54.7687 53.28 54.24V46.56C53.2762 46.4587 53.2575 46.3575 53.22 46.26L56.46 33.09C58.4287 32.9362 60 31.29 60 29.28C60 27.1687 58.2712 25.44 56.16 25.44C54.0487 25.44 52.32 27.1687 52.32 29.28C52.32 30.1762 52.6387 30.9937 53.16 31.65L44.7 39.24L38.04 23.88C39.1125 23.1975 39.84 21.9975 39.84 20.64C39.84 18.5287 38.1112 16.8 36 16.8ZM36 18.72C37.0725 18.72 37.92 19.5675 37.92 20.64C37.92 21.7125 37.0725 22.56 36 22.56C34.9275 22.56 34.08 21.7125 34.08 20.64C34.08 19.5675 34.9275 18.72 36 18.72ZM35.82 24.45C35.88 24.4537 35.94 24.48 36 24.48C36.0712 24.48 36.1387 24.4537 36.21 24.45L43.47 41.25C43.5937 41.535 43.845 41.745 44.1487 41.8087C44.4525 41.8762 44.7712 41.79 45 41.58L54.48 33.03L51.42 45.6H20.58L17.52 33.06L27 41.58C27.2287 41.79 27.5475 41.8762 27.8512 41.8087C28.155 41.745 28.4062 41.535 28.53 41.25L35.82 24.45ZM15.84 27.36C16.9125 27.36 17.76 28.2075 17.76 29.28C17.76 30.3525 16.9125 31.2 15.84 31.2C14.7675 31.2 13.92 30.3525 13.92 29.28C13.92 28.2075 14.7675 27.36 15.84 27.36ZM56.16 27.36C57.2325 27.36 58.08 28.2075 58.08 29.28C58.08 30.3525 57.2325 31.2 56.16 31.2C55.0875 31.2 54.24 30.3525 54.24 29.28C54.24 28.2075 55.0875 27.36 56.16 27.36ZM20.64 47.52H51.36V53.28H20.64V47.52Z" fill="#0E6EFF"/>
</svg>
