<svg xmlns="http://www.w3.org/2000/svg" width="2500.105" height="2500.108"><path fill="#fff" d="M2499.9 1865.66c0 13.7-.4 43.38-1.23 66.3-2.02 56.12-6.46 128.52-13.2 161.5-10.1 49.58-25.36 96.38-45.26 135.32-23.52 46.08-53.55 87.34-89.23 122.96-35.6 35.55-76.84 65.46-122.84 88.9-39.15 19.96-86.24 35.23-136.1 45.3-32.66 6.6-104.52 10.95-160.27 12.93-22.95.83-52.65 1.24-66.28 1.24l-1231.03-.2c-13.68 0-43.37-.4-66.3-1.22-56.1-2-128.5-6.46-161.5-13.2-49.58-10.1-96.37-25.36-135.32-45.26-46.07-23.53-87.34-53.56-122.96-89.24-35.54-35.6-65.46-76.84-88.9-122.84-19.96-39.15-35.23-86.24-45.3-136.1-6.58-32.66-10.95-104.52-12.93-160.27C.4 1908.8 0 1879.1 0 1865.47L.2 634.45c0-13.7.4-43.38 1.24-66.3 2-56.12 6.46-128.52 13.18-161.5 10.1-49.6 25.38-96.4 45.28-135.35 23.53-46.07 53.56-87.34 89.25-122.96 35.6-35.54 76.83-65.46 122.84-88.9 39.13-19.95 86.22-35.22 136.07-45.3C440.74 7.6 512.6 3.22 568.37 1.24 591.3.4 621 0 634.63 0l1231.02.2c13.7 0 43.37.42 66.3 1.24 56.12 2 128.52 6.46 161.5 13.18 49.58 10.1 96.38 25.37 135.32 45.27 46.08 23.53 87.34 53.56 122.96 89.24 35.55 35.6 65.46 76.83 88.9 122.84 19.96 39.14 35.23 86.23 45.3 136.08 6.6 32.66 10.95 104.52 12.94 160.28.8 22.95 1.23 52.64 1.23 66.28z"/><path fill="#0084ff" d="M1250.05 272.17c-535.4 0-969.42 404.37-969.42 903.2 0 284.22 140.97 537.75 361.27 703.3v344.4l330.08-182.3c88.1 24.54 181.4 37.78 278.07 37.78 535.4 0 969.42-404.37 969.42-903.2s-434.02-903.18-969.42-903.18zm96.34 1216.3l-246.9-264.94-481.7 264.93 529.88-566 252.88 264.94 475.68-264.94z"/></svg>