<svg width="72" height="72" viewBox="0 0 72 72" fill="none" xmlns="http://www.w3.org/2000/svg">
<g clip-path="url(#clip0_790_6999)">
<path d="M72 0H0V72H72V0Z" fill="#F3FFF4"/>
<path d="M15.8409 16.8V18.72H55.2009V49.44H30.2409V51.3601H56.1609C56.7033 51.3601 57.1209 51.7776 57.1209 52.32V53.28H30.2409V55.2001H58.0809C58.3355 55.2001 58.5796 55.0988 58.7597 54.9188C58.9397 54.7388 59.0408 54.4947 59.0409 54.2401V52.32C59.0409 51.1136 58.1833 50.2651 57.1209 49.8395V17.76C57.1208 17.5054 57.0197 17.2612 56.8397 17.0812C56.6596 16.9012 56.4155 16.8 56.1609 16.8H15.8409ZM20.6409 22.56C16.9409 22.56 13.9209 25.5801 13.9209 29.2801C13.9209 32.9801 16.9409 36 20.6409 36C24.3408 36 27.3609 32.9801 27.3609 29.2801C27.3609 25.5801 24.3408 22.56 20.6409 22.56ZM31.2009 22.56V24.48H32.1609H41.7609H42.7209V22.56H41.7609H32.1609H31.2009ZM45.6009 22.56V24.48H46.5609H51.3609H52.3209V22.56H51.3609H46.5609H45.6009ZM20.6409 24.48C23.3032 24.48 25.4409 26.6178 25.4409 29.2801C25.4409 31.9424 23.3032 34.0801 20.6409 34.0801C17.9785 34.0801 15.8409 31.9424 15.8409 29.2801C15.8409 26.6178 17.9785 24.48 20.6409 24.48ZM31.2009 27.3601V29.2801H32.1609H51.3609H52.3209V27.3601H51.3609H32.1609H31.2009ZM39.2277 32.8726C39.0138 32.8689 38.8004 32.8861 38.5902 32.9231C37.7494 33.0712 36.9644 33.5413 36.4452 34.2938L32.7402 39.6619L29.2546 38.4995C28.1032 38.1153 26.8973 37.92 25.6846 37.92H18.7209C15.5513 37.92 12.9609 40.5104 12.9609 43.68V55.2001H14.8809V43.68C14.8809 41.5484 16.5893 39.84 18.7209 39.84H25.6846C26.6914 39.84 27.6923 40.0014 28.6471 40.32L32.8171 41.7113C33.0143 41.7769 33.2275 41.7768 33.4246 41.7108C33.6218 41.6449 33.7922 41.5167 33.9102 41.3456L38.0259 35.3831C38.4697 34.7398 39.3232 34.5894 39.959 35.042C39.959 35.0426 39.959 35.0432 39.959 35.0438C40.5799 35.4853 40.7284 36.3182 40.2965 36.9469L34.8515 44.8745C34.6149 45.2172 34.1945 45.3688 33.794 45.2532L27.6271 43.472C27.4841 43.4307 27.3335 43.4232 27.1871 43.4501C27.0408 43.477 26.9027 43.5377 26.7838 43.6272C26.6649 43.7167 26.5684 43.8325 26.5019 43.9656C26.4354 44.0988 26.4009 44.2456 26.4009 44.3945V55.2001H28.3209V45.6712L33.2615 47.0981C34.4501 47.4412 35.7334 46.9812 36.434 45.9619C36.4346 45.9619 36.4352 45.9619 36.4359 45.9619L41.879 38.0345V38.0326C42.8916 36.5571 42.5307 34.5147 41.0727 33.4781C40.5141 33.0805 39.8696 32.8836 39.2277 32.8726Z" fill="#47AD4B"/>
</g>
<defs>
<clipPath id="clip0_790_6999">
<rect width="72" height="72" fill="white"/>
</clipPath>
</defs>
</svg>
