<svg width="209" height="33" viewBox="0 0 209 33" fill="none" xmlns="http://www.w3.org/2000/svg">
<path d="M16.8766 0L21.376 11.6027L33.7533 12.2345L24.1201 20.1124L27.2845 32.0667L16.8766 25.3864L6.46883 32.0667L9.6332 20.1124L0 12.2345L12.3773 11.6027L16.8766 0Z" fill="#FFAB09"/>
<path d="M60.6306 0L65.1299 11.6027L77.5072 12.2345L67.874 20.1124L71.0384 32.0667L60.6306 25.3864L50.2227 32.0667L53.3871 20.1124L43.7539 12.2345L56.1312 11.6027L60.6306 0Z" fill="#FFAB09"/>
<path d="M104.384 0L108.884 11.6027L121.261 12.2345L111.628 20.1124L114.792 32.0667L104.384 25.3864L93.9766 32.0667L97.141 20.1124L87.5078 12.2345L99.8851 11.6027L104.384 0Z" fill="#FFAB09"/>
<path d="M148.136 0L152.636 11.6027L165.013 12.2345L155.38 20.1124L158.544 32.0667L148.136 25.3864L137.729 32.0667L140.893 20.1124L131.26 12.2345L143.637 11.6027L148.136 0Z" fill="#FFAB09"/>
<path d="M191.89 0L196.39 11.6027L208.767 12.2345L199.134 20.1124L202.298 32.0667L191.89 25.3864L181.483 32.0667L184.647 20.1124L175.014 12.2345L187.391 11.6027L191.89 0Z" fill="#FFAB09"/>
</svg>
