<svg width="72" height="72" viewBox="0 0 72 72" fill="none" xmlns="http://www.w3.org/2000/svg">
<path d="M72 0H0V72H72V0Z" fill="#E9F2FF"/>
<path d="M23.5199 12C22.4699 12 21.5999 12.87 21.5999 13.92V15.84H15.8399C15.3374 15.84 14.8274 16.0237 14.4674 16.3875C14.1037 16.7475 13.9199 17.2575 13.9199 17.76V56.16C13.9199 56.6625 14.1037 57.1725 14.4674 57.5363C14.8274 57.8963 15.3374 58.08 15.8399 58.08H56.1599C56.6624 58.08 57.1724 57.8963 57.5362 57.5363C57.8962 57.1725 58.0799 56.6625 58.0799 56.16V17.76C58.0799 17.2575 57.8962 16.7475 57.5362 16.3875C57.1724 16.0237 56.6624 15.84 56.1599 15.84H50.3999V13.92C50.3999 12.87 49.5299 12 48.4799 12H46.5599C45.5099 12 44.6399 12.87 44.6399 13.92V15.84H27.3599V13.92C27.3599 12.87 26.4899 12 25.4399 12H23.5199ZM23.5199 13.92H25.4399V19.68H23.5199V13.92ZM46.5599 13.92H48.4799V19.68H46.5599V13.92ZM15.8399 17.76H21.5999V19.68C21.5999 20.73 22.4699 21.6 23.5199 21.6H25.4399C26.4899 21.6 27.3599 20.73 27.3599 19.68V17.76H44.6399V19.68C44.6399 20.73 45.5099 21.6 46.5599 21.6H48.4799C49.5299 21.6 50.3999 20.73 50.3999 19.68V17.76H56.1599V24.48H15.8399V17.76ZM15.8399 26.4H56.1599V56.16H15.8399V26.4ZM21.5999 30.24V52.32H50.3999V30.24H21.5999ZM23.5199 32.16H28.3199V36.96H23.5199V32.16ZM30.2399 32.16H35.0399V36.96H30.2399V32.16ZM36.9599 32.16H41.7599V36.96H36.9599V32.16ZM43.6799 32.16H48.4799V36.96H43.6799V32.16ZM23.5199 38.88H28.3199V43.68H23.5199V38.88ZM30.2399 38.88H35.0399V43.68H30.2399V38.88ZM36.9599 38.88H41.7599V43.68H36.9599V38.88ZM43.6799 38.88H48.4799V43.68H43.6799V38.88ZM23.5199 45.6H28.3199V50.4H23.5199V45.6ZM30.2399 45.6H35.0399V50.4H30.2399V45.6ZM36.9599 45.6H41.7599V50.4H36.9599V45.6ZM43.6799 45.6H48.4799V50.4H43.6799V45.6Z" fill="#0E6EFF"/>
</svg>
