<!-- Generator: Adobe Illustrator 21.1.0, SVG Export Plug-In  -->
<svg version="1.1"
	 xmlns="http://www.w3.org/2000/svg" xmlns:xlink="http://www.w3.org/1999/xlink" xmlns:a="http://ns.adobe.com/AdobeSVGViewerExtensions/3.0/"
	 x="0px" y="0px" width="119.664px" height="40px" viewBox="0 0 119.664 40" style="enable-background:new 0 0 119.664 40;"
	 xml:space="preserve">
<style type="text/css">
	.st0{fill:#B7B7B7;}
	.st1{fill:#000001;}
	.st2{fill:#FFFFFF;}
</style>
<defs>
</defs>
<g>
	<g>
		<g>
			<g>
				<path class="st0" d="M110.135,0H9.535C9.168,0,8.806,0,8.44,0.002C8.134,0.004,7.83,0.01,7.521,0.015
					C6.855,0.031,6.182,0.072,5.517,0.191C4.848,0.309,4.226,0.509,3.616,0.818C3.018,1.125,2.471,1.523,1.998,1.997
					C1.519,2.471,1.123,3.02,0.819,3.618C0.508,4.227,0.311,4.852,0.194,5.521C0.074,6.184,0.032,6.854,0.015,7.523
					C0.006,7.83,0.005,8.138,0,8.444C0,8.807,0,9.17,0,9.536v20.929c0,0.369,0,0.73,0,1.094c0.005,0.311,0.006,0.611,0.015,0.922
					c0.017,0.67,0.059,1.34,0.179,2.002c0.117,0.67,0.314,1.298,0.625,1.904c0.303,0.596,0.7,1.145,1.178,1.614
					c0.473,0.478,1.02,0.875,1.619,1.179c0.609,0.312,1.231,0.51,1.901,0.631c0.665,0.119,1.338,0.158,2.004,0.177
					c0.309,0.007,0.613,0.011,0.919,0.011C8.806,40,9.168,40,9.535,40h100.6c0.359,0,0.725,0,1.084-0.002
					c0.305,0,0.617-0.004,0.922-0.011c0.67-0.019,1.342-0.058,2-0.177c0.67-0.121,1.293-0.318,1.908-0.631
					c0.598-0.304,1.145-0.701,1.617-1.179c0.477-0.47,0.873-1.019,1.182-1.614c0.307-0.606,0.506-1.234,0.619-1.904
					c0.123-0.662,0.162-1.332,0.186-2.002c0.004-0.311,0.004-0.611,0.004-0.922c0.008-0.363,0.008-0.725,0.008-1.094V9.536
					c0-0.366,0-0.729-0.008-1.092c0-0.307,0-0.614-0.004-0.921c-0.023-0.67-0.062-1.34-0.186-2.002
					c-0.113-0.67-0.312-1.295-0.619-1.903c-0.309-0.599-0.705-1.147-1.182-1.621c-0.473-0.474-1.02-0.872-1.617-1.179
					c-0.615-0.31-1.238-0.51-1.908-0.627c-0.658-0.119-1.33-0.16-2-0.177c-0.305-0.005-0.617-0.011-0.922-0.013
					C110.859,0,110.494,0,110.135,0L110.135,0z"/>
				<path class="st1" d="M8.445,39.125c-0.305,0-0.602-0.004-0.904-0.011c-0.559-0.016-1.222-0.047-1.869-0.163
					c-0.61-0.11-1.153-0.29-1.657-0.548c-0.521-0.265-0.99-0.606-1.397-1.017c-0.414-0.406-0.754-0.873-1.021-1.396
					c-0.259-0.505-0.437-1.047-0.543-1.657c-0.122-0.673-0.153-1.355-0.166-1.875c-0.006-0.211-0.015-0.913-0.015-0.913V8.444
					c0,0,0.009-0.691,0.015-0.895c0.013-0.524,0.044-1.206,0.166-1.872C1.16,5.064,1.337,4.522,1.597,4.016
					c0.266-0.524,0.606-0.994,1.015-1.398c0.414-0.414,0.884-0.757,1.402-1.022c0.514-0.261,1.055-0.439,1.653-0.544
					C6.341,0.931,7.023,0.9,7.543,0.887l0.902-0.012h102.769l0.913,0.013c0.513,0.013,1.195,0.043,1.858,0.163
					c0.603,0.105,1.147,0.285,1.671,0.548c0.513,0.263,0.982,0.605,1.392,1.016c0.409,0.406,0.752,0.878,1.023,1.404
					c0.258,0.511,0.434,1.053,0.535,1.649c0.116,0.631,0.152,1.279,0.174,1.887c0.003,0.283,0.003,0.587,0.003,0.89
					c0.008,0.375,0.008,0.732,0.008,1.092v20.929c0,0.363,0,0.718-0.008,1.075c0,0.325,0,0.623-0.004,0.93
					c-0.021,0.589-0.057,1.236-0.171,1.854c-0.104,0.613-0.279,1.155-0.54,1.67c-0.27,0.52-0.612,0.989-1.016,1.386
					c-0.413,0.418-0.882,0.759-1.399,1.023c-0.519,0.264-1.048,0.438-1.668,0.55c-0.641,0.116-1.304,0.147-1.869,0.163
					c-0.293,0.007-0.6,0.011-0.897,0.011l-1.084,0.002L8.445,39.125z"/>
			</g>
		</g>
		<g id="XMLID_3_">
			<g id="XMLID_4_">
				<g id="XMLID_5_">
					<path id="XMLID_7_" class="st2" d="M24.769,20.301c-0.025-2.751,2.252-4.089,2.357-4.152c-1.29-1.881-3.289-2.138-3.991-2.158
						c-1.679-0.176-3.307,1.005-4.163,1.005c-0.872,0-2.19-0.987-3.609-0.958c-1.826,0.028-3.536,1.086-4.473,2.728
						c-1.934,3.348-0.491,8.269,1.361,10.976c0.927,1.325,2.01,2.806,3.428,2.753c1.387-0.058,1.905-0.884,3.579-0.884
						c1.659,0,2.145,0.884,3.591,0.851c1.488-0.024,2.426-1.331,3.321-2.669c1.071-1.52,1.501-3.016,1.518-3.093
						C27.653,24.688,24.797,23.599,24.769,20.301z"/>
					<path id="XMLID_6_" class="st2" d="M22.037,12.211c0.746-0.933,1.256-2.202,1.115-3.491c-1.08,0.048-2.43,0.746-3.208,1.66
						c-0.688,0.804-1.302,2.122-1.144,3.361C20.013,13.831,21.259,13.129,22.037,12.211z"/>
				</g>
			</g>
			<g>
				<path class="st2" d="M42.302,27.14h-4.733l-1.137,3.356h-2.005l4.483-12.418h2.083l4.483,12.418h-2.039L42.302,27.14z
					 M38.059,25.591h3.752l-1.85-5.447H39.91L38.059,25.591z"/>
				<path class="st2" d="M55.16,25.97c0,2.813-1.506,4.621-3.778,4.621c-1.29,0-2.314-0.577-2.849-1.584H48.49v4.484h-1.858V21.442
					h1.799v1.506h0.034c0.517-0.972,1.618-1.601,2.883-1.601C53.645,21.348,55.16,23.164,55.16,25.97z M53.25,25.97
					c0-1.833-0.947-3.038-2.393-3.038c-1.42,0-2.375,1.23-2.375,3.038c0,1.824,0.955,3.046,2.375,3.046
					C52.302,29.016,53.25,27.819,53.25,25.97z"/>
				<path class="st2" d="M65.125,25.97c0,2.813-1.506,4.621-3.778,4.621c-1.29,0-2.314-0.577-2.849-1.584h-0.043v4.484h-1.858
					V21.442h1.799v1.506h0.034c0.517-0.972,1.618-1.601,2.883-1.601C63.61,21.348,65.125,23.164,65.125,25.97z M63.214,25.97
					c0-1.833-0.947-3.038-2.393-3.038c-1.42,0-2.375,1.23-2.375,3.038c0,1.824,0.955,3.046,2.375,3.046
					C62.267,29.016,63.214,27.819,63.214,25.97z"/>
				<path class="st2" d="M71.71,27.036c0.138,1.231,1.334,2.04,2.969,2.04c1.566,0,2.693-0.809,2.693-1.919
					c0-0.964-0.68-1.541-2.289-1.937l-1.609-0.388c-2.28-0.551-3.339-1.617-3.339-3.348c0-2.143,1.867-3.614,4.519-3.614
					c2.624,0,4.423,1.472,4.483,3.614h-1.876c-0.112-1.239-1.137-1.987-2.634-1.987s-2.521,0.757-2.521,1.858
					c0,0.878,0.654,1.395,2.255,1.79l1.368,0.336c2.548,0.603,3.606,1.626,3.606,3.442c0,2.323-1.851,3.778-4.794,3.778
					c-2.754,0-4.613-1.421-4.733-3.667H71.71z"/>
				<path class="st2" d="M83.346,19.3v2.143h1.722v1.472h-1.722v4.991c0,0.775,0.345,1.137,1.102,1.137
					c0.189,0,0.491-0.026,0.611-0.043v1.463c-0.206,0.052-0.619,0.086-1.032,0.086c-1.833,0-2.548-0.688-2.548-2.444v-5.189h-1.316
					v-1.472h1.316V19.3H83.346z"/>
				<path class="st2" d="M86.065,25.97c0-2.849,1.678-4.639,4.294-4.639c2.625,0,4.295,1.79,4.295,4.639
					c0,2.856-1.661,4.639-4.295,4.639C87.726,30.608,86.065,28.826,86.065,25.97z M92.76,25.97c0-1.954-0.896-3.107-2.401-3.107
					s-2.4,1.162-2.4,3.107c0,1.962,0.895,3.106,2.4,3.106S92.76,27.932,92.76,25.97z"/>
				<path class="st2" d="M96.186,21.442h1.772v1.541h0.043c0.284-1.024,1.11-1.636,2.178-1.636c0.267,0,0.49,0.035,0.637,0.069
					v1.738c-0.146-0.061-0.474-0.112-0.835-0.112c-1.196,0-1.937,0.81-1.937,2.083v5.37h-1.858V21.442z"/>
				<path class="st2" d="M109.384,27.837c-0.25,1.644-1.851,2.771-3.898,2.771c-2.634,0-4.269-1.765-4.269-4.596
					c0-2.84,1.644-4.682,4.19-4.682c2.505,0,4.08,1.721,4.08,4.466v0.637h-6.395v0.112c0,1.549,0.973,2.564,2.436,2.564
					c1.032,0,1.842-0.49,2.091-1.273H109.384z M103.102,25.135h4.526c-0.043-1.386-0.93-2.298-2.221-2.298
					C104.126,22.837,103.197,23.767,103.102,25.135z"/>
			</g>
		</g>
	</g>
	<g id="XMLID_2_">
		<g>
			<path class="st2" d="M37.826,8.731c1.77,0,2.808,1.087,2.808,2.965c0,1.906-1.03,3.002-2.808,3.002h-2.155V8.731H37.826z
				 M36.598,13.854h1.125c1.248,0,1.968-0.777,1.968-2.146c0-1.348-0.731-2.134-1.968-2.134h-1.125V13.854z"/>
			<path class="st2" d="M41.681,12.444c0-1.452,0.811-2.336,2.125-2.336c1.312,0,2.122,0.885,2.122,2.336
				c0,1.459-0.807,2.34-2.122,2.34C42.487,14.785,41.681,13.904,41.681,12.444z M45.014,12.444c0-0.976-0.438-1.547-1.208-1.547
				c-0.772,0-1.207,0.571-1.207,1.547c0,0.984,0.435,1.55,1.207,1.55C44.575,13.995,45.014,13.424,45.014,12.444z"/>
			<path class="st2" d="M51.573,14.698h-0.922l-0.931-3.316h-0.07l-0.927,3.316h-0.913l-1.241-4.503h0.901l0.807,3.436h0.066
				l0.926-3.436h0.853l0.926,3.436h0.07l0.803-3.436h0.889L51.573,14.698z"/>
			<path class="st2" d="M53.854,10.195h0.855v0.715h0.066c0.219-0.5,0.666-0.802,1.344-0.802c1.005,0,1.559,0.604,1.559,1.675v2.915
				h-0.889v-2.692c0-0.724-0.314-1.083-0.972-1.083s-1.075,0.438-1.075,1.141v2.634h-0.889V10.195z"/>
			<path class="st2" d="M59.094,8.437h0.889v6.261h-0.889V8.437z"/>
			<path class="st2" d="M61.218,12.444c0-1.452,0.811-2.336,2.125-2.336c1.312,0,2.123,0.885,2.123,2.336
				c0,1.459-0.807,2.34-2.123,2.34C62.024,14.785,61.218,13.904,61.218,12.444z M64.551,12.444c0-0.976-0.438-1.547-1.208-1.547
				c-0.772,0-1.207,0.571-1.207,1.547c0,0.984,0.435,1.55,1.207,1.55C64.112,13.995,64.551,13.424,64.551,12.444z"/>
			<path class="st2" d="M66.401,13.424c0-0.811,0.604-1.278,1.675-1.344l1.22-0.07v-0.389c0-0.476-0.314-0.744-0.922-0.744
				c-0.496,0-0.84,0.182-0.938,0.5h-0.86c0.091-0.773,0.818-1.27,1.84-1.27c1.129,0,1.766,0.562,1.766,1.513v3.077h-0.855v-0.633
				h-0.07c-0.269,0.451-0.761,0.707-1.353,0.707C67.034,14.772,66.401,14.247,66.401,13.424z M69.295,13.04v-0.376l-1.1,0.07
				c-0.62,0.042-0.901,0.252-0.901,0.649c0,0.405,0.352,0.641,0.835,0.641C68.799,14.024,69.295,13.598,69.295,13.04z"/>
			<path class="st2" d="M71.348,12.444c0-1.423,0.731-2.324,1.869-2.324c0.616,0,1.137,0.293,1.381,0.79h0.066V8.437h0.889v6.261
				h-0.852v-0.711h-0.07c-0.269,0.492-0.794,0.786-1.414,0.786C72.072,14.772,71.348,13.871,71.348,12.444z M72.266,12.444
				c0,0.955,0.45,1.53,1.203,1.53c0.749,0,1.212-0.583,1.212-1.526c0-0.938-0.468-1.53-1.212-1.53
				C72.721,10.918,72.266,11.497,72.266,12.444z"/>
			<path class="st2" d="M79.23,12.444c0-1.452,0.811-2.336,2.125-2.336c1.312,0,2.122,0.885,2.122,2.336
				c0,1.459-0.807,2.34-2.122,2.34C80.037,14.785,79.23,13.904,79.23,12.444z M82.563,12.444c0-0.976-0.438-1.547-1.208-1.547
				c-0.772,0-1.207,0.571-1.207,1.547c0,0.984,0.435,1.55,1.207,1.55C82.125,13.995,82.563,13.424,82.563,12.444z"/>
			<path class="st2" d="M84.669,10.195h0.855v0.715h0.066c0.219-0.5,0.666-0.802,1.344-0.802c1.005,0,1.559,0.604,1.559,1.675v2.915
				h-0.889v-2.692c0-0.724-0.314-1.083-0.972-1.083s-1.075,0.438-1.075,1.141v2.634h-0.889V10.195z"/>
			<path class="st2" d="M93.515,9.074v1.142h0.976v0.749h-0.976v2.315c0,0.472,0.194,0.678,0.637,0.678
				c0.137,0,0.215-0.008,0.339-0.021v0.74c-0.145,0.024-0.311,0.045-0.483,0.045c-0.988,0-1.382-0.348-1.382-1.216v-2.543h-0.715
				v-0.749h0.715V9.074H93.515z"/>
			<path class="st2" d="M95.705,8.437h0.881v2.481h0.07c0.219-0.505,0.694-0.807,1.373-0.807c0.959,0,1.551,0.608,1.551,1.679v2.907
				h-0.89V12.01c0-0.719-0.335-1.083-0.963-1.083c-0.729,0-1.134,0.459-1.134,1.142v2.63h-0.889V8.437z"/>
			<path class="st2" d="M104.761,13.482c-0.202,0.807-0.922,1.303-1.951,1.303c-1.29,0-2.08-0.885-2.08-2.324
				c0-1.439,0.807-2.353,2.076-2.353c1.253,0,2.009,0.856,2.009,2.27v0.31h-3.18v0.05c0.029,0.79,0.488,1.29,1.199,1.29
				c0.538,0,0.906-0.194,1.071-0.546H104.761z M101.635,12.031h2.274c-0.021-0.707-0.45-1.167-1.108-1.167
				C102.144,10.864,101.685,11.328,101.635,12.031z"/>
		</g>
	</g>
</g>
</svg>