<?xml version="1.0" encoding="utf-8"?>
<!-- Generator: Adobe Illustrator 23.0.2, SVG Export Plug-In . SVG Version: 6.00 Build 0)  -->
<svg version="1.1" id="Layer_1" xmlns="http://www.w3.org/2000/svg" xmlns:xlink="http://www.w3.org/1999/xlink" x="0px" y="0px"
	 viewBox="0 0 50 50" style="enable-background:new 0 0 50 50;" xml:space="preserve">
<style type="text/css">
	.st0{fill:url(#SVGID_1_);}
	.st1{fill:url(#SVGID_2_);}
	.st2{fill:url(#SVGID_3_);}
	.st3{fill:url(#SVGID_4_);}
	.st4{fill:url(#SVGID_5_);}
	.st5{fill:url(#SVGID_6_);}
	.st6{fill:url(#SVGID_7_);}
	.st7{fill:url(#SVGID_8_);}
	.st8{fill:url(#SVGID_9_);}
</style>
<g>
	<g>
		<linearGradient id="SVGID_1_" gradientUnits="userSpaceOnUse" x1="1.6361" y1="43.7707" x2="51.1735" y2="9.1524">
			<stop  offset="0" style="stop-color:#00FFDE"/>
			<stop  offset="1" style="stop-color:#2AC6FF"/>
		</linearGradient>
		<path class="st0" d="M20.6,44.8c0.9-2.1,1.9-4.2,2.1-6.5c0.1-0.9-0.3-1.7-0.7-2.5c-1-2.1-2.4-3.9-3.8-5.7
			c-0.7-0.9-1.3-1.8-2.1-2.6c-0.3-0.4-0.7-0.7-1-1c-0.2-0.2-0.4-0.3-0.7-0.3c-0.2,0-0.6,0-0.7,0.1c-0.1,0.2-0.1,0.5-0.1,0.7
			c0.1,0.3,0.3,0.5,0.5,0.7c1.4,1.5,2.3,3.4,3,5.3c0.1,0.4,0,0.7-0.3,0.8c-0.3,0.1-0.6,0-0.8-0.5c-0.5-1.4-1.1-2.8-2-4
			c-0.2-0.3-0.5-0.6-0.7-0.9c-0.3-0.4-0.5-0.9-0.8-1.3c0-0.1-0.1-0.2-0.1-0.2c-1.3-1.3-2.5-2.6-3.8-3.8c-0.3-0.3-0.7-0.5-1-0.7
			c-0.2-0.1-0.5,0-0.7,0.1c-0.3,0.1-0.3,0.5-0.2,0.7c0.4,0.6,0.7,1.1,1.2,1.7c0.6,0.7,1.2,1.4,1.8,2.2c0.1,0.1,0.2,0.2,0.3,0.3
			c0.1,0.3,0.1,0.5-0.1,0.6c-0.2,0.1-0.4,0-0.7,0c0,0-0.1,0-0.1-0.1c-1.1-1.3-2.1-2.5-3.1-3.9c-0.4-0.6-0.6-1.3-0.2-2
			c0.6-0.9,1.5-1.2,2.5-0.6c0.7,0.4,1.3,1,1.9,1.5c0.8,0.7,1.5,1.5,2.2,2.3c0.1,0.1,0.2,0.2,0.3,0.3c1-1,2.3-0.8,3.5,0.3
			c0.8,0.7,1.4,1.6,2.1,2.4c1.5,1.9,2.9,3.7,4.1,5.8c0.4,0.7,0.7,1.4,1,2.1c0.6,1.2,0.4,2.5,0.1,3.8c-0.5,1.8-1.2,3.5-2,5.2
			c-0.1,0.2-0.1,0.4,0.1,0.6c0.2,0.2,0.4,0.4,0.6,0.6c0.3,0.3,0.3,0.6,0,0.9c-0.8,0.8-1.6,1.6-2.4,2.4c-0.3,0.3-0.6,0.3-1-0.1
			c-1.1-1.1-2.3-2.3-3.4-3.4c-1.5-1.5-3-3-4.5-4.5c-0.5-0.5-0.5-0.7,0-1.2c0.7-0.7,1.4-1.4,2.1-2.1c0.4-0.4,0.7-0.4,1.1,0
			c0.3,0.3,0.6,0.7,1,1.1c0.4-0.5,0.4-0.5,0.1-0.9c-1.2-1.3-2.3-2.7-3-4.3c-0.4-0.8-0.6-1.6-0.9-2.4c-0.2-0.5-0.3-0.9-0.5-1.4
			c0-0.1-0.1-0.3-0.2-0.4c-0.1-0.3,0-0.6,0.3-0.8c0.3-0.1,0.6,0,0.7,0.3c0.2,0.6,0.5,1.1,0.6,1.7c0.3,1.5,0.9,2.8,1.8,4.1
			c0.7,1,1.5,1.9,2.3,2.9c0.4,0.5,0.4,0.6,0.1,1.1c-0.2,0.3-0.5,0.7-0.4,1c0,0.3,0.4,0.5,0.7,0.8c1.1,1.1,2.3,2.3,3.4,3.4
			C20.4,44.6,20.5,44.7,20.6,44.8z M19.6,48.5c0.5-0.5,1-1.1,1.5-1.6c-2.4-2.4-4.9-4.9-7.3-7.4c-0.5,0.5-1.1,1-1.6,1.5
			C14.6,43.6,17.1,46,19.6,48.5z"/>
	</g>
	<g>
		<linearGradient id="SVGID_2_" gradientUnits="userSpaceOnUse" x1="8.5137" y1="53.6123" x2="58.0511" y2="18.9941">
			<stop  offset="0" style="stop-color:#00FFDE"/>
			<stop  offset="1" style="stop-color:#2AC6FF"/>
		</linearGradient>
		<path class="st1" d="M35.9,25.7c0.2-0.3,0.5-0.5,0.7-0.7c0.3-0.3,0.6-0.3,0.9-0.1c0.2,0.2,0.2,0.6,0,0.9c-0.2,0.2-0.4,0.5-0.6,0.7
			c-0.3,0.4-0.7,0.7-0.9,1.3c-0.1,0.2-0.2,0.5-0.4,0.6c-1.4,1.4-2.3,3.2-2.9,5c-0.1,0.2-0.3,0.4-0.5,0.6c-0.1,0.1-0.4,0-0.5-0.1
			c-0.1-0.2-0.2-0.4-0.1-0.6c0.2-0.7,0.5-1.4,0.8-2c0.6-1.2,1.3-2.4,2.2-3.4c0.2-0.2,0.4-0.5,0.5-0.8c0.2-0.5-0.1-0.9-0.7-0.7
			c-0.4,0.1-0.7,0.3-1,0.6c-0.4,0.3-0.7,0.7-1,1.1c-1.7,2.2-3.5,4.4-4.9,6.8c-0.6,1-1.2,2-1.3,3.2c0,0.6,0,1.3,0.2,1.9
			c0.4,1.7,1.1,3.3,1.8,4.9c0,0,0,0.1,0.1,0.1c0.1-0.1,0.2-0.2,0.3-0.3c1.3-1.3,2.6-2.6,3.9-3.9c0.2-0.2,0.2-0.4,0.1-0.6
			c-0.2-0.2-0.3-0.5-0.4-0.7c-0.2-0.4-0.2-0.6,0.1-0.9c1.1-1.1,2.1-2.4,2.9-3.7c0.6-0.9,1-1.9,1.2-3c0.3-1.5,1.1-2.7,2-3.9
			c0.9-1.2,1.9-2.3,2.9-3.4c0.2-0.3,0.4-0.6,0.6-0.9c0.2-0.3,0.1-0.5-0.1-0.8c-0.2-0.2-0.5-0.2-0.7,0c-0.4,0.3-0.8,0.5-1.2,0.8
			c-0.2,0.2-0.4,0.4-0.6,0.5c-0.2,0.2-0.5,0.2-0.7-0.1c-0.2-0.2-0.3-0.5-0.1-0.7c0.7-0.7,1.4-1.5,2.5-1.8c0.7-0.2,1.2,0,1.7,0.5
			c0.5,0.5,0.6,1.1,0.3,1.7c-0.3,0.7-0.8,1.3-1.3,1.9c-0.9,1.1-1.8,2.2-2.7,3.3c-0.8,1-1.3,2.1-1.6,3.4c-0.3,1.5-1.1,2.8-2,4
			c-0.6,0.8-1.2,1.6-1.9,2.4c-0.3,0.3-0.2,0.6,0.1,0.9c0.3-0.4,0.6-0.7,1-1.1c0.4-0.4,0.7-0.4,1.1,0c0.7,0.7,1.4,1.4,2.1,2.1
			c0.4,0.4,0.4,0.7,0,1.1c-1.7,1.7-3.4,3.4-5,5c-0.1,0.1-0.1,0.1-0.2,0.2c-0.3,0.2-0.6,0.1-0.7-0.1c-0.1-0.2-0.1-0.5,0-0.7
			c0-0.1,0.2-0.2,0.3-0.3c1.4-1.4,2.9-2.9,4.3-4.3c0.1-0.1,0.3-0.2,0.4-0.3c-0.6-0.6-1.2-1.1-1.7-1.6c-2.4,2.4-4.9,4.9-7.4,7.4
			c0.5,0.5,1,1,1.5,1.6c0.2-0.2,0.4-0.4,0.6-0.6c0.3-0.3,0.6-0.3,0.9-0.1c0.3,0.3,0.2,0.6,0,0.9c-0.3,0.3-0.7,0.7-1,1
			c-0.3,0.3-0.6,0.3-0.9,0c-0.8-0.8-1.6-1.6-2.4-2.4c-0.3-0.3-0.3-0.6,0-0.9c0,0,0.1-0.1,0.1-0.1c0.2-0.3,0.6-0.5,0.7-0.8
			c0.1-0.3-0.2-0.6-0.4-0.9c-0.7-1.7-1.4-3.3-1.8-5.1c-0.3-1.4-0.1-2.7,0.5-4c0.9-2,2.2-3.7,3.5-5.4c0.9-1.2,1.8-2.4,2.8-3.5
			c0.4-0.5,1-0.9,1.5-1.3C34.2,24.8,35,24.9,35.9,25.7z"/>
	</g>
	<g>
		<linearGradient id="SVGID_3_" gradientUnits="userSpaceOnUse" x1="11.277" y1="57.5665" x2="60.8144" y2="22.9482">
			<stop  offset="0" style="stop-color:#00FFDE"/>
			<stop  offset="1" style="stop-color:#2AC6FF"/>
		</linearGradient>
		<path class="st2" d="M34.3,40.8c0-0.3,0.2-0.6,0.6-0.6c0.4,0,0.9,0.5,0.9,0.9c0,0.3-0.2,0.5-0.5,0.5
			C34.9,41.7,34.3,41.2,34.3,40.8z"/>
	</g>
	<g>
		<linearGradient id="SVGID_4_" gradientUnits="userSpaceOnUse" x1="4.2474" y1="47.5074" x2="53.7848" y2="12.8891">
			<stop  offset="0" style="stop-color:#00FFDE"/>
			<stop  offset="1" style="stop-color:#2AC6FF"/>
		</linearGradient>
		<path class="st3" d="M12.9,41.1c0-0.4,0.6-0.9,0.9-0.9c0.3,0,0.5,0.3,0.5,0.6c0,0.4-0.6,0.9-0.9,0.9
			C13.1,41.7,12.9,41.4,12.9,41.1z"/>
	</g>
	<g>
		<g>
			<linearGradient id="SVGID_5_" gradientUnits="userSpaceOnUse" x1="-6.3061" y1="32.4057" x2="43.2313" y2="-2.2126">
				<stop  offset="0" style="stop-color:#00FFDE"/>
				<stop  offset="1" style="stop-color:#2AC6FF"/>
			</linearGradient>
			<path class="st4" d="M19.6,17h-1.3v-3.1h-0.9v-0.8h0.2c0.5,0,1-0.2,1.1-0.7h0.9V17z"/>
		</g>
		<g>
			<linearGradient id="SVGID_6_" gradientUnits="userSpaceOnUse" x1="-5.2492" y1="33.9181" x2="44.2882" y2="-0.7001">
				<stop  offset="0" style="stop-color:#00FFDE"/>
				<stop  offset="1" style="stop-color:#2AC6FF"/>
			</linearGradient>
			<path class="st5" d="M21,12.8c0.3-0.3,0.7-0.5,1.3-0.5s1,0.1,1.3,0.5c0.3,0.3,0.3,0.8,0.3,1.9s-0.1,1.5-0.3,1.9
				c-0.3,0.3-0.7,0.5-1.3,0.5s-1-0.1-1.3-0.5c-0.3-0.3-0.3-0.8-0.3-1.9S20.7,13.2,21,12.8z M22.5,13.4c0-0.1-0.1-0.2-0.3-0.2
				c-0.2,0-0.2,0.1-0.3,0.2c0,0.1,0,0.7,0,1.3s0,1.2,0,1.3c0,0.1,0.1,0.2,0.3,0.2c0.2,0,0.2-0.1,0.3-0.2c0-0.1,0-0.7,0-1.3
				S22.5,13.6,22.5,13.4z"/>
		</g>
		<g>
			<linearGradient id="SVGID_7_" gradientUnits="userSpaceOnUse" x1="-4.1467" y1="35.4957" x2="45.3907" y2="0.8775">
				<stop  offset="0" style="stop-color:#00FFDE"/>
				<stop  offset="1" style="stop-color:#2AC6FF"/>
			</linearGradient>
			<path class="st6" d="M24.3,12.8c0.3-0.3,0.7-0.5,1.3-0.5s1,0.1,1.3,0.5c0.3,0.3,0.3,0.8,0.3,1.9s-0.1,1.5-0.3,1.9
				c-0.3,0.3-0.7,0.5-1.3,0.5s-1-0.1-1.3-0.5C24,16.3,24,15.8,24,14.7S24,13.2,24.3,12.8z M25.8,13.4c0-0.1-0.1-0.2-0.3-0.2
				c-0.2,0-0.2,0.1-0.3,0.2c0,0.1,0,0.7,0,1.3s0,1.2,0,1.3c0,0.1,0.1,0.2,0.3,0.2c0.2,0,0.2-0.1,0.3-0.2c0-0.1,0-0.7,0-1.3
				S25.9,13.6,25.8,13.4z"/>
		</g>
		<g>
			<linearGradient id="SVGID_8_" gradientUnits="userSpaceOnUse" x1="-2.7707" y1="37.4647" x2="46.7667" y2="2.8464">
				<stop  offset="0" style="stop-color:#00FFDE"/>
				<stop  offset="1" style="stop-color:#2AC6FF"/>
			</linearGradient>
			<path class="st7" d="M27.3,13.6c0-0.8,0.2-1.2,1-1.2c0.8,0,1,0.4,1,1.2c0,0.8-0.2,1.2-1,1.2C27.5,14.9,27.3,14.4,27.3,13.6z
				 M28.6,13.6c0-0.5,0-0.7-0.2-0.7c-0.2,0-0.2,0.2-0.2,0.7c0,0.5,0,0.7,0.2,0.7C28.6,14.3,28.6,14.1,28.6,13.6z M30.4,12.3h0.7
				l-2.1,4.9h-0.7L30.4,12.3z M30.1,15.8c0-0.8,0.2-1.2,1-1.2c0.8,0,1,0.4,1,1.2c0,0.8-0.2,1.2-1,1.2C30.3,17.1,30.1,16.6,30.1,15.8
				z M31.3,15.8c0-0.5,0-0.7-0.2-0.7c-0.2,0-0.2,0.2-0.2,0.7c0,0.5,0,0.7,0.2,0.7C31.3,16.5,31.3,16.3,31.3,15.8z"/>
		</g>
	</g>
	<g>
		<linearGradient id="SVGID_9_" gradientUnits="userSpaceOnUse" x1="-4.542" y1="34.9301" x2="44.9954" y2="0.3118">
			<stop  offset="0" style="stop-color:#00FFDE"/>
			<stop  offset="1" style="stop-color:#2AC6FF"/>
		</linearGradient>
		<path class="st8" d="M20.4,29c-0.2,0-0.4,0-0.6-0.1c-0.8-0.3-1.3-1-1.3-1.9l0.1-3.3c0-0.2-0.1-0.5-0.3-0.6
			C18,23,17.8,23,17.5,23.1l-3.1,1.1c-0.8,0.3-1.7,0-2.2-0.7c-0.5-0.7-0.5-1.6,0-2.3l2-2.6c0.1-0.2,0.2-0.4,0.1-0.7
			c-0.1-0.2-0.3-0.4-0.5-0.5l-3.2-0.9c-0.8-0.2-1.4-1-1.4-1.8c0-0.9,0.5-1.6,1.4-1.8l3.2-0.9c0.2-0.1,0.4-0.2,0.5-0.5
			c0.1-0.2,0-0.5-0.1-0.7l-2-2.6c-0.5-0.7-0.5-1.6,0-2.3c0.5-0.7,1.4-1,2.2-0.7l3.1,1.1c0.2,0.1,0.5,0,0.7-0.1
			c0.2-0.1,0.3-0.4,0.3-0.6l-0.1-3.3c0-0.9,0.5-1.6,1.3-1.9c0.8-0.3,1.7,0,2.2,0.7L23.8,4c0.1,0.2,0.4,0.3,0.6,0.3
			c0.2,0,0.5-0.1,0.6-0.3h0l1.9-2.7c0.5-0.7,1.3-1,2.2-0.7c0.8,0.3,1.3,1,1.3,1.9l-0.1,3.3c0,0.2,0.1,0.5,0.3,0.6
			c0.2,0.1,0.4,0.2,0.7,0.1l3.1-1.1c0.8-0.3,1.7,0,2.2,0.7c0.5,0.7,0.5,1.6,0,2.3l-2,2.6c-0.1,0.2-0.2,0.4-0.1,0.7
			c0.1,0.2,0.3,0.4,0.5,0.5l3.2,0.9c0.8,0.2,1.4,1,1.4,1.8c0,0.9-0.5,1.6-1.4,1.8l-3.2,0.9c-0.2,0.1-0.4,0.2-0.5,0.5
			c-0.1,0.2,0,0.5,0.1,0.7l2,2.6c0.5,0.7,0.5,1.6,0,2.3c-0.5,0.7-1.4,1-2.2,0.7l-3.1-1.1c-0.2-0.1-0.5,0-0.7,0.1
			c-0.2,0.1-0.3,0.4-0.3,0.6l0.1,3.3c0,0.9-0.5,1.6-1.3,1.9c-0.8,0.3-1.7,0-2.2-0.7L25,25.5c-0.1-0.2-0.4-0.3-0.6-0.3
			c-0.2,0-0.5,0.1-0.6,0.3l-1.9,2.7C21.5,28.8,21,29,20.4,29z M17.8,21.9c0.4,0,0.8,0.1,1.1,0.4c0.5,0.4,0.8,1,0.8,1.6l-0.1,3.3
			c0,0.4,0.3,0.6,0.5,0.7c0.3,0.1,0.6,0.1,0.8-0.3l1.9-2.7c0.4-0.5,0.9-0.8,1.6-0.8c0.6,0,1.2,0.3,1.6,0.8l1.9,2.7
			c0.2,0.3,0.6,0.4,0.8,0.3c0.3-0.1,0.5-0.3,0.5-0.7L29,23.8c0-0.6,0.3-1.2,0.8-1.6c0.5-0.4,1.2-0.5,1.8-0.3l3.1,1.1
			c0.4,0.1,0.7,0,0.8-0.3c0.2-0.2,0.2-0.6,0-0.9l-2-2.6c-0.4-0.5-0.5-1.1-0.3-1.7c0.2-0.6,0.7-1.1,1.3-1.2l3.2-0.9
			c0.4-0.1,0.5-0.4,0.5-0.7c0-0.3-0.1-0.6-0.5-0.7l-3.2-0.9c-0.6-0.2-1.1-0.6-1.3-1.2c-0.2-0.6-0.1-1.2,0.3-1.7l2-2.6
			c0.2-0.3,0.2-0.7,0-0.9c-0.2-0.2-0.5-0.4-0.8-0.3l-3.1,1.1c-0.6,0.2-1.2,0.1-1.8-0.3c-0.5-0.4-0.8-1-0.8-1.6l0.1-3.3
			c0-0.4-0.3-0.6-0.5-0.7c-0.3-0.1-0.6-0.1-0.8,0.3l-1.9,2.7c-0.4,0.5-0.9,0.8-1.6,0.8c-0.6,0-1.2-0.3-1.6-0.8l-1.9-2.7
			c-0.2-0.3-0.6-0.4-0.8-0.3c-0.3,0.1-0.5,0.3-0.5,0.7l0.1,3.3c0,0.6-0.3,1.2-0.8,1.6c-0.5,0.4-1.2,0.5-1.8,0.3l-3.1-1.1
			c-0.4-0.1-0.7,0-0.8,0.3c-0.2,0.2-0.2,0.6,0,0.9l2,2.6c0.4,0.5,0.5,1.1,0.3,1.7c-0.2,0.6-0.7,1.1-1.3,1.2L11.1,14
			c-0.4,0.1-0.5,0.4-0.5,0.7c0,0.3,0.1,0.6,0.5,0.7l3.2,0.9c0.6,0.2,1.1,0.6,1.3,1.2c0.2,0.6,0.1,1.2-0.3,1.7l-2,2.6
			c-0.2,0.3-0.2,0.7,0,0.9c0.2,0.2,0.5,0.4,0.8,0.3l3.1-1.1C17.4,21.9,17.6,21.9,17.8,21.9z"/>
	</g>
</g>
</svg>
