<?xml version="1.0" encoding="utf-8"?>
<!-- Generator: Adobe Illustrator 23.0.2, SVG Export Plug-In . SVG Version: 6.00 Build 0)  -->
<svg version="1.1" id="Layer_1" xmlns="http://www.w3.org/2000/svg" xmlns:xlink="http://www.w3.org/1999/xlink" x="0px" y="0px"
	 viewBox="0 0 50 50" style="enable-background:new 0 0 50 50;" xml:space="preserve">
<style type="text/css">
	.st0{fill:url(#SVGID_1_);}
	.st1{fill:url(#SVGID_2_);}
	.st2{fill:url(#SVGID_3_);}
</style>
<g>
	<g>
		<g>
			<linearGradient id="SVGID_1_" gradientUnits="userSpaceOnUse" x1="28.0247" y1="-3.738" x2="49.565" y2="36.6239">
				<stop  offset="0" style="stop-color:#00FFDE"/>
				<stop  offset="1" style="stop-color:#2AC6FF"/>
			</linearGradient>
			<path class="st0" d="M49.8,34l-2.4-2.4c-0.4-0.4-1-0.4-1.4,0c-0.4,0.4-0.4,1,0,1.4l2.4,2.4c0.2,0.2,0.4,0.3,0.7,0.3
				c0.3,0,0.5-0.1,0.7-0.3C50.2,35,50.2,34.4,49.8,34z"/>
		</g>
	</g>
	<g>
		<g>
			<linearGradient id="SVGID_2_" gradientUnits="userSpaceOnUse" x1="26.6986" y1="-3.0303" x2="48.2389" y2="37.3316">
				<stop  offset="0" style="stop-color:#00FFDE"/>
				<stop  offset="1" style="stop-color:#2AC6FF"/>
			</linearGradient>
			<path class="st1" d="M45,29.2c-0.4-0.4-1-0.4-1.4,0l0,0c-0.4,0.4-0.4,1,0,1.4c0.2,0.2,0.4,0.3,0.7,0.3c0.3,0,0.5-0.1,0.7-0.3
				C45.4,30.2,45.4,29.6,45,29.2z"/>
		</g>
	</g>
	<g>
		<g>
			<linearGradient id="SVGID_3_" gradientUnits="userSpaceOnUse" x1="10.8255" y1="5.4408" x2="32.3658" y2="45.8027">
				<stop  offset="0" style="stop-color:#00FFDE"/>
				<stop  offset="1" style="stop-color:#2AC6FF"/>
			</linearGradient>
			<path class="st2" d="M36.6,33.7l9.5-9.5c1.4-1.4,1.4-3.8,0-5.2c-0.5-0.5-1.1-0.8-1.8-1c0.2-0.5,0.3-1,0.3-1.6
				c0-1-0.4-1.9-1.1-2.6c-0.5-0.5-1.2-0.9-2-1c0.4-1.3,0.1-2.7-0.9-3.8c-0.6-0.6-1.3-0.9-2-1c0.1-0.4,0.2-0.8,0.2-1.2
				c0-1-0.4-1.9-1.1-2.6c-0.7-0.7-1.6-1.1-2.6-1.1c-0.6,0-1.2,0.2-1.8,0.4l-0.1-0.1c-1.2-1.3-3-2.1-4.8-2.1H21c-0.5,0-1,0.4-1,1v1.3
				c0,0.5,0.1,1,0.3,1.5C19.8,5.1,19.3,5,18.8,5c-1,0-1.9,0.4-2.6,1.1c-1,1-1.3,2.5-0.9,3.8c-0.7,0.1-1.4,0.5-2,1
				c-0.7,0.7-1.1,1.6-1.1,2.6c0,0.4,0.1,0.8,0.2,1.2c-0.7,0.1-1.4,0.5-2,1c-1.1,1.1-1.4,2.8-0.7,4.2c-0.7,0.2-1.3,0.5-1.8,1
				c-1.4,1.4-1.4,3.8,0,5.2l2,2l-9.6,9.6c-0.4,0.4-0.4,1,0,1.4c0.2,0.2,0.4,0.3,0.7,0.3s0.5-0.1,0.7-0.3l9.7-9.7
				c0.5,0.3,1.2,0.5,1.8,0.5c1,0,1.9-0.4,2.6-1.1c0.8-0.8,1.1-1.8,1.1-2.8c0,0,0.1,0,0.1,0c0.9,0,1.9-0.4,2.6-1.1
				c0.7-0.7,1.1-1.6,1.1-2.6c0,0,0-0.1,0-0.1c0,0,0.1,0,0.1,0c0.9,0,1.9-0.4,2.6-1.1c0.7-0.7,1.1-1.6,1.1-2.6c0,0,0-0.1,0-0.1
				c0,0,0.1,0,0.1,0c0.9,0,1.9-0.4,2.6-1.1c1.4-1.4,1.4-3.5,0.2-4.9L34,5.7c0.3-0.3,0.8-0.5,1.2-0.5s0.9,0.2,1.2,0.5
				C36.8,6,37,6.5,37,6.9c0,0.5-0.2,0.9-0.5,1.2l-1,1L32,12.6c-0.4,0.4-0.4,1,0,1.4c0.2,0.2,0.4,0.3,0.7,0.3c0.3,0,0.5-0.1,0.7-0.3
				l3.5-3.5c0.7-0.7,1.8-0.7,2.4,0c0.7,0.7,0.7,1.8,0,2.4l-1,1l-2.5,2.5c-0.4,0.4-0.4,1,0,1.4c0.2,0.2,0.4,0.3,0.7,0.3
				c0.3,0,0.5-0.1,0.7-0.3l2.5-2.5c0.3-0.3,0.8-0.5,1.2-0.5c0.5,0,0.9,0.2,1.2,0.5c0.3,0.3,0.5,0.8,0.5,1.2c0,0.5-0.2,0.9-0.5,1.2
				L40.9,19l-1.2,1.2c-0.4,0.4-0.4,1,0,1.4c0.2,0.2,0.4,0.3,0.7,0.3c0.3,0,0.5-0.1,0.7-0.3l1.2-1.2c0.7-0.7,1.8-0.7,2.4,0
				c0.7,0.7,0.7,1.8,0,2.4l-9.5,9.5c-2.4,2.4-5.6,3.8-8.9,3.9c-0.2,0-0.5,0.1-0.7,0.3l-8.8,8.8c-0.4,0.4-0.4,1,0,1.4
				c0.2,0.2,0.4,0.3,0.7,0.3c0.3,0,0.5-0.1,0.7-0.3l6.4-6.5c1.6,1.1,3.6,1.6,5.5,1.4l5,5c0.2,0.2,0.4,0.3,0.7,0.3
				c0.3,0,0.5-0.1,0.7-0.3c0.4-0.4,0.4-1,0-1.4L31.3,40c-0.2-0.2-0.5-0.3-0.8-0.3l-0.3,0c-1.4,0.1-2.8-0.2-4.1-0.9l0.6-0.6
				C30.5,37.9,34,36.4,36.6,33.7z M14.4,27.2c-0.3,0.3-0.8,0.5-1.2,0.5c-0.5,0-0.9-0.2-1.2-0.5l-2.6-2.6c-0.7-0.7-0.7-1.8,0-2.4
				c0.3-0.3,0.8-0.5,1.2-0.5c0.5,0,0.9,0.2,1.2,0.5l2.6,2.6C15.1,25.5,15.1,26.6,14.4,27.2z M18.2,23.4c-0.7,0.7-1.8,0.7-2.4,0
				l-2.6-2.6l-1.3-1.3c-0.7-0.7-0.7-1.8,0-2.4c0.3-0.3,0.8-0.5,1.2-0.5c0.5,0,0.9,0.2,1.2,0.5l4,4c0,0,0,0,0,0
				c0.3,0.3,0.5,0.8,0.5,1.2C18.8,22.7,18.6,23.1,18.2,23.4z M22.1,19.6c-0.7,0.7-1.8,0.7-2.4,0l-4.9-4.9c-0.3-0.3-0.5-0.8-0.5-1.2
				c0-0.5,0.2-0.9,0.5-1.2c0.3-0.3,0.8-0.5,1.2-0.5c0.4,0,0.9,0.2,1.2,0.5l2.2,2.2l2.7,2.7h0c0.3,0.3,0.5,0.8,0.5,1.2
				C22.6,18.8,22.4,19.3,22.1,19.6z M25.9,15.8c-0.7,0.7-1.8,0.7-2.4,0l-4.9-4.9c0,0,0,0,0,0l-1-1c-0.7-0.7-0.7-1.8,0-2.4
				c0.3-0.3,0.8-0.5,1.2-0.5s0.9,0.2,1.2,0.5l5.9,5.9c0.3,0.3,0.5,0.8,0.5,1.2C26.4,15,26.2,15.4,25.9,15.8z M26.2,10.8l-2.7-2.7
				c0.3,0.1,0.6,0.1,0.9,0.1c0,0,0,0,0,0l2.7,0c0.5,0,1-0.4,1-1c0-0.5-0.4-1-1-1c0,0,0,0,0,0l-2.7,0c0,0,0,0,0,0
				c-0.7,0-1.3-0.3-1.8-0.7c-0.5-0.5-0.7-1.1-0.7-1.8V3.5h6.7c1.3,0,2.5,0.5,3.3,1.5l0,0L26.2,10.8z"/>
		</g>
	</g>
</g>
</svg>
