<?xml version="1.0" encoding="utf-8"?>
<!-- Generator: Adobe Illustrator 23.0.6, SVG Export Plug-In . SVG Version: 6.00 Build 0)  -->
<svg version="1.1" id="Layer_1" xmlns="http://www.w3.org/2000/svg" xmlns:xlink="http://www.w3.org/1999/xlink" x="0px" y="0px"
	 viewBox="0 0 512 512" style="enable-background:new 0 0 512 512;" xml:space="preserve">
<style type="text/css">
	.st0{fill:#FFFFFF;}
</style>
<g>
	<path class="st0" d="M249.9,167.7c-12.8,0-20.5,7-20.5,22.2v47c0,15.2,7.7,22.2,20.5,22.2s20.6-7,20.6-22.2v-47
		C270.5,174.7,262.7,167.7,249.9,167.7z"/>
	<path class="st0" d="M460.9,194.3c7.2-13.8,5.2-31.5-6.1-43.2c-8.7-9-20.8-12.3-32-10c-12.2-39.4-47.9-68-90.1-68
		c-3.7,0-7.4,0.2-11,0.7c-17.5-27-47.3-44.9-81.1-44.9c-46.3,0-85.1,33.4-95,78.1c-22.3-6.1-46.9,2.2-61.1,22.6
		c-6.5,9.3-10,20-10.7,30.7c0,0-0.1,0-0.1,0C33,160.4,0,194.5,0,236.5s33,76.1,73.6,76.1c8.9,0,17.4-1.6,25.3-4.6
		c1.8,3.1,3.9,5.9,6.5,8.6c16.5,17,43.1,17.1,59.6,0.2c17.9,22.7,45.1,37.2,75.6,37.2c33.2,0,62.5-17.2,80.1-43.4
		c2.5,5,5.7,9.7,9.7,13.8c20.7,21.4,54.3,21.4,75,0c6.8-7.1,11.4-15.6,13.7-24.6c9.8,8,22.1,12.7,35.5,12.7
		c31.7,0,57.4-26.5,57.4-59.3C512,222.7,489.6,197.5,460.9,194.3z M169.1,259.1c17.3,0,18.9-11.2,19.8-18.6c0.3-3.1,2.7-4.5,6.6-4.5
		c4.4,0,6.6,1.4,6.6,7.3c0,15.5-13,27.7-33.9,27.7c-18.3,0-33.4-9.2-33.4-34.1v-47c0-24.8,15.3-34.1,33.6-34.1
		c20.9,0,33.8,11.9,33.8,27.2c0,5.9-2.2,7.2-6.6,7.2c-4.2,0-6.4-1.7-6.6-4.5c-0.3-6.2-2.8-18-20.3-18c-13.4,0-20.8,7-20.8,22.2v47
		C147.9,252.1,155.2,259.1,169.1,259.1z M283.7,236.9c0,24.8-14.8,34.1-33.8,34.1c-18.9,0-33.6-9.2-33.6-34.1v-47
		c0-24.8,14.7-34.1,33.6-34.1s33.8,9.2,33.8,34.1V236.9z M358.8,270h-55.6c-2.5,0-5.9-1.9-5.9-4.7v-15.2c0-25.6,52-37.7,52-63.4
		c0-8.9-5.9-18.8-19.1-18.8c-10,0-17.7,5.5-17.7,17c0,2.7-2.5,5.2-6.9,5.2c-3.8,0-5.9-1.9-5.9-7.7c0-15.8,13.8-26.7,30.5-26.7
		c18.1,0,32.2,12.8,32.2,30.5c0,33.6-51.6,44.4-51.6,63.9v8h48c2.5,0,4.5,2.7,4.5,5.9C363.3,267.1,361.3,270,358.8,270z"/>
</g>
<path class="st0" d="M106,382.1c0,20.4-16.6,37-37,37s-37-16.6-37-37s16.6-37,37-37S106,361.7,106,382.1z"/>
<path class="st0" d="M472,379c0,15.6-12.6,28.2-28.2,28.2s-28.2-12.6-28.2-28.2c0-15.6,12.6-28.2,28.2-28.2S472,363.5,472,379z"/>
<path class="st0" d="M350.2,462.6c0,11.6-9.4,21-21,21c-11.6,0-21-9.4-21-21c0-11.6,9.4-21,21-21
	C340.8,441.5,350.2,450.9,350.2,462.6z"/>
<path class="st0" d="M239.4,423.6c0,15.4-12.4,27.8-27.8,27.8s-27.8-12.4-27.8-27.8c0-15.4,12.4-27.8,27.8-27.8
	S239.4,408.3,239.4,423.6z"/>
</svg>
