<?xml version="1.0" encoding="utf-8"?>
<!-- Generator: Adobe Illustrator 23.0.2, SVG Export Plug-In . SVG Version: 6.00 Build 0)  -->
<svg version="1.1" id="Layer_1" xmlns="http://www.w3.org/2000/svg" xmlns:xlink="http://www.w3.org/1999/xlink" x="0px" y="0px"
	 viewBox="0 0 360 360" style="enable-background:new 0 0 360 360;" xml:space="preserve">
<style type="text/css">
	.st0{fill:#FFFFFF;}
</style>
<g>
	<g>
		<path class="st0" d="M97.1,243.3v9.8h-0.5c-4.6-5.1-11.5-7.9-19.7-7.9c-14.7,0-24.6,9.7-24.6,23.7c0,14,9.9,23.7,24.6,23.7
			c8.1,0,15-2.7,19.7-7.9h0.5v9.8c-5.1,3.9-11.8,5.9-20.5,5.9c-20,0-33.5-13.1-33.5-31.6c0-18.5,13.6-31.6,33.5-31.6
			C85.6,237.4,92.1,239.4,97.1,243.3z"/>
		<path class="st0" d="M152.7,278.1c0,13.2-9.8,22.5-23.7,22.5c-13.8,0-23.7-9.3-23.7-22.5c0-13.2,9.8-22.5,23.7-22.5
			C142.9,255.5,152.7,264.9,152.7,278.1z M113.6,278.1c0,9.1,6.3,15.5,15.5,15.5c9.1,0,15.5-6.4,15.5-15.5c0-9.1-6.4-15.5-15.5-15.5
			C119.9,262.5,113.6,268.9,113.6,278.1z"/>
		<path class="st0" d="M190.6,257.2v7.9h-0.4c-1.9-1.3-4.3-2-7-2c-8.6,0-12.7,5.7-12.7,17v19.7h-8.1v-43.2h6.9l0.2,6.9h0.2
			c2.7-5.2,7.4-7.9,14.1-7.9C186.8,255.5,189.1,256.3,190.6,257.2z"/>
		<path class="st0" d="M234.3,299.7l-0.3-6.8h-0.2c-3.3,4.8-9.5,7.8-17.3,7.8c-13,0-22.3-9.4-22.3-22.5c0-13.1,9.4-22.5,22.3-22.5
			c7.3,0,12.8,2.4,16.3,6.6h0.2V235h8.1v64.7H234.3z M233.3,278.1c0-9.1-6.4-15.5-15.5-15.5c-9.2,0-15.5,6.4-15.5,15.5
			c0,9.1,6.3,15.5,15.5,15.5C226.9,293.6,233.3,287.2,233.3,278.1z"/>
		<path class="st0" d="M263.1,242.9c0,3-2.2,5.2-5.3,5.2c-3.2,0-5.3-2.1-5.3-5.2c0-3,2.2-5.2,5.3-5.2
			C260.9,237.7,263.1,239.8,263.1,242.9z M253.7,256.4h8.1v43.2h-8.1V256.4z"/>
		<path class="st0" d="M311.6,299.7l-0.3-6.8h-0.2c-3.3,4.8-9.5,7.8-17.3,7.8c-13,0-22.3-9.4-22.3-22.5c0-13.1,9.4-22.5,22.3-22.5
			c7.8,0,13.9,3,17.3,7.9h0.2l0.3-6.9h6.9v43.2H311.6z M310.6,278.1c0-9.1-6.4-15.5-15.5-15.5c-9.2,0-15.5,6.4-15.5,15.5
			c0,9.1,6.3,15.5,15.5,15.5C304.2,293.6,310.6,287.2,310.6,278.1z"/>
	</g>
	<path class="st0" d="M258.7,99.7l-0.6-1.4l-1.5,0.1c-0.3,0-0.5,0-0.8,0.1c-5.5,0.6-11.1,1.7-16.4,3.4c4.1-3.8,7.8-8,11.1-12.5
		c0.2-0.2,0.3-0.4,0.5-0.6l0.9-1.2l-0.9-1.2c-14.3-20.2-36.6-33-61-35.2l-1.5-0.1l-0.6,1.4c-0.1,0.2-0.2,0.5-0.3,0.7
		c-2.3,5.1-4,10.4-5.3,15.8c-1.2-5.5-3-10.8-5.3-15.8c-0.1-0.3-0.2-0.5-0.3-0.7L176,51l-1.5,0.1c-24.5,2.2-46.7,15.1-61,35.2
		l-0.9,1.2l0.9,1.2c3.4,4.8,7.3,9.2,11.5,13.2c-5.6-1.7-11.4-2.9-17.2-3.4l-1.5-0.1l-0.7,1.4c-5.1,11.1-7.7,22.9-7.7,35.3
		c0,12.3,2.6,24.2,7.7,35.3l0.7,1.4l1.5-0.1c5.8-0.5,11.6-1.7,17.2-3.4c-4.3,4-8.2,8.4-11.6,13.2l-0.9,1.2l0.9,1.2
		c14.3,20.2,36.6,33,61,35.2l1.5,0.1l0.6-1.4c0.1-0.2,0.2-0.5,0.3-0.7c2.3-5.1,4.1-10.4,5.3-15.8c1.2,5.4,3,10.8,5.3,15.8
		c0.1,0.2,0.2,0.5,0.3,0.7l0.6,1.4l1.5-0.1c24.5-2.2,46.7-15,61-35.2l0.9-1.2l-0.9-1.2c-0.2-0.2-0.3-0.4-0.5-0.6
		c-3.3-4.5-7-8.7-11.1-12.5c5.3,1.7,10.9,2.8,16.4,3.4c0.3,0,0.5,0.1,0.8,0.1l1.5,0.1l0.6-1.4c5.1-11.1,7.7-22.9,7.7-35.3
		C266.4,122.6,263.8,110.8,258.7,99.7z M191.1,55.5c22.2,2.4,42.3,14,55.6,32.1c-6.5,8.9-15,16.5-24.6,22c-9.6,5.5-20,8.9-31,10.1
		c-4.5-10.1-6.7-20.9-6.7-32C184.3,76.6,186.6,65.5,191.1,55.5z M117.8,87.5c13.3-18,33.4-29.6,55.5-32.1
		c4.4,10.1,6.7,21.2,6.7,32.1c0,11.1-2.3,21.9-6.7,32c-10.9-1.2-21.4-4.6-31-10.1C132.8,104,124.4,96.4,117.8,87.5z M108.9,167
		c-4.5-10.1-6.7-20.9-6.7-32.1c0-11.2,2.3-22,6.7-32.1c10.9,1.2,21.5,4.7,31,10.1c0.1,0.1,0.2,0.1,0.3,0.2c0.1,0,0.2,0.1,0.3,0.1
		c9.5,5.6,17.5,12.8,24,21.6c-6.5,8.9-14.7,16.2-24.2,21.8C130.7,162.2,119.9,165.8,108.9,167z M173.4,214.4
		c-22.2-2.4-42.3-14-55.5-32.1c6.5-8.9,15-16.5,24.6-22c9.6-5.5,20-8.9,31-10.1c4.5,10.1,6.7,20.9,6.7,32
		C180.1,193.3,177.8,204.4,173.4,214.4z M246.6,182.4c-13.3,18-33.4,29.7-55.6,32.1c-4.4-10.1-6.7-21.2-6.7-32.1
		c0-11.1,2.3-21.9,6.7-32c10.9,1.2,21.4,4.6,31,10.1C231.6,165.9,240.1,173.5,246.6,182.4z M255.5,167c-10.9-1.2-21.5-4.7-31-10.1
		c-0.1-0.1-0.2-0.1-0.3-0.2c-0.1,0-0.2-0.1-0.3-0.1c-9.5-5.5-17.5-12.8-24-21.6c6.5-8.9,14.7-16.2,24.3-21.8
		c9.6-5.5,20.4-9.1,31.3-10.3c4.5,10.1,6.7,20.9,6.7,32.1C262.2,146.1,259.9,156.9,255.5,167z"/>
</g>
</svg>
