<svg xmlns="http://www.w3.org/2000/svg" xmlns:xlink="http://www.w3.org/1999/xlink" width="12" height="6.857" viewBox="0 0 12 6.857"><defs><clipPath id="a"><path d="M6,6.857a.855.855,0,0,1-.606-.251L.251,1.463A.857.857,0,0,1,1.463.251L6,4.788,10.537.251a.857.857,0,0,1,1.212,1.212L6.606,6.606A.855.855,0,0,1,6,6.857"/></clipPath></defs><path d="M6,6.857a.855.855,0,0,1-.606-.251L.251,1.463A.857.857,0,0,1,1.463.251L6,4.788,10.537.251a.857.857,0,0,1,1.212,1.212L6.606,6.606A.855.855,0,0,1,6,6.857"/></svg>