<?xml version="1.0" encoding="utf-8"?>
<!-- Generator: Adobe Illustrator 23.0.6, SVG Export Plug-In . SVG Version: 6.00 Build 0)  -->
<svg version="1.1" id="Capa_1" xmlns="http://www.w3.org/2000/svg" xmlns:xlink="http://www.w3.org/1999/xlink" x="0px" y="0px"
	 viewBox="0 0 85.3 85.3" style="enable-background:new 0 0 85.3 85.3;" xml:space="preserve">
<style type="text/css">
	.st0{fill:#FFFDFD;}
</style>
<g>
	<circle class="st0" cx="43.2" cy="20.5" r="13.4"/>
	<path class="st0" d="M82.8,16.8c-3-2.5-7.4-2.1-9.9,0.8L53.2,41c-2.5-2.6-6.1-4.2-10-4.2c-4.2,0-7.9,1.9-10.5,4.8L12.4,17.6
		c-2.5-3-6.9-3.3-9.9-0.8c-3,2.5-3.3,6.9-0.8,9.9l26.4,31.1c0.3,0.4,0.7,0.7,1.1,1v19.4h28V57.9c0,0,0,0,0.1-0.1l26.4-31.1
		C86.1,23.8,85.8,19.3,82.8,16.8z M52.7,54.2c-0.1,0.3-0.2,0.7-0.3,1.1c-0.1,0.4-0.3,1-0.5,1.6c-0.2,0.6-0.4,1.2-0.6,1.8
		c-0.2,0.6-0.4,1.3-0.7,1.8c-0.2,0.6-0.5,1.3-0.8,1.8c-0.6,1.2-1.3,2.4-2.2,3.4c-0.4,0.6-0.9,1.1-1.4,1.6c-0.5,0.5-1,1-1.6,1.4
		c-0.6,0.4-1.1,0.9-1.8,1.3c-0.6,0.4-1.2,0.7-1.8,1.1c-0.6,0.3-1.2,0.6-1.8,0.8c-0.4,0.2-0.8,0.3-1.1,0.4l-1.2,0
		c0.1-0.2,0.1-0.4,0.2-0.7c0.5-1.5,1.4-3.5,2.4-5.3c0.5-0.9,1.1-1.8,1.6-2.7c0.3-0.4,0.6-0.8,0.9-1.1c0.3-0.3,0.6-0.7,0.9-1
		c0.3-0.3,0.5-0.5,0.8-0.8c0.2-0.2,0.5-0.4,0.7-0.5c0.4-0.3,0.6-0.4,0.6-0.4s-0.2,0.1-0.6,0.4c-0.2,0.1-0.5,0.3-0.7,0.5
		c-0.3,0.2-0.5,0.4-0.9,0.7c-0.3,0.3-0.6,0.6-0.9,0.9c-0.3,0.4-0.6,0.7-1,1.1c-0.6,0.8-1.3,1.7-1.9,2.6c-1.2,1.8-2.2,3.8-2.8,5.3
		c-0.1,0.3-0.3,0.6-0.4,0.8c-0.1-0.2-0.2-0.4-0.2-0.6c-0.1-0.5-0.3-1.1-0.4-1.7c-0.1-0.6-0.2-1.3-0.2-2.1c0-1.5,0.1-3.2,0.7-4.8
		c0.2-0.8,0.6-1.7,1-2.5c0.4-0.8,1-1.6,1.5-2.3c0.6-0.7,1.2-1.4,1.9-2c0.7-0.6,1.5-1.2,2.3-1.6c0.8-0.4,1.6-0.8,2.5-1.1
		c0.9-0.3,1.7-0.5,2.5-0.6c0.8-0.1,1.6-0.1,2.2,0c0.7,0,1.3,0.2,1.8,0.3c0.5,0.1,0.9,0.3,1.1,0.4c0.3,0.1,0.4,0.2,0.4,0.2
		S52.8,53.9,52.7,54.2z"/>
</g>
</svg>
