<svg xmlns="http://www.w3.org/2000/svg" viewBox="0 0 65.6 50" xmlns:xlink="http://www.w3.org/1999/xlink"><linearGradient id="a"><stop offset="0" stop-color="#00ffde"/><stop offset="1" stop-color="#2ac6ff"/></linearGradient><linearGradient id="b" x1="4.8" x2="80.57" y1="51.88" y2="6.83" gradientUnits="userSpaceOnUse" xlink:href="#a"/><linearGradient id="c" x1="3.56" x2="79.33" y1="49.78" y2="4.74" gradientUnits="userSpaceOnUse" xlink:href="#a"/><linearGradient id="d" x1="15.95" x2="91.72" y1="70.62" y2="25.58" gradientUnits="userSpaceOnUse" xlink:href="#a"/><linearGradient id="e" x1="1.96" x2="77.73" y1="47.09" y2="2.05" gradientUnits="userSpaceOnUse" xlink:href="#a"/><linearGradient id="f" x1="-5.35" x2="70.42" y1="34.81" y2="-10.24" gradientUnits="userSpaceOnUse" xlink:href="#a"/><linearGradient id="g" x1="6.35" x2="82.13" y1="54.49" y2="9.44" gradientUnits="userSpaceOnUse" xlink:href="#a"/><linearGradient id="h" x1="12.17" x2="87.94" y1="64.27" y2="19.22" gradientUnits="userSpaceOnUse" xlink:href="#a"/><path fill="url(#b)" d="M58.1 21.9c-2.2-1.1-6.3-1.1-6.5-1.1-.5 0-.9.4-.9.9s.4.9.9.9c1.1 0 4.2.2 5.6.9.1.1.3.1.4.1.3 0 .7-.2.8-.5.4-.4.2-1-.3-1.2z"/><path fill="url(#c)" d="M62.8 35.4l-3.9-1.1c-.2 0-.3-.2-.3-.4v-1.3c.3-.2.6-.5.9-.7 1.4-1.3 2.1-3.1 2.1-5V25l.4-.8c.4-.8.6-1.8.6-2.7v-4.9c0-.5-.4-.9-.9-.9h-9.1c-3.3 0-6 2.7-6 6v.1c0 .8.2 1.5.5 2.2l.5 1v1.5c0 2.4 1.2 4.6 3 6v1.4c0 .2 0 .3-.8.5l-1.8.5-5.5-2c0-.3-.1-.5-.3-.7l-1.8-1.9v-3.1c.2-.2.4-.3.5-.5 2.2-2.1 3.5-5 3.5-8.1v-2.5c.7-1.5 1-3 1-4.6v-10c0-.5-.4-.9-.9-.9H30.4c-5 0-9 4.1-9 9v2c0 1.6.3 3.1 1 4.6v2.1c0 3.5 1.6 6.7 4 8.8v3.2l-1.8 1.9c-.2.2-.3.5-.3.7L18.5 35l-1.2.6-.9-.5c2.7-1.2 3.6-2.9 3.6-2.9.1-.3.1-.6 0-.8-.7-1.4-.8-3.9-.8-5.9 0-.7 0-1.3-.1-1.9-.3-4.5-3.8-8-8-8s-7.7 3.4-8 8c0 .6-.1 1.2-.1 1.9-.1 2-.1 4.5-.8 5.9-.1.3-.1.6 0 .8 0 .1.9 1.7 3.6 2.9l-2.5 1.3c-1.4.7-2.2 2-2.2 3.6v7c0 .5.4.9.9.9s1-.3 1-.9v-7c0-.8.4-1.5 1.2-1.9l3.2-1.6 1.1 1c.8.7 1.8 1.1 2.7 1.1 1 0 2-.4 2.7-1.1l1.1-1 1 .5c-.5.8-.8 1.7-.8 2.6V47c0 .5.4.9.9.9s.9-.4.9-.9v-7.3c0-1.3.8-2.5 2-2.9l6.1-2.2 2.6 3.8c.3.5.9.8 1.4.9h.2c.5 0 1-.2 1.4-.6l1.6-1.6V47c0 .5.4.9.9.9s.9-.4.9-.9v-9.9l1.6 1.6c.4.4.9.6 1.4.6h.2c.6-.1 1.1-.4 1.4-.9l2.6-3.8 6.1 2.2c1.2.4 2 1.6 2 2.9V47c0 .5.4.9.9.9s.9-.4.9-.9v-7.3a5 5 0 0 0-1.4-3.5l.2-.1c.2-.1.6-.2.9-.3l2.4 2.4V47c0 .5.4.9.9.9s.9-.4.9-.9v-8.7l2.4-2.4c.1.1.3.1.4.2l3.9 1.1c.9.3 1.5 1.1 1.5 2V47c0 .5.4.9.9.9s.9-.4.9-.9v-7.8c.6-1.8-.6-3.3-2.3-3.8zM7.2 33.7c-1.8-.6-2.7-1.5-3-2 .3-.7.4-1.4.5-2.3.5 1.3 1.4 2.3 2.5 3.1zm5.4 2.6c-.8.8-2.1.8-2.9 0l-.9-.8c.1-.3.2-.6.2-.9v-1a7.6 7.6 0 0 0 4.2 0v1c0 .3.1.6.2.9zm-1.4-4.4c-2.8 0-5.1-2.3-5.1-5.1 0-.5-.4-.9-.9-.9H5v-2.1c.1-1.7.8-3.3 1.9-4.4 1.1-1.2 2.6-1.8 4.2-1.8s3.1.6 4.2 1.8c1.1 1.1 1.8 2.7 1.9 4.4 0 .5.1 1.1.1 1.8v.2c-1-1.6-2.6-2.8-4.7-3.4-1.9-.6-3.5-.6-3.6-.6-.2 0-.5.1-.7.3l-1.7 1.8c-.4.4-.4 1 0 1.3.4.4 1 .4 1.3 0l1.4-1.5c1.2.1 5.2.5 6.7 3.9-.1 2.5-2.3 4.3-4.8 4.3zm4 1.8v-1.1c1.1-.8 2-1.8 2.5-3.1.1.8.3 1.6.5 2.3-.4.4-1.3 1.3-3 1.9zm9.1-15.4V16c0-.1 0-.3-.1-.4-.6-1.3-.9-2.6-.9-4v-2c0-3.9 3.2-7.1 7.1-7.1h13.2v9.2c0 1.4-.3 2.7-.9 4-.1.1-.1.3-.1.4v2.7a9 9 0 0 1-2.9 6.7c-.2.2-.5.4-.7.6-1.8 1.3-3.9 2-6.1 1.8-4.9-.4-8.6-4.5-8.6-9.6zm5.3 19.1h-.1L26.6 33l.9-1 4.5 3zm3.8-3.7l-5.1-3.5v-1.8c1.3.7 2.8 1.2 4.4 1.3h.7c1.8 0 3.6-.4 5.1-1.3v1.7zm4 3.7h-.1L34.9 35l4.5-3.1.9 1zm17.3-.8l-2.1-2.1c0-.2.1-.4.1-.6v-.4c.6.2 1.2.3 1.9.3h.2c.7 0 1.4-.1 2.1-.3v.4c0 .2 0 .4.1.6zm3.5-6.1c-1 1-2.3 1.5-3.7 1.4-2.7-.1-5-2.5-5-5.4v-1.8c0-.1 0-.3-.1-.4l-.6-1.2c-.2-.4-.3-.9-.3-1.4v-.1c0-2.3 1.8-4.1 4.1-4.1h8.2v3.9c0 .6-.2 1.3-.4 1.8l-.5 1c-.1.1-.1.3-.1.4v2c0 1.6-.6 2.9-1.6 3.9z"/><path fill="url(#d)" d="M60.7 40c-.5 0-.9.4-.9.9V47c0 .5.4.9.9.9s.9-.4.9-.9v-6c.1-.6-.3-1-.9-1z"/><path fill="url(#e)" d="M6.1 41.3c-.5 0-.9.4-.9.9V47c0 .5.4.9.9.9s.9-.4.9-.9v-4.8c.1-.5-.4-.9-.9-.9z"/><path fill="url(#f)" d="M41.2 12c-3.6-3.6-11.1-2.9-14.1-2.4-1 .1-1.7 1-1.7 1.9v2.2c0 .5.4.9.9.9s.9-.4.9-.9v-2.3c1.2-.2 3.6-.5 6.1-.3 3 .2 5.1.9 6.4 2.2.4.4 1 .4 1.3 0 .6-.4.6-1 .2-1.3z"/><path fill="url(#g)" d="M22.3 42c-.5 0-.9.4-.9.9v4c0 .5.4.9.9.9s.9-.4.9-.9v-4c.1-.4-.4-.9-.9-.9z"/><path fill="url(#h)" d="M44.6 42c-.5 0-.9.4-.9.9v4c0 .5.4.9.9.9s.9-.4.9-.9v-4c0-.4-.4-.9-.9-.9z"/></svg>