<svg viewBox="0 0 131.5 16.3" xmlns="http://www.w3.org/2000/svg"><path d="m1.2 2.4c-.3 0-.6-.1-.8-.3s-.4-.5-.4-.9c0-.3.1-.6.4-.8.2-.2.5-.3.8-.3s.6.1.8.3.3.5.3.8c0 .4-.1.6-.3.8s-.5.4-.8.4zm1.1 2.4v6.7c0 .5-.1.8-.3 1.1s-.5.4-.8.4-.6-.1-.8-.4c-.2-.2-.3-.6-.3-1v-6.8c0-.5.1-.8.3-1s.5-.3.8-.3.6.1.8.3.3.6.3 1zm3.5-.1v.3c.4-.5.9-.9 1.3-1.2.5-.3 1-.4 1.7-.4.6 0 1.2.1 1.6.4s.8.6 1.1 1.1c.2.3.3.6.3.9s.1.7.1 1.3v4.3c0 .5-.1.8-.3 1.1s-.5.4-.8.4a.9.9 0 0 1 -.8-.4c-.2-.2-.3-.6-.3-1v-3.9c0-.8-.1-1.3-.3-1.8-.4-.4-.8-.6-1.4-.6-.4 0-.8.1-1.1.4s-.6.6-.7 1c-.2.4-.3 1-.3 2v2.9c0 .5-.1.8-.3 1.1-.2.2-.5.4-.8.4s-.6-.1-.8-.4-.3-.6-.3-1v-6.8c0-.4.1-.8.3-1s.5-.3.8-.3c.2 0 .4 0 .6.1 0 .1.1.2.2.4s.2.5.2.7zm15.9.4v6.7c0 .8-.1 1.4-.2 2-.2.6-.4 1-.8 1.4s-.8.6-1.4.8-1.3.3-2.2.3c-.8 0-1.5-.1-2.1-.3s-1.1-.5-1.5-.9c-.3-.4-.5-.7-.5-1.1 0-.3.1-.5.3-.7s.4-.3.7-.3.6.1.9.4c.1.2.3.3.4.5s.3.3.4.4c.2.1.4.2.6.2.2.1.5.1.8.1.6 0 1.1-.1 1.4-.3s.6-.4.7-.7.2-.6.2-1c0-.3 0-.9.1-1.7-.4.5-.8.9-1.2 1.1s-1 .4-1.7.4c-.8 0-1.5-.2-2-.6-.6-.4-1-1-1.3-1.7a6.18 6.18 0 0 1 -.2-4.4c.2-.6.5-1 .8-1.4.4-.4.8-.7 1.2-.9.5-.2 1-.3 1.5-.3.7 0 1.2.1 1.7.4s.9.6 1.3 1.2c0-.4.1-.7.3-.9s.5-.3.8-.3c.4 0 .7.1.9.4 0 .3.1.7.1 1.2zm-6.8 3c0 .9.2 1.7.6 2.1.4.5.9.7 1.6.7.4 0 .7-.1 1.1-.3.3-.2.6-.5.8-.9s.3-.9.3-1.5c0-.9-.2-1.7-.6-2.2s-1-.8-1.6-.8c-.7 0-1.2.3-1.6.8s-.6 1.2-.6 2.1zm7.8 3.4v-10.1c0-.5.1-.8.3-1.1.2-.2.5-.3.9-.3s.6.1.8.4c.2.2.3.5.3 1v10.1c0 .5-.1.8-.3 1.1-.2.2-.5.4-.8.4a.9.9 0 0 1 -.8-.4c-.3-.3-.4-.7-.4-1.1zm10.2-2.8h-4.5c0 .5.1 1 .3 1.4s.5.7.8.9.7.3 1.1.3c.3 0 .5 0 .8-.1s.5-.2.7-.3.4-.3.6-.4.4-.4.7-.6c.1-.1.3-.2.5-.2s.4.1.6.2c.1.1.2.3.2.6 0 .2-.1.5-.2.7-.2.3-.4.5-.7.8s-.7.5-1.2.6-1.1.3-1.7.3a4.6 4.6 0 0 1 -4.9-4.8c0-.7.1-1.3.3-1.9s.5-1.1.9-1.5.9-.7 1.4-1c.6-.2 1.2-.3 1.9-.3.9 0 1.7.2 2.3.6s1.1.9 1.5 1.5c.3.6.5 1.2.5 1.9 0 .6-.2 1-.5 1.1-.4.1-.8.2-1.4.2zm-4.6-1.3h4.2c-.1-.8-.3-1.4-.6-1.8-.4-.4-.9-.6-1.5-.6s-1.1.2-1.4.6c-.4.4-.6 1-.7 1.8zm2.4-7.3h1.1c.3 0 .4 0 .4.1 0 0-.2.2-.5.6s-.6.6-1 .9c-.3.3-.5.5-.7.5-.3.2-.7.2-1 .2-.2 0-.4-.1-.4-.2s.1-.3.2-.5l.4-.7c.2-.4.4-.7.6-.8s.6-.1.9-.1zm12.5 9.7c0 .6-.2 1.2-.5 1.6-.3.5-.8.8-1.4 1s-1.3.4-2.2.4c-.8 0-1.5-.1-2.1-.4s-1-.6-1.3-1-.4-.8-.4-1.2c0-.3.1-.5.3-.7s.4-.3.7-.3c.2 0 .4.1.6.2.1.1.3.3.4.5.2.4.5.7.9.9s.8.3 1.4.3c.5 0 .8-.1 1.1-.3s.4-.4.4-.7c0-.4-.2-.7-.5-.9s-.8-.4-1.5-.5c-.8-.2-1.4-.4-1.9-.6s-.9-.5-1.2-.9a2.1 2.1 0 0 1 -.1-2.6c.3-.4.7-.7 1.2-1s1.2-.4 2-.4c.6 0 1.1.1 1.6.2s.9.3 1.2.5.6.4.7.7c.2.3.2.5.2.7 0 .3-.1.5-.3.7s-.4.3-.8.3c-.2 0-.4-.1-.6-.2s-.4-.3-.6-.6c-.2-.2-.4-.4-.6-.5s-.6-.2-1-.2-.8.1-1 .3c-.3.2-.4.4-.4.7 0 .2.1.4.3.6s.5.3.8.4.8.2 1.4.4c.7.2 1.3.4 1.8.6s.8.5 1 .9c.2.3.4.7.4 1.1zm19.9-7.4c-.3 0-.6-.1-.8-.3s-.3-.5-.3-.8.1-.6.4-.8c.2-.2.5-.3.8-.3s.6.1.8.3.3.5.3.8c0 .4-.1.6-.3.8s-.6.3-.9.3zm1.1 2.4v6.7c0 .5-.1.8-.3 1.1s-.5.4-.8.4a.9.9 0 0 1 -.8-.4c-.2-.2-.3-.6-.3-1v-6.8c0-.5.1-.8.3-1s.5-.3.8-.3.6.1.8.3.3.6.3 1zm3.5-.1v.3c.4-.5.9-.9 1.3-1.2s1-.4 1.7-.4c.6 0 1.2.1 1.6.4s.8.6 1.1 1.1c.2.3.3.6.3.9s.1.7.1 1.3v4.3c0 .5-.1.8-.3 1.1s-.5.4-.8.4-.6-.1-.8-.4-.3-.6-.3-1v-3.9c0-.8-.1-1.3-.3-1.8-.2-.4-.6-.6-1.3-.6-.4 0-.8.1-1.1.4s-.6.6-.7 1c-.1.3-.2 1-.2 1.9v2.9c0 .5-.1.8-.3 1.1-.2.2-.5.4-.8.4a.9.9 0 0 1 -.8-.4c-.2-.2-.3-.6-.3-1v-6.7c0-.4.1-.8.3-1s.5-.3.8-.3c.2 0 .4 0 .6.1s.3.2.4.4c-.3.2-.2.5-.2.7zm13.7 6.9v-.2c-.3.4-.6.6-.9.9-.3.2-.6.4-1 .5s-.7.2-1.2.2c-.6 0-1.1-.1-1.5-.4-.5-.2-.9-.6-1.2-1a5.3 5.3 0 0 1 -1.1-3.4c0-1.4.4-2.6 1.1-3.4s1.6-1.2 2.8-1.2c.7 0 1.2.1 1.7.3.4.1.9.5 1.3 1v-3.5c0-.5.1-.8.3-1.1.2-.2.5-.3.8-.3.4 0 .6.1.8.3s.3.6.3 1v10.2c0 .4-.1.8-.3 1s-.5.3-.8.3-.6-.1-.8-.3-.3-.5-.3-.9zm-4.6-3.5c0 .6.1 1.2.3 1.6s.5.8.8 1 .7.3 1.1.3.8-.1 1.1-.3.6-.5.8-1 .3-1 .3-1.6-.1-1.1-.3-1.6c-.2-.4-.5-.8-.8-1s-.7-.3-1.1-.3-.8.1-1.1.4-.6.6-.8 1-.3 1-.3 1.5zm9.3-5.7c-.3 0-.6-.1-.8-.3s-.3-.5-.3-.8.1-.6.4-.8c.2-.2.5-.3.8-.3s.6.1.8.3.3.5.3.8c0 .4-.1.6-.3.8-.4.2-.6.3-.9.3zm1.1 2.4v6.7c0 .5-.1.8-.3 1.1s-.5.4-.8.4a.9.9 0 0 1 -.8-.4c-.2-.2-.3-.6-.3-1v-6.8c0-.5.1-.8.3-1s.5-.3.8-.3.6.1.8.3.3.6.3 1zm3 .1 1.9 5.3 2-5.5c.2-.4.3-.8.5-.9s.4-.3.7-.3.5.1.8.3c.2.2.3.4.3.7 0 .1 0 .2-.1.4 0 .1-.1.3-.1.4s-.1.3-.2.4l-2.2 5.5c-.1.2-.1.4-.2.6s-.2.5-.3.6l-.4.4c-.2.1-.4.1-.7.1s-.6-.1-.8-.2-.3-.3-.4-.5-.3-.5-.5-1.1l-2.2-5.5c-.1-.1-.1-.3-.2-.4s-.2-.2-.2-.4c0-.1-.1-.3-.1-.4 0-.2 0-.3.1-.5s.2-.3.4-.4.4-.1.6-.1c.4 0 .7.1.8.3s.3.7.5 1.2zm7.9-2.5c-.3 0-.6-.1-.8-.3s-.3-.5-.3-.8.1-.6.4-.8c.2-.2.5-.3.8-.3s.6.1.8.3.3.5.3.8c0 .4-.1.6-.3.8-.3.2-.6.3-.9.3zm1.2 2.4v6.7c0 .5-.1.8-.3 1.1s-.5.4-.8.4a.9.9 0 0 1 -.8-.4c-.2-.2-.3-.6-.3-1v-6.8c0-.5.1-.8.3-1s.5-.3.8-.3.6.1.8.3.3.6.3 1zm7.7 6.8v-.2c-.3.4-.6.6-.9.9-.3.2-.6.4-1 .5s-.7.2-1.2.2c-.6 0-1.1-.1-1.5-.4-.5-.2-.9-.6-1.2-1a5.3 5.3 0 0 1 -1.1-3.4c0-1.4.4-2.6 1.1-3.4s1.6-1.2 2.8-1.2c.7 0 1.2.1 1.7.3s.9.6 1.3 1.1v-3.6c0-.5.1-.8.3-1.1.2-.2.5-.4.8-.4s.6.1.8.3.3.6.3 1v10.2c0 .4-.1.8-.3 1s-.5.3-.8.3-.6-.1-.8-.3c-.2-.1-.3-.4-.3-.8zm-4.6-3.5c0 .6.1 1.2.3 1.6s.5.8.8 1 .7.3 1.1.3.8-.1 1.1-.3.6-.5.8-1 .3-1 .3-1.6-.1-1.1-.3-1.6c-.2-.4-.5-.8-.8-1s-.7-.4-1.1-.4-.8.1-1.1.4-.6.6-.8 1c-.2.5-.3 1.1-.3 1.6zm14.1 3.5v-.3c-.3.4-.6.6-.9.9s-.6.4-1 .5-.8.2-1.2.2c-.6 0-1.1-.1-1.5-.3s-.8-.6-1-1c-.3-.5-.4-1.2-.4-2.1v-4.7c0-.5.1-.8.3-1s.5-.3.8-.3c.4 0 .6.1.8.3s.3.6.3 1v3.7c0 .5 0 1 .1 1.4s.3.7.5.9.6.3 1 .3.8-.1 1.1-.3.6-.5.8-.9c.1-.3.2-1 .2-2.2v-2.9c0-.5.1-.8.3-1s.5-.3.8-.3.6.1.8.3.3.6.3 1v6.7c0 .4-.1.8-.3 1s-.5.3-.8.3-.6-.1-.8-.3a2 2 0 0 1 -.2-.9zm9.3 0c-.6.4-1.1.8-1.6 1s-1.1.3-1.8.3c-.6 0-1.1-.1-1.6-.4-.4-.2-.8-.6-1-1s-.4-.8-.4-1.3c0-.6.2-1.2.6-1.6s1-.7 1.7-.9c.1 0 .5-.1 1.1-.2s1.1-.2 1.5-.3.9-.2 1.4-.4c0-.6-.2-1.1-.4-1.3-.3-.3-.7-.5-1.4-.5-.6 0-1 .1-1.3.2-.3.2-.6.4-.8.7s-.4.5-.4.7-.3.2-.6.2a.9.9 0 0 1 -.7-.3c-.2-.2-.3-.4-.3-.6 0-.4.1-.8.4-1.2s.7-.7 1.3-1 1.4-.4 2.3-.4c1 0 1.8.1 2.4.4s1 .6 1.2 1.1.4 1.2.4 2.1v2.7c0 .4.1.9.2 1.4s.2.8.2.9c0 .2-.1.5-.3.6-.2.2-.5.3-.8.3-.2 0-.5-.1-.7-.3-.1-.2-.4-.5-.6-.9zm-.2-3.4c-.3.1-.8.3-1.5.4-.6.1-1.1.2-1.3.3s-.5.2-.7.4-.3.5-.3.8c0 .4.1.6.4.9s.6.4 1 .4c.5 0 .9-.1 1.3-.3s.7-.5.9-.8c.2-.4.3-.9.3-1.7v-.4zm3.6 3.3v-10.1c0-.5.1-.8.3-1.1.2-.2.5-.4.8-.4s.6.1.8.4c.2.2.3.6.3 1.1v10.1c0 .5-.1.8-.3 1.1-.2.2-.5.4-.8.4a.9.9 0 0 1 -.8-.4c-.2-.3-.3-.7-.3-1.1zm-77.4-8.2h1.6c1 .1 1.9.3 2.8.6.9.4 1.8.8 2.5 1.6.4.4.7.9.9 1.4.1.2.1.5.2.7v.8c0 .1-.1.3-.1.4-.2.6-.5 1.2-1 1.7-.8.8-1.8 1.4-2.9 1.7l-1.2.3c-.1 0-.1 0-.1.1s0 .2-.1.3c-.2 1-.7 1.8-1.6 2.4-.7.4-1.4.7-2.2.8-.2 0-.4 0-.6.1h-.1s0-.1.1-.1c.3-.3.6-.5.9-.9.4-.5.7-1 .8-1.6 0-.2 0-.5-.1-.7-.1-.1-.1-.2-.3-.2h-.3c-.9-.1-1.8-.4-2.7-.7-.7-.3-1.4-.7-1.9-1.3-.5-.5-.9-1.1-1-1.8 0-.2-.1-.4-.1-.6v-.4c.1-.6.3-1.2.6-1.7.5-.6 1-1.1 1.7-1.5 1-.6 2.2-.9 3.3-1.1.4-.2.6-.2.9-.3z" fill="#333"/></svg>