<svg viewBox="0 0 28 28" xmlns="http://www.w3.org/2000/svg"><path d="m3.6 0h20.8c2 0 3.6 1.5 3.6 3.6v20.8c0 2.1-1.6 3.6-3.6 3.6h-20.8c-2 0-3.6-1.5-3.6-3.6v-20.8c0-2.1 1.6-3.6 3.6-3.6zm16.8 3.1c-.7 0-1.3.6-1.3 1.3v3c0 .7.6 1.3 1.3 1.3h3.2c.7 0 1.3-.6 1.3-1.3v-3c0-.7-.6-1.3-1.3-1.3zm4.4 8.7h-2.5c.2.8.4 1.6.4 2.4 0 4.7-3.9 8.4-8.7 8.4s-8.7-3.8-8.7-8.4c0-.8.1-1.6.4-2.4h-2.6v11.8c0 .6.5 1.1 1.1 1.1h19.5c.6 0 1.1-.5 1.1-1.1zm-10.8-3.3c-3.1 0-5.6 2.4-5.6 5.4s2.5 5.4 5.6 5.4 5.6-2.4 5.6-5.4-2.5-5.4-5.6-5.4z" fill="#606060"/></svg>