<?xml version="1.0" encoding="utf-8"?>
<!-- Generator: Adobe Illustrator 23.0.2, SVG Export Plug-In . SVG Version: 6.00 Build 0)  -->
<svg version="1.1" id="Layer_1" xmlns="http://www.w3.org/2000/svg" xmlns:xlink="http://www.w3.org/1999/xlink" x="0px" y="0px"
	 viewBox="0 0 360 360" style="enable-background:new 0 0 360 360;" xml:space="preserve">
<style type="text/css">
	.st0{fill:#FFFFFF;}
</style>
<g>
	<path class="st0" d="M180,86.1c-51.8,0-94,42.2-94,94c0,51.8,42.2,93.9,94,93.9c51.7,0,93.9-42.1,93.9-93.9
		C273.9,128.2,231.8,86.1,180,86.1z M180,257.3c-42.6,0-77.3-34.7-77.3-77.3c0-42.6,34.7-77.3,77.3-77.3c42.6,0,77.3,34.7,77.3,77.3
		C257.3,222.6,222.6,257.3,180,257.3z"/>
	<path class="st0" d="M180,118.2c-34.1,0-61.8,27.7-61.8,61.8c0,34.1,27.7,61.8,61.8,61.8s61.8-27.7,61.8-61.8
		C241.8,146,214.1,118.2,180,118.2z M180,225.2c-24.9,0-45.2-20.3-45.2-45.1c0-24.9,20.3-45.2,45.2-45.2c24.9,0,45.1,20.3,45.1,45.2
		C225.2,204.9,204.9,225.2,180,225.2z"/>
</g>
</svg>
