<?xml version="1.0" encoding="utf-8"?>
<!-- Generator: Adobe Illustrator 23.0.2, SVG Export Plug-In . SVG Version: 6.00 Build 0)  -->
<svg version="1.1" id="Layer_1" xmlns="http://www.w3.org/2000/svg" xmlns:xlink="http://www.w3.org/1999/xlink" x="0px" y="0px"
	 viewBox="0 0 50 50" style="enable-background:new 0 0 50 50;" xml:space="preserve">
<style type="text/css">
	.st0{fill:url(#SVGID_1_);}
	.st1{fill:url(#SVGID_2_);}
	.st2{fill:url(#SVGID_3_);}
	.st3{fill:url(#SVGID_4_);}
	.st4{fill:url(#SVGID_5_);}
</style>
<g>
	<g>
		<g>
			<linearGradient id="SVGID_1_" gradientUnits="userSpaceOnUse" x1="-11.4053" y1="57.9003" x2="41.4995" y2="15.8664">
				<stop  offset="0" style="stop-color:#00FFDE"/>
				<stop  offset="1" style="stop-color:#2AC6FF"/>
			</linearGradient>
			<circle class="st0" cx="2" cy="47.3" r="0.9"/>
		</g>
	</g>
	<g>
		<g>
			<linearGradient id="SVGID_2_" gradientUnits="userSpaceOnUse" x1="-13.7272" y1="54.9779" x2="39.1776" y2="12.944">
				<stop  offset="0" style="stop-color:#00FFDE"/>
				<stop  offset="1" style="stop-color:#2AC6FF"/>
			</linearGradient>
			<circle class="st1" cx="26" cy="23.4" r="0.9"/>
		</g>
	</g>
	<g>
		<g>
			<linearGradient id="SVGID_3_" gradientUnits="userSpaceOnUse" x1="-14.4836" y1="54.026" x2="38.4212" y2="11.992">
				<stop  offset="0" style="stop-color:#00FFDE"/>
				<stop  offset="1" style="stop-color:#2AC6FF"/>
			</linearGradient>
			<path class="st2" d="M38.3,11.5c-0.8-0.8-1.8-1.2-2.8-1.2c-1.1,0-2.1,0.4-2.8,1.2c-1.6,1.6-1.6,4.1,0,5.7
				c0.8,0.8,1.8,1.2,2.8,1.2c1,0,2-0.4,2.8-1.2C39.8,15.6,39.8,13.1,38.3,11.5z M37,15.8c-0.8,0.8-2.2,0.8-3,0c-0.8-0.8-0.8-2.2,0-3
				c0.4-0.4,0.9-0.6,1.5-0.6s1.1,0.2,1.5,0.6C37.8,13.7,37.8,15,37,15.8z"/>
		</g>
	</g>
	<g>
		<g>
			<linearGradient id="SVGID_4_" gradientUnits="userSpaceOnUse" x1="-11.9957" y1="57.1573" x2="40.9091" y2="15.1234">
				<stop  offset="0" style="stop-color:#00FFDE"/>
				<stop  offset="1" style="stop-color:#2AC6FF"/>
			</linearGradient>
			<path class="st3" d="M12.8,39c-0.5-0.2-1,0-1.3,0.4l-1.1,2.2c-0.5,1-1.5,1.6-2.6,1.7l-1.3,0.1c-0.2,0-0.4-0.1-0.4-0.2
				C6,43.2,5.9,43,5.9,42.8L6,41.5c0.1-1.1,0.7-2.1,1.7-2.6l2.2-1.1c0.5-0.2,0.7-0.8,0.4-1.3c-0.2-0.5-0.8-0.7-1.3-0.4l-2.2,1.1
				c-1.6,0.8-2.6,2.4-2.7,4.1l-0.1,1.3c0,0.7,0.2,1.4,0.7,1.9c0.5,0.5,1.1,0.7,1.7,0.7c0.1,0,0.1,0,0.2,0L8,45.2
				c1.7-0.1,3.3-1.2,4.1-2.7l1.1-2.2C13.4,39.7,13.2,39.2,12.8,39z"/>
		</g>
	</g>
	<g>
		<g>
			<linearGradient id="SVGID_5_" gradientUnits="userSpaceOnUse" x1="-12.8624" y1="56.0664" x2="40.0424" y2="14.0325">
				<stop  offset="0" style="stop-color:#00FFDE"/>
				<stop  offset="1" style="stop-color:#2AC6FF"/>
			</linearGradient>
			<path class="st4" d="M48.2,1.3c-0.4-0.4-1-0.7-1.7-0.6l-0.9,0.1C37.9,1.2,30.5,5,25.6,11.1l-2.1,2.5l-5.4-0.2c0,0,0,0,0,0
				c-4.3,0-8.3,1.7-11.3,4.7l-5.5,5.5c-0.3,0.3-0.3,0.7-0.2,1c0.1,0.3,0.5,0.6,0.8,0.6l11.7,0.6l-0.5,0.6c-0.2,0.3-0.3,0.7-0.1,1
				c0.2,0.3,0.4,0.7,0.6,1l-2.8,3.3c-0.2,0.3-0.3,0.7-0.1,1c0.6,1.3,1.4,2.4,2.4,3.4c1,1,2.2,1.8,3.5,2.5c0.1,0.1,0.3,0.1,0.4,0.1
				c0.2,0,0.4-0.1,0.6-0.2c0.6-0.5,1.3-1.1,1.9-1.6c0.5-0.4,1-0.8,1.4-1.2c0.3,0.2,0.5,0.3,0.8,0.5c0.1,0.1,0.3,0.1,0.4,0.1
				c0.2,0,0.4-0.1,0.6-0.2l0.6-0.5L24,47.3c0,0.4,0.3,0.7,0.6,0.8c0.1,0,0.2,0.1,0.3,0.1c0.2,0,0.5-0.1,0.7-0.3l5.5-5.5
				c3-3,4.7-7,4.7-11.3V26l2.2-1.7c6.5-5.1,10.5-12.7,10.9-20.9l0-0.5C48.9,2.3,48.7,1.7,48.2,1.3z M4.1,23.5l4-4
				c2.7-2.7,6.2-4.1,10-4.1l3.9,0.1l-7,8.6L4.1,23.5z M18.3,35.4c-0.5,0.4-1,0.8-1.5,1.2c-0.9-0.5-1.7-1.1-2.4-1.8
				c-0.7-0.7-1.3-1.5-1.8-2.4l2-2.4c0.6,0.8,1.3,1.6,2,2.3c0,0,0,0,0,0c0,0,0,0,0,0c0,0,0,0,0,0c0.8,0.8,1.7,1.6,2.6,2.2
				C19,34.9,18.6,35.2,18.3,35.4z M33.9,31.1c0,3.8-1.5,7.3-4.1,10l-4,4l-0.6-10.9l8.7-6.8L33.9,31.1L33.9,31.1z M47,3.3
				c-0.4,7.7-4.1,14.8-10.2,19.5L22.1,34.2c-1.2-0.7-2.4-1.6-3.4-2.5l5-5c0.4-0.4,0.4-1,0-1.3c-0.4-0.4-1-0.4-1.3,0l-5,5
				c-0.9-1-1.7-2.1-2.4-3.3L27,12.2C31.7,6.6,38.5,3,45.8,2.6l0.9-0.1c0.1,0,0.2,0,0.2,0.1c0,0,0.1,0.1,0.1,0.2L47,3.3z"/>
		</g>
	</g>
</g>
</svg>
