<?xml version="1.0" encoding="utf-8"?>
<!-- Generator: Adobe Illustrator 23.0.6, SVG Export Plug-In . SVG Version: 6.00 Build 0)  -->
<svg version="1.1" id="Capa_1" xmlns="http://www.w3.org/2000/svg" xmlns:xlink="http://www.w3.org/1999/xlink" x="0px" y="0px"
	 viewBox="0 0 512 512" style="enable-background:new 0 0 512 512;" xml:space="preserve">
<style type="text/css">
	.st0{fill:#FFFFFF;}
</style>
<g>
	<g>
		<path class="st0" d="M256,360.2c-4.8,3.5-9.8,6.7-15,9.5V512h30V369.7C265.8,366.9,260.8,363.7,256,360.2z"/>
	</g>
</g>
<g>
	<g>
		<path class="st0" d="M394.2,119.5c-4.5-31.4-19.6-60.2-43-82C325.2,13.3,291.4,0,256,0s-69.2,13.3-95.1,37.4
			c-23.4,21.8-38.5,50.7-43,82c-50.5,22-83.8,72.3-83.8,128c0,77,62.6,139.6,139.6,139.6c23.7,0,46.8-6,67.3-17.3v-61.1l-67.3-35.4
			l14-26.6l53.3,28V149.2h30v59.1l53.3-28l14,26.6L271,242.2v127.6c20.5,11.3,43.6,17.3,67.3,17.3c77,0,139.6-62.6,139.6-139.6
			C477.9,191.8,444.6,141.5,394.2,119.5z"/>
	</g>
</g>
</svg>
