<svg width="113" height="102" viewBox="0 0 113 102" fill="none" xmlns="http://www.w3.org/2000/svg">
<path d="M75.9542 2.28841C69.8834 0.800942 63.3297 0 56.5 0C44.6113 0 33.5965 2.44859 24.4903 6.63638C9.70413 13.4329 0 24.8063 0 37.6901C0 40.2531 0.390937 42.7703 1.12679 45.1731C1.17278 45.2876 1.19579 45.402 1.24178 45.5164C1.31076 45.7224 1.37974 45.9283 1.44873 46.1343C6.7607 61.6039 26.3299 73.435 50.4522 75.1513C50.6591 75.998 50.9121 76.8447 51.0961 77.7143C51.7169 80.6892 51.9239 83.6641 51.28 86.6391C50.5672 89.9115 49.2104 92.7491 47.0718 95.2664C45.1632 97.509 42.6797 99.4084 40.4261 101.285C40.1962 101.491 39.9892 101.697 39.7593 101.903C40.4262 102.04 41.024 102.017 41.5989 101.926C48.9575 100.827 55.5572 98.2871 61.2831 93.4585C67.101 88.5613 70.4123 82.1538 70.6193 74.4648C70.6193 74.3732 70.6193 74.2588 70.6193 74.1673C81.3352 72.3365 90.8323 68.4462 98.0989 63.16C107.343 56.455 113 47.5073 113 37.6672C113 21.4195 97.57 7.57463 75.9542 2.28841" fill="#0B0B0B"/>
</svg>
