<svg width="72" height="72" viewBox="0 0 72 72" fill="none" xmlns="http://www.w3.org/2000/svg">
<path d="M72 0H0V72H72V0Z" fill="#E9F2FF"/>
<path d="M54.2399 13.92C52.4624 13.92 50.9699 15.1537 50.5387 16.8H27.3599C23.7674 16.8 20.7449 19.2937 19.9124 22.635C18.1499 22.9762 16.7999 24.54 16.7999 26.4C16.7999 28.1925 18.0562 29.7 19.7249 30.1162C20.1449 33.9562 23.4112 36.96 27.3599 36.96H44.6399C47.2387 36.96 49.4212 38.6625 50.1449 41.0175C48.6299 41.5312 47.5199 42.9562 47.5199 44.64C47.5199 46.395 48.7237 47.8687 50.3399 48.3225C49.9499 51.1312 47.5574 53.28 44.6399 53.28H21.4612C21.0299 51.6337 19.5374 50.4 17.7599 50.4C15.6487 50.4 13.9199 52.1287 13.9199 54.24C13.9199 56.3512 15.6487 58.08 17.7599 58.08C19.5374 58.08 21.0299 56.8462 21.4612 55.2H44.6399C48.5887 55.2 51.8549 52.1962 52.2749 48.3562C53.9437 47.94 55.1999 46.4325 55.1999 44.64C55.1999 42.78 53.8499 41.2162 52.0837 40.875C51.2549 37.5337 48.2324 35.04 44.6399 35.04H27.3599C24.4424 35.04 22.0499 32.8912 21.6599 30.0825C23.2762 29.6287 24.4799 28.155 24.4799 26.4C24.4799 24.7162 23.3699 23.2912 21.8549 22.7775C22.5787 20.4225 24.7612 18.72 27.3599 18.72H50.5387C50.9699 20.3662 52.4624 21.6 54.2399 21.6C56.3512 21.6 58.0799 19.8712 58.0799 17.76C58.0799 15.6487 56.3512 13.92 54.2399 13.92ZM54.2399 15.84C55.3124 15.84 56.1599 16.6875 56.1599 17.76C56.1599 18.8325 55.3124 19.68 54.2399 19.68C53.1674 19.68 52.3199 18.8325 52.3199 17.76C52.3199 16.6875 53.1674 15.84 54.2399 15.84ZM20.6399 24.48C21.7124 24.48 22.5599 25.3275 22.5599 26.4C22.5599 27.4725 21.7124 28.32 20.6399 28.32C19.5674 28.32 18.7199 27.4725 18.7199 26.4C18.7199 25.3275 19.5674 24.48 20.6399 24.48ZM51.3599 42.72C52.4324 42.72 53.2799 43.5675 53.2799 44.64C53.2799 45.7125 52.4324 46.56 51.3599 46.56C50.2874 46.56 49.4399 45.7125 49.4399 44.64C49.4399 43.5675 50.2874 42.72 51.3599 42.72ZM17.7599 52.32C18.8324 52.32 19.6799 53.1675 19.6799 54.24C19.6799 55.3125 18.8324 56.16 17.7599 56.16C16.6874 56.16 15.8399 55.3125 15.8399 54.24C15.8399 53.1675 16.6874 52.32 17.7599 52.32Z" fill="#0E6EFF"/>
</svg>
