<svg width="72" height="72" viewBox="0 0 72 72" fill="none" xmlns="http://www.w3.org/2000/svg">
<g clip-path="url(#clip0_790_6996)">
<path d="M72 0H0V72H72V0Z" fill="#F3FFF4"/>
<path d="M36 16.8C33.8887 16.8 32.16 18.5287 32.16 20.64C32.16 21.9975 32.8875 23.1975 33.96 23.88L27.3 39.2401L18.84 31.6201C19.3537 30.9676 19.68 30.1688 19.68 29.2801C19.68 27.1688 17.9513 25.4401 15.84 25.4401C13.7287 25.4401 12 27.1688 12 29.2801C12 31.2901 13.5713 32.9362 15.54 33.09L18.78 46.23C18.7425 46.335 18.72 46.4476 18.72 46.5601V54.2401C18.72 54.7688 19.1513 55.2001 19.68 55.2001H52.32C52.8487 55.2001 53.28 54.7688 53.28 54.2401V46.5601C53.2762 46.4588 53.2575 46.3575 53.22 46.26L56.46 33.09C58.4287 32.9362 60 31.2901 60 29.2801C60 27.1688 58.2712 25.4401 56.16 25.4401C54.0487 25.4401 52.32 27.1688 52.32 29.2801C52.32 30.1763 52.6387 30.9937 53.16 31.65L44.7 39.2401L38.04 23.88C39.1125 23.1975 39.84 21.9975 39.84 20.64C39.84 18.5287 38.1112 16.8 36 16.8ZM36 18.72C37.0725 18.72 37.92 19.5675 37.92 20.64C37.92 21.7125 37.0725 22.56 36 22.56C34.9275 22.56 34.08 21.7125 34.08 20.64C34.08 19.5675 34.9275 18.72 36 18.72ZM35.82 24.4501C35.88 24.4538 35.94 24.48 36 24.48C36.0712 24.48 36.1387 24.4538 36.21 24.4501L43.47 41.25C43.5937 41.535 43.845 41.7451 44.1487 41.8088C44.4525 41.8763 44.7712 41.7901 45 41.5801L54.48 33.03L51.42 45.6H20.58L17.52 33.0601L27 41.5801C27.2287 41.7901 27.5475 41.8763 27.8512 41.8088C28.155 41.7451 28.4062 41.535 28.53 41.25L35.82 24.4501ZM15.84 27.3601C16.9125 27.3601 17.76 28.2076 17.76 29.2801C17.76 30.3526 16.9125 31.2001 15.84 31.2001C14.7675 31.2001 13.92 30.3526 13.92 29.2801C13.92 28.2076 14.7675 27.3601 15.84 27.3601ZM56.16 27.3601C57.2325 27.3601 58.08 28.2076 58.08 29.2801C58.08 30.3526 57.2325 31.2001 56.16 31.2001C55.0875 31.2001 54.24 30.3526 54.24 29.2801C54.24 28.2076 55.0875 27.3601 56.16 27.3601ZM20.64 47.5201H51.36V53.28H20.64V47.5201Z" fill="#47AD4B"/>
</g>
<defs>
<clipPath id="clip0_790_6996">
<rect width="72" height="72" fill="white"/>
</clipPath>
</defs>
</svg>
