<svg width="72" height="72" viewBox="0 0 72 72" fill="none" xmlns="http://www.w3.org/2000/svg">
<path d="M72 0H0V72H72V0Z" fill="#E9F2FF"/>
<path d="M24.3 16.8C23.7713 16.8487 23.3813 17.3212 23.43 17.85C23.4788 18.3787 23.9513 18.7687 24.48 18.72H47.52C47.865 18.7237 48.1875 18.5437 48.3638 18.2437C48.5363 17.9437 48.5363 17.5762 48.3638 17.2762C48.1875 16.9762 47.865 16.7962 47.52 16.8H24.48C24.45 16.8 24.42 16.8 24.39 16.8C24.36 16.8 24.33 16.8 24.3 16.8ZM19.5 20.64C18.9713 20.6887 18.5813 21.1612 18.63 21.69C18.6788 22.2187 19.1513 22.6087 19.68 22.56H52.32C52.665 22.5637 52.9875 22.3837 53.1638 22.0837C53.3363 21.7837 53.3363 21.4162 53.1638 21.1162C52.9875 20.8162 52.665 20.6362 52.32 20.64H19.68C19.65 20.64 19.62 20.64 19.59 20.64C19.56 20.64 19.53 20.64 19.5 20.64ZM14.7 24.48C14.2425 24.5662 13.9125 24.9712 13.92 25.44V54.24C13.92 54.7687 14.3513 55.2 14.88 55.2H57.12C57.6488 55.2 58.08 54.7687 58.08 54.24V25.44C58.08 24.9112 57.6488 24.48 57.12 24.48H14.88C14.85 24.48 14.82 24.48 14.79 24.48C14.76 24.48 14.73 24.48 14.7 24.48ZM15.84 26.4H56.16V53.28H15.84V26.4ZM31.38 34.08V45.6L41.58 39.84L31.38 34.08Z" fill="#458FFF"/>
</svg>
