<svg width="72" height="72" viewBox="0 0 72 72" fill="none" xmlns="http://www.w3.org/2000/svg">
<g clip-path="url(#clip0_790_7005)">
<path d="M72 0H0V72H72V0Z" fill="#F3FFF4"/>
<path d="M23.5198 13.92C20.351 13.92 17.7598 16.5112 17.7598 19.68V52.7212C17.7598 55.77 20.4785 58.08 23.5198 58.08H54.2398V56.16H23.5198C21.446 56.16 19.6798 54.6037 19.6798 52.7212C19.6798 50.8387 21.4085 49.44 23.5198 49.44H54.2398V13.92H23.5198ZM23.5198 15.84H52.3198V47.52H23.5198C22.0873 47.52 20.7298 48.0375 19.6798 48.8812V19.68C19.6798 17.55 21.3898 15.84 23.5198 15.84Z" fill="#47AD4B"/>
</g>
<defs>
<clipPath id="clip0_790_7005">
<rect width="72" height="72" fill="white"/>
</clipPath>
</defs>
</svg>
