<svg width="72" height="72" viewBox="0 0 72 72" fill="none" xmlns="http://www.w3.org/2000/svg">
<g clip-path="url(#clip0_790_7008)">
<path d="M72 0H0V72H72V0Z" fill="#F3FFF4"/>
<path d="M37.5717 13.92C35.3809 13.92 33.7102 14.6811 32.8467 16.0387C32.0689 17.2615 32.0568 18.7992 32.4173 20.3775C32.2336 20.6988 32.1195 21.0753 32.1717 21.5475C32.2323 22.0942 32.3668 22.5292 32.6217 22.8825C32.7155 23.0126 32.8836 23.0197 33.0098 23.115C33.1395 23.6257 33.2752 24.1538 33.5292 24.4969C33.7075 24.7378 33.8891 24.9403 34.0579 25.1044C34.0652 25.1115 34.0733 25.1143 34.0804 25.1212V26.0737C34.0159 26.2187 33.9105 26.3533 33.576 26.5425C33.2068 26.7513 32.6547 26.9648 32.0554 27.2569C31.4561 27.5489 30.7951 27.9309 30.2554 28.5619C29.7157 29.1928 29.3418 30.0722 29.2823 31.1475C29.2752 31.2777 29.2947 31.4081 29.3396 31.5305C29.3845 31.653 29.4539 31.765 29.5436 31.8598C29.6333 31.9545 29.7413 32.03 29.8611 32.0816C29.9809 32.1333 30.11 32.1599 30.2404 32.16H43.6804C43.8109 32.1599 43.9399 32.1333 44.0597 32.0816C44.1795 32.03 44.2876 31.9545 44.3772 31.8598C44.4669 31.765 44.5363 31.653 44.5812 31.5305C44.6262 31.4081 44.6457 31.2777 44.6385 31.1475C44.5791 30.0722 44.2051 29.1929 43.6654 28.5619C43.1257 27.9308 42.4647 27.549 41.8654 27.2569C41.2661 26.9647 40.7141 26.7495 40.3448 26.5406C40.0103 26.3515 39.9049 26.2184 39.8404 26.0737V25.11C39.8497 25.1006 39.8607 25.0953 39.8704 25.0856C40.0365 24.9185 40.2158 24.7146 40.3898 24.4744C40.6355 24.135 40.7654 23.6241 40.8942 23.13C41.0207 23.0347 41.1883 23.0279 41.2823 22.8975C41.5375 22.5437 41.6741 22.1094 41.7342 21.5625C41.7746 21.1967 41.7408 20.8545 41.6142 20.5369C41.5972 20.4942 41.5223 20.4712 41.5017 20.4281C41.7696 19.329 41.8569 18.1569 41.4323 17.0812C41.027 16.0545 39.9791 15.3502 38.6704 15.0956L38.4735 14.5519C38.4062 14.3667 38.2835 14.2068 38.1222 14.0938C37.9609 13.9807 37.7687 13.9201 37.5717 13.92ZM36.9379 15.9469L37.0185 16.1681C37.0859 16.3532 37.2085 16.5132 37.3699 16.6262C37.5312 16.7392 37.7234 16.7999 37.9204 16.8C39.0658 16.8 39.3976 17.1584 39.6454 17.7862C39.8933 18.4141 39.8663 19.4362 39.5817 20.3569C39.53 20.5251 39.5255 20.7044 39.5689 20.875C39.6122 21.0457 39.7016 21.2011 39.8273 21.3244C39.8277 21.3427 39.8285 21.3247 39.8254 21.3525C39.7957 21.6234 39.7541 21.6774 39.7429 21.7012C39.5765 21.7778 39.4354 21.9004 39.3364 22.0546C39.2374 22.2088 39.1846 22.388 39.1842 22.5712C39.1842 22.6879 39.0532 23.0486 38.8354 23.3494C38.7265 23.4997 38.6051 23.6372 38.5092 23.7337C38.4132 23.8302 38.2913 23.9031 38.4042 23.8387C38.2574 23.9226 38.1353 24.0438 38.0504 24.19C37.9654 24.3361 37.9206 24.5022 37.9204 24.6712V26.3362C37.9206 26.4422 37.9384 26.5473 37.9729 26.6475C38.236 27.4162 38.8385 27.8968 39.3979 28.2131C39.9573 28.5294 40.5274 28.74 41.0235 28.9819C41.5197 29.2237 41.9273 29.484 42.2067 29.8106C42.2899 29.9079 42.2939 30.1238 42.3604 30.24H31.5604C31.6269 30.1238 31.631 29.9079 31.7142 29.8106C31.9935 29.4841 32.4011 29.2256 32.8973 28.9837C33.3935 28.7419 33.9635 28.5295 34.5229 28.2131C35.0824 27.8967 35.6849 27.4164 35.9479 26.6475C35.9825 26.5473 36.0002 26.4422 36.0004 26.3362V24.6712C36.0002 24.5015 35.9549 24.3348 35.8693 24.1882C35.7837 24.0417 35.6607 23.9204 35.5129 23.8369C35.6094 23.8914 35.4929 23.8217 35.3967 23.7281C35.3004 23.6345 35.1808 23.5015 35.0723 23.355C34.8553 23.0619 34.7198 22.7145 34.7198 22.5562C34.7195 22.3732 34.667 22.1941 34.5683 22.04C34.4697 21.8858 34.329 21.7631 34.1629 21.6862C34.1515 21.662 34.1086 21.6086 34.0785 21.3375C34.0744 21.3002 34.0823 21.3123 34.0879 21.3C34.2077 21.1788 34.293 21.0279 34.3352 20.8628C34.3774 20.6977 34.3749 20.5244 34.3279 20.3606C33.9169 18.9265 34.0111 17.7862 34.4667 17.07C34.8518 16.4645 35.6612 16.0748 36.9379 15.9469ZM29.2392 20.6362C29.1206 20.6429 29.0042 20.6715 28.896 20.7206C22.9078 23.3359 18.7204 28.9876 18.7204 35.5556C18.7204 36.06 18.7454 36.5603 18.7935 37.0537C18.8035 37.1811 18.8387 37.3051 18.8971 37.4187C18.9556 37.5322 19.0361 37.633 19.134 37.715C19.2318 37.797 19.3451 37.8587 19.4671 37.8965C19.5891 37.9342 19.7174 37.9472 19.8445 37.9347C19.9716 37.9222 20.0949 37.8845 20.2073 37.8238C20.3196 37.7631 20.4187 37.6806 20.4988 37.5811C20.5788 37.4816 20.6382 37.3671 20.6735 37.2443C20.7088 37.1216 20.7192 36.9931 20.7042 36.8662C20.662 36.4343 20.6404 35.9977 20.6404 35.5556C20.6404 29.803 24.302 24.8215 29.6648 22.4794C29.873 22.3914 30.0435 22.2328 30.1463 22.0315C30.2491 21.8302 30.2776 21.5991 30.2267 21.3789C30.1759 21.1587 30.0489 20.9634 29.8683 20.8276C29.6876 20.6917 29.4649 20.624 29.2392 20.6362ZM44.4717 21.0187C44.256 21.0233 44.0482 21.1003 43.8817 21.2373C43.7152 21.3744 43.5997 21.5635 43.5537 21.7742C43.5078 21.985 43.5342 22.205 43.6286 22.3989C43.723 22.5928 43.88 22.7493 44.0742 22.8431C49.0119 25.3156 52.3204 30.0853 52.3204 35.5556C52.3204 35.9977 52.2988 36.4355 52.2567 36.8662C52.2416 36.9931 52.2521 37.1216 52.2873 37.2443C52.3226 37.3671 52.382 37.4816 52.462 37.5811C52.5421 37.6806 52.6412 37.7631 52.7535 37.8238C52.8659 37.8846 52.9892 37.9223 53.1163 37.9347C53.2434 37.9472 53.3717 37.9342 53.4937 37.8965C53.6157 37.8587 53.729 37.797 53.8269 37.715C53.9247 37.633 54.0053 37.5322 54.0637 37.4187C54.1222 37.3051 54.1574 37.1811 54.1673 37.0537C54.2154 36.5609 54.2404 36.06 54.2404 35.5556C54.2404 29.31 50.4534 23.889 44.9348 21.1256C44.7918 21.0517 44.6326 21.015 44.4717 21.0187ZM23.1717 38.88C20.9809 38.88 19.3102 39.6411 18.4467 40.9987C17.6689 42.2215 17.6568 43.7592 18.0173 45.3375C17.8336 45.6588 17.7195 46.0353 17.7717 46.5075C17.8323 47.0542 17.9668 47.4892 18.2217 47.8425C18.3155 47.9726 18.4836 47.9797 18.6098 48.075C18.7395 48.5857 18.8752 49.1138 19.1292 49.4569C19.3075 49.6978 19.4891 49.9003 19.6579 50.0644C19.6652 50.0715 19.6733 50.0743 19.6804 50.0812V51.0337C19.6159 51.1787 19.5105 51.3133 19.176 51.5025C18.8068 51.7113 18.2547 51.9248 17.6554 52.2169C17.0561 52.5089 16.3951 52.8909 15.8554 53.5219C15.3157 54.1528 14.9418 55.0322 14.8823 56.1075C14.8752 56.2377 14.8947 56.3681 14.9396 56.4905C14.9845 56.613 15.0539 56.725 15.1436 56.8198C15.2333 56.9145 15.3413 56.99 15.4611 57.0416C15.5809 57.0933 15.71 57.1199 15.8404 57.12H29.2804C29.4109 57.1199 29.5399 57.0933 29.6597 57.0416C29.7795 56.99 29.8876 56.9145 29.9772 56.8198C30.0669 56.725 30.1363 56.613 30.1812 56.4905C30.2262 56.3681 30.2457 56.2377 30.2385 56.1075C30.1791 55.0322 29.8051 54.1529 29.2654 53.5219C28.7257 52.8908 28.0647 52.509 27.4654 52.2169C26.8661 51.9247 26.3141 51.7095 25.9448 51.5006C25.6103 51.3115 25.5049 51.1784 25.4404 51.0337V50.07C25.4497 50.0606 25.4607 50.0553 25.4704 50.0456C25.6365 49.8785 25.8158 49.6746 25.9898 49.4344C26.2355 49.095 26.3654 48.5841 26.4942 48.09C26.6207 47.9947 26.7883 47.9879 26.8823 47.8575C27.1375 47.5037 27.2741 47.0694 27.3342 46.5225C27.3746 46.1567 27.3408 45.8145 27.2142 45.4969C27.1972 45.4542 27.1223 45.4312 27.1017 45.3881C27.3696 44.289 27.4569 43.1169 27.0323 42.0412C26.627 41.0145 25.5791 40.3102 24.2704 40.0556L24.0735 39.5119C24.0062 39.3267 23.8835 39.1668 23.7222 39.0538C23.5609 38.9407 23.3687 38.8801 23.1717 38.88ZM51.0117 38.88C48.8209 38.88 47.1502 39.6411 46.2867 40.9987C45.5089 42.2215 45.4968 43.7592 45.8573 45.3375C45.6736 45.6588 45.5595 46.0353 45.6117 46.5075C45.6723 47.0542 45.8068 47.4892 46.0617 47.8425C46.1555 47.9726 46.3236 47.9797 46.4498 48.075C46.5795 48.5857 46.7152 49.1138 46.9692 49.4569C47.1475 49.6978 47.3291 49.9003 47.4979 50.0644C47.5052 50.0715 47.5133 50.0743 47.5204 50.0812V51.0337C47.4559 51.1787 47.3505 51.3133 47.016 51.5025C46.6468 51.7113 46.0947 51.9248 45.4954 52.2169C44.8961 52.5089 44.2351 52.8909 43.6954 53.5219C43.1557 54.1528 42.7818 55.0322 42.7223 56.1075C42.7152 56.2377 42.7347 56.3681 42.7796 56.4905C42.8245 56.613 42.8939 56.725 42.9836 56.8198C43.0733 56.9145 43.1813 56.99 43.3011 57.0416C43.4209 57.0933 43.55 57.1199 43.6804 57.12H57.1204C57.2509 57.1199 57.3799 57.0933 57.4997 57.0416C57.6195 56.99 57.7276 56.9145 57.8172 56.8198C57.9069 56.725 57.9763 56.613 58.0212 56.4905C58.0662 56.3681 58.0857 56.2377 58.0785 56.1075C58.0191 55.0322 57.6451 54.1529 57.1054 53.5219C56.5657 52.8908 55.9047 52.509 55.3054 52.2169C54.7061 51.9247 54.1541 51.7095 53.7848 51.5006C53.4503 51.3115 53.3449 51.1784 53.2804 51.0337V50.07C53.2897 50.0606 53.3007 50.0553 53.3104 50.0456C53.4765 49.8785 53.6558 49.6746 53.8298 49.4344C54.0755 49.095 54.2054 48.5841 54.3342 48.09C54.4607 47.9947 54.6283 47.9879 54.7223 47.8575C54.9775 47.5037 55.1141 47.0694 55.1742 46.5225C55.2146 46.1567 55.1808 45.8145 55.0542 45.4969C55.0372 45.4542 54.9623 45.4312 54.9417 45.3881C55.2096 44.289 55.2969 43.1169 54.8723 42.0412C54.467 41.0145 53.4191 40.3102 52.1104 40.0556L51.9135 39.5119C51.8462 39.3267 51.7235 39.1668 51.5622 39.0538C51.4009 38.9407 51.2087 38.8801 51.0117 38.88ZM22.5379 40.9069L22.6185 41.1281C22.6859 41.3132 22.8085 41.4732 22.9699 41.5862C23.1312 41.6992 23.3234 41.7599 23.5204 41.76C24.6658 41.76 24.9976 42.1184 25.2454 42.7462C25.4933 43.3741 25.4663 44.3962 25.1817 45.3169C25.13 45.4851 25.1255 45.6644 25.1689 45.835C25.2122 46.0057 25.3016 46.1611 25.4273 46.2844C25.4277 46.3027 25.4285 46.2847 25.4254 46.3125C25.3957 46.5834 25.3541 46.6374 25.3429 46.6612C25.1765 46.7378 25.0354 46.8604 24.9364 47.0146C24.8374 47.1688 24.7846 47.348 24.7842 47.5312C24.7842 47.6479 24.6532 48.0086 24.4354 48.3094C24.3265 48.4597 24.2051 48.5972 24.1092 48.6937C24.0132 48.7902 23.8913 48.8631 24.0042 48.7987C23.8574 48.8826 23.7353 49.0038 23.6504 49.15C23.5654 49.2961 23.5206 49.4622 23.5204 49.6312V51.2962C23.5206 51.4022 23.5384 51.5073 23.5729 51.6075C23.836 52.3762 24.4385 52.8568 24.9979 53.1731C25.5573 53.4894 26.1273 53.7 26.6235 53.9419C27.1197 54.1837 27.5273 54.444 27.8067 54.7706C27.8899 54.8679 27.8939 55.0838 27.9604 55.2H17.1604C17.2269 55.0838 17.231 54.8679 17.3142 54.7706C17.5935 54.4441 18.0011 54.1856 18.4973 53.9437C18.9935 53.7019 19.5635 53.4895 20.1229 53.1731C20.6824 52.8567 21.2849 52.3764 21.5479 51.6075C21.5825 51.5073 21.6002 51.4022 21.6004 51.2962V49.6312C21.6002 49.4615 21.5549 49.2948 21.4693 49.1482C21.3837 49.0017 21.2607 48.8804 21.1129 48.7969C21.2094 48.8514 21.0929 48.7817 20.9967 48.6881C20.9004 48.5945 20.7808 48.4615 20.6723 48.315C20.4553 48.0219 20.3198 47.6745 20.3198 47.5162C20.3195 47.3332 20.267 47.1541 20.1683 47C20.0697 46.8458 19.929 46.7231 19.7629 46.6462C19.7515 46.622 19.7086 46.5686 19.6785 46.2975C19.6744 46.2602 19.6823 46.2723 19.6879 46.26C19.8077 46.1388 19.893 45.9879 19.9352 45.8228C19.9774 45.6577 19.9749 45.4844 19.9279 45.3206C19.5169 43.8865 19.6111 42.7462 20.0667 42.03C20.4518 41.4245 21.2612 41.0348 22.5379 40.9069ZM50.3779 40.9069L50.4585 41.1281C50.5259 41.3132 50.6485 41.4732 50.8099 41.5862C50.9712 41.6992 51.1634 41.7599 51.3604 41.76C52.5058 41.76 52.8376 42.1184 53.0854 42.7462C53.3333 43.3741 53.3063 44.3962 53.0217 45.3169C52.97 45.4851 52.9655 45.6644 53.0089 45.835C53.0522 46.0057 53.1416 46.1611 53.2673 46.2844C53.2677 46.3027 53.2685 46.2847 53.2654 46.3125C53.2357 46.5834 53.1941 46.6374 53.1829 46.6612C53.0165 46.7378 52.8754 46.8604 52.7764 47.0146C52.6774 47.1688 52.6246 47.348 52.6242 47.5312C52.6242 47.6479 52.4932 48.0086 52.2754 48.3094C52.1665 48.4597 52.0451 48.5972 51.9492 48.6937C51.8532 48.7902 51.7313 48.8631 51.8442 48.7987C51.6974 48.8826 51.5753 49.0038 51.4904 49.15C51.4054 49.2961 51.3606 49.4622 51.3604 49.6312V51.2962C51.3606 51.4022 51.3784 51.5073 51.4129 51.6075C51.676 52.3762 52.2785 52.8568 52.8379 53.1731C53.3973 53.4894 53.9673 53.7 54.4635 53.9419C54.9597 54.1837 55.3673 54.444 55.6467 54.7706C55.7299 54.8679 55.7339 55.0838 55.8004 55.2H45.0004C45.0669 55.0838 45.071 54.8679 45.1542 54.7706C45.4335 54.4441 45.8411 54.1856 46.3373 53.9437C46.8335 53.7019 47.4034 53.4895 47.9629 53.1731C48.5224 52.8567 49.1249 52.3764 49.3879 51.6075C49.4225 51.5073 49.4402 51.4022 49.4404 51.2962V49.6312C49.4402 49.4615 49.3949 49.2948 49.3093 49.1482C49.2237 49.0017 49.1007 48.8804 48.9529 48.7969C49.0494 48.8514 48.9329 48.7817 48.8367 48.6881C48.7404 48.5945 48.6208 48.4615 48.5123 48.315C48.2953 48.0219 48.1598 47.6745 48.1598 47.5162C48.1595 47.3332 48.107 47.1541 48.0083 47C47.9097 46.8458 47.769 46.7231 47.6029 46.6462C47.5915 46.622 47.5486 46.5686 47.5185 46.2975C47.5144 46.2602 47.5223 46.2723 47.5279 46.26C47.6477 46.1388 47.733 45.9879 47.7752 45.8228C47.8174 45.6577 47.8149 45.4844 47.7679 45.3206C47.3569 43.8865 47.4511 42.7462 47.9067 42.03C48.2918 41.4245 49.1012 41.0348 50.3779 40.9069ZM43.6785 48.8606C43.543 48.8658 43.4101 48.8997 43.2885 48.96C41.2282 49.8827 38.9211 50.4 36.4804 50.4C34.0397 50.4 31.7326 49.8827 29.6723 48.96C29.5558 48.9054 29.4296 48.8748 29.301 48.87C29.0774 48.8624 28.8582 48.9332 28.6812 49.07C28.5042 49.2069 28.3806 49.4013 28.3316 49.6196C28.2827 49.838 28.3116 50.0665 28.4133 50.2658C28.515 50.4651 28.6831 50.6227 28.8885 50.7112C31.1924 51.7431 33.7679 52.32 36.4804 52.32C39.193 52.32 41.7684 51.7431 44.0723 50.7112C44.2823 50.6271 44.4558 50.4715 44.5623 50.2719C44.6688 50.0723 44.7014 49.8415 44.6543 49.6202C44.6072 49.3989 44.4835 49.2014 44.305 49.0624C44.1265 48.9234 43.9046 48.852 43.6785 48.8606Z" fill="#47AD4B"/>
</g>
<defs>
<clipPath id="clip0_790_7008">
<rect width="72" height="72" fill="white"/>
</clipPath>
</defs>
</svg>
