<svg width="401" height="102" viewBox="0 0 401 102" fill="none" xmlns="http://www.w3.org/2000/svg">
<g clip-path="url(#clip0_26_12)">
<path fill-rule="evenodd" clip-rule="evenodd" d="M397.483 29.4034H396.957V30.2046H397.466C397.6 30.2046 397.717 30.1962 397.809 30.1712C397.901 30.1461 397.976 30.1044 398.026 30.046C398.076 29.9876 398.101 29.9041 398.101 29.804C398.101 29.7205 398.076 29.6538 398.043 29.587C398.001 29.5286 397.942 29.4785 397.876 29.4451C397.809 29.4201 397.675 29.4034 397.483 29.4034ZM397.157 30.6218H396.957V31.5565C396.957 31.6816 396.932 31.7734 396.882 31.8319C396.823 31.8903 396.756 31.9153 396.673 31.9153C396.581 31.9153 396.514 31.8819 396.464 31.8235C396.414 31.7651 396.389 31.6733 396.389 31.5565V29.32C396.389 29.1948 396.414 29.103 396.472 29.0446C396.531 28.9862 396.614 28.9611 396.74 28.9611H397.667C397.792 28.9611 397.901 28.9611 397.993 28.9778C398.084 28.9862 398.168 29.0112 398.235 29.0446C398.327 29.0863 398.402 29.1364 398.469 29.2115C398.536 29.2782 398.586 29.3617 398.619 29.4618C398.652 29.5536 398.669 29.6538 398.669 29.7623C398.669 29.9792 398.611 30.1545 398.494 30.2797C398.368 30.4132 398.193 30.505 397.951 30.555C398.051 30.6135 398.151 30.6886 398.243 30.8054C398.335 30.9139 398.419 31.0307 398.485 31.1559C398.552 31.2811 398.611 31.3896 398.652 31.4897C398.694 31.5898 398.711 31.6566 398.711 31.69C398.711 31.7234 398.703 31.7651 398.678 31.8068C398.652 31.8485 398.619 31.8736 398.577 31.8986C398.536 31.9237 398.494 31.932 398.435 31.932C398.368 31.932 398.318 31.9153 398.277 31.8903C398.235 31.8569 398.193 31.8235 398.168 31.7734C398.135 31.7234 398.093 31.6566 398.034 31.5648L397.809 31.1726C397.725 31.0307 397.658 30.9222 397.592 30.8471C397.525 30.772 397.458 30.722 397.399 30.6969C397.333 30.6719 397.249 30.6552 397.149 30.6552" fill="#0B0B0B"/>
<path d="M397.559 33.8848C395.663 33.8848 394.117 32.3409 394.117 30.4466C394.117 28.5522 395.663 27.0084 397.559 27.0084C399.455 27.0084 401 28.5522 401 30.4466C401 32.3409 399.455 33.8848 397.559 33.8848ZM397.559 28.135C396.281 28.135 395.245 29.1698 395.245 30.4466C395.245 31.7234 396.281 32.7582 397.559 32.7582C398.837 32.7582 399.873 31.7234 399.873 30.4466C399.873 29.1698 398.837 28.135 397.559 28.135" fill="#0B0B0B"/>
<path d="M162.342 37.6401C160.136 37.0977 157.755 36.8056 155.274 36.8056C150.956 36.8056 146.954 37.6985 143.646 39.2257C138.275 41.7042 134.75 45.8518 134.75 50.5501C134.75 51.4848 134.892 52.4027 135.159 53.279C135.176 53.3207 135.184 53.3624 135.201 53.4041C135.226 53.4793 135.251 53.5544 135.276 53.6295C137.206 59.2708 144.315 63.5853 153.078 64.2111C153.153 64.5199 153.245 64.8287 153.311 65.1458C153.537 66.2307 153.612 67.3155 153.378 68.4004C153.119 69.5938 152.626 70.6286 151.85 71.5465C151.156 72.3644 150.254 73.057 149.435 73.7413C149.352 73.8164 149.277 73.8915 149.193 73.9666C149.435 74.0167 149.653 74.0084 149.861 73.975C152.535 73.5744 154.932 72.6481 157.012 70.8873C159.125 69.1014 160.328 66.7648 160.404 63.9608C160.404 63.9274 160.404 63.8857 160.404 63.8523C164.296 63.1847 167.746 61.766 170.386 59.8383C173.744 57.3931 175.799 54.1302 175.799 50.5418C175.799 44.6167 170.194 39.5679 162.342 37.6401" fill="#0B0B0B"/>
<path d="M186.524 40.8113V60.1554C186.524 61.4906 186.198 62.5087 185.555 63.193C184.904 63.8773 184.085 64.2278 183.091 64.2278C182.097 64.2278 181.287 63.8773 180.668 63.168C180.05 62.467 179.741 61.4656 179.741 60.1554V41.0032C179.741 39.6763 180.05 38.6833 180.668 38.0156C181.287 37.348 182.097 37.0142 183.091 37.0142C184.085 37.0142 184.904 37.348 185.555 38.0156C186.198 38.6833 186.524 39.6179 186.524 40.8113Z" fill="#0B0B0B"/>
<path d="M186.608 30.5133C186.608 32.4077 185.046 33.9348 183.133 33.9348C181.22 33.9348 179.658 32.3993 179.658 30.5133C179.658 28.6273 181.212 27.0918 183.133 27.0918C185.055 27.0918 186.608 28.6273 186.608 30.5133Z" fill="#0B0B0B"/>
<path d="M255.032 40.8113V60.1554C255.032 61.499 254.714 62.5087 254.071 63.193C253.436 63.8773 252.617 64.2278 251.64 64.2278C250.663 64.2278 249.861 63.8773 249.251 63.168C248.633 62.467 248.332 61.4656 248.332 60.1554V41.0032C248.332 39.6763 248.641 38.6833 249.251 38.0156C249.861 37.348 250.663 37.0142 251.64 37.0142C252.617 37.0142 253.428 37.348 254.071 38.0156C254.714 38.6833 255.032 39.6179 255.032 40.8113Z" fill="#0B0B0B"/>
<path d="M255.115 30.4716C255.115 32.366 253.578 33.9015 251.682 33.9015C249.786 33.9015 248.257 32.366 248.257 30.4716C248.257 28.5773 249.786 27.0417 251.682 27.0417C253.578 27.0417 255.115 28.5773 255.115 30.4633" fill="#0B0B0B"/>
<path d="M294.2 40.8113V60.1554C294.2 61.4906 293.875 62.5087 293.215 63.193C292.555 63.8773 291.711 64.2278 290.7 64.2278C289.69 64.2278 288.863 63.8773 288.228 63.168C287.593 62.467 287.275 61.4656 287.275 60.1554V41.0032C287.275 39.6763 287.593 38.6833 288.228 38.0156C288.863 37.348 289.69 37.0142 290.7 37.0142C291.711 37.0142 292.555 37.348 293.215 38.0156C293.875 38.6833 294.2 39.6179 294.2 40.8113Z" fill="#0B0B0B"/>
<path d="M294.284 30.5634C294.284 32.4577 292.697 33.9932 290.734 33.9932C288.771 33.9932 287.192 32.4577 287.192 30.5634C287.192 28.669 288.78 27.1418 290.734 27.1418C292.689 27.1418 294.284 28.6774 294.284 30.5634" fill="#0B0B0B"/>
<path d="M214.066 44.0241C213.941 43.0811 213.649 42.1965 213.206 41.3787C212.521 39.9767 211.477 38.8835 210.09 38.1158C208.695 37.348 207.125 36.9641 205.354 36.9641C203.583 36.9641 201.929 37.323 200.534 38.0573C199.348 38.6665 198.253 39.5845 197.226 40.7946C197.226 39.6095 196.9 38.6916 196.257 38.024C196.081 37.8404 195.898 37.6902 195.689 37.5566C195.137 37.1477 194.478 36.9391 193.709 36.9391C193.45 36.9391 193.199 36.9641 192.966 37.0142C192.247 37.1143 191.654 37.4064 191.211 37.9155C190.652 38.5414 190.376 39.4927 190.376 40.7695V60.1053C190.376 61.4155 190.685 62.4169 191.312 63.1179C191.47 63.2931 191.637 63.4517 191.821 63.5852C192.364 64.0025 193.024 64.2194 193.784 64.2194C194.778 64.2194 195.605 63.8773 196.248 63.1846C196.892 62.5003 197.217 61.4822 197.217 60.147V48.0882C197.301 47.2454 197.41 46.5861 197.568 46.1271C198.028 44.8837 198.746 43.9073 199.724 43.198C200.709 42.4886 201.795 42.1298 202.99 42.1298C204.819 42.1298 206.047 42.7139 206.657 43.8823C207.267 45.0506 207.484 46.7947 207.484 49.0062V60.1554C207.484 61.4655 207.793 62.467 208.411 63.168C209.029 63.869 209.931 64.161 210.934 64.161C211.936 64.161 212.713 63.8189 213.323 63.1346C213.933 62.4503 214.242 61.4322 214.242 60.0969V47.6459C214.242 46.1772 214.175 44.9671 214.041 44.0158" fill="#0B0B0B"/>
<path d="M243.612 28.3853C243.111 27.8345 242.476 27.4089 241.716 27.3087C241.482 27.267 241.098 27.2336 240.839 27.2336C239.828 27.2336 239.043 27.6926 238.5 28.3936C237.957 29.0946 237.681 30.1294 237.681 31.5064L237.656 41.0783C236.403 39.7013 235.259 38.6916 233.939 38.0323C232.619 37.373 231.007 37.0392 229.085 37.0392C225.761 37.0392 223.088 38.2075 221.058 40.5442C219.02 42.8808 218.009 46.1438 218.009 50.3247C218.009 52.3025 218.268 54.1385 218.777 55.8409C219.287 57.5433 220.039 59.0204 221.033 60.2722C222.027 61.5323 223.205 62.5003 224.558 63.1763C225.92 63.8522 227.398 64.1944 228.985 64.1944C230.188 64.1944 231.299 64.0275 232.318 63.6937C233.337 63.3599 234.281 62.8675 235.15 62.2249C236.019 61.5824 236.762 60.7395 237.656 59.7047V60.3723C237.656 61.5991 237.949 62.5421 238.55 63.2013C239.026 63.7354 239.619 64.0442 240.304 64.1443C240.53 64.1861 240.906 64.2194 241.148 64.2194C242.142 64.2194 242.952 63.8773 243.579 63.2013C244.205 62.5254 244.514 61.5073 244.514 60.147L244.539 31.4313C244.539 30.071 244.23 29.0529 243.612 28.3769M236.57 55.2818C235.994 56.5502 235.217 57.4849 234.248 58.1024C233.279 58.72 232.21 59.0204 231.04 59.0204C229.871 59.0204 228.818 58.6949 227.841 58.0524C226.863 57.4098 226.095 56.4501 225.535 55.1733C224.976 53.8965 224.692 52.3526 224.692 50.5417C224.692 48.8226 224.959 47.3205 225.485 46.0186C226.011 44.7168 226.755 43.7237 227.724 43.031C228.685 42.3384 229.77 41.9879 230.99 41.9879C232.21 41.9879 233.237 42.3301 234.223 43.006C235.209 43.682 235.994 44.6667 236.57 45.9435C237.147 47.2287 237.431 48.7558 237.431 50.5417C237.431 52.4361 237.147 54.0216 236.57 55.2818" fill="#0B0B0B"/>
<path d="M323.521 28.3853C323.02 27.8345 322.385 27.4089 321.625 27.3087C321.391 27.267 321.007 27.2336 320.748 27.2336C319.737 27.2336 318.952 27.6926 318.401 28.3936C317.858 29.0946 317.582 30.1294 317.582 31.5064L317.557 41.0783C316.304 39.7013 315.151 38.6916 313.831 38.0323C312.511 37.373 310.891 37.0392 308.961 37.0392C305.636 37.0392 302.947 38.2075 300.917 40.5442C298.879 42.8808 297.859 46.1438 297.859 50.3247C297.859 52.3025 298.118 54.1385 298.628 55.8409C299.137 57.5433 299.898 59.0204 300.892 60.2722C301.886 61.5323 303.064 62.5003 304.425 63.1763C305.787 63.8522 307.265 64.1944 308.861 64.1944C310.064 64.1944 311.183 64.0275 312.202 63.6937C313.221 63.3599 314.165 62.8675 315.042 62.2249C315.911 61.5824 316.655 60.7395 317.557 59.7047V60.3723C317.557 61.5991 317.849 62.5421 318.451 63.2013C318.935 63.7354 319.52 64.0442 320.213 64.1443C320.439 64.1861 320.815 64.2194 321.057 64.2194C322.051 64.2194 322.861 63.8773 323.488 63.2013C324.114 62.5254 324.432 61.5073 324.432 60.147L324.457 31.4313C324.457 30.0793 324.148 29.0612 323.53 28.3769M316.471 55.2818C315.895 56.5502 315.118 57.4849 314.14 58.1024C313.171 58.72 312.102 59.0204 310.924 59.0204C309.746 59.0204 308.702 58.6949 307.716 58.0524C306.739 57.4098 305.971 56.4501 305.403 55.1733C304.843 53.8965 304.559 52.3526 304.559 50.5417C304.559 48.8226 304.826 47.3205 305.352 46.0186C305.879 44.7168 306.631 43.7237 307.591 43.031C308.552 42.3384 309.646 41.9879 310.866 41.9879C312.085 41.9879 313.121 42.3301 314.107 43.006C315.093 43.682 315.878 44.6667 316.454 45.9435C317.031 47.2287 317.323 48.7642 317.323 50.5417C317.323 52.4361 317.031 54.0216 316.454 55.2818" fill="#0B0B0B"/>
<path d="M265.908 41.1784L271.329 56.375L277.168 40.5192C277.62 39.2424 278.071 38.3411 278.522 37.807C278.965 37.2729 279.633 37.0142 280.535 37.0142C281.387 37.0142 282.105 37.2979 282.707 37.8738C283.3 38.4496 283.601 39.1088 283.601 39.8599C283.601 40.152 283.542 40.4941 283.442 40.8864C283.333 41.2786 283.216 41.6458 283.074 41.9879C282.941 42.3301 282.774 42.7223 282.598 43.1646L276.166 59.0955C275.991 59.5545 275.757 60.1303 275.464 60.8397C275.18 61.5407 274.863 62.1415 274.504 62.6422C274.153 63.1429 273.719 63.5268 273.201 63.8105C272.691 64.0859 272.056 64.2278 271.321 64.2278C270.369 64.2278 269.617 64.0108 269.049 63.5769C268.481 63.1429 268.063 62.6673 267.796 62.1499C267.52 61.6325 267.069 60.6227 266.434 59.0955L260.052 43.3315C259.902 42.9393 259.751 42.5471 259.601 42.1548C259.442 41.7626 259.317 41.362 259.209 40.9531C259.108 40.5442 259.05 40.1937 259.05 39.9016C259.05 39.4426 259.192 38.992 259.467 38.5414C259.743 38.0907 260.136 37.7235 260.62 37.4398C261.113 37.1561 261.648 37.0059 262.216 37.0059C263.327 37.0059 264.087 37.323 264.505 37.9656C264.922 38.5998 265.382 39.6763 265.891 41.1784" fill="#0B0B0B"/>
<path d="M345.901 60.4391V59.5795C345.099 60.5893 344.255 61.4405 343.369 62.1248C342.484 62.8091 341.523 63.3182 340.479 63.6603C339.427 63.9941 338.24 64.161 336.896 64.161C335.275 64.161 333.821 63.8272 332.535 63.1513C331.257 62.4836 330.263 61.5573 329.553 60.3807C328.717 58.962 328.3 56.9174 328.3 54.2553V40.9948C328.3 39.6596 328.601 38.6582 329.21 37.9906C329.82 37.3313 330.622 36.9975 331.616 36.9975C332.61 36.9975 333.629 37.3647 334.256 38.0406C334.874 38.7083 335.183 39.7097 335.183 41.0282L334.999 51.7017C334.999 53.2539 335.133 54.5557 335.392 55.6156C335.651 56.6671 336.119 57.4932 336.795 58.0857C337.48 58.6866 338.399 58.9787 339.56 58.9787C340.721 58.9787 341.749 58.6449 342.751 57.9689C343.745 57.3013 344.48 56.4251 344.932 55.3485C345.307 54.4055 345.5 52.3276 345.5 49.123V40.9865C345.5 39.6596 345.809 38.6665 346.435 37.9989C347.053 37.3313 347.864 36.9975 348.866 36.9975C349.868 36.9975 350.796 37.3313 351.406 37.9989C352.007 38.6582 352.316 39.6596 352.316 41.0032V60.389C352.316 61.6658 352.024 62.6172 351.447 63.2598C350.863 63.894 349.977 64.2111 349.067 64.2111C348.156 64.2111 347.396 63.8773 346.794 63.218C346.193 62.5588 345.901 61.6324 345.901 60.4391" fill="#0B0B0B"/>
<path d="M374.469 60.4391C372.848 61.6992 371.278 62.6422 369.774 63.2681C368.262 63.894 366.567 64.2111 364.687 64.2111C362.975 64.2111 361.463 63.869 360.159 63.193C358.865 62.517 357.854 61.5907 357.152 60.4391C356.45 59.2791 356.1 58.019 356.1 56.6671C356.1 54.8395 356.676 53.2789 357.837 51.9854C358.998 50.6919 360.594 49.8324 362.624 49.3901C363.05 49.2899 364.102 49.073 365.79 48.7308C367.469 48.3887 368.914 48.0716 370.117 47.7878C371.32 47.5041 372.623 47.1536 374.026 46.7447C373.943 44.9755 373.583 43.682 372.957 42.8642C372.33 42.038 371.019 41.6291 369.039 41.6291C367.335 41.6291 366.057 41.8627 365.197 42.3384C364.336 42.8141 363.601 43.5234 362.991 44.4748C362.381 45.4261 361.947 46.0437 361.688 46.3524C361.437 46.6529 360.886 46.8031 360.059 46.8031C359.307 46.8031 358.656 46.5611 358.104 46.0771C357.553 45.593 357.286 44.9838 357.286 44.2244C357.286 43.0478 357.703 41.9045 358.539 40.7946C359.374 39.6847 360.669 38.7667 362.44 38.049C364.202 37.3313 366.408 36.9725 369.039 36.9725C371.988 36.9725 374.293 37.323 375.981 38.0156C377.668 38.7083 378.854 39.8098 379.556 41.312C380.249 42.8141 380.6 44.8086 380.6 47.2954C380.6 48.8643 380.6 50.1996 380.592 51.2928C380.584 52.386 380.567 53.6044 380.559 54.948C380.559 56.2081 380.767 57.5183 381.185 58.8785C381.603 60.2388 381.812 61.1234 381.812 61.5156C381.812 62.1999 381.486 62.8258 380.843 63.3849C380.191 63.9441 379.464 64.2278 378.646 64.2278C377.961 64.2278 377.284 63.9023 376.607 63.2598C375.939 62.6172 375.229 61.6825 374.477 60.4558M374.035 50.7754C373.049 51.1342 371.629 51.5181 369.758 51.9187C367.886 52.3192 366.583 52.6113 365.865 52.8033C365.146 52.9869 364.461 53.3624 363.802 53.9048C363.15 54.4473 362.824 55.215 362.824 56.1914C362.824 57.1678 363.208 58.0691 363.977 58.7784C364.745 59.4877 365.748 59.8466 366.993 59.8466C368.321 59.8466 369.54 59.5545 370.66 58.9787C371.779 58.3945 372.606 57.6518 373.124 56.7338C373.725 55.7241 374.035 54.055 374.035 51.7351V50.7754V50.7754Z" fill="#0B0B0B"/>
<path d="M385.362 60.147V31.1225C385.362 29.7873 385.671 28.7692 386.29 28.0849C386.908 27.4006 387.743 27.0584 388.796 27.0584C389.848 27.0584 390.692 27.4006 391.335 28.0765C391.978 28.7525 392.304 29.7706 392.304 31.1309V60.147C392.304 61.4989 391.978 62.517 391.327 63.2013C390.675 63.8773 389.831 64.2195 388.804 64.2195C387.776 64.2195 386.958 63.869 386.323 63.1596C385.688 62.4586 385.371 61.4572 385.371 60.147" fill="#0B0B0B"/>
<path d="M68.2227 60.147V31.1225C68.2227 29.7873 68.5234 28.7692 69.1248 28.0849C69.7263 27.4006 70.5366 27.0584 71.564 27.0584C72.5915 27.0584 73.4102 27.4006 74.0367 28.0765C74.6632 28.7525 74.9806 29.7706 74.9806 31.1309V60.147C74.9806 61.4989 74.6632 62.517 74.0283 63.2013C73.3935 63.8773 72.5748 64.2195 71.5724 64.2195C70.57 64.2195 69.7764 63.869 69.1582 63.1596C68.5401 62.4586 68.231 61.4572 68.231 60.147" fill="#0B0B0B"/>
<path d="M101.929 54.998C101.294 54.998 100.459 55.1649 100.116 55.4654C99.2809 56.2498 98.9384 56.8423 98.4205 57.3013C97.8942 57.7603 97.3262 58.1859 96.6997 58.5864C96.0815 58.987 95.1042 59.3041 94.4359 59.4961C93.776 59.6797 93.0408 59.7798 92.2389 59.7798C91.0444 59.7798 89.9501 59.4877 88.9644 58.8952C87.9703 58.3111 87.1851 57.4348 86.5836 56.2748C85.9905 55.1149 85.6814 53.7796 85.6647 52.2525H98.763C100.517 52.2525 101.87 52.0021 102.839 51.5014C103.808 51.0007 104.285 49.9158 104.285 48.2301C104.285 46.4192 103.817 44.6333 102.89 42.8892C101.954 41.1367 100.551 39.718 98.6794 38.6165C96.8083 37.5149 94.5612 36.9641 91.9465 36.9641C89.9334 36.9641 88.1039 37.2896 86.45 37.9322C84.796 38.5747 83.4093 39.501 82.2816 40.7111C81.1539 41.9211 80.2935 43.3732 79.7087 45.0589C79.1156 46.753 78.8232 48.5889 78.8232 50.5667C78.8232 54.7644 80.0178 58.0941 82.4069 60.5392C84.796 62.9927 88.1374 64.2194 92.4394 64.2194C94.3189 64.2194 96.3238 63.9524 97.7689 63.46C99.2141 62.9677 100.417 62.3501 101.378 61.6074C102.338 60.8647 103.048 60.0886 103.524 59.2791C104.001 58.4696 104.234 57.7603 104.234 57.1594C104.234 56.4751 104.017 55.941 103.6 55.5655C103.174 55.19 102.614 55.0064 101.929 55.0064M87.6194 43.3482C88.6887 42.1965 90.0587 41.6207 91.7294 41.6207C93.4836 41.6207 94.8953 42.1882 95.9646 43.3231C97.0338 44.4581 97.6436 46.0103 97.8107 48.2969H85.6647C85.8903 46.0437 86.5502 44.4998 87.6194 43.3482" fill="#0B0B0B"/>
<path d="M91.9716 27.0417H95.2796C96.1149 27.0417 96.5326 27.1669 96.5326 27.4089C96.5326 27.5425 96.0732 28.0682 95.1626 29.0029C94.2438 29.9375 93.3249 30.8221 92.3893 31.6733C91.4537 32.5245 90.8105 33.0336 90.4513 33.2172C89.5157 33.6928 88.5216 33.9265 87.4607 33.9265C86.759 33.9265 86.4082 33.7262 86.4082 33.3173C86.4082 33.0419 86.617 32.5579 87.0431 31.8736L88.1457 29.8123C88.7806 28.619 89.3403 27.8596 89.8164 27.5341C90.2926 27.2087 91.011 27.0417 91.98 27.0417" fill="#0B0B0B"/>
<path d="M130.974 55.4653C130.974 57.3096 130.523 58.8952 129.621 60.2138C128.719 61.5323 127.391 62.5254 125.637 63.2013C123.882 63.8773 121.735 64.2194 119.221 64.2194C116.707 64.2194 114.752 63.8522 113.04 63.1179C111.319 62.3835 110.057 61.4655 109.239 60.364C108.42 59.2624 108.011 58.1525 108.011 57.0426C108.011 56.3082 108.278 55.6823 108.796 55.1566C109.322 54.6392 109.982 54.3721 110.784 54.3721C111.486 54.3721 112.029 54.5474 112.405 54.8895C112.781 55.2317 113.14 55.7157 113.482 56.3332C114.167 57.5266 114.986 58.4112 115.947 59.0037C116.899 59.5962 118.21 59.8883 119.856 59.8883C121.201 59.8883 122.295 59.5879 123.156 58.9954C124.016 58.4028 124.442 57.7185 124.442 56.9508C124.442 55.7741 123.991 54.9146 123.105 54.3721C122.212 53.838 120.741 53.3206 118.703 52.8283C116.398 52.2608 114.393 51.685 112.948 51.0508C111.502 50.4249 110.341 49.5903 109.473 48.5639C108.604 47.5374 108.169 46.269 108.169 44.7668C108.169 43.4233 108.57 42.1631 109.372 40.9698C110.174 39.7764 111.352 38.8251 112.914 38.1157C114.476 37.4064 116.49 37.0225 118.695 37.0225C120.432 37.0225 121.986 37.2061 123.373 37.565C124.759 37.9238 125.904 38.4078 126.831 39.0087C127.758 39.6179 128.46 40.2855 128.945 41.0199C129.429 41.7542 129.671 42.4719 129.671 43.1729C129.671 43.9407 129.412 44.5666 128.903 45.0589C128.385 45.5513 127.658 45.7933 126.706 45.7933C126.021 45.7933 125.436 45.593 124.952 45.2008C124.467 44.8086 123.916 44.2244 123.289 43.44C122.78 42.789 122.187 42.2633 121.502 41.8711C120.817 41.4788 119.881 41.2786 118.703 41.2786C117.525 41.2786 116.49 41.5373 115.688 42.0547C114.886 42.5721 114.485 43.2146 114.485 43.9824C114.485 44.6834 114.777 45.2592 115.37 45.7098C115.955 46.1605 116.748 46.5277 117.751 46.8281C118.745 47.1202 120.123 47.4874 121.869 47.9046C123.949 48.4137 125.645 49.0145 126.965 49.7155C128.285 50.4165 129.279 51.2427 129.955 52.2024C130.632 53.1621 130.974 54.247 130.974 55.4737" fill="#0B0B0B"/>
<path d="M6.77468 40.8113V60.147C6.77468 61.4906 6.45725 62.5004 5.81403 63.1847C5.17917 63.869 4.36888 64.2195 3.38317 64.2195C2.39746 64.2195 1.60388 63.869 0.994077 63.1596C0.384274 62.4586 0.0751953 61.4572 0.0751953 60.147V41.0032C0.0751953 39.6763 0.384274 38.6833 0.994077 38.0156C1.60388 37.348 2.40581 37.0142 3.38317 37.0142C4.36053 37.0142 5.17081 37.348 5.81403 38.0156C6.44889 38.6833 6.77468 39.6179 6.77468 40.8113Z" fill="#0B0B0B"/>
<path d="M6.8582 30.5801C6.8582 32.4744 5.32116 34.01 3.43328 34.01C1.54539 34.01 0 32.4744 0 30.5801C0 28.6857 1.53704 27.1586 3.43328 27.1586C5.32951 27.1586 6.8582 28.6941 6.8582 30.5801Z" fill="#0B0B0B"/>
<path d="M34.2657 44.0659C34.1321 43.1229 33.8481 42.2383 33.4053 41.4205C32.712 40.0185 31.6678 38.9253 30.2728 38.1575C28.8777 37.3897 27.2906 37.0059 25.5113 37.0059C23.732 37.0059 22.078 37.3731 20.6663 38.0991C19.43 38.7333 18.2855 39.693 17.2246 40.9698V40.7779C17.2246 39.5845 16.9072 38.6499 16.264 37.9823C15.6208 37.3146 14.8105 36.9808 13.8248 36.9808C13.5658 36.9808 13.3152 37.0059 13.0813 37.0559C12.3629 37.1561 11.7698 37.4482 11.3187 37.9572C10.7591 38.5831 10.4834 39.5345 10.4834 40.8113V60.147C10.4834 61.4572 10.7925 62.4586 11.419 63.1596C12.0455 63.8606 12.8391 64.2195 13.8081 64.2195C14.7771 64.2195 15.6291 63.8773 16.2556 63.2014C16.5731 62.8592 16.8153 62.4253 16.974 61.9079C17.1411 61.3988 17.2246 60.798 17.2246 60.122V50.3832C17.2748 48.4054 17.4251 47.0034 17.7008 46.1856C18.1602 44.9421 18.887 43.9657 19.8727 43.2564C20.8584 42.5471 21.9527 42.1882 23.1473 42.1882C24.9934 42.1882 25.9958 42.7724 26.614 43.9407C27.2321 45.109 27.5412 46.7948 27.5412 49.0062V60.1554C27.5412 61.4656 27.8503 62.467 28.4768 63.168C29.1033 63.869 29.9136 64.2278 30.916 64.2278C31.9184 64.2278 32.9208 63.8857 33.539 63.193C34.1571 62.5087 34.4662 61.4906 34.4662 60.1554V47.7044C34.4662 46.2356 34.3994 45.0256 34.2657 44.0742" fill="#0B0B0B"/>
<path d="M64.414 41.6541V40.6277C64.414 39.4343 64.0966 38.4996 63.4534 37.8237C62.8185 37.1561 62.0082 36.8223 61.0225 36.8223C60.0368 36.8223 59.2432 37.1561 58.6334 37.8237C58.032 38.483 57.7229 39.4677 57.7145 40.7612C57.7145 40.7779 57.7145 40.7946 57.7145 40.8113C57.2468 40.2521 56.7706 39.7681 56.2778 39.3342C54.4066 37.7736 52.1344 36.8473 49.6785 36.8473C43.9731 36.8473 39.245 41.8043 38.3429 48.2969C38.2426 49.0313 38.1758 49.7907 38.1758 50.5584C38.1758 58.1358 43.3299 64.2695 49.6869 64.2695C52.8278 64.2695 55.6679 62.7674 57.748 60.3473C57.748 60.3974 57.748 60.4474 57.748 60.4975C57.7145 61.9245 57.6728 63.6687 57.631 64.4114C57.5642 65.4045 57.3386 65.6715 56.9544 66.5394C56.5701 67.4073 55.9018 68.0833 54.9412 68.5589C53.9889 69.043 52.6356 69.285 50.9065 69.285C50.0544 69.285 49.3026 69.2099 48.651 69.0513C47.9995 68.8928 47.4314 68.6591 46.972 68.342C46.5042 68.0165 46.0782 67.6326 45.6939 67.1903C45.3096 66.7397 44.9337 66.2974 44.5745 65.8551C43.8394 64.9872 42.979 64.5533 42.0017 64.5533C41.2164 64.5533 40.5482 64.812 39.9885 65.321C39.4288 65.8384 39.1531 66.506 39.1531 67.3239C39.1531 68.4087 39.646 69.4602 40.6233 70.4783C41.6007 71.5048 43.0041 72.3393 44.8168 72.9819C46.6295 73.6328 48.6928 73.9499 50.9984 73.9499C53.5211 73.9499 55.6262 73.6912 57.3136 73.1905C59.0093 72.6815 60.3793 71.9054 61.4235 70.8622C62.4677 69.8191 63.2278 68.4922 63.704 66.8899C64.1801 65.2876 64.414 63.3683 64.414 61.1484V41.6958C64.414 41.6958 64.4057 41.6708 64.4057 41.6541M51.1738 58.2777C49.0854 58.2777 47.2309 57.0927 46.0447 55.2567C45.2094 53.9549 44.7082 52.3443 44.7082 50.5835C44.7082 49.5069 44.892 48.4888 45.2261 47.5542C46.2118 44.8086 48.5007 42.8809 51.1738 42.8809C54.7407 42.8809 57.631 46.3274 57.631 50.5835C57.631 54.8395 54.7407 58.286 51.1738 58.286" fill="#0B0B0B"/>
</g>
<defs>
<clipPath id="clip0_26_12">
<rect width="401" height="47" fill="white" transform="translate(0 27)"/>
</clipPath>
</defs>
</svg>
