<?xml version="1.0" encoding="utf-8"?>
<!-- Generator: Adobe Illustrator 25.0.0, SVG Export Plug-In . SVG Version: 6.00 Build 0)  -->
<svg version="1.1" id="Layer_1" xmlns="http://www.w3.org/2000/svg" xmlns:xlink="http://www.w3.org/1999/xlink" x="0px" y="0px"
	 viewBox="0 0 708.7 708.7" style="enable-background:new 0 0 708.7 708.7;" xml:space="preserve">
<style type="text/css">
	.st0{fill:#ED1C24;}
	.st1{fill:#FFFFFF;}
	.st2{fill:#81C5ED;}
</style>
<g>
	<path d="M77.5,32.4l581.7,93.7c0,0,5.1,0.6,5.4,7.2c0.4,10.1,19.9,448.2,19.9,448.2c0.1,4.8-5.1,9.5-6.6,10.5c0,0,0.8,1.5,0.9,3.7
		c0.1,11-1.6,55.9-1.5,61.1c0.3,11.9-6.5,24.8-21.3,24.8c-10.6,0-599.9,0-604.3,0c-8.4,0-27.9-4.8-27.9-34.7
		c0.6-13.2,5.2-584.2,5.2-584.2s0-4.2,0-10.5c0-6.2,6.1-9.1,22.1-16.1c7.4-3.2,15.2-6,20.1-6.5C75.7,29.3,75,30.5,77.5,32.4z"/>
</g>
<g>
	<path class="st0" d="M81.8,530.4l593.6,14.8l1.7,35.3l-64.8,3.3c0,0-2.7,0.1-4,1.6c-1.3,1.5-1.1,3.7-1.1,3.7l-0.1,54.5l-525.3-3.8
		V530.4z"/>
</g>
<g>
	<polygon class="st1" points="616.3,639.3 616.2,593.2 666.5,590.3 	"/>
</g>
<g>
	<polygon class="st1" points="82.4,37.6 81.8,530.4 675.4,545.2 656.3,133.4 	"/>
</g>
<g>
	<path d="M477.5,144.7c-4.4,6.2-12.9,6.1-19.9,2.6c-8.1-4.1-11.3-13-8.3-19.1c3-6.1,12.1-7.8,20.2-3.7
		C477.7,128.6,481.5,139.2,477.5,144.7z"/>
</g>
<g>
	<path d="M279.5,96c4.7,7.4,4.1,15.6-2.4,19.7c-6.5,4.1-17.7,1.6-22.4-5.9c-4.7-7.4-3.7-16.3,2.8-20.4
		C263.9,85.4,274.8,88.6,279.5,96z"/>
</g>
<g>
	<path class="st0" d="M524,344.9c-1.2,7.6-8.7,12.8-18,11.3c-9.3-1.5-16.1-9.8-14.9-17.5c1.2-7.6,8.9-11.5,18.1-10
		C518.5,330.2,525.2,337.3,524,344.9z"/>
</g>
<g>
	<path class="st0" d="M526.8,401.9c-1.3,7.7-8.7,12.8-18,11.3c-9.3-1.5-16.1-9.8-14.9-17.5c1.3-7.7,8.9-11.6,18.1-10
		C521.3,387.2,528,394.3,526.8,401.9z"/>
</g>
<g>
	<path class="st0" d="M538.9,317.5c0,0,7.2-1.8,13,5.4c5.8,7.2,22.8,27.6,22.8,58c0,20.4-15,45-22.5,47.6c0,0-11.5,1.7-8.8-2.3
		c1.6-2.4,5.6-10.4,6.9-14.2c2.2-6.5,6.3-11.2,6.3-40.4c0-12.9-8.1-35.3-16.8-48.5C539.8,323.1,536,318.5,538.9,317.5z"/>
</g>
<g>
	<path d="M149.5,151.3l41.4,3.6c16.1,1.4,28.1,4.9,35.9,10.3c7.8,5.5,11.7,13.3,11.7,23.4c0,6.7-1.7,12.2-5.1,16.6
		c-3.4,4.4-7.9,7-13.5,7.9v0.8c7.4,2.6,12.7,6.3,16,11.1c3.3,4.8,4.9,10.9,4.9,18.1c0,10.8-4,18.9-12.1,24.4
		c-8.1,5.5-19.1,7.6-33.1,6.4l-46.2-4V151.3z M181.5,199.6l9.7,0.8c4.6,0.4,8.2-0.2,10.7-1.9c2.5-1.7,3.8-4.4,3.8-8.1
		c0-6.7-5-10.4-15.1-11.3l-9-0.8V199.6z M181.5,223v24.9l11.3,1c10,0.9,15-2.9,15-11.3c0-3.9-1.3-7.1-4-9.4s-6.6-3.7-11.6-4.2
		L181.5,223z"/>
	<path d="M362.3,169.9v71.4c0,15.5-4.4,27.2-13.2,34.9s-21.5,10.9-38,9.5c-16.2-1.4-28.6-6.6-37.3-15.7c-8.7-9-13-21.3-13-36.8V161
		l32.2,2.8v69.6c0,8.4,1.6,14.6,4.7,18.7c3.1,4.1,7.8,6.4,13.9,6.9c6.5,0.6,11.3-0.9,14.2-4.4c2.9-3.5,4.4-9.5,4.4-18.1v-69.4
		L362.3,169.9z"/>
	<path d="M457.6,296.8l-70.4-6.2V172.1l70.4,6.2V204l-38.4-3.4v18.7l35.5,3.1v25.7l-35.5-3.1v22.4l38.4,3.4V296.8z"/>
	<path d="M591.3,308.5l-42-3.7L506,217.5l-0.7-0.1c1,13.2,1.5,23.3,1.5,30.2v53.5l-28.4-2.5V180.1l41.9,3.7l43.2,86.2l0.5,0
		c-0.8-12-1.1-21.7-1.1-28.9v-53.6l28.6,2.5V308.5z"/>
</g>
<g>
	<path d="M201.2,419l-24.3-86.7l-0.7,0c1.1,14.6,1.7,25.9,1.7,34v51.5l-28.4-1.5V297.7l42.7,2.2l24.7,85.5l0.6,0l24.3-82.9l42.8,2.2
		v118.6l-29.4-1.5v-52c0-2.7,0-5.7,0.1-9c0.1-3.3,0.4-11.4,1.1-24.2l-0.7,0l-23.9,84L201.2,419z"/>
	<path d="M380.5,428.4l-70.4-3.7V306.1l70.4,3.7v25.7l-38.4-2v18.7l35.5,1.9v25.7l-35.5-1.9v22.4l38.4,2V428.4z"/>
	<path d="M478.9,397.6c0,7.4-1.9,13.8-5.6,19.3c-3.7,5.5-9.1,9.7-16.1,12.5c-7,2.8-15.3,3.9-24.7,3.4c-7.9-0.4-14.5-1.3-19.9-2.7
		c-5.4-1.4-10.9-3.6-16.7-6.7v-28.6c6.1,3.5,12.5,6.2,19.1,8.3c6.6,2.1,12.7,3.3,18.2,3.6c4.8,0.2,8.2-0.4,10.5-1.9
		c2.2-1.5,3.3-3.6,3.3-6.2c0-1.6-0.4-3.1-1.3-4.3c-0.9-1.3-2.3-2.6-4.3-3.9c-2-1.3-7.2-4.2-15.8-8.5c-7.7-3.9-13.5-7.6-17.4-11.1
		c-3.9-3.5-6.7-7.4-8.6-11.8c-1.9-4.4-2.8-9.5-2.8-15.3c0-10.9,4-19.2,11.9-24.9c8-5.7,18.9-8.2,32.8-7.4
		c12.3,0.6,24.8,4.1,37.6,10.5l-9.8,24.2c-11.1-5.7-20.7-8.7-28.7-9.1c-4.2-0.2-7.2,0.4-9.1,1.7c-1.9,1.4-2.8,3.1-2.8,5.3
		c0,2.3,1.2,4.5,3.6,6.4c2.4,2,8.9,5.7,19.6,11.1c10.2,5.1,17.3,10.4,21.3,15.9C476.9,382.8,478.9,389.6,478.9,397.6z"/>
</g>
<g>
	<path class="st2" d="M576.2,403.5l-7.4,7.4c-2.8,2.8-7.4,2.8-10.3,0l-32.6-32.6c-2.8-2.8-2.8-7.4,0-10.3l32.6-32.6
		c2.8-2.8,7.4-2.8,10.3,0l7.4,7.4C593,359.5,593,386.7,576.2,403.5z"/>
	<path d="M563.7,415.5c-2.5,0-5-1-6.9-2.9L524.1,380c-1.8-1.8-2.9-4.3-2.9-6.9s1-5.1,2.9-6.9l32.6-32.6c3.8-3.8,10-3.8,13.8,0
		l7.4,7.4c17.7,17.7,17.7,46.6,0,64.3l-7.4,7.4C568.7,414.5,566.2,415.5,563.7,415.5z M563.7,335.7c-1.2,0-2.4,0.5-3.4,1.4
		l-32.6,32.6c-1.9,1.9-1.9,4.9,0,6.7l32.6,32.6c1.9,1.9,4.9,1.9,6.7,0l7.4-7.4c15.8-15.8,15.8-41.5,0-57.3l-7.4-7.4
		C566.1,336.1,564.9,335.7,563.7,335.7z"/>
</g>
<g>
	<path d="M156.7,458.3c0.1,3.3-0.8,5.8-2.6,7.5c-1.8,1.7-4.3,2.5-7.7,2.4l-5.6-0.2l-0.4-20l6.1,0.2c3.1,0.1,5.6,1.1,7.3,2.8
		C155.7,452.7,156.6,455.2,156.7,458.3z M154.2,458.3c0-2.6-0.7-4.6-2.1-6c-1.3-1.4-3.3-2.1-5.9-2.2l-3.4-0.1l0.3,16l2.8,0.1
		c2.8,0.1,4.9-0.5,6.2-1.8C153.6,463,154.3,461,154.2,458.3z"/>
	<path d="M161.3,468.7l-0.4-20l2.3,0.1l0.4,20L161.3,468.7z"/>
	<path d="M180.4,464c0,1.8-0.6,3.1-1.8,4.1c-1.3,0.9-3,1.4-5.2,1.3c-2.4-0.1-4.2-0.5-5.5-1.1l0-2.2c0.8,0.4,1.7,0.7,2.7,0.9
		c1,0.2,1.9,0.4,2.9,0.4c1.6,0.1,2.7-0.2,3.5-0.8c0.8-0.6,1.2-1.4,1.1-2.4c0-0.7-0.2-1.3-0.4-1.7c-0.3-0.5-0.8-0.9-1.4-1.3
		c-0.7-0.4-1.7-0.9-3-1.4c-1.9-0.7-3.2-1.6-4-2.5s-1.2-2.1-1.3-3.6c0-1.5,0.5-2.8,1.7-3.6c1.1-0.9,2.7-1.3,4.6-1.2
		c2,0.1,3.8,0.5,5.5,1.3l-0.7,2c-1.7-0.8-3.3-1.2-4.8-1.2c-1.2,0-2.2,0.2-2.9,0.7c-0.7,0.5-1,1.2-1,2.2c0,0.7,0.1,1.3,0.4,1.7
		c0.3,0.5,0.7,0.9,1.3,1.3c0.6,0.4,1.6,0.8,2.8,1.3c2.1,0.8,3.6,1.7,4.4,2.6S180.4,462.6,180.4,464z"/>
	<path d="M186.9,469.5l-2.3-0.1l-0.4-20l11.2,0.4l0,2.1l-8.9-0.3l0.1,7.3l8.3,0.3l0,2.1l-8.3-0.3L186.9,469.5z"/>
	<path d="M201.3,461.7l0.1,8.3l-2.3-0.1l-0.4-20l5.5,0.2c2.5,0.1,4.3,0.6,5.5,1.6c1.2,1,1.8,2.4,1.8,4.3c0,2.7-1.3,4.4-3.9,5.2
		l5.6,9.2l-2.8-0.1l-5-8.5L201.3,461.7z M201.2,459.7l3.2,0.1c1.6,0.1,2.8-0.2,3.6-0.9c0.8-0.6,1.1-1.6,1.1-2.9
		c0-1.3-0.4-2.3-1.2-2.9c-0.8-0.6-2.1-0.9-3.8-1l-3-0.1L201.2,459.7z"/>
	<path d="M231.3,451l0.2,13c0,2.3-0.6,4.1-2,5.3c-1.4,1.3-3.2,1.8-5.7,1.8c-2.4-0.1-4.3-0.8-5.6-2.2c-1.3-1.4-2-3.2-2.1-5.5
		l-0.2-12.9l2.3,0.1l0.2,13.1c0,1.7,0.5,3,1.4,3.9c0.9,0.9,2.3,1.4,4.1,1.5c1.7,0.1,3-0.3,3.9-1.2c0.9-0.9,1.3-2.1,1.3-3.8l-0.2-13
		L231.3,451z"/>
	<path d="M243.1,471.5l-2.3-0.1l-0.3-18l-6.4-0.2l0-2.1l15,0.5l0,2.1l-6.4-0.2L243.1,471.5z"/>
	<path d="M265.1,472.2l-2.6-6.5l-8-0.3l-2.4,6.3l-2.4-0.1l7.6-19.8l2,0.1l8.2,20.4L265.1,472.2z M261.7,463.7l-2.4-6.3
		c-0.3-0.8-0.6-1.8-1-2.9c-0.2,0.9-0.5,1.8-0.8,2.9l-2.2,6.1L261.7,463.7z"/>
	<path d="M277.6,472.7l-0.4-20l2.3,0.1l0.3,17.9l8.9,0.3l0,2.1L277.6,472.7z"/>
	<path d="M309.4,463.7c0.1,3.2-0.7,5.7-2.3,7.5c-1.6,1.8-3.8,2.6-6.7,2.5c-3-0.1-5.3-1.1-6.9-2.9c-1.6-1.9-2.5-4.4-2.5-7.7
		c-0.1-3.3,0.7-5.8,2.3-7.5c1.6-1.7,3.8-2.6,6.8-2.5c2.9,0.1,5.1,1.1,6.8,3S309.3,460.5,309.4,463.7z M293.4,463.2
		c0,2.7,0.7,4.8,1.8,6.2c1.2,1.4,2.9,2.2,5.1,2.3c2.2,0.1,3.9-0.6,5-1.9c1.1-1.4,1.6-3.4,1.6-6.1c0-2.7-0.6-4.8-1.8-6.2
		c-1.2-1.4-2.8-2.2-5.1-2.3c-2.2-0.1-3.9,0.6-5,1.9C293.9,458.5,293.3,460.5,293.4,463.2z"/>
	<path d="M330.2,474.5l-7.1-18l-0.1,0c0.2,1.4,0.2,3.1,0.3,5l0.2,12.7l-2.2-0.1l-0.4-20l3.5,0.1l6.6,16.8l0.1,0l6.1-16.3l3.5,0.1
		l0.4,20l-2.3-0.1l-0.2-12.9c0-1.5,0-3.1,0.1-4.8l-0.1,0l-6.5,17.5L330.2,474.5z"/>
	<path d="M359.3,475.5l-2.6-6.5l-8-0.3l-2.4,6.3l-2.4-0.1l7.6-19.9l2,0.1l8.2,20.4L359.3,475.5z M355.9,466.9l-2.4-6.3
		c-0.3-0.8-0.6-1.8-1-2.9c-0.2,0.9-0.5,1.8-0.8,2.9l-2.2,6.1L355.9,466.9z M350.8,453.2c0.4-0.6,0.9-1.2,1.4-2
		c0.5-0.8,0.9-1.5,1.2-2.1l2.8,0.1l0,0.3c-0.4,0.6-1,1.3-1.8,2.1c-0.8,0.8-1.5,1.5-2,1.9l-1.5-0.1L350.8,453.2z"/>
	<path d="M375.7,470.7c0,1.8-0.6,3.1-1.8,4.1c-1.3,0.9-3,1.4-5.2,1.3c-2.4-0.1-4.2-0.5-5.5-1.1l0-2.2c0.8,0.4,1.7,0.7,2.7,0.9
		c1,0.2,1.9,0.4,2.9,0.4c1.6,0.1,2.7-0.2,3.5-0.8c0.8-0.6,1.2-1.4,1.1-2.4c0-0.7-0.2-1.3-0.4-1.7c-0.3-0.5-0.8-0.9-1.4-1.3
		c-0.7-0.4-1.7-0.9-3-1.4c-1.9-0.7-3.2-1.6-4-2.5c-0.8-0.9-1.2-2.1-1.3-3.6c0-1.5,0.5-2.8,1.7-3.6c1.1-0.9,2.7-1.3,4.6-1.2
		c2,0.1,3.8,0.5,5.5,1.3l-0.7,2c-1.7-0.8-3.3-1.2-4.8-1.2c-1.2,0-2.2,0.2-2.9,0.7c-0.7,0.5-1,1.2-1,2.2c0,0.7,0.2,1.3,0.4,1.7
		c0.3,0.5,0.7,0.9,1.3,1.3c0.6,0.4,1.6,0.8,2.8,1.3c2.1,0.8,3.6,1.7,4.4,2.6S375.7,469.4,375.7,470.7z"/>
	<path d="M386.8,456.4l5.7,0.2c2.7,0.1,4.6,0.6,5.8,1.4c1.2,0.8,1.8,2.1,1.9,3.8c0,1.2-0.3,2.2-0.9,2.9c-0.6,0.7-1.6,1.2-2.9,1.4
		l0,0.1c3.1,0.6,4.6,2.3,4.7,5c0,1.8-0.5,3.2-1.7,4.1c-1.2,1-2.9,1.4-5.1,1.3l-7-0.2L386.8,456.4z M389.3,465.1l3.8,0.1
		c1.6,0.1,2.8-0.2,3.5-0.7c0.7-0.5,1.1-1.3,1-2.6c0-1.1-0.4-1.9-1.3-2.5c-0.8-0.5-2.1-0.8-3.9-0.9l-3.4-0.1L389.3,465.1z M389.4,467
		l0.1,7.5l4.2,0.1c1.6,0.1,2.8-0.2,3.6-0.8s1.2-1.6,1.2-2.9c0-1.2-0.5-2.2-1.3-2.8c-0.8-0.6-2.1-1-3.8-1L389.4,467z"/>
	<path d="M418,477.5l-2.6-6.5l-8-0.3l-2.4,6.3l-2.4-0.1l7.6-19.9l2,0.1l8.2,20.4L418,477.5z M414.6,468.9l-2.4-6.3
		c-0.3-0.8-0.6-1.8-1-2.9c-0.2,0.9-0.5,1.8-0.8,2.9l-2.2,6.1L414.6,468.9z"/>
	<path d="M425.4,469.4l0.1,8.3l-2.3-0.1l-0.4-20l5.5,0.2c2.5,0.1,4.3,0.6,5.5,1.6c1.2,1,1.8,2.4,1.8,4.3c0,2.7-1.3,4.4-3.9,5.2
		l5.6,9.2l-2.8-0.1l-5-8.5L425.4,469.4z M425.3,467.4l3.2,0.1c1.6,0.1,2.8-0.2,3.6-0.9c0.8-0.6,1.1-1.6,1.1-2.9
		c0-1.3-0.4-2.3-1.2-2.9c-0.8-0.6-2.1-0.9-3.8-1l-3-0.1L425.3,467.4z"/>
	<path d="M453.2,478.7l-2.6-6.5l-8-0.3l-2.4,6.3l-2.4-0.1l7.6-19.8l2,0.1l8.2,20.4L453.2,478.7z M449.8,470.1l-2.4-6.3
		c-0.3-0.8-0.6-1.8-1-2.9c-0.2,0.9-0.5,1.8-0.8,2.9l-2.2,6.1L449.8,470.1z"/>
	<path d="M464.5,479.1l-2.3-0.1l-0.3-18l-6.4-0.2l0-2.1l15,0.5l0,2.1l-6.4-0.2L464.5,479.1z"/>
	<path d="M491.1,470c0.1,3.2-0.7,5.7-2.3,7.5c-1.6,1.8-3.8,2.6-6.7,2.5c-3-0.1-5.2-1.1-6.9-2.9s-2.5-4.4-2.5-7.7
		c-0.1-3.3,0.7-5.8,2.3-7.5c1.6-1.7,3.8-2.6,6.8-2.5c2.9,0.1,5.1,1.1,6.8,3C490.2,464.2,491.1,466.8,491.1,470z M475.1,469.4
		c0,2.7,0.7,4.8,1.8,6.2c1.2,1.4,2.9,2.2,5.1,2.3c2.2,0.1,3.9-0.6,5-1.9c1.1-1.4,1.6-3.4,1.6-6.1c0-2.7-0.6-4.8-1.8-6.2
		c-1.2-1.4-2.8-2.2-5.1-2.3c-2.2-0.1-3.9,0.6-5,1.9C475.6,464.7,475.1,466.8,475.1,469.4z"/>
	<path d="M518.9,470.8c0.1,3.3-0.8,5.8-2.6,7.5c-1.8,1.7-4.3,2.5-7.7,2.4l-5.6-0.2l-0.4-20l6.1,0.2c3.1,0.1,5.6,1.1,7.3,2.8
		S518.9,467.7,518.9,470.8z M516.4,470.8c0-2.6-0.7-4.6-2.1-6c-1.3-1.4-3.3-2.1-5.9-2.2l-3.4-0.1l0.3,16l2.8,0.1
		c2.8,0.1,4.9-0.5,6.2-1.8C515.8,475.5,516.5,473.5,516.4,470.8z"/>
	<path d="M534.7,481.5l-11.2-0.4l-0.4-20l11.2,0.4l0,2.1l-8.9-0.3l0.1,6.5l8.3,0.3l0,2.1l-8.3-0.3l0.1,7.4l8.9,0.3L534.7,481.5z"/>
	<path d="M539.2,481.7l-0.4-20l2.3,0.1l0.3,17.9l8.9,0.3l0,2.1L539.2,481.7z"/>
	<path d="M573.7,482.9l-2.6-6.5l-8-0.3l-2.4,6.3l-2.4-0.1l7.6-19.8l2,0.1l8.2,20.4L573.7,482.9z M570.3,474.3l-2.4-6.3
		c-0.3-0.8-0.6-1.8-1-2.9c-0.2,0.9-0.5,1.8-0.8,2.9l-2.2,6.1L570.3,474.3z"/>
	<path d="M594.5,483.6l-2.7-0.1l-11.3-17.2l-0.1,0c0.2,2,0.3,3.8,0.3,5.4l0.2,11.4l-2.2-0.1l-0.4-20l2.6,0.1l11.2,17.1l0.1,0
		c0-0.2-0.1-1-0.2-2.4c-0.1-1.3-0.1-2.3-0.1-2.9l-0.2-11.5l2.2,0.1L594.5,483.6z M588.5,461.7c-0.4,0-0.8-0.1-1.2-0.3
		c-0.4-0.2-0.7-0.4-1.1-0.6c-0.4-0.2-0.7-0.4-1.1-0.6c-0.3-0.2-0.7-0.3-1-0.3c-0.5,0-0.8,0.1-1,0.4c-0.2,0.3-0.4,0.7-0.5,1.2l-1.3,0
		c0.1-1.1,0.4-2,0.9-2.6c0.5-0.6,1.2-0.9,2-0.9c0.4,0,0.8,0.1,1.2,0.3c0.4,0.2,0.8,0.4,1.1,0.6s0.7,0.4,1,0.6
		c0.3,0.2,0.6,0.3,0.9,0.3c0.4,0,0.8-0.1,1-0.4c0.2-0.3,0.4-0.7,0.5-1.2l1.4,0c-0.1,1.1-0.4,2-0.9,2.6
		C590.1,461.5,589.4,461.8,588.5,461.7z"/>
	<path d="M617.3,474.4c0.1,3.2-0.7,5.7-2.3,7.5c-1.6,1.8-3.8,2.6-6.7,2.5c-3-0.1-5.2-1.1-6.9-2.9s-2.5-4.4-2.5-7.7
		c-0.1-3.3,0.7-5.8,2.3-7.5s3.8-2.6,6.8-2.5c2.9,0.1,5.1,1.1,6.8,3C616.4,468.6,617.2,471.1,617.3,474.4z M601.3,473.8
		c0,2.7,0.7,4.8,1.8,6.2c1.2,1.4,2.9,2.2,5.1,2.3c2.2,0.1,3.9-0.6,5-1.9c1.1-1.4,1.6-3.4,1.6-6.1c0-2.7-0.7-4.8-1.8-6.2
		c-1.2-1.4-2.8-2.2-5.1-2.3c-2.2-0.1-3.9,0.6-5,1.9C601.8,469.1,601.2,471.1,601.3,473.8z"/>
	<path d="M198.9,503.6l-11.2-0.4l-0.4-20l11.2,0.4l0,2.1l-8.9-0.3l0.1,6.5l8.3,0.3l0,2.1l-8.3-0.3l0.1,7.4l8.9,0.3L198.9,503.6z"/>
	<path d="M219,504.3l-2.7-0.1L205.1,487l-0.1,0c0.2,2,0.3,3.8,0.3,5.4l0.2,11.4l-2.2-0.1l-0.4-20l2.6,0.1l11.2,17.1l0.1,0
		c0-0.2-0.1-1-0.2-2.4s-0.1-2.3-0.1-2.9l-0.2-11.5l2.2,0.1L219,504.3z"/>
	<path d="M238,505l-2.3-0.1l-0.3-18l-6.4-0.2l0-2.1l15,0.5l0,2.1l-6.4-0.2L238,505z"/>
	<path d="M247.4,505.3l-0.4-20l2.3,0.1l0.4,20L247.4,505.3z"/>
	<path d="M266.4,505.9l-11.2-0.4l-0.4-20l11.2,0.4l0,2.1l-8.9-0.3l0.1,6.5l8.3,0.3l0,2.1l-8.3-0.3l0.1,7.4l8.9,0.3L266.4,505.9z"/>
	<path d="M286.5,506.6l-2.7-0.1l-11.3-17.2l-0.1,0c0.2,2,0.3,3.8,0.3,5.4l0.2,11.4l-2.2-0.1l-0.4-20l2.6,0.1l11.2,17.1l0.1,0
		c0-0.2-0.1-1-0.2-2.4c-0.1-1.3-0.1-2.3-0.1-2.9l-0.2-11.5l2.2,0.1L286.5,506.6z"/>
	<path d="M307.8,497.2c0.1,3.3-0.8,5.8-2.6,7.5c-1.8,1.7-4.3,2.5-7.7,2.4l-5.6-0.2l-0.4-20l6.1,0.2c3.1,0.1,5.6,1.1,7.3,2.8
		C306.9,491.6,307.8,494.1,307.8,497.2z M305.4,497.2c0-2.6-0.7-4.6-2.1-6c-1.3-1.4-3.3-2.1-5.9-2.2l-3.4-0.1l0.3,16l2.8,0.1
		c2.8,0.1,4.9-0.5,6.2-1.8C304.7,501.8,305.4,499.8,305.4,497.2z"/>
	<path d="M325.1,508l-2.6-6.5l-8-0.3l-2.4,6.3l-2.4-0.1l7.6-19.8l2,0.1l8.2,20.4L325.1,508z M321.7,499.4l-2.4-6.3
		c-0.3-0.8-0.6-1.8-1-2.9c-0.2,0.9-0.5,1.8-0.8,2.9l-2.2,6.1L321.7,499.4z"/>
	<path d="M339.9,508.5l-2.3-0.1l-0.4-20l11.2,0.4l0,2.1l-8.9-0.3l0.1,7.3l8.3,0.3l0,2.1l-8.3-0.3L339.9,508.5z"/>
	<path d="M351.4,486.9c0.4-0.6,0.9-1.2,1.4-2c0.5-0.8,0.9-1.5,1.2-2.1l2.8,0.1l0,0.3c-0.4,0.6-1,1.3-1.8,2.1c-0.8,0.8-1.5,1.5-2,1.9
		l-1.5-0.1L351.4,486.9z M352.1,508.9l-0.4-20l2.3,0.1l0.4,20L352.1,508.9z"/>
	<path d="M371.1,504.2c0,1.8-0.6,3.1-1.8,4.1c-1.3,0.9-3,1.4-5.2,1.3c-2.4-0.1-4.2-0.5-5.5-1.1l0-2.2c0.8,0.4,1.7,0.7,2.7,0.9
		c1,0.2,1.9,0.4,2.9,0.4c1.6,0.1,2.7-0.2,3.5-0.8c0.8-0.6,1.2-1.4,1.1-2.4c0-0.7-0.2-1.3-0.4-1.7s-0.8-0.9-1.4-1.3
		c-0.7-0.4-1.7-0.9-3-1.4c-1.9-0.7-3.2-1.6-4-2.5s-1.2-2.1-1.3-3.6c0-1.5,0.5-2.8,1.7-3.6c1.1-0.9,2.7-1.3,4.6-1.2
		c2,0.1,3.8,0.5,5.5,1.3l-0.7,2c-1.7-0.8-3.3-1.2-4.8-1.2c-1.2,0-2.2,0.2-2.9,0.7c-0.7,0.5-1,1.2-1,2.2c0,0.7,0.1,1.3,0.4,1.7
		s0.7,0.9,1.3,1.3c0.6,0.4,1.6,0.8,2.8,1.3c2.1,0.8,3.6,1.7,4.4,2.6S371.1,502.9,371.1,504.2z"/>
	<path d="M375.3,509.7l-0.4-20l2.3,0.1l0.4,20L375.3,509.7z"/>
	<path d="M391.4,492c-2.2-0.1-3.9,0.6-5.2,2c-1.3,1.4-1.9,3.4-1.8,6c0,2.6,0.7,4.7,2,6.1c1.3,1.5,3,2.2,5.3,2.3c1.4,0,3-0.1,4.8-0.6
		l0,2c-1.4,0.5-3.1,0.7-5.1,0.6c-3-0.1-5.2-1.1-6.9-2.9c-1.6-1.8-2.5-4.4-2.5-7.7c0-2.1,0.3-3.9,1.1-5.4c0.7-1.5,1.8-2.7,3.3-3.5
		c1.4-0.8,3.2-1.2,5.1-1.1c2.1,0.1,3.9,0.5,5.5,1.3l-1,2C394.5,492.5,392.9,492.1,391.4,492z"/>
	<path d="M413.5,511l-2.6-6.5l-8-0.3l-2.4,6.3l-2.4-0.1l7.6-19.8l2,0.1l8.2,20.4L413.5,511z M410.1,502.4l-2.4-6.3
		c-0.3-0.8-0.6-1.8-1-2.9c-0.2,0.9-0.5,1.8-0.8,2.9l-2.2,6.1L410.1,502.4z"/>
	<path d="M443.2,502c0.1,3.2-0.7,5.7-2.3,7.5s-3.8,2.6-6.7,2.5c-3-0.1-5.3-1.1-6.9-2.9c-1.6-1.9-2.5-4.4-2.5-7.7
		c-0.1-3.3,0.7-5.8,2.3-7.5c1.6-1.7,3.8-2.6,6.8-2.5c2.9,0.1,5.1,1.1,6.8,3S443.1,498.8,443.2,502z M427.2,501.5
		c0,2.7,0.7,4.8,1.8,6.2c1.2,1.4,2.9,2.2,5.1,2.3c2.2,0.1,3.9-0.6,5-1.9s1.6-3.4,1.6-6.1c0-2.7-0.6-4.8-1.8-6.2
		c-1.2-1.4-2.8-2.2-5.1-2.3c-2.2-0.1-3.9,0.6-5,1.9C427.7,496.8,427.2,498.8,427.2,501.5z"/>
	<path d="M466.3,512.9l-11.2-0.4l-0.4-20l11.2,0.4l0,2.1l-8.8-0.3l0.1,6.5l8.3,0.3l0,2.1l-8.3-0.3l0.1,7.4l8.9,0.3L466.3,512.9z"/>
	<path d="M486.5,513.5l-2.7-0.1l-11.3-17.2l-0.1,0c0.2,2,0.3,3.8,0.3,5.4l0.2,11.4l-2.2-0.1l-0.4-20l2.6,0.1l11.2,17.1l0.1,0
		c0-0.2-0.1-1-0.2-2.4c-0.1-1.3-0.1-2.3-0.1-2.9l-0.2-11.5l2.2,0.1L486.5,513.5z"/>
	<path d="M499.3,514l-0.4-20l2.3,0.1l0.3,17.9l8.9,0.3l0,2.1L499.3,514z"/>
	<path d="M513.2,492.5c0.4-0.6,0.9-1.2,1.4-2c0.5-0.8,0.9-1.5,1.2-2.1l2.8,0.1l0,0.3c-0.4,0.6-1,1.3-1.8,2.1s-1.5,1.5-2,1.9
		l-1.5-0.1L513.2,492.5z M513.9,514.5l-0.4-20l2.3,0.1l0.4,20L513.9,514.5z"/>
	<path d="M537.4,515.3l-2.7-0.1L523.4,498l-0.1,0c0.2,2,0.3,3.8,0.3,5.4l0.2,11.4l-2.2-0.1l-0.4-20l2.6,0.1l11.2,17.1l0.1,0
		c0-0.2-0.1-1-0.2-2.4c-0.1-1.3-0.1-2.3-0.1-2.9l-0.2-11.5l2.2,0.1L537.4,515.3z"/>
	<path d="M554.1,515.9l-11.2-0.4l-0.4-20l11.2,0.4l0,2.1l-8.8-0.3l0.1,6.5l8.3,0.3l0,2.1l-8.3-0.3l0.1,7.4l8.8,0.3L554.1,515.9z"/>
	<path d="M571.1,516.5l-2.6-6.5l-8-0.3l-2.4,6.3l-2.4-0.1l7.6-19.9l2,0.1l8.2,20.4L571.1,516.5z M567.7,507.9l-2.4-6.3
		c-0.3-0.8-0.6-1.8-1-2.9c-0.2,0.9-0.5,1.8-0.8,2.9l-2.2,6.1L567.7,507.9z"/>
</g>
<g>
	<path class="st1" d="M161.3,604h-4.9v-19.5c0-2.3,0.1-4.2,0.2-5.5c-0.3,0.3-0.7,0.7-1.2,1.1s-2,1.7-4.6,3.8l-2.4-3.1l8.9-7h4.1V604
		z"/>
	<path class="st1" d="M181.8,594.7v-4.1h10.6v4.1H181.8z"/>
	<path class="st1" d="M226.1,580.7c0,1.9-0.6,3.5-1.7,4.8c-1.1,1.3-2.7,2.1-4.7,2.6v0.2c2.4,0.3,4.2,1.1,5.5,2.3
		c1.2,1.2,1.8,2.8,1.8,4.8c0,2.9-1,5.1-3.1,6.7c-2.1,1.6-5,2.4-8.8,2.4c-3.3,0-6.2-0.5-8.5-1.6v-4.3c1.3,0.6,2.6,1.1,4.1,1.5
		c1.4,0.3,2.8,0.5,4.1,0.5c2.3,0,4.1-0.4,5.2-1.3c1.2-0.9,1.7-2.2,1.7-4c0-1.6-0.6-2.8-1.9-3.6c-1.3-0.8-3.3-1.1-6-1.1h-2.6v-3.9
		h2.7c4.8,0,7.2-1.7,7.2-5c0-1.3-0.4-2.3-1.3-3c-0.8-0.7-2.1-1.1-3.7-1.1c-1.1,0-2.2,0.2-3.3,0.5c-1.1,0.3-2.3,1-3.8,1.9l-2.4-3.4
		c2.8-2,6-3.1,9.6-3.1c3,0,5.4,0.7,7.1,2C225.3,576.6,226.1,578.4,226.1,580.7z"/>
	<path class="st1" d="M251.4,588.9c0,5.2-0.8,9.1-2.5,11.7s-4.3,3.8-7.7,3.8c-3.4,0-5.9-1.3-7.6-3.9c-1.7-2.6-2.6-6.5-2.6-11.6
		c0-5.3,0.8-9.3,2.5-11.8s4.3-3.8,7.7-3.8c3.4,0,5.9,1.3,7.7,4C250.6,579.9,251.4,583.8,251.4,588.9z M235.8,588.9
		c0,4.1,0.4,7.1,1.3,8.8c0.8,1.8,2.2,2.6,4.1,2.6c1.9,0,3.2-0.9,4.1-2.7c0.9-1.8,1.3-4.7,1.3-8.8c0-4-0.4-7-1.3-8.8
		s-2.2-2.7-4.1-2.7c-1.9,0-3.2,0.9-4.1,2.7S235.8,584.8,235.8,588.9z"/>
	<path class="st1" d="M292.8,588.6c0,5-1.4,8.8-4.2,11.4s-6.8,4-12,4h-8.5v-30.2h9.3c4.8,0,8.5,1.3,11.2,3.9
		C291.5,580.2,292.8,583.9,292.8,588.6z M287.6,588.8c0-7.2-3.4-10.8-10.1-10.8h-4.3v21.9h3.5C283.9,599.8,287.6,596.1,287.6,588.8z
		"/>
	<path class="st1" d="M316.4,604h-17.1v-30.2h17.1v4.2h-12.2v8.2h11.4v4.1h-11.4v9.5h12.2V604z"/>
	<path class="st1" d="M359.1,604H353l-14.9-24.1H338l0.1,1.3c0.2,2.6,0.3,4.9,0.3,7V604h-4.5v-30.2h6l14.8,23.9h0.1
		c0-0.3-0.1-1.5-0.2-3.5c-0.1-2-0.1-3.5-0.1-4.7v-15.8h4.5V604z"/>
	<path class="st1" d="M393.9,588.8c0,4.9-1.2,8.7-3.7,11.5s-5.9,4.1-10.4,4.1c-4.6,0-8.1-1.4-10.5-4.1s-3.7-6.6-3.7-11.5
		c0-5,1.2-8.8,3.7-11.5s6-4,10.5-4c4.5,0,8,1.4,10.4,4.1C392.6,580.1,393.9,583.9,393.9,588.8z M370.8,588.8c0,3.7,0.8,6.5,2.3,8.5
		c1.5,1.9,3.7,2.9,6.7,2.9c2.9,0,5.1-1,6.6-2.9c1.5-1.9,2.2-4.7,2.2-8.5c0-3.7-0.7-6.5-2.2-8.4c-1.5-1.9-3.7-2.9-6.6-2.9
		c-3,0-5.2,1-6.7,2.9S370.8,585.1,370.8,588.8z"/>
	<path class="st1" d="M417.6,573.8h5.1L412.1,604h-5.2l-10.5-30.2h5.1l6.3,18.8c0.3,0.9,0.7,2,1.1,3.5s0.6,2.5,0.7,3.2
		c0.2-1,0.5-2.3,0.8-3.6c0.4-1.4,0.7-2.4,0.9-3.1L417.6,573.8z"/>
	<path class="st1" d="M426.7,604v-30.2h4.9V604H426.7z"/>
	<path class="st1" d="M456.7,604h-17.1v-30.2h17.1v4.2h-12.2v8.2h11.4v4.1h-11.4v9.5h12.2V604z"/>
	<path class="st1" d="M476.3,604l-8.8-25.2h-0.2c0.2,3.7,0.4,7.3,0.4,10.5V604h-4.5v-30.2h7l8.4,24h0.1l8.6-24h7V604h-4.8V589
		c0-1.5,0-3.5,0.1-5.9c0.1-2.4,0.1-3.9,0.2-4.4h-0.2l-9.1,25.2H476.3z"/>
	<path class="st1" d="M502.3,573.8h9c4.2,0,7.2,0.6,9,1.8s2.8,3.1,2.8,5.7c0,1.8-0.5,3.2-1.4,4.4s-2.2,1.9-3.9,2.2v0.2
		c2.1,0.4,3.7,1.2,4.7,2.4c1,1.2,1.5,2.8,1.5,4.8c0,2.7-0.9,4.8-2.8,6.4c-1.9,1.5-4.5,2.3-7.9,2.3h-10.9V573.8z M507.2,586.3h4.8
		c2.1,0,3.6-0.3,4.5-1c1-0.7,1.4-1.8,1.4-3.3c0-1.4-0.5-2.4-1.5-3.1s-2.7-1-4.9-1h-4.3V586.3z M507.2,590.3v9.6h5.2
		c2.1,0,3.6-0.4,4.7-1.2c1.1-0.8,1.6-2,1.6-3.8c0-1.6-0.5-2.7-1.6-3.5c-1.1-0.8-2.7-1.1-4.9-1.1H507.2z"/>
	<path class="st1" d="M535.1,591.9V604h-4.9v-30.2h8.5c3.9,0,6.8,0.7,8.7,2.2c1.9,1.5,2.8,3.7,2.8,6.6c0,3.8-2,6.4-5.9,8l8.5,13.4
		h-5.6l-7.2-12.1H535.1z M535.1,587.8h3.4c2.3,0,4-0.4,5-1.3c1-0.9,1.5-2.1,1.5-3.8c0-1.7-0.6-2.9-1.7-3.7c-1.1-0.7-2.8-1.1-5-1.1
		h-3.3V587.8z"/>
	<path class="st1" d="M574.3,604h-17.1v-30.2h17.1v4.2h-12.2v8.2h11.4v4.1h-11.4v9.5h12.2V604z"/>
</g>
</svg>
